<svg width="85" height="150" viewBox="0 0 85 150" fill="none" xmlns="http://www.w3.org/2000/svg">
<path d="M21.4999 86.9C21.4999 86.9 25.1999 101.8 16.4999 110.7L16.9999 112C16.9999 112 23.9999 106.1 25.1999 100.8C26.4999 95.5 23.3999 89.6 22.7999 87.7L21.4999 86.9Z" fill="black"/>
<path d="M83.7999 40.0001C82.0999 39.2001 80.1999 40.9001 80.1999 40.9001C80.1999 41.4001 79.4999 41.9001 80.1999 42.2001C80.8998 42.5001 82.3999 41.0001 82.8999 42.3001C83.3999 43.6001 83.9999 45.6001 82.4999 49.4001C80.9999 53.1001 79.9999 53.5001 80.3999 57.6001C80.7999 61.6001 79.2999 64.8001 76.5999 64.6001C73.7999 64.4001 73.9999 66.3001 73.8999 66.7001C73.7999 67.1001 67.8999 82.7001 60.4999 87.7001C53.6999 92.3001 45.2999 92.8001 42.3999 92.9001C39.3999 92.8001 31.0999 92.3001 24.2999 87.7001C16.8999 82.7001 10.9999 67.1001 10.8999 66.7001C10.7999 66.3001 10.9999 64.4001 8.19985 64.6001C5.39985 64.8001 3.99986 61.7001 4.39986 57.6001C4.79986 53.6001 3.79986 53.2001 2.29986 49.4001C0.799855 45.6001 1.49986 43.5001 1.99986 42.2001C2.49986 40.9001 3.99986 42.4001 4.69986 42.1001C5.39986 41.8001 4.69986 41.3001 4.69986 40.8001C4.69986 40.8001 2.69986 39.1001 1.09986 39.9001C-0.600145 40.7001 -0.00014472 47.8001 1.69986 51.5001C3.39986 55.2001 2.89986 56.5001 3.19986 62.1001C3.49986 67.7001 6.49986 67.4001 7.49986 67.3001C8.49986 67.2001 9.29986 67.8001 9.29986 67.8001C9.29986 67.8001 9.99986 73.1001 18.9999 84.4001C26.1999 93.5001 38.0999 94.3001 42.3999 94.2001C46.6999 94.3001 58.5999 93.5001 65.7999 84.4001C74.6999 73.1001 75.5999 67.9001 75.5999 67.9001C75.5999 67.9001 76.3999 67.3001 77.3999 67.4001C78.3999 67.5001 81.3998 67.8001 81.6999 62.2001C81.9999 56.6001 81.4999 55.3001 83.1999 51.6001C84.8998 47.8001 85.4999 40.7001 83.7999 40.0001Z" fill="black"/>
<path d="M63.2999 86.9C63.2999 86.9 59.5999 101.8 68.2999 110.7L67.7999 112C67.7999 112 60.7999 106.1 59.4999 100.8C58.1999 95.5 61.2999 89.6 61.8999 87.7L63.2999 86.9Z" fill="black"/>
<path d="M41.1999 61C39.9999 61 38.8999 61.3 36.5999 63C34.1999 64.7 27.8999 68.2 18.0999 68C18.0999 68 15.8999 67.8 15.6999 69C15.4999 70.2 19.0999 72 22.4999 71.7C22.4999 71.7 24.0999 71.4 23.7999 72.2C23.4999 73 24.1999 75 28.6999 72.7C33.1999 70.3 32.8999 71.5 33.2999 72.2C33.6999 72.9 34.7999 72.9 36.6999 71.1C38.6999 69.3 39.3999 67.4 40.9999 67.4H41.0999C42.7999 67.4 43.4999 69.4 45.3999 71.1C47.3999 72.9 48.3999 72.9 48.7999 72.2C49.1999 71.5 48.8999 70.3 53.3999 72.7C57.8999 75.1 58.5999 73 58.2999 72.2C57.9999 71.4 59.5999 71.7 59.5999 71.7C62.8999 72.1 66.5999 70.2 66.3999 69C66.1999 67.8 63.9999 68 63.9999 68C54.2999 68.2 47.8999 64.7 45.4999 63C43.0999 61.3 42.0999 61 40.8999 61H41.1999Z" fill="black"/>
<path d="M74.3998 40C72.6998 38.5 70.2998 39.1 70.0998 38.9C61.2998 31.5 48.6998 36.1 47.9998 36.6C47.1998 37.1 45.3998 38.3 44.9998 37.1C44.5998 36 42.8998 35.8 42.5998 35.8C42.2998 35.8 40.5998 36 40.1998 37.1C39.7998 38.3 37.8998 37.2 37.1998 36.6C36.3998 36.1 23.8998 31.5 15.0998 38.9C14.8998 39.1 12.3998 38.5 10.7998 40C9.09984 41.5 11.3998 41.8 11.6998 41.7C11.9998 41.6 13.3998 40.9 13.6998 42.2C13.8998 43.5 13.0998 53.3 26.8998 52.9C40.6998 52.5 40.5998 45.9 40.6998 39.2C40.6998 39.2 41.0998 37.8 42.7998 37.8C44.4998 37.8 44.8998 39.2 44.8998 39.2C44.9998 45.9 44.7998 52.6 58.6998 52.9C72.4998 53.3 71.6998 43.5 71.8998 42.2C72.0998 40.9 73.5998 41.6 73.8998 41.7C73.7998 41.7 76.0998 41.4 74.3998 40ZM26.1998 52.3C14.8998 52.7 14.3998 43 17.0998 40.3C18.7998 38.7 21.4998 37.7 26.8998 37.7C32.2998 37.7 36.6998 38.5 37.1998 42C37.4998 45.4 37.1998 52 26.1998 52.3ZM58.6998 52.3C47.7998 52 47.3998 45.4 47.7998 42C48.1998 38.5 52.6998 37.7 58.0998 37.7C63.4998 37.7 66.1998 38.7 67.8998 40.3C70.4998 43 70.0998 52.7 58.6998 52.3Z" fill="black"/>
<path d="M53.8998 4.30003C53.8998 4.30003 47.8998 1.20003 42.0998 1.20003C36.3998 1.20003 31.1998 4.00003 30.6998 4.40003C30.6998 4.40003 28.9998 5.20003 30.0998 3.80003C31.1998 2.50003 37.4998 -0.19997 41.9998 3.02186e-05C47.2998 0.30003 53.4998 2.80003 54.3998 3.60003C55.2998 4.40003 54.3998 4.30003 53.8998 4.30003Z" fill="black"/>
<path d="M11.1999 64.3C11.1999 64.3 9.69985 62.6 9.49985 61.4C9.29985 60.2 10.7999 48 4.99985 43.8C4.99985 43.8 4.49985 41.6 4.89985 38.9C5.29985 36.2 2.59985 8.80002 26.3999 4.40002C26.3999 4.40002 28.8999 3.60002 29.0999 4.80002C29.2999 6.00002 24.5999 7.30002 21.1999 10.4C17.7999 13.5 17.8999 17.9 17.2999 20.9C16.6999 24 15.3999 26.5 13.0999 28.9C10.7999 31.3 9.09985 36.2 10.2999 46.3C11.4999 56.4 11.1999 64.3 11.1999 64.3Z" fill="white"/>
<path d="M73.9999 64.3C73.9999 64.3 75.4999 62.6 75.6999 61.4C75.8999 60.2 74.3999 48 80.1999 43.9C80.1999 43.9 80.6999 41.7 80.2999 39C79.8999 36.2 82.5999 8.90002 58.7999 4.40002C58.7999 4.40002 56.2999 3.60002 56.0999 4.80002C55.8999 6.00002 60.5999 7.30002 63.9999 10.4C67.3999 13.5 67.2999 17.9 67.8999 20.9C68.4999 24 69.7999 26.5 72.0999 28.9C74.3999 31.3 76.0999 36.2 74.8999 46.3C73.5999 56.4 73.9999 64.3 73.9999 64.3Z" fill="white"/>
<path d="M43.9998 123.4C46.5998 124.3 52.1998 125.7 54.9998 130.9C57.7998 136.1 58.5998 138.8 58.5998 138.8C58.5998 138.8 62.0998 131.1 66.7998 127.6C71.4998 124.1 76.7998 117.9 72.4998 112.7C68.0998 107.5 67.6998 108.3 67.6998 108.3C67.6998 108.3 67.2998 108.8 67.5998 109.2C67.9998 109.7 68.8998 115.8 45.1998 122.5C45.1998 122.5 43.3998 123.2 43.9998 123.4Z" fill="white"/>
<path d="M39.3999 123.4C36.7999 124.3 31.1999 125.7 28.3999 130.9C25.5999 136.1 24.7999 138.8 24.7999 138.8C24.7999 138.8 21.2999 131.1 16.5999 127.6C11.8999 124.1 6.59987 117.9 10.8999 112.7C15.1999 107.5 15.6999 108.3 15.6999 108.3C15.6999 108.3 16.0999 108.8 15.7999 109.2C15.3999 109.7 14.4999 115.8 38.1999 122.5C38.1999 122.5 39.8999 123.2 39.3999 123.4Z" fill="white"/>
<path d="M42.6999 136C42.6999 136 35.3999 136.9 34.9999 131C34.5999 125 42.1999 124.2 44.1999 125.7C46.0999 127.2 48.1999 128.5 46.8999 134.1C46.8999 134.1 46.7999 135.5 47.3999 137.4C47.9999 139.3 49.4999 143.5 49.6999 145.1C49.6999 145.1 46.5999 143.2 41.8999 145C37.1999 146.9 34.6999 148.7 33.8999 149.1C33.8999 149.1 33.2999 149.7 33.1999 148.6C33.0999 147.5 34.4999 141.5 34.8999 139.9C35.2999 138.2 36.2999 136.8 38.3999 136.9C40.4999 137 43.1999 137.3 43.7999 136.3C43.6999 136.5 43.6999 135.5 42.6999 136Z" fill="white"/>
</svg>
