<svg width="84" height="151" viewBox="0 0 84 151" fill="none" xmlns="http://www.w3.org/2000/svg">
<g clip-path="url(#clip0_24_21271)">
<path d="M12.7999 58.5C13.2999 59.1 13.0999 61 13.0999 61.8C13.2999 66.3 16.5999 68.6 23.4999 69C32.6999 69.6 33.5999 67.9 36.1999 66C38.7999 64 38.6999 57.8 38.6999 56.9C38.6999 56.1 39.8999 54.8 41.2999 55C42.4999 55.5 42.5999 56 42.5999 56.9C42.5999 57.8 42.4999 64 45.0999 66C47.6999 68 50.8999 69.5 57.8999 69C64.8999 68.5 68.1999 66.3 68.2999 61.8L68.4999 58.6C69.2999 58.6 70.1999 58.5 70.8999 58.2C71.3999 57.9 71.4999 58 71.2999 57.4C71.1999 57.1 70.8999 56.8 70.4999 56.7C69.8999 56.5 69.1999 56.8 68.4999 56.5C67.7999 56.2 67.2999 55.6 66.6999 55.1C65.7999 54.4 64.8999 53.9 63.8999 53.4C61.2999 52.1 58.2999 51.5 55.3999 51.7C46.6999 52.2 47.1999 52.8 44.6999 54.3C44.6999 54.3 43.0999 52 40.4999 52.6C38.4999 52.8 37.3999 54.6 37.3999 54.6C35.1999 53.3 34.4999 52.6 25.8999 51.7C16.5999 50.7 13.7999 55.7 13.7999 55.7C12.6999 55.9 9.69986 55.4 9.09986 56.6C8.29986 58.6 12.2999 57.8 12.7999 58.5ZM54.6999 54.7C60.3999 54.1 62.5999 55.7 63.4999 56C64.3999 56.3 67.1999 57.6 65.6999 63.1C64.1999 68.7 55.8999 68.3 51.4999 67.7C47.0999 67.1 45.8999 62.8 45.3999 60.4C44.5999 55.9 48.9999 55.3 54.6999 54.7ZM18.0999 56C18.9999 55.7 21.1999 54.1 26.8999 54.7C32.5999 55.3 36.9999 55.9 36.0999 60.4C35.5999 62.8 34.4999 67.1 29.9999 67.7C25.5999 68.3 17.2999 68.7 15.7999 63.1C14.3999 57.6 17.1999 56.3 18.0999 56Z" fill="black"/>
<path d="M76.6999 69.7C75.9999 67.7 75.8999 62.7 76.6999 58.8C76.6999 58.7 76.6999 58.6 76.7999 58.5L75.6999 60.7C75.0999 62.6 75.4999 67.2 75.3999 68.7C75.2999 70.2 73.8999 68.1 73.8999 68.1L74.1999 63.6C63.4999 95.7 46.9999 99.8 41.9999 100.3C40.9999 100.4 38.8999 100.3 38.8999 100.3C34.4999 100 17.2999 96.6 6.29988 63.7L6.59988 68.2C6.59988 68.2 5.19988 70.3 5.09988 68.8C4.99988 67.3 5.29988 62.7 4.79988 60.8L3.69988 58.6C3.69988 58.7 3.69988 58.8 3.79988 58.9C4.59988 62.8 4.49988 67.8 3.79988 69.8C3.09988 71.8 5.79988 73.6 7.49988 70.8C7.49988 70.8 16.8999 100.7 37.8999 102.4C39.6999 102.6 42.6999 102.4 42.6999 102.4C63.6999 100.8 73.0999 70.8 73.0999 70.8C74.6999 73.5 77.3999 71.7 76.6999 69.7Z" fill="black"/>
<path d="M25.3999 97.2001C26.1999 98.5001 28.7999 104.8 23.7999 117.4C23.7999 117.4 23.9999 118 24.9999 116.5C25.9999 115 29.1999 106.5 28.1999 99.7001C28.1999 99.7001 28.3999 99.2001 29.1999 99.6001L25.3999 97.2001Z" fill="black"/>
<path d="M54.9999 97.2001C54.1999 98.5001 51.5999 104.8 56.5999 117.4C56.5999 117.4 56.3999 118 55.3999 116.5C54.3999 115 51.1999 106.5 52.1999 99.7001C52.1999 99.7001 51.9999 99.2001 51.1999 99.6001L54.9999 97.2001Z" fill="black"/>
<path d="M42.1999 129.9C44.2999 130.6 48.5999 131.7 50.7999 135.8C52.9999 139.9 53.5999 142 53.5999 142C53.5999 142 56.3999 135.9 59.9999 133.2C63.6999 130.5 67.8999 125.6 64.3999 121.5C60.9999 117.4 60.5999 118 60.5999 118C60.5999 118 60.2999 118.4 60.5999 118.7C60.8999 119.1 61.5999 123.9 43.0999 129.2C43.0999 129.2 41.7999 129.8 42.1999 129.9Z" fill="white"/>
<path d="M38.5999 129.9C36.4999 130.6 32.1999 131.7 29.9999 135.8C27.7999 139.9 27.1999 142 27.1999 142C27.1999 142 24.3999 135.9 20.7999 133.2C17.0999 130.5 12.8999 125.6 16.3999 121.5C19.7999 117.4 20.1999 118 20.1999 118C20.1999 118 20.4999 118.4 20.1999 118.7C19.8999 119.1 19.1999 123.9 37.6999 129.2C37.6999 129.2 38.9999 129.8 38.5999 129.9Z" fill="white"/>
<path d="M41.1999 139.8C41.1999 139.8 35.4999 140.5 35.1999 135.8C34.8999 131.1 40.7999 130.5 42.3999 131.7C43.8999 132.9 45.4999 133.9 44.4999 138.4C44.4999 138.4 44.4999 139.5 44.8999 141C45.3999 142.5 46.5999 145.8 46.6999 147.1C46.6999 147.1 44.1999 145.6 40.5999 147.1C36.8999 148.6 34.9999 150 34.2999 150.4C34.2999 150.4 33.7999 150.9 33.7999 150C33.7999 149.2 34.7999 144.4 35.0999 143.1C35.3999 141.8 36.1999 140.7 37.7999 140.7C39.3999 140.7 41.5999 141 42.0999 140.2C41.9999 140.2 41.9999 139.4 41.1999 139.8Z" fill="white"/>
<path d="M77.2999 66.6C77.1999 67.8 87.7999 47.4 81.6999 31.1C75.5999 14.8 65.0999 5.90004 57.2999 10.2C57.2999 10.2 34.4999 -17.3 5.39987 17.8L10.0999 18.1C10.0999 18.1 -8.70013 33.7 4.99987 61C4.99987 61 6.49987 36.5 27.6999 34.8C27.6999 34.8 24.5999 40.8 20.1999 43C20.1999 43 41.8999 45.3 58.8999 24.5C58.8999 24.5 58.4999 35.5 65.5999 40.8C72.6999 46.3 77.8999 61.9 77.2999 66.6Z" fill="white"/>
</g>
<defs>
<clipPath id="clip0_24_21271">
<rect width="83.6" height="150.4" fill="white"/>
</clipPath>
</defs>
</svg>
