<svg width="115" height="201" viewBox="0 0 115 201" fill="none" xmlns="http://www.w3.org/2000/svg">
<g clip-path="url(#clip0_24_21258)">
<path d="M61.3065 172.477C61.3065 172.477 75.598 177.833 79.0707 186.805C79.0707 186.805 80.8071 192.162 82.8106 194.438C82.8106 194.438 87.0847 183.19 95.4993 178.637C103.914 174.084 108.722 166.451 106.585 162.166C104.448 157.881 99.1056 153.194 96.1671 151.721C96.1671 151.721 97.1021 159.622 87.3518 162.835C77.6015 166.049 66.6491 171.54 59.8373 171.941C59.8373 171.674 60.238 171.674 61.3065 172.477Z" fill="white"/>
<path d="M54.094 172.477C54.094 172.477 39.8024 177.833 36.3297 186.805C36.3297 186.805 34.5934 192.162 32.5899 194.438C32.5899 194.438 28.3158 183.19 19.9012 178.637C11.4865 174.084 6.67816 166.451 8.81521 162.166C10.9523 157.881 16.2949 153.194 19.2333 151.721C19.2333 151.721 18.2984 159.622 28.0487 162.835C37.799 166.049 48.7513 171.54 55.5632 171.941C55.5632 171.674 55.1625 171.674 54.094 172.477Z" fill="white"/>
<path d="M55.296 190.019C55.296 188.68 56.3646 187.609 57.7002 187.609C59.0359 187.609 60.1044 188.68 60.1044 190.019C60.1044 191.358 59.0359 192.43 57.7002 192.43C56.3646 192.43 55.296 191.358 55.296 190.019Z" fill="white"/>
<path d="M57.7002 185.868C58.5016 185.868 59.1694 186.136 59.7037 186.404L64.3785 179.708C62.5086 178.369 60.1044 177.7 57.5667 177.7C54.6282 177.7 51.9569 178.771 49.8199 180.646L55.1625 186.805C55.9639 186.27 56.7653 185.868 57.7002 185.868Z" fill="white"/>
<path d="M61.7072 189.751C61.7072 189.885 61.7072 189.885 61.7072 190.019C61.7072 191.626 60.7722 192.965 59.4366 193.635L63.31 200.866C67.1834 198.857 69.8547 194.706 69.8547 190.019C69.8547 189.618 69.7211 189.216 69.7211 188.948L61.7072 189.751Z" fill="white"/>
<path d="M53.6933 190.019H45.4122C45.4122 194.84 48.2171 198.857 52.224 200.866L56.4981 193.769C54.8953 193.367 53.6933 191.894 53.6933 190.019Z" fill="white"/>
<path d="M103.246 67.3571C102.445 66.018 96.1671 59.0546 94.6979 58.2512C93.2287 57.4477 84.9476 54.9034 78.5365 55.5729C72.1253 56.1086 67.1834 57.1799 63.31 58.6529C63.31 58.6529 60.9058 57.5816 58.5016 57.5816H58.3681H58.2345C55.8303 57.5816 53.4261 58.6529 53.4261 58.6529C49.5527 57.1799 44.6108 56.2425 38.1996 55.5729C31.7885 55.0373 23.5074 57.4477 22.0382 58.2512C20.569 59.0546 14.2914 66.018 13.49 67.3571C12.6886 68.6962 12.6886 70.1692 13.2229 70.8388C13.7571 71.5083 14.425 70.8388 14.425 70.8388C16.6956 68.1605 20.4354 66.1519 21.9046 65.4823C23.3739 64.8128 23.641 66.2858 23.641 66.2858C23.641 66.2858 23.641 68.6962 25.2438 75.1239C26.8466 81.5516 32.857 82.0873 38.8675 82.3551C44.8779 82.6229 49.152 80.2125 50.087 78.7395C51.0219 77.1326 54.7618 66.018 55.1625 64.2771C55.6967 62.5363 57.4331 62.4024 58.3681 62.4024C59.303 62.4024 61.0394 62.4024 61.5736 64.2771C62.1079 66.018 65.8477 77.2665 66.6491 78.7395C67.5841 80.3464 71.8582 82.6229 77.8686 82.3551C83.8791 82.0873 89.756 81.5516 91.4923 75.1239C93.0951 68.6962 93.0951 66.2858 93.0951 66.2858C93.0951 66.2858 93.2287 64.6789 94.8315 65.4823C96.3007 66.1519 100.041 68.1605 102.311 70.8388C102.311 70.8388 102.979 71.5083 103.513 70.8388C104.048 70.3031 103.914 68.6962 103.246 67.3571ZM52.0905 70.1692C51.2891 72.5796 49.152 77.4004 47.8164 78.7395C46.4807 80.0786 39.8024 81.8194 35.2612 80.7482C30.72 79.6769 27.9151 77.6682 27.1137 73.7848C26.3123 70.0353 25.9116 64.6789 26.1787 62.6702C26.4459 60.6615 30.1857 57.3138 39.4017 57.7155C48.6178 58.2512 52.3576 61.1972 52.6247 63.4737C53.0254 65.0806 52.8919 67.7588 52.0905 70.1692ZM89.6224 73.7848C88.821 77.5343 86.0161 79.6769 81.4749 80.7482C76.9337 81.8194 70.2554 79.9447 68.9197 78.7395C67.5841 77.4004 65.447 72.7135 64.6456 70.1692C63.8442 67.7588 63.7107 65.2145 63.9778 63.6076C64.3785 61.3311 67.9848 58.2512 77.2008 57.8494C86.4168 57.3138 90.1567 60.6616 90.4238 62.8041C90.8245 64.6789 90.4238 70.0353 89.6224 73.7848Z" fill="black"/>
<path d="M97.1021 105.522C95.4993 107.53 89.756 110.342 85.4819 105.923C81.2078 101.504 83.8791 101.638 84.5469 101.504C85.2147 101.236 85.749 100.299 85.749 100.299C85.749 100.299 79.7386 97.2191 78.4029 96.1479C77.0672 95.0766 65.8477 89.8541 56.8988 96.6835C56.8988 96.6835 47.4157 90.3897 39.1346 94.5409C30.8535 98.6922 29.785 99.2278 28.3158 99.7634C28.3158 99.7634 27.9151 100.835 29.1172 101.236C30.3193 101.638 30.8535 103.513 29.5179 104.986C28.0487 106.459 21.1032 111.28 16.562 102.843L12.2879 94.8088C11.4865 106.995 15.8942 115.699 18.0312 120.921C18.0312 120.921 25.2438 127.751 26.9801 132.17C28.7165 136.589 39.8024 145.561 57.2995 144.49C74.7966 143.284 82.8106 138.33 86.684 131.902C90.5574 125.474 96.4342 120.386 96.4342 120.386C96.4342 120.386 102.044 111.548 103.647 93.6036C103.513 93.6036 98.7049 103.379 97.1021 105.522ZM76.8001 112.217C75.9987 112.753 71.9917 116.636 65.1799 113.824C58.7687 111.146 58.5016 111.548 56.8988 111.548H56.7653H56.6317C55.0289 111.548 54.7618 111.146 48.3506 113.824C41.5388 116.636 37.5318 112.753 36.7304 112.217C35.929 111.682 32.857 107.396 36.9976 109.673C41.0045 111.949 43.8094 111.146 48.6178 109.003C53.2926 106.861 56.7653 107.262 56.7653 107.262H56.8988C56.8988 107.262 60.3715 106.861 65.0463 109.003C69.7211 111.146 72.6596 111.949 76.6665 109.673C80.6735 107.396 77.6015 111.682 76.8001 112.217Z" fill="black"/>
<path d="M101.777 102.977C103.38 102.71 105.116 100.835 106.051 100.165C106.986 99.4956 109.39 97.7548 109.924 95.4783C110.459 93.0679 110.592 93.0679 110.058 89.988C109.524 86.908 111.794 81.6855 112.596 79.1412C113.397 76.5969 113.798 78.0699 114.065 78.7395C114.198 79.5429 113.931 81.9533 113.13 83.962C112.329 85.8368 110.993 85.1672 112.061 89.5863C113.13 94.0053 113.531 97.6209 111.527 99.6296C109.524 101.638 103.78 104.183 101.243 104.45C98.4377 104.584 101.777 102.977 101.777 102.977Z" fill="black"/>
<path d="M13.2229 102.977C11.6201 102.709 9.88373 100.835 8.94877 100.165C8.01381 99.3617 5.60963 97.7548 5.07537 95.3444C4.54111 92.934 4.40754 92.934 4.9418 89.8541C5.47607 86.7741 3.20545 81.5516 2.40406 79.0073C1.60266 76.463 1.20197 77.936 0.934836 78.6056C0.80127 79.409 1.0684 81.8194 1.8698 83.8281C2.67119 85.7028 4.00685 85.0333 2.93832 89.4523C1.8698 93.8714 1.4691 97.487 3.47258 99.4956C5.47607 101.504 11.2194 104.049 13.7571 104.316C16.562 104.584 13.2229 102.977 13.2229 102.977Z" fill="black"/>
<path d="M102.712 88.9167C102.712 88.9167 103.513 82.6229 105.784 78.7395C108.054 74.8561 111.394 73.7848 111.928 76.7308C111.928 76.7308 112.729 76.5969 112.996 75.1239C113.397 73.6509 118.205 55.8408 111.661 40.8428C105.116 25.7108 98.5713 21.1579 92.1602 23.4344C92.1602 23.4344 89.756 -2.14259 53.2926 0.267805C53.2926 0.267805 59.4366 4.15122 61.5736 7.49898C61.5736 7.49898 25.2438 -2.41041 9.21591 26.1126C9.21591 26.1126 10.6851 27.5856 14.0243 27.3178C14.0243 27.3178 15.3599 27.0499 13.8907 29.0586C12.2879 31.0673 -3.87353 52.0912 0.934836 75.1239C0.934836 75.1239 8.41451 62.1346 11.7537 86.1046C11.7537 86.1046 10.6851 54.0999 19.2333 42.1819C26.0452 32.5403 31.2542 35.0846 34.9941 36.2898C38.7339 37.495 52.7583 38.968 57.7002 39.1019C62.6422 39.2358 78.2693 38.2985 86.9511 32.2725C86.9511 32.2725 89.756 38.8341 93.8965 42.3158C98.037 45.7974 104.048 49.1452 104.849 63.4737C105.65 77.8021 100.842 82.0872 102.044 90.3897C101.91 90.3897 102.311 90.1219 102.712 88.9167Z" fill="white"/>
</g>
<defs>
<clipPath id="clip0_24_21258">
<rect width="115" height="201" fill="white"/>
</clipPath>
</defs>
</svg>
