<svg style="display: none;" aria-hidden="true" xmlns="http://www.w3.org/2000/svg" xmlns:xlink="http://www.w3.org/1999/xlink"><symbol viewBox="0 0 14 9" fill="none" id="svg-arrow" xmlns="http://www.w3.org/2000/svg">
<path d="M13 1L7 7L1 1" stroke="black" stroke-width="2"/>
</symbol><symbol viewBox="0 0 36 27" fill="none" id="svg-cart" xmlns="http://www.w3.org/2000/svg">
<path d="M0 1.27861L2.47198 0.653512L4.94396 0.0568272L5.14286 0L5.2281 0.198895C6.10892 2.41515 6.96133 4.65983 7.84215 6.87609L10.3994 13.5817L9.60379 13.1555C12.2178 12.4736 14.8887 11.9621 17.5596 11.6496C18.895 11.4791 20.2589 11.3938 21.5943 11.3086C22.9582 11.2518 24.2936 11.2234 25.6575 11.2518L24.9187 11.5927C25.5722 10.7403 26.2257 9.91634 26.9361 9.09235C27.618 8.26835 28.3283 7.44436 29.0387 6.64878C30.4594 5.0292 31.9084 3.46646 33.4144 1.93212L33.869 3.58011C29.9195 2.52881 25.8564 2.01736 21.7932 2.1026C19.7758 2.13102 17.7301 2.3015 15.7411 2.61405L14.974 2.7277L14.2068 2.86977C13.6953 2.95501 13.2123 3.06867 12.7009 3.18232C12.1894 3.29598 11.7064 3.40963 11.2234 3.5517L10.854 3.63694C10.7403 3.66535 10.5983 3.69377 10.5414 3.72218C10.4562 3.75059 10.4562 3.77901 10.4562 3.75059C10.4846 3.75059 10.513 3.69377 10.513 3.69377C10.4846 3.72218 10.4846 3.94949 10.513 4.20521L10.5699 4.97238C10.6267 5.48382 10.6551 5.99527 10.7119 6.50671C10.7687 7.01815 10.8256 7.5296 10.9108 8.04104L11.0245 8.80821C11.0529 9.06393 11.1097 9.34807 11.1381 9.51855C11.1665 9.71744 11.2518 9.8311 11.2802 9.85951C11.2802 9.85951 11.3086 9.88793 11.3654 9.91634C11.4223 9.94475 11.5075 9.94475 11.6212 9.94475C11.7348 9.94475 11.8485 9.94475 11.9905 9.94475H12.3883L13.1555 9.91634C14.1784 9.88793 15.2297 9.8311 16.2526 9.80268C17.2755 9.77427 18.3268 9.71744 19.3496 9.66062L20.9124 9.57538C21.4238 9.54696 21.9353 9.51855 22.4183 9.43331C22.9013 9.34807 23.356 9.17759 23.7822 8.92186C24.2084 8.66614 24.6062 8.35359 24.9471 7.98422C25.6575 7.24546 26.2257 6.36464 26.794 5.51223C26.3394 6.44988 25.8564 7.35912 25.1744 8.18311C24.8335 8.5809 24.4641 8.97869 24.0095 9.29124C23.5549 9.60379 23.0434 9.8311 22.532 9.97317C21.9921 10.1152 21.4807 10.1721 20.9692 10.2289L19.4349 10.4278C18.412 10.5414 17.3607 10.6835 16.3378 10.7972C15.3149 10.9108 14.2636 10.9961 13.2407 11.0813H12.4451L12.0474 11.1097C11.9053 11.1097 11.7916 11.1381 11.6496 11.1381C11.5075 11.1381 11.3086 11.1381 11.1097 11.1097C10.9108 11.0813 10.6835 10.9961 10.4846 10.8256C10.2857 10.6835 10.1436 10.4846 10.0584 10.3141C9.97317 10.1436 9.91634 9.97317 9.85951 9.8311C9.77427 9.51855 9.74586 9.29124 9.68903 9.03552L9.54696 8.23994C9.46172 7.72849 9.37648 7.21705 9.29124 6.67719C9.206 6.16575 9.14917 5.62589 9.06393 5.11444L8.97869 4.31886C8.97869 4.1768 8.95028 4.06314 8.95028 3.89266C8.95028 3.72218 8.95028 3.52328 9.0071 3.29598C9.06393 3.06867 9.206 2.75612 9.43331 2.58564C9.6322 2.38674 9.85951 2.3015 10.03 2.21626C10.2005 2.15943 10.3425 2.1026 10.4562 2.07419L10.7972 1.98895C11.3086 1.84688 11.82 1.6764 12.3315 1.56275C12.8429 1.42068 13.3544 1.30702 13.8658 1.19337L14.633 1.02289L15.4002 0.880821C17.5028 0.511444 19.6338 0.284136 21.7364 0.227309C25.97 0.113654 30.232 0.568272 34.3236 1.64799L35.9716 2.07419L34.7782 3.29598C33.3007 4.8019 31.8516 6.33623 30.4594 7.89897C29.749 8.69456 29.0671 9.49014 28.3852 10.2857C27.7032 11.0813 27.0213 11.9053 26.3678 12.7293L26.0837 13.0987L25.6006 13.0702C24.2936 13.0134 22.9582 13.0134 21.6511 13.0418C20.3441 13.0702 19.0087 13.1555 17.7017 13.2691C15.0876 13.4965 12.4736 13.8942 9.88792 14.4341L9.26283 14.5762L9.09234 14.0079L6.9045 7.18864C6.19416 4.91555 5.45541 2.64246 4.77348 0.340963L5.0292 0.483031L2.52881 0.909235L0 1.27861Z" fill="#FFCC08"/>
<path d="M9.4333 20.2022C9.31964 20.5147 9.46171 20.8273 9.66061 21.0262C9.88791 21.1967 10.172 21.2819 10.4562 21.2819C11.0529 21.3103 11.6496 21.1683 11.9905 20.8273C12.161 20.6568 12.2462 20.4863 12.2747 20.2874C12.3031 20.0885 12.2747 19.8612 12.1894 19.6623C12.161 19.5487 12.1042 19.4634 12.0189 19.3782C11.9621 19.293 11.8769 19.2361 11.7916 19.1509C11.6211 19.0088 11.4222 18.8952 11.1949 18.8383C10.2573 18.5258 9.17757 18.8668 8.43882 19.5203C8.23993 19.6907 8.09786 19.8896 7.95579 20.0885C7.81372 20.2874 7.70007 20.5147 7.61483 20.7421C7.44435 21.1967 7.41593 21.6513 7.50117 22.1059C7.67165 23.0436 8.38199 23.9244 9.2344 24.1801C9.66061 24.3222 10.2289 24.3222 10.7403 24.2653C11.2518 24.1801 11.7916 23.9812 12.2747 23.7255C13.2407 23.1572 14.0079 22.248 14.3204 21.1114C14.633 19.9749 14.5477 18.6679 13.9795 17.4745C14.9171 18.4121 15.4001 19.8612 15.2865 21.2819C15.2581 21.6513 15.1728 21.9922 15.0876 22.3616C14.9739 22.7026 14.8319 23.0436 14.633 23.3845C14.2636 24.038 13.7522 24.6063 13.1555 25.0609C12.5588 25.5155 11.8769 25.8565 11.1097 26.027C10.3709 26.1975 9.57536 26.2543 8.75137 26.0554C7.92738 25.8281 7.18862 25.3451 6.64877 24.7484C6.10891 24.1233 5.73953 23.3845 5.56905 22.5605C5.39857 21.7649 5.48381 20.8557 5.79636 20.0885C5.93843 19.6907 6.16574 19.3498 6.39304 19.0088C6.64877 18.6963 6.90449 18.3837 7.24545 18.1564C7.558 17.9007 7.89896 17.7018 8.26834 17.5313C8.63772 17.3608 9.00709 17.2472 9.40488 17.1619C10.2005 17.0199 11.0529 17.1051 11.7916 17.4461C12.161 17.6166 12.5304 17.8723 12.8145 18.1848C12.9566 18.3553 13.0986 18.5258 13.2123 18.7247C13.326 18.9236 13.3828 19.1225 13.4396 19.3498C13.5249 19.776 13.5249 20.2306 13.3828 20.6568C13.2407 21.083 12.9282 21.4524 12.5588 21.6797C12.1894 21.907 11.7916 21.9923 11.4222 22.0207C11.0529 22.0491 10.6835 21.9923 10.3425 21.8786C10.0016 21.7649 9.63219 21.5945 9.4333 21.2819C9.2344 20.8841 9.20599 20.4579 9.4333 20.2022Z" fill="#FFCC08"/>
<path d="M25.8564 18.98C25.7427 19.2926 25.8848 19.6051 26.0837 19.804C26.311 19.9745 26.5951 20.0597 26.8793 20.0597C27.4759 20.0882 28.0726 19.9461 28.4136 19.6051C28.5841 19.4346 28.6693 19.2642 28.6977 19.0653C28.7261 18.8664 28.6977 18.6391 28.6125 18.4402C28.5841 18.3265 28.5272 18.2413 28.442 18.156C28.3852 18.0708 28.2999 18.014 28.2147 17.9287C28.0442 17.7867 27.8453 17.673 27.618 17.6162C26.6804 17.3036 25.6006 17.6446 24.8619 18.2981C24.663 18.4686 24.5209 18.6675 24.3789 18.8664C24.2368 19.0653 24.1231 19.2926 24.0379 19.5199C23.8674 19.9745 23.839 20.4291 23.9242 20.8837C24.0947 21.8214 24.8051 22.7022 25.6575 22.9579C26.0837 23.1 26.6519 23.1 27.1634 23.0432C27.6748 22.9579 28.2147 22.759 28.6977 22.5033C29.6638 21.935 30.4309 21.0258 30.7435 19.8893C31.056 18.7527 30.9708 17.4457 30.4025 16.2523C31.3402 17.19 31.8232 18.6391 31.7096 20.0597C31.6811 20.4291 31.5959 20.7701 31.5107 21.1395C31.397 21.4804 31.2549 21.8214 31.056 22.1623C30.6867 22.8159 30.1752 23.3841 29.5785 23.8388C28.9819 24.2934 28.2999 24.6343 27.5328 24.8048C26.794 24.9753 25.9984 25.0321 25.1744 24.8332C24.3504 24.6059 23.6117 24.1229 23.0718 23.5262C22.532 22.9011 22.1626 22.1623 21.9921 21.3384C21.8216 20.5428 21.9069 19.6335 22.2194 18.8664C22.3615 18.4686 22.5888 18.1276 22.8161 17.7867C23.0718 17.4741 23.3276 17.1616 23.6685 16.9343C23.9811 16.6785 24.322 16.4796 24.6914 16.3092C25.0608 16.1387 25.4302 16.025 25.8279 15.9398C26.6235 15.7977 27.4759 15.8829 28.2147 16.2239C28.5841 16.3944 28.9534 16.6501 29.2376 16.9627C29.3796 17.1331 29.5217 17.3036 29.6354 17.5025C29.749 17.7014 29.8058 17.9003 29.8627 18.1276C29.9479 18.5538 29.9479 19.0084 29.8058 19.4346C29.6638 19.8608 29.3512 20.2302 28.9819 20.4575C28.6125 20.6848 28.2147 20.7701 27.8453 20.7985C27.4759 20.8269 27.1066 20.7701 26.7656 20.6564C26.4246 20.5428 26.0553 20.3723 25.8564 20.0597C25.6575 19.6904 25.6291 19.2358 25.8564 18.98Z" fill="#FFCC08"/>
</symbol><symbol viewBox="0 0 18 14" fill="none" id="svg-email" xmlns="http://www.w3.org/2000/svg">
<path fill-rule="evenodd" clip-rule="evenodd" d="M0.87868 0.87868C0 1.75736 0 3.17157 0 6V8C0 10.8284 0 12.2426 0.87868 13.1213C1.75736 14 3.17157 14 6 14H12C14.8284 14 16.2426 14 17.1213 13.1213C18 12.2426 18 10.8284 18 8V6C18 3.17157 18 1.75736 17.1213 0.87868C16.2426 0 14.8284 0 12 0H6C3.17157 0 1.75736 0 0.87868 0.87868ZM3.5547 3.16795C3.09517 2.8616 2.4743 2.98577 2.16795 3.4453C1.8616 3.90483 1.98577 4.5257 2.4453 4.83205L7.8906 8.46225C8.5624 8.91012 9.4376 8.91012 10.1094 8.46225L15.5547 4.83205C16.0142 4.5257 16.1384 3.90483 15.8321 3.4453C15.5257 2.98577 14.9048 2.8616 14.4453 3.16795L9 6.79815L3.5547 3.16795Z" fill="black"/>
</symbol><symbol viewBox="0 0 14 25" fill="none" id="svg-facebook" xmlns="http://www.w3.org/2000/svg">
<path d="M0.12439 13.5775C0.12439 12.2866 0.12439 10.9958 0.12439 9.70957C0.298072 9.24016 0.363786 9.18852 0.866056 9.18852C1.54201 9.18852 2.21327 9.18852 2.88922 9.18852C3.17087 9.18852 3.44782 9.18852 3.75294 9.18852C3.75294 9.03831 3.75294 8.92096 3.75294 8.8036C3.77171 7.6911 3.73416 6.5739 3.83274 5.46609C3.96418 3.99213 4.57441 2.72003 5.74794 1.76712C6.70554 0.992595 7.83212 0.617066 9.0479 0.570125C10.1698 0.523184 11.2964 0.551348 12.4183 0.551348C12.9393 0.551348 13.0848 0.696866 13.0848 1.21322C13.0895 2.29756 13.0848 3.3819 13.0848 4.46624C13.0848 5.02015 12.9534 5.15628 12.3948 5.16566C11.5921 5.17975 10.7941 5.17975 9.99142 5.19852C9.26852 5.2126 8.87422 5.54589 8.84136 6.2547C8.80381 7.18883 8.83197 8.12765 8.83197 9.06647C8.83197 9.08056 8.85544 9.09464 8.88361 9.1275C8.97749 9.1275 9.08076 9.1275 9.18872 9.1275C10.2167 9.1275 11.2401 9.1228 12.2681 9.1275C12.7985 9.13219 12.9675 9.30118 12.9675 9.83631C12.9722 11.0286 12.9722 12.2209 12.9675 13.4132C12.9675 13.8967 12.822 14.0469 12.3385 14.0469C11.2823 14.0516 10.2261 14.0516 9.16995 14.0516C9.06668 14.0516 8.95871 14.0516 8.82258 14.0516C8.82258 14.1971 8.82258 14.3098 8.82258 14.4272C8.82258 17.5253 8.82258 20.6234 8.82258 23.7215C8.82258 24.0783 8.80381 24.4115 8.39072 24.543C6.98249 24.543 5.57425 24.543 4.17071 24.543C3.81866 24.4162 3.74824 24.144 3.75294 23.8013C3.75763 20.6844 3.75763 17.5722 3.75763 14.4553C3.75763 14.3427 3.75763 14.2253 3.75763 14.0892C3.61211 14.0892 3.50884 14.0892 3.40088 14.0892C2.56063 14.0892 1.72039 14.0892 0.880141 14.0892C0.373177 14.0845 0.293378 14.0282 0.12439 13.5775Z" fill="#010101"/>
</symbol><symbol viewBox="0 0 25 25" fill="none" id="svg-instagram" xmlns="http://www.w3.org/2000/svg">
<path d="M0.0621948 18.4299C0.0621948 14.4927 0.0621948 10.5555 0.0621948 6.61832C0.0993383 6.37424 0.125872 6.12484 0.18424 5.88076C0.794455 3.19051 2.42346 1.46599 5.08188 0.717814C5.43209 0.622302 5.79821 0.585159 6.15903 0.521484C10.0962 0.521484 14.0335 0.521484 17.9707 0.521484C18.2147 0.558628 18.4641 0.585159 18.7029 0.643527C21.3932 1.25374 23.1177 2.88275 23.8659 5.54116C23.9614 5.89137 23.9985 6.2575 24.0622 6.61832C24.0622 10.5555 24.0622 14.4927 24.0622 18.4299C24.0251 18.674 23.9985 18.9234 23.9401 19.1675C23.3299 21.8578 21.7009 23.5823 19.0425 24.3305C18.6923 24.426 18.3262 24.4631 17.9654 24.5268C14.0281 24.5268 10.0909 24.5268 6.15373 24.5268C5.90964 24.4896 5.66025 24.4631 5.42147 24.4047C2.73122 23.7945 1.0067 22.1655 0.258529 19.5071C0.163017 19.1569 0.125869 18.7908 0.0621948 18.4299ZM18.6392 12.5135C18.618 8.87877 15.6837 5.94974 12.0649 5.94443C8.4354 5.94443 5.46392 8.92122 5.48515 12.5347C5.50637 16.1695 8.44071 19.0985 12.0595 19.1038C15.689 19.1038 18.6605 16.1271 18.6392 12.5135ZM19.0691 3.55664C17.9919 3.5248 17.0633 4.40033 17.0421 5.51463C17.0262 6.57587 17.8168 7.50976 19.0001 7.5416C20.0931 7.56813 20.9952 6.71383 21.027 5.58361C21.0642 4.50114 20.1887 3.58847 19.0691 3.55664Z" fill="#010101"/>
<path d="M12.0489 17.6819C9.19419 17.6713 6.88068 15.3419 6.90191 12.4978C6.92313 9.64834 9.23664 7.35075 12.0755 7.36136C14.9302 7.37198 17.2437 9.7014 17.2225 12.5455C17.2013 15.4003 14.8878 17.6926 12.0489 17.6819Z" fill="#010101"/>
<path d="M19.0478 4.97322C19.3662 4.97853 19.6209 5.24384 19.6156 5.56221C19.6103 5.86467 19.345 6.12467 19.0425 6.12998C18.7348 6.12998 18.4588 5.85405 18.4588 5.54629C18.4588 5.23323 18.7294 4.96792 19.0478 4.97322Z" fill="#010101"/>
</symbol><symbol viewBox="0 0 18 18" fill="none" id="svg-phone" xmlns="http://www.w3.org/2000/svg">
<path d="M2.67962 1.32038L3.29289 0.707107C3.68342 0.316583 4.31658 0.316582 4.70711 0.707106L7.29289 3.29289C7.68342 3.68342 7.68342 4.31658 7.29289 4.70711L5.50048 6.49952C5.2016 6.7984 5.1275 7.255 5.31653 7.63307C6.40929 9.81858 8.18142 11.5907 10.3669 12.6835C10.745 12.8725 11.2016 12.7984 11.5005 12.4995L13.2929 10.7071C13.6834 10.3166 14.3166 10.3166 14.7071 10.7071L17.2929 13.2929C17.6834 13.6834 17.6834 14.3166 17.2929 14.7071L16.6796 15.3204C14.5683 17.4317 11.2257 17.6693 8.83698 15.8777L7.62857 14.9714C5.88504 13.6638 4.33622 12.115 3.02857 10.3714L2.12226 9.16302C0.330722 6.7743 0.568269 3.43173 2.67962 1.32038Z" fill="black"/>
</symbol><symbol viewBox="0 0 36 36" fill="none" id="svg-sound_max" xmlns="http://www.w3.org/2000/svg">
<path d="M6.23757 20.8959C5.16806 19.1134 5.16806 16.8866 6.23757 15.1041C6.56393 14.5601 7.10462 14.1791 7.72665 14.0547L10.2662 13.5468C10.4175 13.5165 10.5539 13.4354 10.6526 13.3168L15.1708 7.89499C16.3534 6.47592 16.9447 5.76638 17.4723 5.95742C18 6.14846 18 7.07207 18 8.91928L18 27.0807C18 28.9279 18 29.8515 17.4723 30.0426C16.9447 30.2336 16.3534 29.5241 15.1708 28.105L10.6526 22.6832C10.5539 22.5646 10.4175 22.4835 10.2662 22.4532L7.72665 21.9453C7.10462 21.8209 6.56394 21.4399 6.23757 20.8959Z" fill="white"/>
<path d="M21.8033 12.6967C23.2026 14.096 23.9921 15.9916 23.9999 17.9705C24.0077 19.9493 23.2331 21.8511 21.8449 23.2614" stroke="white" stroke-width="2" stroke-linecap="round"/>
<path d="M27.9853 9.51472C30.2241 11.7536 31.4874 14.7865 31.4999 17.9527C31.5124 21.1189 30.273 24.1617 28.0519 26.4182" stroke="white" stroke-width="2" stroke-linecap="round"/>
</symbol><symbol viewBox="0 0 25 21"  id="svg-telegram" xmlns="http://www.w3.org/2000/svg">
<path d="M0.0621948 9.63203C0.263909 9.21922 0.6345 8.99874 1.03793 8.83925C2.64695 8.21534 4.25596 7.60082 5.86498 6.98161C11.3816 4.87065 16.8983 2.75969 22.4149 0.648733C22.5462 0.597132 22.6823 0.554913 22.8183 0.531458C23.5595 0.428256 24.0849 0.869211 24.0614 1.65261C24.0474 2.16393 23.9348 2.67056 23.8269 3.17719C22.6917 8.51557 21.5517 13.8493 20.4071 19.1829C20.3508 19.455 20.257 19.7271 20.1304 19.9757C19.8864 20.4542 19.4596 20.6325 18.9482 20.4777C18.6996 20.4026 18.4463 20.29 18.2352 20.1399C16.5136 18.8921 14.8014 17.6349 13.0891 16.3777C13.0188 16.3261 12.9531 16.2792 12.8687 16.2182C12.7983 16.2792 12.7373 16.3308 12.6763 16.3871C11.7991 17.2221 10.9219 18.0618 10.0494 18.8968C9.79137 19.1454 9.49114 19.2908 9.0924 19.2861C9.11586 18.9484 9.13462 18.6153 9.15808 18.2823C9.26128 16.8187 9.36448 15.3504 9.47707 13.8868C9.48645 13.7789 9.55212 13.6475 9.63187 13.5772C12.9531 10.5843 16.279 7.59613 19.605 4.61264C19.6284 4.59388 19.6613 4.57511 19.6753 4.55166C19.7363 4.43438 19.7973 4.31711 19.8536 4.19983C19.7129 4.17169 19.5628 4.10132 19.4267 4.12478C19.2625 4.15292 19.1077 4.24674 18.9623 4.33587C14.8342 6.92531 10.6967 9.51476 6.55456 12.0995C6.46543 12.1558 6.31532 12.1886 6.21681 12.1558C4.45768 11.6163 2.69855 11.0675 0.939416 10.5233C0.582898 10.4107 0.259218 10.2512 0.0621948 9.91349C0.0621948 9.81967 0.0621948 9.72585 0.0621948 9.63203Z"/>
</symbol><symbol viewBox="0 0 22 25" fill="none" id="svg-tiktok" xmlns="http://www.w3.org/2000/svg">
<path d="M7.92962 24.5002C7.66217 24.5002 7.39941 24.5002 7.13197 24.5002C6.80821 24.4533 6.48446 24.411 6.1607 24.3594C3.25161 23.8715 0.816422 21.5489 0.192375 18.6585C0.107918 18.2644 0.0609971 17.8609 0 17.4621C0 17.1946 0 16.9319 0 16.6644C0.0469208 16.3547 0.0844575 16.0498 0.13607 15.7401C0.774194 12.1366 4.07742 9.41045 8 9.64037C8.22053 9.65444 8.44106 9.69198 8.64751 9.71544C8.64751 11.0574 8.64751 12.3665 8.64751 13.6709C8.33783 13.6193 8.04692 13.5489 7.75601 13.5301C5.56481 13.3846 3.77243 15.2756 4.02111 17.4621C4.31202 19.9864 7.09912 21.4081 9.29502 20.1272C10.5009 19.4234 11.0827 18.3442 11.0827 16.9412C11.0827 11.5688 11.0827 6.19638 11.0874 0.828636C11.0874 0.720719 11.0874 0.617493 11.0874 0.504883C12.4153 0.504883 13.7103 0.504883 14.9912 0.504883C15.0475 0.917786 15.0804 1.31661 15.1601 1.70606C15.6434 4.17878 17.844 6.19169 20.3308 6.44975C20.5935 6.4779 20.8516 6.50606 21.1144 6.53421C21.1144 7.81515 21.1144 9.10078 21.1144 10.3817C21.0534 10.3911 20.9924 10.4099 20.9314 10.4099C18.8199 10.3583 16.9009 9.72482 15.193 8.47673C15.146 8.44389 15.0944 8.42042 15.0194 8.3782C15.0194 8.50019 15.0194 8.59403 15.0194 8.68787C15.0287 11.4327 15.0428 14.1729 15.0475 16.9178C15.0475 17.3541 15.0194 17.7952 14.9537 18.2222C14.5032 21.1313 12.2557 23.5712 9.37947 24.2562C8.90557 24.3688 8.4129 24.4204 7.92962 24.5002Z" fill="black"/>
</symbol><symbol viewBox="0 0 22 25" fill="none" id="svg-viber" xmlns="http://www.w3.org/2000/svg">
<path d="M7.92618 0.523926C9.87973 0.523926 11.828 0.523926 13.7815 0.523926C14.0204 0.561086 14.2593 0.598246 14.4982 0.630097C17.9647 1.09725 20.9534 4.00103 21.5055 7.4516C21.5798 7.90282 21.6329 8.36467 21.6276 8.8159C21.6223 10.3978 21.7019 11.9851 21.5479 13.5511C21.1498 17.5909 17.5931 20.8132 13.5426 20.8982C12.1359 20.93 10.7344 20.9088 9.32764 20.9035C9.1153 20.9035 8.96666 20.9619 8.81271 21.1105C7.68199 22.2519 6.54065 23.3879 5.39931 24.5239C5.30375 24.5239 5.20289 24.5239 5.10734 24.5239C4.9003 24.3859 4.84722 24.1895 4.84722 23.9506C4.85783 22.7774 4.84722 21.6095 4.85783 20.4363C4.85783 20.2081 4.79944 20.0807 4.58179 19.9639C2.35219 18.7694 0.913572 16.938 0.303088 14.4748C0.175683 13.9599 0.0854371 13.4184 0.0854371 12.8876C0.07482 11.2207 0.0111173 9.54317 0.154448 7.8869C0.441111 4.64868 2.96799 1.73959 6.10004 0.884908C6.69459 0.720342 7.3157 0.640714 7.92618 0.523926ZM4.1571 8.04616C4.19426 9.11848 4.5871 10.0793 5.10734 10.9924C6.40793 13.2804 8.19692 15.1225 10.3734 16.5876C11.2918 17.2034 12.2686 17.7184 13.3834 17.8882C14.0151 17.9891 14.6415 17.9625 15.1458 17.4954C15.5705 17.1026 15.9846 16.7044 16.3827 16.2903C16.8605 15.7913 16.8446 15.0906 16.3615 14.5863C15.8147 14.0183 15.2626 13.4503 14.7105 12.8823C14.0151 12.1709 13.0808 12.3355 12.672 13.2379C12.396 13.8537 11.7483 14.1722 11.1219 13.9121C9.68331 13.3176 8.65345 12.2877 8.09605 10.8331C7.8147 10.0953 8.10136 9.54317 8.83925 9.2512C9.62492 8.93799 9.86911 8.00369 9.30641 7.37728C8.73308 6.74025 8.13321 6.12446 7.51742 5.52459C6.99187 5.00966 6.25929 5.04151 5.73905 5.55644C5.42054 5.86965 5.11264 6.20409 4.78351 6.50667C4.33229 6.92074 4.13587 7.43567 4.1571 8.04616ZM11.9872 3.83647C11.9288 3.84178 11.7908 3.84708 11.6528 3.8577C11.329 3.87363 11.1538 4.02227 11.1538 4.27177C11.1538 4.50004 11.3343 4.62744 11.6581 4.64337C12.0085 4.65929 12.3641 4.65399 12.7092 4.71238C15.4696 5.21138 17.179 7.73826 16.6269 10.4934C16.5685 10.7907 16.6747 10.9871 16.9189 11.0349C17.1578 11.0773 17.3489 10.9287 17.4126 10.6474C18.1823 7.22333 15.5811 3.9161 11.9872 3.83647ZM11.9925 5.43434C11.8651 5.43434 11.7377 5.42904 11.6103 5.43434C11.2865 5.45558 11.1007 5.64138 11.1326 5.9015C11.1644 6.151 11.3608 6.2731 11.6793 6.24655C13.24 6.11384 14.6681 7.13308 15.0184 8.66195C15.0927 8.99639 15.0768 9.35737 15.0821 9.70243C15.0874 9.97847 15.2201 10.1908 15.4537 10.2174C15.682 10.2439 15.8678 10.0687 15.9049 9.78206C15.9209 9.67588 15.9262 9.56971 15.9262 9.46354C15.9421 7.2658 14.185 5.4662 11.9925 5.43434ZM14.3177 9.29898C14.2699 8.10986 13.256 7.09592 12.0934 7.08C11.7802 7.07469 11.5997 7.19679 11.5732 7.43036C11.5519 7.66925 11.7218 7.8232 12.0562 7.85505C12.8844 7.93468 13.4842 8.53985 13.5479 9.35737C13.5745 9.65996 13.7231 9.84045 13.9567 9.82983C14.2009 9.81921 14.3336 9.62811 14.3177 9.29898Z" fill="#010101"/>
</symbol></svg>