<svg width="59" height="103" viewBox="0 0 59 103" fill="none" xmlns="http://www.w3.org/2000/svg">
<g clip-path="url(#clip0_24_10715)">
<path d="M48.7965 55.43C41.8553 75.5242 31.1659 76.071 29.5694 76.0027H29.5C29.4306 76.0027 29.4306 76.0027 29.4306 76.0027C27.8341 76.071 17.1447 75.5242 10.2035 55.43C10.2035 55.43 12.3553 68.5528 21.24 74.499C21.6565 75.0458 22.2812 76.071 22.1423 77.438C21.9341 79.42 21.1012 84.9562 20.2682 85.7764C20.2682 85.7764 20.4071 85.9814 20.7541 85.6397C21.1012 85.2979 23.3918 81.2654 22.9753 75.9343C22.9753 75.9343 22.9059 75.5242 23.6694 75.866C25.4047 76.6178 27.2788 77.1646 29.4306 77.3696C31.5823 77.2329 33.5259 76.6861 35.1918 75.866C35.9553 75.5242 35.8859 75.9343 35.8859 75.9343C35.4694 81.2654 37.76 85.2979 38.107 85.6397C38.4541 85.9814 38.5929 85.7764 38.5929 85.7764C37.76 84.9562 36.927 79.42 36.7188 77.438C36.58 76.1394 37.2047 75.0458 37.6212 74.499C46.6447 68.5528 48.7965 55.43 48.7965 55.43Z" fill="black"/>
<path d="M30.68 95.4134C31.9988 95.8235 34.7753 96.5753 36.1635 99.1042C37.5518 101.701 37.9682 103 37.9682 103C37.9682 103 39.7729 99.1725 42.0635 97.4638C44.4235 95.7551 47.0612 92.6795 44.9094 90.0823C42.7576 87.4851 42.48 87.8951 42.48 87.8951C42.48 87.8951 42.2718 88.1002 42.48 88.3736C42.6882 88.5786 43.1047 91.6543 31.3047 95.0033C31.2353 94.935 30.4024 95.2767 30.68 95.4134Z" fill="white"/>
<path d="M28.3894 95.4134C27.0706 95.8235 24.2941 96.5753 22.9059 99.1042C21.5177 101.701 21.1012 103 21.1012 103C21.1012 103 19.2965 99.1725 17.0059 97.4638C14.6459 95.7551 12.0082 92.6795 14.16 90.0823C16.3118 87.4851 16.5894 87.8951 16.5894 87.8951C16.5894 87.8951 16.7977 88.1002 16.5894 88.3736C16.3812 88.5786 15.9647 91.6543 27.7647 95.0033C27.7647 94.935 28.6671 95.2767 28.3894 95.4134Z" fill="white"/>
<path d="M29.3612 10.3205C27.973 10.0471 27.5565 8.47511 27.6953 7.44989C27.8341 6.42468 28.1118 4.98938 26.5847 1.23025C25.0577 -2.52887 20.6847 3.28068 19.0883 6.01459C17.4918 8.7485 18.8106 10.5939 22.1424 14.9681C25.4741 19.3424 28.8059 21.2561 29.7083 21.2561H29.7777C30.68 21.2561 34.0118 19.3424 37.3435 14.9681C40.6753 10.5939 41.9941 8.7485 40.3977 6.01459C38.8012 3.28068 34.4283 -2.52887 32.9012 1.23025C31.3741 4.98938 31.6518 6.42468 31.7906 7.44989C31.9294 8.47511 31.5824 10.1155 30.1247 10.3205H29.3612Z" fill="white"/>
<path d="M28.7365 34.789C21.7259 34.789 13.4659 27.2707 10.6894 24.8786C7.98236 22.5547 6.10825 22.9648 6.10825 22.9648C7.70472 16.13 14.8541 6.35632 14.8541 6.35632C14.5765 10.3205 20.1988 15.4466 23.3918 18.4539C26.6541 21.4612 28.5977 22.2813 29.5 22.2813C30.4024 22.2813 32.3459 21.4612 35.6082 18.4539C38.8706 15.4466 44.4235 10.3205 44.1459 6.35632C44.1459 6.35632 51.2953 16.13 52.8224 22.9648C52.8224 22.9648 50.9482 22.5547 48.2412 24.8786C45.5341 27.2024 37.2741 34.789 30.1941 34.789H28.7365Z" fill="white"/>
<path d="M53.8635 25.0153C51.9894 22.3497 44.3541 29.2528 39.9118 32.6702C35.4694 36.0876 31.4435 35.6775 29.5 35.6775C27.5565 35.6775 23.5306 36.0876 19.0882 32.6702C14.6459 29.2528 7.01059 22.3497 5.13648 25.0153C3.26236 27.6808 -3.05411 41.077 1.66589 56.3185C6.38589 71.5601 10.1341 76.6861 13.8824 79.6934C13.8824 79.6934 12.4941 76.5494 12.0777 73.4738C12.0777 73.4738 15.2012 76.1394 17.9777 76.4811C17.9777 76.4811 4.92824 59.7359 8.95412 43.0591C8.95412 43.0591 9.57883 40.8036 9.50942 43.4008C9.44001 45.998 9.57883 48.5952 10.6894 50.3723C10.6894 50.3723 10.2035 40.5985 14.2988 33.5587C14.2988 33.5587 15.4094 31.7133 14.9235 34.1055C14.4377 36.4293 13.9518 38.3431 14.16 38.6848C14.3682 39.0265 20.2682 40.8719 22.42 40.4618C22.42 40.4618 23.2529 37.6596 23.6694 37.6596C24.0859 37.6596 24.1553 39.5733 25.1271 40.2568C26.0294 40.8719 28.5977 41.0086 29.4306 41.0086C30.2635 41.077 32.8318 40.9403 33.7341 40.2568C34.7059 39.5733 34.7753 37.6596 35.1918 37.6596C35.6082 37.6596 36.4412 40.4618 36.4412 40.4618C38.6624 40.8719 44.493 39.0265 44.7012 38.6848C44.9094 38.3431 44.4235 36.4977 43.9377 34.1055C43.4518 31.7817 44.5624 33.5587 44.5624 33.5587C48.6577 40.5302 48.1718 50.3723 48.1718 50.3723C49.2824 48.5952 49.4212 46.0664 49.3518 43.4008C49.2824 40.8036 49.9071 43.0591 49.9071 43.0591C53.9329 59.7359 40.8835 76.4811 40.8835 76.4811C43.66 76.1394 46.7835 73.4738 46.7835 73.4738C46.3671 76.5494 44.9788 79.6934 44.9788 79.6934C48.6577 76.7545 52.4753 71.5601 57.1953 56.3185C61.9153 41.077 55.7377 27.6808 53.8635 25.0153Z" fill="black"/>
</g>
<defs>
<clipPath id="clip0_24_10715">
<rect width="59" height="103" fill="white"/>
</clipPath>
</defs>
</svg>
