<svg width="108" height="151" viewBox="0 0 108 151" fill="none" xmlns="http://www.w3.org/2000/svg">
<path d="M53.4 123.9C53.4 123.9 53.3 144.8 52 147C50.8 149.2 49.3 152.2 42.1 149.8C34.9 147.4 20.1 141.2 10 141C-2.86102e-06 140.7 10.3 135.9 10.3 135.9C10.3 135.9 30.9 125.7 34.5 126.6C38.1 127.5 44.1 129.6 46.5 129.3C46.5 129.3 36.4 126.5 34.9 124.4C33.4 122.3 33.6 112.1 34.1 110.6C34.1 110.6 35.3 108.2 35.7 110.2C36.1 112.1 43.1 114.9 53.4 115C63.8 114.9 70.7 112.1 71.1 110.2C71.6 108.2 72.8 110.6 72.8 110.6C73.4 112.1 73.6 122.3 72 124.4C70.5 126.5 60.4 129.3 60.4 129.3C62.8 129.6 68.8 127.5 72.4 126.6C76 125.7 96.5 135.9 96.5 135.9C96.5 135.9 106.9 140.7 96.8 141C86.7 141.3 71.9 147.4 64.7 149.8C57.5 152.2 56 149.2 54.8 147C53.6 144.8 53.5 123.9 53.5 123.9H53.4Z" fill="white"/>
<path d="M87.8 52.7C87.8 52.7 97.1 60.1 91.9 71.7C91.9 71.7 95.8 67.6 98.7 67.2C101.6 66.8 107.9 65.8 107.9 62.9C107.9 60 102.1 54.4 87.8 52.7Z" fill="black"/>
<path d="M89.9 63.8C89.9 63.8 92.1 53.5 83.4 52.2C83.4 52.2 82.6 71 81.2 74.9C81.2 74.9 81.6 75.5 81.7 75C81.8 74.5 83 74 83 71.6C82.9 69.2 84.3 69.8 84.3 69.8C84.3 69.8 85.1 69.6 85.1 68.7C85.1 67.7 84.5 64.1 86.3 64.1C88.1 64.2 90 66.9 88.7 69.6C87.4 72.3 87.5 73.8 87.5 75.5C87.5 77.2 88.8 86.5 83.2 85.3V82.6C83.2 82.6 83.4 81.8 82.9 82.9C82.4 84 77.6 102 62.8 108.1C62.8 108.1 61.1 108.6 60.2 108.4C59.3 108.3 57.1 107.8 55 107.9H54H53.1C51 107.7 48.9 108.2 47.9 108.4C47 108.5 45.3 108.1 45.3 108.1C30.5 102 25.7 84 25.2 82.9C24.7 81.8 24.9 82.6 24.9 82.6V85.3C19.3 86.5 20.6 77.2 20.6 75.5C20.6 73.8 20.7 72.3 19.4 69.6C18.1 66.9 20 64.2 21.8 64.1C23.6 64 23 67.7 23 68.7C23 69.7 23.8 69.8 23.8 69.8C23.8 69.8 25.1 69.2 25.1 71.6C25.1 74 26.3 74.5 26.4 75C26.5 75.5 26.9 74.9 26.9 74.9C25.5 71 24.7 52.2 24.7 52.2C15.8 53.5 18 63.8 18 63.8C15.8 65.9 17.8 70.8 18.7 71.9C19.6 73 18.7 81 20 84.4C21.3 87.8 24.9 86.9 24.9 86.9C30.5 98 39.7 107.9 43 109.3C46.4 110.7 47.6 110.3 48.6 110C49.3 109.8 51.4 109.8 53.2 109.9C53.4 109.9 53.7 109.9 53.9 109.9C54.2 109.9 54.4 109.9 54.7 109.9C56.5 109.9 58.7 109.8 59.3 110C60.2 110.3 61.5 110.7 64.9 109.3C68.3 107.9 77.4 98 83 86.8C83 86.8 86.7 87.7 87.9 84.3C89.2 80.9 88.3 72.9 89.2 71.8C90.1 70.8 92.1 65.9 89.9 63.8Z" fill="black"/>
<path d="M20.1 52.7C20.1 52.7 10.8 60.1 16 71.7C16 71.7 12.1 67.6 9.2 67.2C6.3 66.9 0 65.9 0 62.9C0 59.9 5.9 54.4 20.1 52.7Z" fill="black"/>
<path d="M63.1 79.1C60.1 78 56.4 78 54 78.2C51.6 78 47.8 78 44.9 79.1C41.9 80.2 35.8 82.1 33.7 81.5C33.7 81.5 37.6 89 46.9 87.8C52.2 87.1 53.5 86.7 54.1 86.6C54.7 86.7 56 87.1 61.3 87.8C70.5 89 74.5 81.5 74.5 81.5C72.2 82.1 66.1 80.3 63.1 79.1Z" fill="black"/>
<path d="M95.7 47.1C88 40.6 86.2 30.8 82.8 21.9C79.4 13 69.5 7.6 67.9 6.6C66.3 5.6 65.5 6 65 7.6C64.5 9.2 65 19.4 65 19.4C63.4 16.2 62.3 6.7 61.7 3.4C61.1 0.3 58.6 0 58.6 0H56.6H51.9H49.9C49.9 0 47.4 0.3 46.8 3.5C46.2 6.7 45.1 16.2 43.5 19.5C43.5 19.5 44 9.3 43.5 7.7C43 6.1 42.2 5.7 40.6 6.7C39 7.7 29 13.2 25.6 22C22.2 30.8 20.4 40.7 12.7 47.2C5 53.5 3.2 54.9 2.5 57.3C2.5 57.3 2.6 57.7 3.2 57.2C3.8 56.8 19.1 47.6 54.2 47.5C89.3 47.6 104.7 56.8 105.2 57.2C105.8 57.7 105.9 57.3 105.9 57.3C105.1 54.9 103.4 53.5 95.7 47.1Z" fill="white"/>
</svg>
