<svg width="90" height="102" viewBox="0 0 90 102" fill="none" xmlns="http://www.w3.org/2000/svg">
<path d="M57.415 69.6536C57.2109 70.4011 56.0544 75.4297 57.1429 78.8274C58.2313 82.2931 60.7483 83.3804 61.9048 83.6522C61.9048 83.6522 56.2585 81.4777 58.0272 69.9254C58.0272 69.9254 58.2313 69.2458 57.9592 69.1779C57.6871 69.1099 57.415 69.6536 57.415 69.6536Z" fill="black"/>
<path d="M61.4286 54.7035C61.2245 54.9754 60.6803 56.8781 59.932 58.577C59.1837 60.2758 59.1156 61.567 57.0068 61.8388C54.898 62.1106 53.6735 63.8774 52.1088 65.5763C50.4762 67.2752 49.8639 69.6536 47.7551 69.1779C45.6463 68.7022 46.2585 63.6736 46.6667 62.3145C47.0748 61.0233 46.0544 61.0913 44.898 61.0913C43.7415 61.0913 42.7211 61.0233 43.1293 62.3145C43.5374 63.6736 44.1497 68.7022 42.0408 69.1779C39.932 69.6536 39.3197 67.2072 37.6871 65.5763C36.0544 63.8774 34.8299 62.1106 32.7891 61.8388C30.6803 61.567 30.6122 60.3438 29.8639 58.577C29.1156 56.8101 28.5714 55.0433 28.3673 54.7035C28.1633 54.4317 27.7551 54.3638 27.8231 55.1113C27.8912 55.8588 29.932 64.6249 33.5374 67.2752C33.5374 67.2752 34.898 69.2458 35.3742 70.9447C35.9184 72.6436 35.6463 73.2552 37.3469 74.4104C39.0476 75.5656 40.3401 76.9247 44.6259 76.8568H45.102C49.3197 76.9927 50.6122 75.6336 52.381 74.4104C54.1497 73.1872 53.8776 72.6436 54.3537 70.9447C54.8299 69.2458 56.1905 67.2752 56.1905 67.2752C59.7959 64.6249 61.8367 55.8588 61.9048 55.1113C61.9728 54.3638 61.6327 54.4317 61.4286 54.7035Z" fill="black"/>
<path d="M32.381 69.6536C32.585 70.4011 33.7415 75.4297 32.6531 78.8274C31.5646 82.2931 29.0476 83.3804 27.8912 83.6522C27.8912 83.6522 33.5374 81.4777 31.7687 69.9254C31.7687 69.9254 31.5646 69.2458 31.8367 69.1779C32.0408 69.1099 32.381 69.6536 32.381 69.6536Z" fill="black"/>
<path d="M57.3469 55.7229C57.3469 55.7229 57.7551 59.8001 54.8299 59.5963C54.8299 59.5963 54.2857 59.8681 53.3333 58.5769C52.381 57.3538 47.8912 51.9174 45.034 55.0433H44.6939C41.8367 51.9174 37.3469 57.3538 36.3946 58.5769C35.4422 59.8001 34.898 59.5963 34.898 59.5963C32.0408 59.8001 32.449 55.7229 32.449 55.7229C30.7483 58.7129 32.9932 61.567 35.9864 61.7029C38.9796 61.8388 41.1565 58.577 41.2925 58.3051C41.4966 58.0333 41.7687 58.1692 41.7687 58.1692C43.6054 58.7808 44.2857 58.441 44.898 57.9654C45.5102 58.3731 46.1224 58.7808 48.0272 58.1692C48.0272 58.1692 48.2993 58.0333 48.5034 58.3051C48.7075 58.577 50.8163 61.8388 53.8095 61.7029C56.8027 61.567 59.0476 58.7129 57.3469 55.7229Z" fill="black"/>
<path d="M45.1701 22.2891C46.5986 22.4251 48.0952 22.1532 49.7279 21.7455C51.0204 21.4737 54.4218 20.8621 56.5986 22.4251C59.1156 24.1919 63.0612 24.8714 63.1293 32.0067C63.1973 39.5496 63.0612 44.8501 63.4014 45.6656C63.7415 46.4131 64.6259 47.5003 65.3741 44.6462C66.1224 41.8601 66.7347 41.2485 67.3469 42.064C67.9592 42.8794 68.0952 43.0153 68.5714 41.5203C69.0476 40.0253 71.0204 31.2592 70.3401 28.0653C70.3401 28.0653 70.5442 27.8614 70.6122 28.3371C70.6803 28.8128 71.0884 31.9387 71.4966 30.7835C71.9048 29.6283 72.3129 25.6869 72.517 26.0946C72.7211 26.5023 73.1293 29.5603 72.9932 31.1233C72.8571 32.7542 73.5374 33.2978 74.0136 31.3271C74.4218 29.3564 75.1701 22.493 72.517 15.8335C72.517 15.8335 72.2449 15.2898 72.585 15.5616C72.8571 15.7655 74.966 18.6196 74.966 18.008C74.966 17.3964 72.0408 5.7082 56.6667 3.19388C56.6667 3.19388 54.4898 2.24251 56.1905 2.65024C57.8912 3.05797 62.0408 3.66956 62.449 3.80547C62.8571 3.94138 63.8095 4.00933 62.2449 3.05797C60.5442 2.1066 56.8027 -0.339767 47.2789 2.03865C47.2789 2.03865 44.898 2.44638 46.2585 1.83478C47.619 1.15524 48.9116 0.475689 49.1156 0.475689C49.3197 0.407734 50.068 -0.0679485 48.2313 0.0679609C46.3946 0.271825 35.034 1.76683 29.3197 7.27116C29.3197 7.27116 28.1633 8.15457 29.1156 6.86343C29.1156 6.86343 29.932 5.57229 30.6122 4.9607C30.6122 4.9607 30.6803 4.41706 29.5918 4.89274C29.5918 4.89274 23.6735 7.67889 23.1973 15.6296C23.1973 15.6296 23.1293 15.9694 22.7891 16.1732C22.381 16.3771 18.6395 18.008 18.8435 22.6289C18.8435 22.6289 19.5238 21.2698 20.4082 20.4544C20.4082 20.4544 20.9524 19.7748 20.5442 21.1339C20.1361 22.4251 18.3673 28.8128 22.7211 41.7242C22.7211 41.7242 22.9252 41.996 23.2653 41.5203C23.5374 40.9767 23.8095 41.5883 23.9456 42.064C24.0816 42.4717 25.102 47.4324 26.2585 46.6169C27.415 45.8015 26.1905 33.8414 26.8707 30.4437C27.551 27.046 29.5238 24.1239 34.0816 22.493C38.6395 20.8621 42.2449 22.4251 44.7619 22.3571H45.1701V22.2891Z" fill="white"/>
<path d="M90 97.9907C88.1633 92.1466 85.7823 90.8554 81.7007 88.477C75.9864 85.2152 65.102 86.3704 64.4218 86.3704C63.6735 86.3704 62.9932 85.6229 62.9932 85.6229C54.8299 96.2239 45.7823 99.6216 45.102 99.8934C44.4218 99.6216 35.3061 96.2239 27.2109 85.6229C27.2109 85.6229 26.4626 86.3704 25.7823 86.3704C25.034 86.3704 14.1497 85.2152 8.5034 88.477C4.42177 90.7875 2.04082 92.1466 0.204082 97.9907C0.204082 97.9907 -0.0680264 99.01 1.29252 100.165C2.44898 101.117 4.14966 102.136 9.04762 102C13.6735 101.932 41.8367 102 45.034 102H45.1701H45.3061C48.5034 102 76.6667 101.932 81.2925 102C86.1905 102.136 87.8912 101.117 89.0476 100.165C90.2721 99.01 90 97.9907 90 97.9907Z" fill="white"/>
<path d="M62.381 39.7535C62.517 39.074 62.449 35.948 62.449 35.948L59.8639 35.8801C59.8639 35.8801 58.0272 35.0646 56.1905 34.9967C54.3537 34.9287 51.0884 35.2685 47.483 36.8314C47.483 36.8314 46.5986 37.1712 44.966 37.1712C43.3333 37.1712 42.449 36.8314 42.449 36.8314C38.8435 35.2005 35.5782 34.9287 33.7415 34.9967C31.9048 35.0646 30.068 35.8801 30.068 35.8801L27.483 35.948C27.483 35.948 27.415 39.074 27.551 39.7535C27.619 40.2971 27.6871 40.2292 27.6871 40.1612C27.3469 44.3065 28.9796 46.0733 31.0884 46.8887C33.1973 47.7042 37.2109 47.0247 38.9796 46.481C40.7483 45.9374 42.7211 42.6756 42.9252 42.1319C43.1293 41.5883 43.8095 39.8894 44.966 39.8215C46.1224 39.8894 46.7347 41.6562 47.0068 42.1319C47.2109 42.6756 49.1837 45.9374 50.9524 46.481C52.7211 47.0247 56.7347 47.7042 58.8435 46.8887C60.9524 46.0733 62.517 44.3065 62.2449 40.1612C62.2449 40.2292 62.3129 40.2292 62.381 39.7535ZM28.7755 36.8994C28.5714 37.1033 28.1633 37.6469 28.1633 37.9867V36.8314L28.8435 36.7635C28.9116 36.8314 28.8435 36.8994 28.7755 36.8994ZM42.517 39.4137C42.1769 42.3358 39.5238 45.054 37.9592 45.5296C36.3265 46.0053 33.2653 46.0053 32.2449 45.8694C31.2245 45.8015 30.6122 45.3258 30.6122 45.3258C28.8435 44.1706 29.0476 40.9767 29.0476 39.8894C29.0476 38.7342 30.3401 36.6276 33.8776 36.2199C37.3469 35.8121 40.7483 37.3751 41.9728 37.9867C42.7211 38.3944 42.517 39.4137 42.517 39.4137ZM59.4558 45.3937C59.4558 45.3937 58.8435 45.8694 57.8231 45.9374C56.8027 46.0053 53.7415 46.0733 52.1088 45.5976C50.4762 45.1219 47.8912 42.3358 47.551 39.4817C47.551 39.4817 47.3469 38.4624 48.1633 38.0546C49.3878 37.443 52.7211 35.8121 56.2585 36.2878C59.7279 36.6955 61.0884 38.8021 61.0884 39.9574C61.0204 41.0446 61.2245 44.1706 59.4558 45.3937ZM61.9048 37.9867C61.9048 37.6469 61.4966 37.1033 61.2925 36.8994C61.2245 36.8314 61.2245 36.8314 61.2245 36.8314L61.9048 36.8994V37.9867Z" fill="black"/>
</svg>
