<svg  viewBox="0 0 232 237" fill="none" xmlns="http://www.w3.org/2000/svg">
<path d="M229.05 103.648C228.708 105.273 228.451 106.642 228.109 108.438C227.425 107.24 227.083 105.957 226.57 105.872C224.346 105.615 224.603 104.076 224.517 102.622C224.432 101.51 224.175 100.312 223.918 99.2005C223.576 97.7465 222.978 96.2925 222.721 94.7529C222.293 92.4436 221.438 90.3909 219.556 88.7658C218.787 88.0816 218.359 86.8842 217.931 85.8578C217.504 84.7459 217.418 83.4629 216.819 82.4366C215.707 80.5549 214.168 78.8443 213.056 76.9626C210.49 72.5151 208.181 67.9819 205.615 63.6199C203.733 60.3698 201.595 57.2907 199.371 54.2971C197.917 52.4154 196.207 50.6193 194.496 48.9942C192.614 47.1981 190.562 45.6585 188.509 44.0335C187.482 43.1782 186.371 42.4084 185.259 41.6386C183.719 40.5267 182.094 39.5859 180.726 38.3885C179.699 37.4476 178.929 36.8489 177.561 37.4476C177.048 37.7042 176.192 37.4476 175.765 37.191C175.508 37.02 175.85 36.0791 175.85 35.566C175.85 34.7106 176.278 33.4277 175.85 33C173.798 31.0328 171.574 29.2367 169.265 27.5261C168.666 27.0984 167.041 27.0984 166.613 27.6116C165.416 28.8946 164.475 28.638 163.277 27.7827C162.679 27.355 161.909 27.184 161.225 26.8419C159.257 26.0721 157.29 25.3878 155.409 24.5325C154.724 24.1904 154.211 23.5917 153.612 23.0785C154.211 22.6509 154.895 22.3087 155.494 21.8811C155.58 21.7956 155.58 21.6245 155.751 21.1113C154.639 20.6837 153.441 20.256 152.33 19.7428C151.389 19.4007 150.619 19.0586 151.474 17.8612C151.731 17.519 151.645 16.5782 151.474 16.5782C150.961 16.4072 150.277 16.3216 149.764 16.4927C148.566 17.0059 147.369 17.6901 146 18.3743C146.77 18.7165 147.625 19.1441 148.481 19.5718C148.994 19.8284 149.507 20.1705 149.935 20.5126C150.02 20.5981 149.764 21.3679 149.593 21.3679C148.994 21.3679 148.31 21.3679 147.711 21.1113C146.856 20.8547 146 20.3415 145.145 20.085C143.776 19.6573 142.408 19.4862 141.04 18.9731C140.27 18.7165 139.671 18.0322 138.987 17.6046C139.842 17.4335 140.612 17.1769 141.467 17.0059C141.553 17.0059 141.638 16.8348 141.895 16.4927C139.842 15.2097 139.329 12.3017 136.506 11.7885C136.079 11.703 135.48 10.9332 135.48 10.5056C135.48 9.13707 134.625 8.79495 133.598 8.53836C132.401 8.19624 131.204 7.93965 130.092 7.512C129.493 7.2554 129.065 6.65669 128.552 6.22904C129.065 5.80139 129.493 5.20268 130.092 4.94609C131.802 4.17631 133.513 3.66313 135.223 2.89336C135.566 2.7223 135.993 2.03805 135.908 1.69593C135.822 1.26828 135.223 0.755098 134.796 0.755098C133.256 0.755098 131.546 0.584038 130.177 1.09722C127.782 2.03805 125.815 1.09722 123.762 0.241916C123.335 0.0708557 122.65 -0.100205 122.565 0.0708557C122.308 0.412977 122.052 1.09722 122.223 1.52487C122.394 2.20911 122.822 2.80783 123.249 3.83419C122.137 3.91972 121.368 4.00525 120.598 4.00525C118.887 3.91972 117.177 3.74866 115.466 3.74866C114.953 3.74866 114.525 4.26184 114.012 4.60396C114.354 4.94609 114.611 5.37374 115.038 5.71586C115.637 6.14351 116.236 6.48563 116.834 6.82775C116.834 7.08434 116.834 7.34094 116.834 7.512C114.525 8.02518 112.216 8.53836 109.906 8.96601C109.906 9.13707 109.906 9.39366 109.906 9.56472C110.42 9.73579 110.933 9.99238 111.446 10.1634C112.045 10.3345 112.643 10.5056 113.328 10.6766C113.328 10.9332 113.413 11.1043 113.413 11.3609C112.387 11.703 111.36 11.874 110.334 12.3872C109.735 12.6438 108.795 13.3281 108.88 13.8412C108.966 16.2361 107.17 18.0322 104.604 17.9467C104.689 17.519 104.86 17.1769 104.946 16.8348C105.117 16.3216 105.202 15.7229 105.373 15.2097C104.775 15.1242 104.261 15.0387 103.663 15.0387C102.893 15.0387 102.123 15.2097 101.439 15.0387C99.5573 14.3544 97.9322 14.1834 96.4782 15.9795C96.2216 16.3216 95.1953 15.9795 94.511 15.9795C94.6821 15.2953 94.7676 14.611 95.0242 14.0123C95.1097 13.7557 95.6229 13.6702 95.794 13.4136C96.0506 12.9859 96.3927 12.3872 96.3072 12.0451C96.1361 11.703 95.3663 11.3609 95.0242 11.4464C92.9715 11.874 90.9187 12.3017 88.866 12.9004C88.1818 13.0715 87.6686 13.8412 87.0699 14.3544C87.6686 14.6965 88.3528 14.8676 88.7805 15.2953C89.5503 15.894 90.149 16.6637 90.8332 17.348C90.149 17.9467 89.5503 18.802 88.695 18.9731C86.8988 19.4007 84.9316 19.6573 83.0499 19.8284C82.5368 19.9139 82.0236 19.5718 81.4249 19.4862C81.4249 19.3152 81.4249 19.1441 81.4249 18.9731C82.0236 18.7165 82.7078 18.6309 83.221 18.2888C83.6487 17.9467 84.1618 16.9203 83.9908 16.8348C82.7078 15.6374 83.3921 14.8676 84.4184 14.0123C84.7606 13.7557 84.8461 13.2425 85.1882 12.4728C80.9117 12.6438 78.9445 14.6965 78.7734 18.8875C78.6024 18.802 78.3458 18.802 78.1747 18.7165C77.4905 17.519 76.8918 16.3216 76.122 14.9531C73.6416 16.4072 71.4178 17.6901 69.2796 19.0586C67.1413 20.4271 64.9175 21.7956 62.9503 23.4206C62.1805 24.1049 62.0095 25.5589 61.5818 26.6708C62.7793 26.4997 63.9767 26.4997 65.1741 26.2431C65.6018 26.1576 65.9439 25.6444 66.286 25.3878C67.1413 24.7036 68.0821 24.1049 68.8519 23.4206C69.6217 22.6509 70.2204 21.71 70.9902 20.9403C71.5889 20.256 72.3587 19.6573 73.0429 19.0586C73.6416 19.9994 73.8127 20.7692 74.3259 21.1113C75.7799 22.0522 75.9509 22.8219 74.4969 23.8483C71.4178 26.1576 67.8255 27.6116 64.2333 29.0656C60.9831 30.3486 57.3909 31.2039 55.5092 34.8817C54.6539 36.5923 53.6275 38.8161 50.805 38.474C50.5484 38.474 50.1208 39.1582 49.9497 39.6714C49.1799 41.8097 47.8115 43.2637 45.7587 44.29C44.3902 44.9743 43.1928 46.0007 42.0809 47.1125C40.3703 48.8232 38.8308 50.6193 37.2912 52.4154C34.2977 56.0932 31.3896 59.8566 28.4816 63.6199C26.6855 65.9292 26.5144 69.436 23.2642 70.8045C23.0932 70.89 23.0077 71.1466 22.9221 71.3176C21.0405 76.2784 18.8167 81.1536 17.2771 86.1999C14.6257 95.0095 13.0006 103.99 12.4019 113.142C12.3164 114.254 12.4874 114.938 13.7704 115.109C15.3955 115.366 15.652 116.649 15.1389 117.846C14.7967 118.701 13.9414 119.471 13.2572 120.155C11.9742 121.267 11.5466 122.465 12.2308 124.175C12.573 124.945 12.6585 125.886 12.573 126.741C12.2308 129.82 11.8032 132.899 11.3755 135.979C11.29 136.577 11.2045 137.262 10.8624 137.689C10.007 138.972 9.5794 140.17 10.3492 141.709C10.5202 142.051 10.007 142.735 9.83599 143.249C9.32281 142.992 8.72409 142.907 8.29644 142.564C8.03985 142.308 7.86879 141.88 7.78326 141.453C7.27008 138.117 6.92796 134.781 6.41477 131.531C6.32924 130.932 5.81606 130.505 5.55947 129.906C5.13182 130.248 4.44758 130.59 4.27652 131.018C4.10546 131.702 4.19099 132.472 4.27652 133.242C5.30288 139.999 6.24371 146.67 7.44114 153.427C7.78326 155.308 8.63856 157.105 9.23728 158.901C9.40834 159.414 9.32281 160.013 9.32281 160.526C8.72409 160.355 7.86879 160.269 7.6122 159.927C6.92796 158.644 6.41477 157.276 6.15818 155.907C5.13182 151.032 4.27652 146.157 3.42121 141.281C2.90803 138.544 2.56591 135.808 1.9672 133.071C1.88167 132.557 1.11189 132.215 0.684243 131.873C0.427652 132.472 0 133.156 0 133.755C0.0855303 136.235 0.256591 138.801 0.427652 141.281C0.513182 143.163 0.342121 145.13 0.598712 147.012C1.11189 150.604 1.79614 154.111 2.56591 157.618C2.73697 158.473 2.99356 159.67 3.6778 160.184C5.81606 161.809 7.27008 163.69 7.52667 166.342C7.52667 166.598 7.86879 166.941 8.12538 167.197C9.32281 168.48 10.4347 169.849 11.8887 170.96C12.9151 171.73 14.3691 172.072 15.5665 172.671C16.7639 173.27 17.9614 173.954 19.1588 174.638C19.672 174.98 20.0996 175.408 20.5273 175.836C20.6983 175.75 20.9549 175.579 21.126 175.494C20.7839 174.638 20.6128 173.783 20.1852 173.013C19.0733 171.217 17.6192 169.592 16.8495 167.71C14.7112 162.322 12.8295 156.848 10.8624 151.46C10.6913 150.946 10.9479 150.262 11.0334 149.663C11.5466 150.006 12.3164 150.262 12.4874 150.775C13.5138 152.999 14.2836 155.308 15.3099 157.532C15.7376 158.388 16.4218 159.157 17.0205 160.013C17.2771 159.072 17.4482 158.216 17.7048 157.105C18.6456 158.045 20.3562 159.328 19.5864 160.697C18.389 162.921 19.0733 164.717 19.4154 166.77C19.843 169.164 24.034 176.777 25.9157 178.573C28.6527 181.139 30.962 183.961 29.5935 188.238C29.7646 188.323 30.0211 188.409 30.1922 188.409C31.4752 188.751 32.9292 190.804 32.2449 191.488C31.8173 191.915 30.5343 191.488 29.5935 191.402C29.3369 191.402 29.0803 191.146 28.8237 191.146C27.9684 191.231 26.3433 191.231 26.3433 191.402C26.2578 192.6 26.0012 194.139 26.5999 194.995C27.7974 196.791 29.508 198.33 31.133 199.87C31.6462 200.383 32.5015 200.468 33.1858 200.811C33.1002 200.041 33.2713 199.271 32.9292 198.587C32.416 197.56 31.7318 196.62 30.8765 195.337C31.7318 195.422 32.0739 195.337 32.2449 195.422C35.0674 197.56 38.061 199.357 39.8571 202.607C40.4558 203.719 41.7388 205.002 42.8507 205.173C46.6996 205.771 48.4102 208.252 49.7787 211.502C51.3182 215.009 53.8841 217.575 58.0751 217.831C59.8712 217.917 62.3516 220.568 62.1806 222.279C62.0095 223.989 62.9503 224.246 64.1477 224.502C67.3124 225.358 70.6481 225.785 73.4706 227.154C77.4049 229.036 82.3657 228.351 85.6159 231.858C85.8725 232.115 86.3856 232.115 86.8133 232.029C90.149 231.516 93.1425 232.542 95.965 234.082C97.248 234.852 98.5309 234.681 99.8139 233.825C102.636 231.944 105.63 232.457 108.11 235.023C108.367 235.365 108.966 235.45 109.393 235.536C110.42 235.792 111.617 235.793 112.558 236.306C114.012 236.99 115.124 236.819 116.321 235.793C117.262 234.937 118.203 234.852 119.486 235.536C121.71 236.733 124.104 237.589 126.414 235.536C126.927 235.108 127.868 234.852 128.467 235.023C131.546 236.049 134.026 234.852 136.421 232.97C137.789 231.858 139.243 231.944 140.783 232.628C141.553 232.97 142.836 233.312 143.349 232.884C146.685 230.661 150.533 229.72 154.211 228.351C156.863 227.325 158.402 225.443 158.915 222.535C159.001 222.108 159.771 221.252 159.942 221.338C160.883 221.594 161.909 222.022 162.593 222.706C162.764 222.877 162.08 224.16 161.567 224.845C161.139 225.443 160.369 225.785 159.856 226.299C159.514 226.641 159.343 227.154 159.086 227.582C159.771 227.753 160.027 227.667 160.369 227.496C162.251 226.47 164.133 225.358 166.014 224.502C167.811 223.733 169.179 222.706 170.376 221.081C172.686 218.173 175.423 215.778 179.785 216.805C180.469 216.976 181.581 216.377 182.265 215.864C183.12 215.18 183.719 214.239 184.489 213.469C187.568 210.219 190.733 207.054 193.812 203.719C195.18 202.179 196.634 201.067 198.772 200.896C199.371 200.811 200.055 200.383 200.483 199.955C202.279 198.074 204.246 196.192 204.417 193.198C204.417 192.685 204.931 192.172 205.273 191.659C207.154 188.922 208.951 186.099 210.918 183.448C212.286 181.481 213.74 179.514 215.365 177.717C216.819 176.092 218.53 174.724 219.984 173.184C220.839 172.243 221.866 171.132 221.01 169.25C220.412 169.763 219.898 170.02 219.642 170.447C218.701 172.072 217.589 173.355 215.707 174.125C214.681 174.553 213.911 175.75 213.227 176.691C211.089 179.856 209.207 183.191 206.898 186.185C203.733 190.376 200.312 194.396 196.891 198.33C196.378 199.014 195.351 199.186 194.496 199.613C194.325 199.357 194.154 199.186 193.983 198.929C194.41 198.416 194.838 197.817 195.266 197.389C196.292 196.363 197.575 195.508 198.43 194.31C200.483 191.659 202.108 188.751 204.246 186.185C207.326 182.507 209.806 178.487 211.602 174.04C212.03 173.013 212.457 172.072 212.714 170.96C212.799 170.618 212.457 170.191 212.286 169.763C211.944 170.02 211.431 170.191 211.174 170.447C210.661 171.217 210.405 172.158 209.806 172.928C209.549 173.27 208.694 173.441 208.266 173.355C208.01 173.27 207.668 172.329 207.839 171.987C209.293 168.48 210.747 164.973 212.286 161.467C212.457 161.124 213.569 160.782 213.911 160.953C214.339 161.124 214.425 161.98 214.51 162.579C214.596 163.177 214.425 163.861 214.339 164.46C215.023 164.033 216.135 163.861 216.392 163.263C217.589 160.953 219.043 158.559 219.642 155.993C221.609 147.867 223.234 139.656 225.03 131.531C225.543 128.965 226.057 126.485 226.741 123.919C226.826 123.491 227.511 123.149 227.938 122.721C228.28 123.063 228.794 123.406 228.794 123.662C228.794 125.629 228.623 127.511 228.537 129.478C228.451 130.59 228.195 131.617 228.024 132.728C228.366 132.814 228.708 132.899 228.965 132.985C229.307 132.301 229.906 131.617 229.991 130.847C230.248 128.281 230.419 125.715 230.504 123.149C230.504 121.952 230.248 120.84 228.623 120.754C228.28 120.754 227.767 120.07 227.682 119.642C227.34 118.616 226.997 117.59 226.912 116.563C226.826 116.136 227.169 115.622 227.34 115.195C227.767 115.451 228.28 115.708 228.537 116.05C228.879 116.563 229.136 117.162 229.392 117.675C229.649 117.675 229.906 117.59 230.162 117.59C230.162 116.905 230.333 116.05 230.077 115.451C229.563 114.254 229.82 113.484 230.675 112.543C232.899 110.405 232.3 105.957 229.05 103.648ZM16.8495 151.032C16.7639 151.117 16.0797 151.203 15.9942 151.032C15.3099 150.177 14.7112 149.321 14.1125 148.38C14.4546 148.209 14.7112 147.953 15.0533 147.782C15.7376 148.466 16.4218 149.15 17.0205 149.92C17.1061 150.177 17.0205 150.69 16.8495 151.032ZM144.717 22.3943C145.487 22.4798 146.257 22.3943 146.856 22.6509C150.704 24.5325 154.468 26.4997 158.231 28.4669C158.488 28.638 158.659 29.8354 158.402 30.1775C157.632 31.0328 156.606 31.8026 155.665 32.4869C155.323 32.7435 154.724 32.9145 154.382 32.829C154.04 32.6579 153.869 32.0592 153.784 31.6316C153.356 28.2959 151.816 26.6708 148.737 25.6444C147.198 25.1312 145.829 24.0194 144.375 23.164C144.546 22.9075 144.632 22.6509 144.717 22.3943ZM134.112 13.7557C135.223 13.5847 136.335 13.8412 137.533 13.8412C137.618 14.0978 137.704 14.44 137.704 14.6965C136.677 15.2097 135.651 15.9795 134.454 16.2361C134.112 16.3216 133.256 15.5518 133 14.9531C132.914 14.7821 133.684 13.8412 134.112 13.7557ZM118.032 7.59753C117.946 7.42647 118.631 6.74222 118.887 6.74222C121.539 6.82775 124.19 6.91328 126.756 7.34094C128.21 7.59753 128.894 8.88048 128.98 10.8477C128.039 10.5056 127.44 10.249 126.756 10.0779C125.644 9.73578 124.618 9.30813 123.506 9.05154C123.164 8.96601 122.736 9.47919 122.394 9.73579C122.65 10.0779 122.907 10.6766 123.164 10.7621C125.216 11.1898 127.355 11.3609 129.493 11.7885C130.263 11.9596 130.947 12.3872 131.631 12.7293C131.032 13.2425 130.434 13.7557 129.75 14.2689C129.578 14.44 129.236 14.44 128.98 14.3544C127.098 13.7557 125.473 13.4991 125.473 16.6637C123.762 13.5846 121.196 14.5255 118.887 14.44C116.834 14.3544 116.492 12.5583 115.38 11.1898C116.92 10.249 118.631 9.73579 118.032 7.59753ZM78.4313 19.8284C79.03 20.085 79.7143 20.1705 80.2274 20.5126C80.8262 21.0258 81.2538 21.6245 81.8525 22.3943C80.1419 23.5062 78.3458 23.3351 77.9181 21.8811C77.7471 21.3679 78.2603 20.5981 78.4313 19.8284ZM22.8366 169.506C22.3234 169.079 21.8102 168.48 21.4681 167.881C21.3826 167.796 22.2379 167.026 22.2379 167.026C22.8366 167.454 23.3498 167.967 24.2051 168.737C23.5208 169.164 23.0077 169.592 22.8366 169.506ZM117.519 228.779C119.229 226.726 122.907 226.384 124.532 228.009C123.164 229.292 119.4 229.805 117.519 228.779ZM143.263 217.746C142.494 218.344 141.724 218.943 140.868 219.285C140.099 219.627 139.158 219.884 138.474 219.713C137.276 219.371 135.822 219.029 135.651 217.575C138.217 216.89 140.441 216.206 142.665 215.693C143.349 215.522 144.119 215.949 144.803 216.121C144.204 216.719 143.776 217.318 143.263 217.746ZM151.987 214.752C151.218 215.18 150.191 215.436 149.336 215.607C148.994 215.693 148.652 215.18 148.31 214.923C148.566 214.581 148.652 214.153 148.994 213.982C152.586 211.844 156.093 209.791 159.685 207.739C160.284 207.396 160.968 207.14 161.31 206.627C162.337 205.258 163.277 204.659 165.245 204.745C166.356 204.831 167.554 203.376 168.666 202.521C169.863 201.58 170.89 200.383 172.173 199.528C173.627 198.587 174.225 197.646 173.627 195.85C173.37 195.08 173.883 194.054 174.054 193.113C174.311 193.113 174.653 193.113 174.91 193.198C175.081 194.054 175.252 194.909 175.508 196.534C177.989 194.567 180.127 192.856 182.18 191.06C182.436 190.804 182.436 189.692 182.18 189.521C180.897 188.409 181.581 187.639 182.436 186.784C183.377 185.757 184.318 184.731 185.43 183.448C185.772 185.244 183.548 187.211 186.884 188.067C184.746 190.461 183.035 192.685 180.982 194.567C177.304 197.903 173.541 201.067 169.692 204.146C167.639 205.771 165.33 207.225 163.106 208.594C159.429 210.476 155.665 212.614 151.987 214.752ZM191.075 203.462C190.818 203.205 190.562 203.034 190.305 202.778C190.989 202.008 191.673 201.238 192.358 200.468C192.614 200.64 192.785 200.811 193.042 201.067C192.272 201.837 191.673 202.607 191.075 203.462ZM199.542 185.073C198.772 187.639 198.259 190.461 196.976 192.771C195.437 195.337 193.127 197.389 191.075 199.699C189.877 201.067 187.739 201.922 189.108 204.403C189.279 204.659 188.765 205.6 188.338 205.857C184.917 208.594 181.581 211.331 178.074 213.897C177.219 214.581 176.021 214.752 174.91 215.094C174.824 214.923 174.738 214.666 174.653 214.495C173.456 215.094 172.258 215.522 171.061 216.206C169.521 217.147 167.982 218.259 166.442 219.2C166.1 219.456 165.501 219.2 164.988 219.2C165.074 218.686 164.988 217.917 165.33 217.575C165.929 216.976 166.784 216.634 167.468 216.121C169.692 214.581 171.83 213.041 173.969 211.416C175.166 210.561 176.364 209.62 177.475 208.594C182.009 204.232 186.798 200.041 190.904 195.251C193.641 192.086 195.351 187.981 197.575 184.389C197.917 183.79 198.687 183.448 199.286 183.02C199.371 183.704 199.713 184.474 199.542 185.073ZM202.023 169.849C201.338 171.816 200.825 173.869 200.398 175.921C199.799 179.428 198.003 181.224 194.581 182.165C193.213 182.507 192.016 183.705 190.733 184.474C189.792 185.159 188.851 185.843 187.91 186.613C187.568 186.356 187.311 186.185 186.969 185.928C187.654 184.645 188.423 183.362 189.022 181.994C189.535 180.796 189.877 179.514 190.305 178.316C190.476 177.888 190.476 177.204 190.818 177.119C193.897 175.836 194.581 172.586 196.463 170.362C197.147 169.592 197.661 168.651 198.174 167.796C198.858 166.598 199.628 166.342 200.825 167.026C202.108 167.625 202.536 168.395 202.023 169.849ZM210.832 153.256C210.148 155.137 209.378 157.019 208.352 158.815C208.01 159.414 206.983 159.67 205.957 159.756C205.871 159.927 205.7 160.098 205.615 160.184C204.931 160.953 204.332 161.723 203.648 162.493C203.22 161.638 202.621 160.782 202.279 159.842C201.937 158.644 202.792 158.388 203.819 158.302C206.898 158.045 206.812 157.789 207.411 154.795C207.924 152.486 209.122 150.348 209.977 148.209C210.319 148.295 210.576 148.38 210.918 148.466C211.773 150.091 211.431 151.716 210.832 153.256ZM220.668 120.412C220.668 120.583 220.241 120.925 219.984 120.925C219.727 120.925 219.385 120.669 219.214 120.412C218.444 119.215 219.129 116.307 220.754 114.938C220.668 116.991 220.754 118.701 220.668 120.412Z" fill="#F7C60A"/>
<path d="M224.859 149.835C224.261 150.091 223.491 150.434 223.32 150.947C222.037 154.881 220.839 158.816 219.728 162.835C219.556 163.263 220.07 164.118 220.497 164.461C220.839 164.717 221.695 164.461 222.037 164.118C222.55 163.691 222.978 163.092 223.063 162.408C223.833 158.559 224.517 154.625 225.287 150.434C225.287 150.434 224.945 149.835 224.859 149.835Z" fill="#F7C60A"/>
<path d="M225.372 90.391C225.8 91.4173 226.57 92.2726 227.169 93.299C227.34 93.2135 227.596 93.0424 227.767 92.9569C227.853 92.7858 228.024 92.5292 227.938 92.4437C227.169 89.0225 226.484 85.6013 225.629 82.1801C225.458 81.5814 224.432 81.3248 223.747 80.8116C223.405 81.6669 222.721 82.6933 222.892 83.3775C223.576 85.7723 224.432 88.0817 225.372 90.391Z" fill="#F7C60A"/>
<path d="M100.156 12.3019C100.584 12.473 101.097 12.3874 101.61 12.3874V12.473C102.465 12.3874 103.235 12.3874 104.09 12.3019C105.63 12.0453 106.571 11.1045 106.656 9.56495C106.656 9.1373 106.485 8.53858 106.143 8.36752C105.887 8.19646 105.117 8.36752 104.946 8.70964C103.834 10.2492 102.807 10.3347 101.097 9.47942C100.498 9.1373 99.3007 9.9926 98.4454 10.4203C98.1889 10.5058 98.1033 11.3611 98.1889 11.4466C98.7876 11.7887 99.4718 12.1309 100.156 12.3019Z" fill="#F7C60A"/>
<path d="M22.4945 46.0009C20.3563 46.7706 16.764 51.988 17.0206 53.9552C18.9878 53.6986 22.9222 47.8825 22.4945 46.0009Z" fill="#F7C60A"/>
<path d="M24.5474 182.08C23.9487 182.935 23.35 183.79 23.0078 184.303C23.2644 186.271 24.1197 187.04 25.4027 186.784C26.258 186.613 26.9422 185.757 27.712 185.244C26.6856 184.218 25.5738 183.191 24.5474 182.08Z" fill="#F7C60A"/>
<path d="M228.024 148.38C228.024 148.637 228.537 149.15 228.794 149.15C229.221 149.15 229.82 148.808 229.906 148.551C230.675 146.413 230.504 144.275 229.564 142.222C227.767 144.018 228.024 146.242 228.024 148.38Z" fill="#F7C60A"/>
<path d="M9.92137 120.926C10.0924 120.241 8.98054 119.215 8.38183 118.36C7.61205 119.301 6.84228 120.241 5.81592 121.524C6.67122 122.38 7.1844 122.893 7.78312 123.406C8.55289 122.551 9.75031 121.781 9.92137 120.926Z" fill="#F7C60A"/>
<path d="M15.5667 63.6199C16.0798 63.7909 16.9352 62.5935 18.047 61.6527C16.9352 60.6263 16.1654 59.9421 15.4811 59.2578C14.7969 60.0276 13.685 60.7974 13.685 61.5671C13.685 62.3369 14.7969 63.3633 15.5667 63.6199Z" fill="#F7C60A"/>
<path d="M168.067 13.4135C166.613 12.5582 165.416 11.7029 164.218 11.0186C163.962 10.9331 163.534 10.9331 163.277 11.1042C163.106 11.2752 163.106 11.7029 163.192 11.9595C163.705 13.1569 166.356 14.0977 168.067 13.4135Z" fill="#F7C60A"/>
<path d="M70.3915 16.4069C72.1021 16.5779 72.6153 15.5516 72.7008 13.4988C71.5034 14.012 70.6481 14.2686 69.8783 14.6963C69.5362 14.8673 69.1941 15.5516 69.2796 15.8082C69.3652 16.0647 69.9639 16.4069 70.3915 16.4069Z" fill="#F7C60A"/>
<path d="M226.057 99.1151C226.313 99.0296 226.484 98.944 226.741 98.944C226.399 97.49 225.971 96.036 225.629 94.582C224.175 96.3781 224.517 97.9177 226.057 99.1151Z" fill="#F7C60A"/>
<path d="M60.2135 19.6574C60.8978 19.2297 61.4965 18.8021 62.0952 18.2889C61.9241 18.0323 61.7531 17.6902 61.4965 17.4336C60.8123 17.8612 60.128 18.2889 59.5293 18.7165C59.7859 19.0587 60.2135 19.6574 60.2135 19.6574Z" fill="#F7C60A"/>
</svg>
