<svg width="79" height="80" viewBox="0 0 79 80" fill="none" xmlns="http://www.w3.org/2000/svg">
<path d="M71.669 61.1688C70.5849 63.0518 69.5578 64.9348 68.4736 66.8178C68.3595 67.0461 68.1312 67.3885 67.903 67.4455C65.3352 68.1873 64.3652 70.7551 62.311 72.1246C61.6833 72.524 60.8844 72.6952 60.1997 73.0375C59.4008 73.437 58.4879 73.8364 57.8031 74.4641C56.3766 75.7765 54.9501 76.8606 52.8959 76.8606C52.3823 76.8606 51.9258 77.203 51.4123 77.3171C49.8716 77.5454 48.6163 78.8578 46.8474 78.3442C46.3909 78.2301 45.6491 79.2002 45.1355 79.1431C43.4237 78.9719 41.883 80.7408 40.1712 79.4284C40.1141 79.3713 39.9429 79.3713 39.8859 79.3713C38.3452 80.6267 37.1469 79.8849 35.8916 78.7437C35.5492 78.4584 34.6362 78.4584 34.1797 78.7437C33.2668 79.2002 32.582 78.9719 31.7832 78.6295C30.4137 78.116 28.9301 77.7736 27.5036 77.3742C25.6205 76.8036 23.6804 76.233 21.7974 75.6624C21.5692 75.6053 21.2268 75.4912 21.2268 75.32C20.9415 73.7223 19.572 73.3799 18.3737 72.8663C18.2596 72.8093 18.0884 72.7522 18.0314 72.6381C16.6619 70.5268 14.6077 69.2144 12.8388 67.5026C12.4394 67.1032 11.9829 66.7037 11.2981 66.1331C11.2411 66.8749 11.2411 67.2173 11.184 67.902C10.6705 67.5026 10.271 67.2743 9.98572 66.932C9.41511 66.3043 8.67331 65.6766 9.24393 64.5354C9.81454 64.7066 10.3852 64.8207 11.184 64.9919C11.0128 64.2501 11.0128 63.6224 10.7846 63.1659C9.8716 61.6823 8.90156 60.1987 7.93151 58.7722C6.96147 57.3457 6.04849 55.9191 6.6191 54.0361C6.67616 53.8649 6.50498 53.6367 6.39086 53.3514C6.10555 53.5226 5.93437 53.6367 5.70612 53.8079C5.19257 52.6666 4.67902 51.5254 4.16547 50.4412C3.99428 50.4983 3.76604 50.6124 3.59485 50.6695C4.67902 53.4084 5.82024 56.1474 6.84735 58.7151C3.99428 58.4869 2.96718 55.805 1.3124 53.922C1.14121 53.8079 1.08415 53.7508 1.02709 53.6367C0.570601 50.7266 -0.456503 47.8735 0.171171 44.8492C0.285294 44.8492 0.399417 44.7922 0.570601 44.7922C1.19828 47.8164 1.88301 50.7836 2.51069 53.8079C2.62481 53.7508 2.79599 53.7508 2.91012 53.6937C2.45363 50.5554 1.94007 47.3599 1.48358 44.1645C1.5977 44.1645 1.71183 44.1074 1.82595 44.1074C2.16832 45.4198 2.56775 46.7893 2.91012 48.1017C3.13836 48.1017 3.36661 48.0447 3.53779 48.0447C3.76604 45.8193 3.99428 43.6509 4.22253 41.4256C4.27959 41.0832 4.33665 40.7408 4.50783 40.5126C5.19257 39.7708 5.76318 39.086 4.33665 38.5154C4.22253 38.4584 4.22253 38.0589 4.22253 37.8307C4.62196 35.2059 5.02139 32.581 5.592 30.0133C5.87731 28.5868 6.44792 27.2173 6.96147 25.7907C7.30384 24.8207 7.41796 23.7365 8.67331 23.3942C8.78743 23.3371 8.90156 23.1089 9.01568 22.9377C10.4422 19.3999 13.067 16.7751 15.9772 14.3785C17.0613 13.4655 17.8602 12.2101 18.9444 11.3542C20.0856 10.4412 21.398 9.81357 22.6533 9.07178C23.281 8.72941 23.9087 8.50116 24.5934 8.21586C25.8488 7.64524 25.6776 7.01757 24.7646 6.27577C21.8545 8.72941 21.8545 8.72941 20.6562 8.55822C21.1697 8.04467 21.5121 7.58818 21.9686 7.18875C22.7104 6.61814 23.5093 6.10459 24.2511 5.53397C25.107 4.9063 25.8488 4.79218 26.4194 5.59103C27.0471 5.02042 27.6747 4.39275 28.2454 3.82213C28.3595 3.93626 28.4736 4.05038 28.6448 4.10744C28.4165 4.79218 28.1883 5.53397 27.903 6.44695C28.873 6.21871 29.786 6.04753 30.7561 5.81928C30.7561 5.6481 30.7561 5.53397 30.7561 5.36279C30.4137 5.07748 30.0143 4.84924 29.3866 4.33569C30.5278 3.99332 31.4408 3.70801 32.6961 3.36564C32.4108 4.10744 32.2967 4.44981 32.0685 5.02042C33.4379 4.84924 34.8645 3.99332 35.9486 5.76222C36.6904 4.96336 37.3752 4.1645 38.174 3.30858C38.0599 3.19446 37.8887 3.02327 37.5464 2.73797C38.2311 2.50972 38.7446 2.33854 39.3723 2.16735C39.1441 1.82499 38.9729 1.53968 38.6876 1.08319C39.7147 1.08319 40.5706 1.08319 41.4836 1.08319C41.4836 0.626698 41.4836 0.227269 41.4836 -0.000976562C43.0813 -0.000976562 44.5649 -0.000976562 46.1056 -0.000976562C46.1626 0.170207 46.2197 0.28433 46.2197 0.455514C45.4779 0.854944 44.679 1.31143 43.8802 1.71086C47.9886 5.02042 47.9886 5.02042 47.3609 5.87634C48.5021 6.21871 49.5292 6.50402 50.6134 6.84638C50.6705 6.78932 50.7275 6.73226 50.7275 6.61814C50.5563 6.38989 50.3281 6.21871 50.0998 5.9334C50.4422 5.6481 50.7275 5.41985 51.0128 5.19161C51.5264 5.76222 51.9829 6.27577 52.4964 6.96051C51.8117 7.75937 52.5535 8.04467 53.2953 8.21586C54.5506 8.50116 55.6348 9.52827 57.1184 8.90059C57.8031 8.61529 59.8003 11.0119 59.9144 11.6395C60.6562 12.1531 61.2268 12.5525 61.7404 12.9519C63.0528 13.8649 64.4222 14.7208 65.6205 15.748C66.7047 16.718 67.7318 17.8022 68.4736 19.0575C70.4707 22.4241 72.0114 26.019 74.1797 29.2144C75.378 30.9833 75.7775 32.7522 76.2339 34.6923C76.3481 35.2059 76.9187 35.6053 77.261 36.0618C77.4322 35.6624 77.6034 35.32 77.8317 34.9206C79.5435 36.4612 77.8887 37.8878 77.9458 39.4284C77.6034 39.2572 77.3181 39.086 77.0328 38.9719C77.8317 40.7979 78.9729 42.4527 77.4893 44.7922C77.4893 43.4227 77.4893 42.4527 77.4893 41.4256C77.3181 41.3685 77.1469 41.3685 76.9757 41.3114C75.7775 45.9905 75.9486 51.126 72.9814 55.5768C72.7532 54.9491 72.6391 54.5497 72.525 54.2073C72.4108 54.1502 72.2967 54.0932 72.1255 54.0932C71.5549 55.4626 70.9843 56.8321 70.3566 58.2016C70.5278 58.3157 70.699 58.3728 70.8702 58.4869C71.2125 58.0875 71.5549 57.7451 71.9543 57.3457C71.4408 60.6552 68.9872 62.8806 67.2183 65.9619C68.873 64.2501 70.2996 62.7094 71.669 61.1688C71.7261 61.2258 71.669 61.1688 71.669 61.1688ZM41.5977 39.999C42.2254 39.4284 42.6819 39.029 43.0813 38.5725C45.1926 36.233 45.1355 28.5868 42.9672 26.3043C40.5706 23.7365 34.408 23.7365 32.1255 26.3614C31.5549 26.989 31.0414 27.902 30.9272 28.7579C30.4707 32.7522 29.5007 36.8606 32.9814 39.5996C32.1255 41.1403 30.8702 42.4527 30.6419 43.9363C30.2425 46.3899 30.4137 48.9576 30.4137 51.4683C30.4707 55.4056 32.525 57.5169 36.7475 57.8592C40.97 58.1445 44.5649 56.6039 44.679 51.3542C44.7361 49.9848 44.7931 48.6153 44.7361 47.2458C44.7931 44.3357 44.7931 41.4826 41.5977 39.999ZM22.0827 27.5596C22.1398 28.4726 22.2539 29.1003 22.2539 29.6709C22.2539 38.4013 22.2539 47.1888 22.2539 55.9191C22.2539 56.8321 22.368 57.4598 23.5093 57.5169C24.6505 57.5169 24.8217 57.0033 24.8217 56.0333C24.8217 46.1616 24.7646 36.233 24.8217 26.3614C24.8217 25.1631 24.4222 24.6495 23.281 24.8207C22.7104 24.9348 22.0257 25.049 21.5692 25.3343C20.0856 26.2472 18.7161 27.2173 17.2896 28.1303C16.0342 28.9291 16.2054 29.8992 16.6619 31.2116C18.4308 30.0133 20.0856 28.8721 22.0827 27.5596ZM62.8245 45.7622C63.7946 45.7622 64.8217 45.8763 65.7917 45.7052C66.2482 45.6481 66.9329 45.1916 67.0471 44.7922C67.2753 43.8792 66.5335 43.7651 65.7917 43.7651C63.9087 43.7651 61.9686 43.708 60.0856 43.7651C59.0014 43.8221 58.5449 43.4227 58.5449 42.2815C58.602 41.0261 58.5449 39.7137 58.5449 38.4584C58.5449 37.4883 58.0314 37.2601 57.1755 37.2601C56.3195 37.2601 55.9772 37.6024 55.9772 38.4584C56.0342 39.3143 55.9772 40.1702 55.9772 41.0261C55.9201 43.9363 56.4907 43.708 53.1812 43.708C51.6976 43.708 50.214 43.708 48.7874 43.708C48.1027 43.708 47.418 43.7651 47.418 44.7351C47.418 45.7052 48.1027 45.7052 48.7874 45.7052C50.7275 45.7052 52.6676 45.7622 54.6077 45.7052C55.5777 45.7052 55.9772 45.9905 55.9201 47.0176C55.863 48.33 55.9201 49.6995 55.9201 51.0119C55.9201 51.9248 56.3195 52.1531 57.1184 52.2101C58.8873 52.2672 58.4308 50.9548 58.4308 49.9848C58.602 45.7622 58.602 45.7622 62.8245 45.7622ZM67.3324 61.8535C64.8217 67.0461 60.3709 70.3557 56.0342 73.7793C61.6262 72.1246 67.5606 65.9049 67.3324 61.8535ZM59.3438 65.5054C58.7732 66.2472 58.4308 66.932 57.9173 67.3314C56.0342 68.7009 54.0941 70.0133 52.1541 71.3257C51.6405 71.6681 51.0128 71.9534 50.4993 72.2957C50.5563 72.4099 50.6134 72.581 50.7275 72.6952C51.127 72.524 51.5264 72.3528 51.9258 72.1816C52.9529 71.611 53.98 71.1545 54.893 70.4698C57.4037 68.5868 59.8003 66.6467 62.2539 64.7066C63.0528 64.0789 63.3951 63.223 62.4822 62.1388C61.3409 63.3371 61.9115 66.3043 59.3438 65.5054ZM63.3951 62.3671C63.5093 62.4812 63.6234 62.5383 63.7375 62.6524C64.8217 62.0818 65.9058 61.5682 66.9329 60.9976C67.2753 60.8264 67.6177 60.427 67.7318 60.0275C68.0742 59.0575 68.3024 58.0304 68.5307 57.0033C68.5877 56.7751 68.3024 56.4327 68.0742 56.2615C67.903 56.1474 67.4465 56.2615 67.3324 56.4327C66.02 58.3728 64.7076 60.3699 63.3951 62.3671ZM39.3723 3.59389C40.1712 4.79218 42.5107 5.07748 44.5078 4.10744C43.9372 3.08034 43.5378 2.11029 42.1113 1.82499C40.5135 1.53968 40 2.50972 39.3723 3.59389ZM49.301 7.13169C49.301 7.18875 49.301 7.30287 49.301 7.35994C50.3281 8.27292 51.2981 9.1859 52.3823 9.98476C52.6676 10.213 53.2953 9.9277 53.8088 9.9277C53.8088 9.75651 53.8659 9.52827 53.8659 9.35708C52.3252 8.61528 50.7846 7.87349 49.301 7.13169ZM69.0442 54.7779C70.5278 53.5226 71.7261 52.2672 71.5549 50.0989C69.9572 50.9548 70.9272 53.6367 68.4165 53.4655C68.7019 54.0361 68.873 54.3785 69.0442 54.7779ZM48.6733 73.2658C48.6733 73.1517 48.6163 72.9805 48.6163 72.8663C47.8174 73.0375 47.0185 73.2087 46.1056 73.437C47.1897 74.8064 47.8745 73.7793 48.6733 73.2658Z" fill="black"/>
<path d="M76.3481 33.0945C76.1769 31.2114 76.0057 29.3855 75.8345 27.5595C75.9487 27.5595 76.1198 27.5595 76.234 27.5024C76.8046 29.3284 77.9458 31.0402 76.3481 33.0945Z" fill="black"/>
<path d="M76.291 50.5556C76.0627 51.9821 75.9486 53.4087 75.6633 54.7781C75.6062 55.0064 75.1497 55.1776 74.8644 55.4058C74.8074 55.0634 74.5791 54.7211 74.6933 54.4358C75.0927 53.1234 75.5492 51.8109 76.0057 50.4985C76.1198 50.4985 76.1769 50.4985 76.291 50.5556Z" fill="black"/>
<path d="M71.7261 61.2258C71.7832 59.1716 73.7233 58.5439 74.7504 57.2886C74.8645 57.4027 75.0357 57.5168 75.1498 57.6309C73.9515 58.8292 72.8103 60.0275 71.7261 61.2258C71.669 61.1687 71.7261 61.2258 71.7261 61.2258Z" fill="black"/>
<path d="M33.2667 3.19457C34.1226 3.02339 34.9786 2.79514 36.1198 2.56689C36.0057 2.90926 36.0057 3.47988 35.8345 3.53694C35.0356 3.76518 34.2368 3.82224 33.3808 3.93637C33.3808 3.65106 33.3238 3.42281 33.2667 3.19457Z" fill="black"/>
<path d="M32.8102 48.2729C32.9814 46.7893 33.0385 45.4198 33.2097 44.1074C33.552 42.0532 35.1498 40.8549 37.5463 40.7979C39.8858 40.7979 41.7689 41.9391 41.883 43.9933C42.1112 46.8464 42.1112 49.7565 41.8259 52.6095C41.5977 54.8349 39.8858 55.9191 37.5463 55.9191C35.1498 55.9191 33.6091 54.7208 33.2667 52.4384C33.0385 51.0118 32.9244 49.5853 32.8102 48.2729Z" fill="black"/>
<path d="M33.3238 32.5239C33.3238 31.7821 33.2668 30.9832 33.3238 30.2414C33.5521 27.6737 34.9786 26.3613 37.4893 26.3042C39.9429 26.2471 41.4836 27.4454 41.7119 29.9561C41.883 31.8962 41.826 33.9504 41.5977 35.8905C41.3124 37.8306 39.943 38.7436 37.8317 38.8577C35.6063 38.9147 34.1798 38.1159 33.6662 36.1758C33.3809 34.9775 33.3238 33.7222 33.1526 32.5239C33.2097 32.5239 33.2668 32.5239 33.3238 32.5239Z" fill="black"/>
</svg>
