<svg width="79" height="80" viewBox="0 0 79 80" fill="none" xmlns="http://www.w3.org/2000/svg">
<path d="M43.4758 2.39219C45.2422 2.67709 46.3248 3.81669 47.3504 5.07025C47.5214 5.24119 47.4074 5.64005 47.4644 6.26683C48.2051 6.49475 49.2308 6.83663 50.1425 7.12153C50.2564 6.55173 50.3704 5.98193 50.5413 5.24119C51.2821 6.09589 51.7379 6.66569 52.1368 7.17851C52.0798 7.23549 52.0798 7.29247 52.0228 7.34945C52.3647 7.74831 52.6496 8.43207 53.0484 8.48905C54.302 8.77395 55.3276 9.85657 56.8661 9.22979C57.6638 8.88791 59.5442 11.395 59.5442 12.2497C60.6268 12.8765 61.7094 13.3324 62.5641 14.0731C64.3875 15.6685 66.2678 17.264 67.8633 19.1443C70.4274 22.1643 71.7949 25.925 73.7892 29.2868C74.8148 30.9962 75.3846 32.7056 75.8974 34.5859C76.0114 34.8708 76.5242 35.0987 76.8661 35.3267C77.265 35.5546 78.0057 35.6116 78.1197 35.8965C78.3476 36.5232 78.3476 37.321 78.2336 38.0047C78.1197 38.5745 77.7208 39.0873 77.3789 39.7141C77.208 39.6002 76.9801 39.3722 76.7521 39.2013C77.094 41.0817 78.7464 42.791 77.094 45.0703C77.151 43.8737 77.208 42.905 77.265 41.9363C77.094 41.8794 76.9801 41.8794 76.8091 41.8224C76.6382 42.2782 76.3533 42.7341 76.2393 43.1899C75.6695 46.0389 75.1567 48.8879 74.4729 51.6799C74.1311 53.0475 73.5043 54.358 72.9915 55.7255C72.8205 55.7255 72.7066 55.6685 72.5356 55.6685C72.4217 55.3267 72.3077 54.9278 72.1937 54.5859C72.0798 54.5289 71.9088 54.472 71.7949 54.415C71.2251 55.7825 70.5983 57.15 70.0285 58.5175C70.2564 58.6885 70.4843 58.8594 70.7123 59.0304C70.9972 58.5745 71.2251 58.1187 71.51 57.6628C71.339 60.17 69.6866 61.8794 68.661 63.9876C69.5157 63.1329 70.4274 62.3352 71.2821 61.4805V61.4235C70.9402 62.1073 70.5413 62.848 70.1994 63.5318C69.7436 64.3865 69.3447 65.3552 68.718 66.0959C68.1482 66.8366 67.3504 67.4064 66.6097 68.0332C66.0969 68.4891 65.4701 68.8309 64.9573 69.3438C63.8177 70.4834 62.6781 71.623 61.5385 72.7626C61.3675 72.9335 61.0257 73.2184 60.8547 73.2184C59.0314 73.0475 58.0627 74.1871 56.8661 75.2697C56.2963 75.7825 55.2707 76.9791 54.416 75.3267C54.416 75.3267 53.7892 75.5546 53.5043 75.7255C52.7066 76.2953 52.0798 77.15 51.2251 77.4349C49.7436 77.8908 48.4331 79.1443 46.6667 78.4606C46.4957 78.4036 46.2108 78.5745 45.9829 78.6885C44.1026 79.6572 42.1083 80.113 40 79.5432C39.7721 79.4862 39.4872 79.4862 39.3162 79.6002C38.1197 80.2839 37.151 79.7711 36.1823 79.1443C35.7835 78.8594 35.0997 78.5745 34.7578 78.7455C33.2194 79.4862 31.8519 78.9164 30.4274 78.4606C28.718 77.8908 27.0086 77.4919 25.2992 77.0361C24.1596 76.6942 23.0769 76.2953 21.9373 75.8965C21.6524 75.7825 21.1396 75.6685 21.0826 75.4976C20.6838 73.9591 19.4302 73.5603 18.1766 73.0475C18.0627 72.9905 17.8917 72.9335 17.8348 72.8195C16.5242 70.9962 14.9288 69.5147 13.1054 68.2042C12.0798 67.5204 11.396 66.3808 10.5413 65.4691C10.3704 65.5831 10.2564 65.697 10.0855 65.754C10.4274 66.3808 10.7123 67.0076 11.0541 67.6344C10.9402 67.6913 10.7692 67.8053 10.6553 67.8623C10.0285 66.9506 9.34474 66.0389 8.71795 65.0703C8.83191 64.9563 8.94587 64.8423 9.05983 64.7284C9.57266 64.7854 10.1425 64.8993 10.9972 65.0133C10.8262 64.2725 10.7692 63.5888 10.4843 63.076C9.57265 61.5375 8.54701 60.056 7.52137 58.5745C6.60969 57.207 5.92593 55.7825 6.26781 54.5859C5.35613 53.0475 4.61539 51.9079 3.87465 50.7113C3.70371 50.7683 3.58975 50.8252 3.41881 50.8822C4.61539 53.7312 5.69801 56.4093 6.83761 59.3153C5.58405 58.5175 4.33049 57.9477 3.41881 57.0361C0.170945 53.7312 -0.170935 49.5147 0.113965 45.2412C0.284905 45.1842 0.398865 45.1842 0.569806 45.1272C1.19659 48.1472 1.88035 51.1101 2.50713 54.1301C2.62109 54.0731 2.79203 54.0731 2.90599 54.0161C2.39317 50.8252 1.93733 47.6344 1.42451 44.4435C1.53847 44.4435 1.65243 44.3865 1.76639 44.3865C2.10827 45.754 2.50713 47.0646 2.84901 48.4321C3.07693 48.4321 3.24787 48.4321 3.47579 48.3751C3.70371 46.2099 3.81767 44.0446 4.27351 41.9363C4.55841 40.5688 4.44445 39.3153 4.38747 37.9477C4.27351 33.2754 5.69801 28.774 7.74929 24.6714C9.68662 20.9107 12.3647 17.4919 15.6125 14.6999C16.4103 14.0161 17.3219 13.3893 17.8917 12.5346C19.6011 10.2554 22.2222 9.85657 24.3875 8.54603C24.7294 8.31811 25.0712 8.09019 25.5271 7.80529C25.2422 7.34945 24.9573 6.95059 24.6724 6.49475C23.6467 7.69133 22.6211 8.88791 21.0826 9.05885C20.9687 8.88791 20.8547 8.77395 20.7407 8.60301C21.5385 7.91925 22.3932 7.23549 23.1909 6.55173C23.5898 6.20985 24.4445 6.15287 23.8177 5.29817C23.8177 5.29817 24.3305 4.78535 24.3875 4.84233C25.1852 5.46911 26.8376 5.35515 26.4388 7.12153C26.3818 7.29247 27.0086 7.63435 27.4074 7.80529C26.5527 5.12723 26.6097 4.84233 28.547 4.44347C28.3761 5.18421 28.2051 5.86797 28.0342 6.77965C29.0029 6.55173 29.8576 6.32381 31.1681 6.03891C30.4274 5.46911 30.0285 5.18421 29.4017 4.72837C30.5413 4.38649 31.453 4.10159 32.7066 3.75971C32.4217 4.50045 32.2507 4.89931 32.0798 5.29817C35.2137 5.01327 35.2707 5.01327 35.8974 6.15287C36.6382 5.35515 37.3219 4.61441 38.0627 3.75971C37.9487 3.58877 37.7208 3.41783 37.4359 3.07595C38.1197 2.90501 38.6325 2.73407 39.2593 2.56313C39.0883 2.22125 38.9174 1.93635 38.6895 1.42352C39.5442 1.36654 40.3419 1.36654 41.1966 1.30956C41.1966 0.853724 41.1966 0.511844 41.1966 -0.000976562C42.849 0.112984 44.3875 0.169964 45.9259 0.283924C45.9259 0.397884 45.9829 0.568824 45.9829 0.682784C45.2422 1.25258 44.3875 1.82239 43.4758 2.39219C42.3932 2.33521 41.3105 2.22125 40.2849 2.10729C39.886 2.84803 39.5442 3.36085 39.2593 3.93065C40.114 5.18421 42.6211 5.41213 44.3305 4.44347C44.1026 3.75971 43.8177 3.07595 43.4758 2.39219ZM39.8291 22.7341C39.7151 23.019 39.6581 23.2469 39.5442 23.5318C39.3163 23.1329 39.1453 22.6201 38.8604 22.2782C37.4359 20.6828 36.0114 19.0873 34.5299 17.5489C33.2764 16.2953 32.0228 16.0674 30.8262 17.093C28.3761 19.2013 26.0399 21.4235 23.7607 23.7027C22.792 24.6714 22.7351 26.0389 23.5898 27.1215C25.5841 29.5147 27.6353 31.8509 29.9145 34.0731C31.2251 35.3836 32.6496 35.2127 34.1311 33.9022C35.8974 32.3637 37.5499 30.7113 39.2023 29.1158C39.5442 28.774 39.943 28.4321 40.5128 27.9762C40.7977 28.9449 40.9687 29.6287 41.1966 30.3694C41.5385 31.566 41.8234 32.8765 42.3362 34.0161C42.906 35.3836 44.1026 36.1244 45.5841 35.7825C48.604 35.0418 51.567 34.244 54.4729 33.3324C56.0684 32.8195 56.6382 31.6799 56.2393 30.0275C55.6125 27.1785 54.9288 24.3865 54.0741 21.5945C53.4473 19.5432 52.2507 18.9164 50.0855 19.4292C48.2621 19.8281 46.3818 20.2839 44.5584 20.9107C43.0199 21.3665 41.4815 22.1073 39.8291 22.7341ZM56.7521 40.8537C55.1567 40.2839 54.302 40.6258 53.7322 42.0503C52.9345 44.1016 51.9658 46.1529 50.9402 48.0902C49.4587 50.9392 49.4017 54.0161 49.6866 57.093C49.8576 58.6885 50.7123 59.8281 52.3077 60.056C53.6182 60.2269 55.0427 60.17 56.3533 59.942C57.6068 59.7141 58.4616 58.8024 58.5755 57.4919C58.6895 55.4976 58.7465 53.4463 58.6325 51.395C58.5185 49.7426 57.4359 48.8309 55.7265 48.603C55.0427 48.546 54.359 48.4891 53.3333 48.3751C54.5299 45.811 55.6125 43.4178 56.7521 40.8537ZM27.9202 40.8537C25.755 40.3979 25.698 40.4549 24.9573 42.0503C23.8177 44.7284 22.6781 47.3495 21.5385 50.0275C20.8547 51.623 20.114 53.2184 19.4872 54.8708C18.9174 56.2383 19.2593 56.7512 20.6838 56.8081C21.6524 56.8081 22.5641 56.8081 23.5328 56.8081C25.755 56.8081 25.755 56.8081 25.812 59.0304C25.812 59.7711 25.9259 60.2839 26.8946 60.2839C27.7493 60.2839 28.0912 60.056 28.0912 59.1443C28.0912 58.0617 27.6353 56.7512 29.4587 56.6372C29.5727 56.6372 29.7436 56.2383 29.7436 56.0674C29.7436 55.8965 29.5157 55.5546 29.3447 55.6116C27.7493 55.6685 28.0912 54.5289 28.0912 53.6742C28.0912 52.7056 28.0912 51.6799 28.0912 50.7113C28.0912 49.9136 27.9202 49.4577 27.0086 49.4577C26.1539 49.4577 25.812 49.8566 25.869 50.6543C25.869 51.9079 25.9259 53.2184 25.812 54.472C25.812 54.8138 25.4131 55.4406 25.1852 55.4976C24.1596 55.6116 23.0769 55.5546 21.8234 55.5546C23.8747 50.4264 25.869 45.697 27.9202 40.8537ZM42.792 43.019C42.792 44.0446 42.792 44.7284 42.792 45.4121C42.792 50.0275 42.792 54.5859 42.792 59.2013C42.792 60.113 43.2479 60.2839 44.0456 60.2839C44.7863 60.2839 45.1852 60.056 45.1852 59.2583C45.1852 53.3893 45.1852 47.5204 45.1282 41.5945C45.1282 41.2526 44.6154 40.7398 44.2735 40.6828C42.1653 40.3979 40.9117 41.8794 39.4872 43.019C39.2593 43.1899 39.4302 43.8737 39.4302 44.3295C39.886 44.3295 40.3419 44.3865 40.7407 44.2725C41.3675 43.9876 41.9373 43.5318 42.792 43.019ZM56.2963 73.7882C63.0769 72.2497 67.7493 64.6714 67.1225 61.6514C64.9573 67.2355 60.3989 70.1985 56.2963 73.7882ZM63.3049 62.5631C63.4188 62.6771 63.5328 62.7911 63.6467 62.905C64.7294 62.3352 65.869 61.7654 66.8946 61.1386C67.2365 60.9677 67.4644 60.5118 67.6353 60.113C67.9202 59.2013 68.1482 58.2896 68.3761 57.3779C68.4331 57.15 68.2051 56.6372 68.0342 56.5802C67.7493 56.5232 67.2365 56.5802 67.1225 56.8081C65.812 58.6885 64.5584 60.6258 63.3049 62.5631ZM34.1311 53.3893C35.0997 53.3893 36.1254 53.4463 37.094 53.3893C37.3789 53.3893 37.6068 53.0475 37.8917 52.8195C37.6068 52.5916 37.3789 52.0788 37.094 52.0788C35.1567 52.0218 33.2194 52.0218 31.2821 52.0788C30.9972 52.0788 30.7123 52.4777 30.3704 52.7056C30.6553 52.9335 30.9402 53.3324 31.2251 53.3324C32.2507 53.4463 33.2194 53.3893 34.1311 53.3893ZM58.8604 65.6401C58.6895 67.6344 56.9801 68.0902 55.8405 69.1728C55.5556 69.4577 55.2707 69.6856 54.9858 69.9705C55.3846 69.9136 55.9544 70.0275 56.2393 69.8566C58.0627 68.4321 59.8291 66.9506 61.5955 65.4691C62.5641 64.6714 63.0769 63.7027 62.3362 62.1073C61.9943 62.905 61.5955 63.4178 61.5955 63.9876C61.5955 65.1272 60 66.2099 58.8604 65.6401ZM52.1937 10.9392C52.8205 10.5403 53.3333 10.2554 54.1311 9.79959C52.2507 8.94489 50.8262 8.26113 49.4017 7.57737C49.2878 7.74831 49.2308 7.86227 49.1168 8.03321C50.6553 8.54603 52.1368 9.11583 52.1937 10.9392ZM71.1111 50.3694C70.9972 50.5403 70.8832 50.7683 70.7123 50.9392C70.0855 51.9079 70.4274 53.5033 68.7749 53.7882C68.718 53.7882 68.7749 54.415 68.7749 55.0418C70.4843 53.6742 71.6239 52.4207 71.1111 50.3694ZM45.9259 73.6742C47.2935 75.0987 47.9772 73.6742 48.8319 73.3324C48.8319 73.2184 48.7749 73.1044 48.7749 72.9335C47.8633 73.2184 47.0086 73.3893 45.9259 73.6742Z" fill="black"/>
<path d="M76.0684 50.9392C75.9544 52.1927 75.8405 53.4463 75.6125 54.6429C75.5556 55.0417 74.9858 55.3266 74.7009 55.6115C74.7009 55.2127 74.5299 54.7568 74.6439 54.4149C74.9858 53.2184 75.4416 52.0218 75.8405 50.8252C75.8974 50.8822 76.0114 50.8822 76.0684 50.9392Z" fill="black"/>
<path d="M71.51 61.4805C71.6239 59.4862 73.4473 58.8024 74.5299 57.5488C74.6439 57.6628 74.7578 57.7767 74.9288 57.8907C73.7892 59.0873 72.6496 60.2839 71.51 61.4805Z" fill="black"/>
<path d="M33.2764 3.47493C34.0741 3.30398 34.9288 3.13304 36.0114 2.84814C35.8974 3.247 35.8405 3.81681 35.6695 3.81681C34.9288 3.98775 34.1311 4.04473 33.3333 4.15869C33.3333 3.98775 33.3333 3.70285 33.2764 3.47493Z" fill="black"/>
<path d="M76.5242 31.2811C76.2393 30.1985 75.8974 29.1159 75.6125 28.0332C75.7835 27.9763 75.9544 27.9193 76.1254 27.8623C76.4673 28.9449 76.7522 29.9706 77.094 31.0532C76.8661 31.1671 76.6952 31.2241 76.5242 31.2811Z" fill="black"/>
<path d="M41.5954 27.1215C40.9117 26.9505 40.4558 26.7796 40.057 26.6656C38.0057 28.7169 35.9544 30.8252 33.7892 32.8195C32.5926 33.9591 31.2821 33.9021 30.0855 32.7055C28.4331 31.0531 26.8376 29.4007 25.2991 27.6343C24.0456 26.1528 24.1595 24.6713 25.5271 23.3038C26.9516 21.8793 28.3761 20.5118 29.8576 19.2012C31.6239 17.6628 33.2194 17.7767 34.8148 19.5431C36.2963 21.1385 37.7778 22.734 39.2023 24.3864C40.057 25.3551 40.7407 25.0702 41.1966 24.2155C41.9373 22.791 43.1339 22.2781 44.5584 21.9363C45.8689 21.6514 47.1225 21.2525 48.3761 20.8536C51.2821 19.9989 52.7066 20.7967 53.4473 23.6457C53.9601 25.583 54.359 27.5203 54.9288 29.4576C55.3276 30.8252 54.8718 31.8508 53.6752 32.2497C51.0541 33.1613 48.3191 33.9021 45.641 34.5289C44.2165 34.8707 43.3618 33.7881 42.963 32.5346C42.5071 30.7112 42.1083 28.8878 41.5954 27.1215ZM42.963 25.2981C43.7607 25.8679 44.2735 26.4377 44.6154 26.3807C45.0712 26.3237 45.641 25.697 45.698 25.2981C45.698 24.8992 45.0712 24.2724 44.6154 24.2155C44.2165 24.1585 43.7607 24.7283 42.963 25.2981ZM29.6296 25.583C28.9459 25.0132 28.49 24.3864 28.0342 24.3864C27.5784 24.3864 26.8946 25.0702 26.8946 25.469C26.8946 25.8679 27.5783 26.5517 27.9772 26.6086C28.3761 26.6656 28.8889 26.0958 29.6296 25.583ZM36.2393 24.3294C35.6695 25.0132 35.0427 25.469 35.0997 25.9249C35.0997 26.3237 35.7835 27.0645 36.1823 27.0645C36.5812 27.0645 37.3219 26.3807 37.3789 25.9819C37.3789 25.583 36.8091 25.0702 36.2393 24.3294ZM32.1368 28.2611C31.567 28.9448 30.8832 29.4007 30.9402 29.8565C30.9402 30.3123 31.6239 30.7112 32.0228 31.1101C32.4217 30.7112 33.1054 30.3693 33.1624 29.9705C33.2194 29.5146 32.6496 29.0018 32.1368 28.2611ZM51.6809 27.9192C51.1111 28.7169 50.5413 29.1727 50.5413 29.5716C50.5983 29.9705 51.2251 30.3693 51.6239 30.7682C52.0228 30.3693 52.6496 30.0274 52.7066 29.5716C52.7635 29.2297 52.2507 28.7169 51.6809 27.9192ZM46.2108 29.4576C45.641 30.2554 45.0712 30.7682 45.1282 31.1101C45.1852 31.5089 45.812 31.8508 46.2108 32.2497C46.5527 31.8508 47.1225 31.4519 47.1795 30.9961C47.2365 30.6542 46.7236 30.1984 46.2108 29.4576ZM46.5527 27.4064C47.3504 27.9762 47.8063 28.6029 48.2051 28.546C48.604 28.489 49.0029 27.8622 49.3447 27.4633C48.9459 27.1215 48.547 26.5517 48.0912 26.4377C47.7493 26.3807 47.2934 26.8935 46.5527 27.4064ZM50.3134 22.1642C49.6866 22.9619 49.1168 23.3608 49.0598 23.8166C49.0598 24.2155 49.6866 24.9562 49.9145 24.9562C50.3704 24.8992 51.0541 24.4434 51.1681 23.9875C51.2821 23.5887 50.7692 23.0189 50.3134 22.1642ZM33.7892 21.6514C33.0484 21.0816 32.5926 20.5687 32.1368 20.5118C31.7949 20.5118 31.0541 21.1955 31.0541 21.5374C31.1111 21.9932 31.6809 22.677 32.0798 22.734C32.5356 22.791 33.0484 22.1642 33.7892 21.6514Z" fill="black"/>
<path d="M56.6952 54.4151C56.5812 55.3838 56.4673 56.3525 56.2963 57.2642C56.0684 58.3468 55.2707 58.8596 54.245 58.8596C53.1624 58.8596 52.3077 58.2898 52.1938 57.2642C52.0228 55.3838 52.0228 53.5035 52.1938 51.6231C52.2507 50.5975 53.1624 49.9707 54.1881 49.9707C55.2137 49.9707 56.0684 50.4835 56.2963 51.5092C56.4673 52.4778 56.5242 53.4465 56.6952 54.4151Z" fill="black"/>
</svg>
