<svg width="176" height="183" viewBox="0 0 176 183" fill="none" xmlns="http://www.w3.org/2000/svg">
<path d="M150.19 77.3008C155.393 79.2518 159.945 77.3008 165.148 76.0001C169.7 74.6994 171.651 74.6994 170.351 79.9022C169.05 83.8042 172.952 88.3567 169.7 92.2587C169.7 92.2587 169.7 93.5594 170.351 93.5594C182.707 98.1119 170.351 105.916 174.253 111.769C169.7 113.07 171.651 108.517 169.7 109.168C167.099 109.818 167.099 112.419 167.749 114.371C168.4 126.727 163.197 136.482 156.693 145.587C154.742 148.189 152.141 149.489 148.239 149.489C141.735 150.14 134.582 152.091 130.029 157.944L129.379 158.594C119.624 159.895 114.421 169.65 104.666 172.251C106.617 174.202 108.568 172.902 110.519 173.552C108.568 176.153 104.666 176.804 102.064 178.755C96.2112 183.958 88.407 183.307 82.5539 178.755C80.6029 177.454 79.3022 176.153 77.3512 176.153C65.6449 176.804 56.5401 172.251 46.7849 166.398C43.5331 164.447 40.9317 167.049 36.3793 164.447C25.3234 157.293 18.82 147.538 11.6661 137.133C10.3654 135.832 6.46337 131.93 12.9668 129.979C14.2675 129.329 13.6172 127.377 12.3165 126.077C5.16267 111.119 1.91094 96.1608 3.86198 80.5525C4.51233 77.3008 1.26059 75.3497 0.610246 72.7483C-2.64149 57.14 7.76406 47.3848 16.2186 36.9793C19.4703 33.0772 24.6731 29.1751 29.2255 25.9234C35.729 20.7206 42.2324 16.1682 47.4352 10.3151C53.9387 3.16126 62.3932 5.1123 69.547 1.86057C77.3512 -1.39116 85.8057 -0.0904714 92.9595 3.81161C95.5609 5.76265 96.8615 6.41299 99.4629 4.46195C104.015 0.559875 107.267 5.76265 111.169 6.41299C115.071 7.71369 118.973 10.9654 123.526 10.9654C128.078 10.9654 130.68 16.1682 135.232 14.2172C135.882 14.2172 137.833 14.8675 137.833 15.5178C138.484 24.6227 145.638 28.5248 152.141 33.0772C156.043 35.6786 154.742 38.9303 156.043 42.1821C159.295 41.5317 156.043 39.5807 157.994 37.6296C160.596 40.8814 166.449 41.5317 161.896 48.0352C161.246 48.6855 162.547 51.2869 163.197 51.2869C170.351 53.8883 169.7 61.0421 172.302 66.2449C172.952 68.1959 172.302 68.8463 170.351 70.147C163.847 75.3497 156.693 74.6994 150.19 77.3008ZM125.477 71.4477C115.071 65.5945 111.82 55.189 107.917 45.4338C105.966 39.5807 101.414 35.0282 94.9105 33.0772C92.9595 35.0282 94.9105 37.6296 92.9595 38.9303C90.3581 35.6786 94.2602 29.1751 87.1064 27.8744C77.3512 26.5737 81.2532 35.6786 78.0015 38.9303C77.3512 36.9793 77.3512 35.0282 76.7008 32.4269C68.2463 35.6786 63.6939 42.1821 61.7428 50.6366C59.7918 56.4897 57.1904 61.6925 52.638 65.5945C51.3373 66.2449 50.6869 66.8952 49.3862 68.1959C48.7359 68.8463 46.7849 69.4966 47.4352 71.4477C73.4491 62.9931 99.4629 62.3428 125.477 71.4477ZM100.113 115.021C90.3581 120.224 80.6029 118.923 70.1973 115.021C70.1973 116.972 70.1973 118.273 70.1973 118.923C72.1484 124.776 70.1973 128.028 63.6939 128.678C57.8408 129.328 51.9876 131.28 46.7849 139.084C61.0925 133.881 71.498 152.091 85.1553 141.685C99.4629 152.091 109.218 134.531 122.225 137.133C114.421 132.58 107.917 127.377 99.4629 126.727C100.113 123.475 104.015 119.573 100.113 115.021ZM101.414 92.9091C85.1553 88.3567 81.9036 88.3567 70.8477 93.5594C78.0015 98.1119 94.9105 98.1119 101.414 92.9091ZM64.3442 84.4546C63.6939 80.5525 63.6939 77.9511 63.0435 74.6994C63.0435 73.3987 63.6939 70.7973 61.0925 70.147C58.4911 70.147 57.1904 72.098 57.1904 74.049C58.4911 83.1539 55.2394 93.5594 65.6449 100.063C61.0925 93.5594 55.8897 88.3567 59.7918 78.6015C61.0925 81.2029 61.7428 83.1539 64.3442 84.4546ZM107.267 83.1539C109.868 80.5525 111.82 78.6015 113.771 76.0001C115.071 74.6994 114.421 73.3987 113.12 72.098C111.82 70.7973 110.519 68.8463 108.568 70.147C107.917 70.7973 105.966 72.098 106.617 72.7483C109.218 76.0001 105.966 79.2518 107.267 83.1539ZM92.3091 114.371C92.3091 113.72 92.3091 113.72 92.3091 113.07C87.7567 113.07 83.2043 113.07 78.6518 113.07C78.6518 113.72 78.6518 113.72 78.6518 114.371C83.2043 114.371 87.7567 114.371 92.3091 114.371ZM112.47 83.8042C111.169 88.3567 113.12 94.2098 106.617 96.8112C111.169 94.8601 111.169 94.8601 112.47 83.8042ZM6.46337 79.9022C7.11371 78.6015 5.81302 78.6015 5.16267 77.9511C4.51233 77.9511 3.86198 78.6015 3.86198 78.6015C3.86198 79.2518 4.51233 79.9022 4.51233 80.5525C5.16267 80.5525 5.81302 79.9022 6.46337 79.9022Z" fill="#20201E"/>
<path d="M125.477 71.4475C99.4628 62.3427 73.4489 62.993 47.435 71.4475C46.7847 69.4965 48.7357 68.8461 49.3861 68.1958C50.0364 67.5454 51.3371 66.2447 52.6378 65.5944C57.1902 61.6923 59.7916 56.4895 61.0923 51.2868C63.0434 43.4826 67.5958 36.9792 76.0503 33.0771C76.7006 35.0281 76.7006 36.9791 77.351 39.5805C81.2531 36.3288 76.7006 26.5736 86.4558 28.5246C93.6096 29.8253 90.3579 36.3288 92.3089 39.5805C94.26 38.2798 92.3089 35.6785 94.26 33.7274C100.113 35.6785 104.666 40.2309 107.267 46.084C111.819 55.8392 115.071 65.5944 125.477 71.4475Z" fill="#F9C811"/>
<path d="M100.113 115.021C103.365 119.573 100.113 122.825 99.4631 127.377C107.918 128.027 115.071 133.23 122.225 137.783C109.218 135.181 99.4631 152.741 85.1555 142.335C71.4982 152.741 61.743 134.531 46.785 139.734C51.9878 131.93 57.8409 129.978 63.694 129.328C70.1975 128.678 72.1486 125.426 70.1975 119.573C69.5472 118.272 70.1975 116.972 70.1975 115.671C80.6031 118.923 90.3583 120.223 100.113 115.021Z" fill="#F9C811"/>
<path d="M101.414 92.9088C94.26 98.762 77.351 98.762 70.8475 93.5592C82.5538 87.7061 85.1552 87.7061 101.414 92.9088Z" fill="#F9C811"/>
<path d="M64.3441 84.4544C61.7427 83.1537 61.7427 81.2027 60.442 78.6013C56.5399 87.7061 61.7427 93.5593 66.2951 100.063C55.2392 93.5593 58.491 83.1537 57.8406 74.0489C57.8406 72.0978 59.1413 69.4964 61.7427 70.1468C64.3441 70.1468 63.0434 72.7482 63.6938 74.6992C63.6938 77.3006 63.6938 80.5523 64.3441 84.4544Z" fill="#F9C811"/>
<path d="M107.267 83.1537C105.316 79.2516 109.218 75.9999 106.616 73.3985C105.966 72.7481 107.917 70.7971 108.567 70.7971C110.519 69.4964 111.819 71.4475 113.12 72.7481C114.421 74.0488 115.071 75.3495 113.77 76.6502C111.819 77.9509 109.868 80.5523 107.267 83.1537Z" fill="#F9C811"/>
<path d="M92.3096 114.371C87.7571 114.371 83.2047 114.371 78.6523 114.371C78.6523 113.72 78.6523 113.72 78.6523 113.07C83.2047 113.07 87.7571 113.07 92.3096 113.07C92.3096 113.72 92.3096 114.371 92.3096 114.371Z" fill="#F9C811"/>
<path d="M112.47 83.8047C111.169 94.8606 111.169 94.8606 106.617 96.8116C113.12 94.2102 111.169 88.3571 112.47 83.8047Z" fill="#F9C811"/>
</svg>
