<svg width="132" height="141" viewBox="0 0 132 141" fill="none" xmlns="http://www.w3.org/2000/svg">
<path d="M125.556 56.602C129.522 57.5934 131.504 62.5502 129.522 68.4984C128.53 72.4639 130.513 75.438 131.504 78.9077H132H131.504C131.009 78.9077 130.513 79.4034 130.513 79.4034C131.009 79.8991 131.009 79.8991 131.504 80.3948C131.504 81.3861 131.504 81.8818 131.504 82.8732C131.504 83.8646 132 85.3516 130.513 85.8473C128.53 86.343 130.513 83.3689 128.53 83.3689C127.043 84.3603 126.548 86.343 127.043 88.3257C128.035 98.2394 123.078 105.179 117.625 112.614C116.634 114.101 115.147 114.597 113.164 114.597C108.207 114.597 103.251 117.075 99.2851 120.545C98.2937 121.041 97.798 122.528 97.3023 122.528C89.8671 122.032 87.8844 130.954 80.9448 131.45C79.9535 131.45 79.9535 132.441 79.9535 132.937C76.9794 140.372 69.5441 142.355 63.5959 137.398C62.1089 136.407 60.6218 134.424 59.1348 134.92C50.2125 137.398 43.7686 129.963 35.8377 128.476C32.3679 127.98 29.3938 125.998 26.4197 125.006C24.437 124.511 21.9586 125.006 24.437 122.032C24.437 122.032 23.9413 121.041 23.4456 120.545C18.4888 119.058 17.4974 113.606 14.0277 111.127C11.0536 109.144 8.07947 105.179 9.07083 102.205C12.5406 92.7869 4.11401 86.8387 3.61832 78.9077C3.61832 75.438 2.62696 71.9682 2.62696 68.4984C3.12264 64.0373 1.63559 60.0718 0.644228 55.6107C-2.32987 43.7143 5.60106 36.279 12.0449 28.3481C14.5233 24.8783 18.9845 22.8956 21.9586 19.9215C26.9154 15.4604 32.3679 11.9906 36.8291 7.52944C41.7859 2.57261 48.2298 3.56398 53.1866 1.08557C59.1348 -1.39284 65.083 1.08557 71.0312 2.07694C74.9966 3.0683 68.5527 3.56398 71.5268 5.05103C77.475 -0.401482 83.4232 4.05968 89.3714 6.53809C93.8326 8.52082 97.798 10.0079 102.755 10.5035C103.746 10.5035 105.233 11.4949 105.233 11.9906C105.233 17.9388 109.694 20.9129 113.66 23.3913C117.13 25.8697 119.608 27.8524 119.112 32.3136C121.591 32.3136 118.617 28.3481 121.095 29.8352C123.078 30.8265 126.052 33.8006 125.061 35.7834C122.582 39.2531 123.574 38.7575 127.043 40.2445C129.522 41.2359 129.522 46.6884 131.504 49.6625C132.496 54.6193 127.043 54.1236 125.556 56.602C121.591 56.602 117.625 57.5934 114.156 59.5761C117.625 58.5848 122.582 60.5675 125.556 56.602ZM94.8239 38.2618C95.3196 34.792 95.3196 31.3222 95.3196 28.3481C95.3196 24.8783 94.3282 23.3913 90.8585 24.8783C83.9189 28.3481 77.475 31.8179 71.0312 35.2877C67.5614 37.2704 67.5614 38.7575 71.0312 40.7402C72.5182 41.7315 75.988 42.2272 75.4923 44.21C74.5009 47.1841 72.5182 49.6625 70.5355 52.1409C69.0484 54.1236 67.0657 52.1409 65.5787 52.1409C47.7341 49.1668 31.3766 60.5675 28.8981 77.4207C26.9154 91.2998 34.8463 105.179 47.7341 110.136C60.6218 115.093 75.4923 110.631 83.9189 100.222C92.8412 89.3171 91.3541 71.9682 82.4319 62.5502C77.475 57.0977 83.9189 55.115 84.9103 51.6452C85.9016 48.6711 88.8757 51.6452 89.8671 52.6366C93.8326 55.115 94.8239 53.6279 94.8239 50.1582C94.8239 46.1927 94.8239 42.2272 94.8239 38.2618Z" fill="#20201E"/>
<path d="M34.8463 127.484C34.8463 127.98 34.3506 127.98 34.3506 128.476H34.8463C34.8463 128.476 34.8463 127.98 34.8463 127.484C34.8463 127.98 34.8463 127.484 34.8463 127.484Z" fill="#20201E"/>
<path d="M94.8239 38.262C94.8239 42.2274 94.8239 45.6972 94.8239 49.6627C94.8239 53.1325 93.3369 55.1152 89.8671 52.1411C88.3801 51.1497 85.406 48.1756 84.9103 51.1497C83.9189 54.6195 77.4751 56.6022 82.4319 62.0547C91.3542 71.4727 92.3455 88.8216 83.9189 99.7266C75.4923 110.136 60.1262 115.093 47.7341 109.64C34.3507 104.188 26.4197 90.8043 28.8982 76.9252C31.3766 60.072 48.2298 48.6713 65.5787 51.6454C67.0657 52.1411 69.0484 53.6281 70.5355 51.6454C72.5182 49.167 74.501 46.6886 75.4923 43.7145C75.988 41.7318 73.0139 41.2361 71.0312 40.2447C67.5614 38.262 67.5614 36.7749 71.0312 34.7922C77.4751 31.3224 84.4146 27.8527 90.8585 24.3829C94.3283 22.4001 95.3196 24.3829 95.3196 27.8527C94.8239 31.8181 94.8239 35.2879 94.8239 38.262ZM75.4923 82.3777C75.4923 72.9598 68.0571 65.0289 58.6391 65.0289C49.2211 65.0289 41.2902 72.4641 40.7945 81.3864C40.2989 90.8043 48.2298 99.2309 58.1434 99.2309C67.5614 99.2309 75.4923 91.3 75.4923 82.3777Z" fill="#F9C811"/>
<path d="M75.4922 82.3777C75.4922 91.7957 67.5612 99.2309 58.1433 99.2309C48.2296 99.2309 40.2987 91.3 40.7944 81.3863C41.2901 72.464 49.221 65.0288 58.6389 65.0288C68.5526 65.0288 75.9878 72.464 75.4922 82.3777Z" fill="#20201E"/>
</svg>
