<svg width="78" height="82" viewBox="0 0 78 82" fill="none" xmlns="http://www.w3.org/2000/svg">
<path d="M10.4217 35.1906C8.9743 33.1641 6.94787 33.7431 5.21093 33.1641C0.86859 32.0062 0.000122243 29.6902 2.60553 25.9269C3.18451 25.0584 4.05297 24.4794 4.63195 23.611C4.92144 23.032 6.65838 22.453 4.92144 21.0056C4.34246 20.4266 5.21093 19.2686 5.78991 18.6896C7.23736 17.2422 8.9743 15.5053 10.7112 14.6368C13.6061 13.4789 13.8956 10.005 16.7905 9.1365C15.3431 4.79416 19.9749 5.95211 20.8434 5.66262C23.7383 4.79415 26.0542 3.63619 28.6596 2.47824C30.3965 1.89926 32.1335 -0.127164 34.1599 2.18875C35.3178 0.741304 37.3443 1.89926 38.5022 1.03079C40.5287 -0.416658 42.5551 -0.127164 44.871 0.741304C45.7395 1.03079 46.8974 1.60978 47.7659 1.60978C54.7136 0.741313 58.7665 5.66263 63.1088 9.42599C66.0037 12.0314 69.4776 14.3473 72.083 17.5317C75.2674 21.874 79.3202 25.9269 77.5833 32.2957C77.5833 32.5852 77.5833 33.1641 77.5833 33.1641C74.3989 35.1905 76.7148 37.796 76.7148 40.1119C76.4253 45.0332 75.2674 49.9545 72.9515 54.5863C72.3725 55.7443 70.6356 56.6128 72.9515 58.6392C74.1094 59.5077 72.3725 62.9815 70.6356 64.1395C68.3196 65.8764 67.4512 68.7713 64.8458 70.5083C63.6878 71.3767 62.8193 72.5347 60.7929 72.8242C58.477 73.1137 56.7401 75.4296 54.4241 76.0086C50.6608 76.5875 47.1869 79.7719 42.8446 78.614C42.2656 78.614 41.6866 79.1929 41.1076 79.4824C37.0548 82.6668 31.5545 80.9299 28.3701 76.5875C27.2121 74.8506 26.0542 72.5347 22.8698 71.9557C19.6854 71.6662 17.9485 68.4818 15.0536 67.6134C14.1851 67.3239 13.6061 66.7449 13.0271 67.9029C13.0271 67.9029 13.0271 68.1924 13.3166 68.4818C13.6061 67.6134 13.0271 66.7449 12.4482 66.7449C6.65838 67.0344 6.36889 61.5341 4.34246 58.0602C3.474 56.9023 2.31604 54.0074 3.474 51.402C4.05298 50.244 2.89502 49.665 2.02655 50.244C1.15808 50.5335 0.868591 50.244 0.868591 49.665C0.579101 47.9281 0.289612 45.9017 0.00012207 43.8752C0.00012207 43.5858 0.00012207 43.0068 0.00012207 43.0068C4.92144 41.5593 1.44757 38.0854 2.02655 35.48C2.60553 33.7431 2.89502 33.4536 4.34246 33.7431C5.78991 34.3221 8.10583 34.9011 10.4217 35.1906ZM46.6079 18.9792C44.0025 17.2422 42.8446 17.8212 42.5551 21.5845C43.4235 20.7161 44.0025 18.6897 46.029 19.5581C46.3184 19.8476 46.6079 20.4266 46.029 20.7161C43.4235 22.1635 41.3971 23.9005 39.9497 26.5059C39.0812 27.9533 38.2127 27.6638 37.0548 26.2164C35.6073 24.4795 36.1863 21.874 34.1599 20.7161C33.8704 20.4266 33.5809 20.1371 33.2914 20.7161C33.2914 20.7161 33.5809 21.0056 33.8704 21.2951C33.8704 21.874 34.1599 22.7425 33.5809 23.3215C32.7124 23.611 32.4229 22.7425 32.1335 22.1635C30.9755 20.4266 30.107 18.6896 29.2386 17.2422C28.9491 16.6632 28.3701 16.3737 28.9491 15.7947C29.2386 15.5053 30.686 15.5053 29.8175 14.3473C29.2386 13.7683 28.6596 14.3473 27.7911 14.6368C26.0542 15.2158 25.7647 16.3737 26.6332 17.8212C26.9226 18.4002 28.0806 19.5581 26.6332 20.1371C24.8962 20.7161 24.8962 21.5845 25.1857 23.032C25.4752 24.4794 26.9226 24.7689 28.0806 24.7689C28.6596 24.7689 29.8175 24.4794 29.528 25.0584C27.7911 26.7954 26.6332 28.8218 25.1857 30.2692C22.2908 32.8746 21.7118 36.3485 22.5803 39.5329C24.3172 45.9017 26.3437 52.2704 30.9755 57.4812C32.7124 59.5077 35.0284 60.9551 36.7653 62.9815C39.6602 65.8764 41.1076 65.587 44.0025 62.6921C46.8974 60.0867 49.2133 56.6128 51.8187 53.7179C55.2926 49.3755 57.6085 43.8752 55.8716 38.0855C55.5821 36.638 55.0031 34.9011 52.9767 34.6116C50.9503 34.3221 50.9503 36.3485 50.0818 37.5065C48.3449 39.8224 47.4764 42.7173 44.0025 43.2962C46.3184 41.5593 48.0554 39.2434 49.7923 36.9275C51.8187 33.7431 53.5557 30.5587 57.0296 28.8218C57.6085 28.5323 57.898 28.2428 58.1875 27.6638C59.056 26.5059 58.7665 25.0584 57.6085 24.4794C56.1611 23.611 56.1611 25.6374 55.2926 25.9269C54.7136 26.2164 55.2926 27.6638 54.1347 27.9533C53.2662 27.3743 52.3977 26.2164 53.2662 25.3479C56.1611 23.3215 53.5557 21.874 52.6872 21.2951C50.3713 20.1371 48.9238 18.1107 47.1869 16.0843C45.45 14.0578 43.1341 13.7683 40.8181 12.8999C38.2127 12.0314 37.0548 15.2158 35.0283 14.0578C34.7389 14.0578 33.5809 15.2158 34.4494 16.0843C34.7389 16.3737 35.3178 16.9527 35.0283 17.5317C35.0283 18.1107 32.7124 18.1107 34.4494 18.9792C35.3178 19.5581 35.6073 18.1107 36.1863 17.5317C37.3443 16.3737 35.3178 15.5053 35.6073 14.3473C37.0548 15.2158 38.2127 15.7948 39.0812 14.0578C39.3707 13.7683 39.0812 12.8999 39.6602 13.1894C42.5551 14.3473 46.0289 14.6368 47.7659 18.1107C48.0554 18.6897 48.3449 19.2686 48.0554 19.5581C47.7659 19.8476 47.1869 18.9792 46.6079 18.9792Z" fill="#20201E"/>
<path d="M44.0024 42.428C47.4763 41.849 48.3447 38.9541 50.0817 36.6382C50.9501 35.4802 50.9501 33.4538 52.9766 33.7433C55.003 34.0328 55.2925 35.7697 55.8715 37.2172C57.6084 43.2965 55.2925 48.5073 51.8186 52.8496C49.5027 56.034 47.1868 59.2184 44.0024 61.8238C41.1075 64.7187 39.66 65.0082 36.7652 62.1133C35.0282 60.0868 32.7123 58.6394 30.9754 56.613C26.3435 51.6917 24.3171 45.0334 22.5802 38.6646C21.7117 36.0592 22.2907 32.5853 25.1856 29.9799C26.9225 28.5325 28.0805 26.2166 29.5279 24.7691C29.8174 24.1902 28.9489 24.7691 28.0805 24.4796C26.9225 24.1901 25.4751 24.1901 25.1856 22.7427C24.8961 21.2953 24.8961 20.4268 26.633 19.8478C28.0805 19.5583 26.9225 18.4004 26.633 17.5319C25.7646 16.0845 26.054 14.9265 27.791 14.3475C28.37 14.058 28.9489 13.479 29.8174 14.058C30.6859 14.9265 29.5279 14.9265 28.9489 15.5055C28.37 16.0844 28.9489 16.6634 29.2384 16.9529C30.1069 18.6898 31.2649 20.4268 32.1333 21.8742C32.4228 22.4532 32.7123 23.3217 33.5808 23.0322C34.4492 22.7427 33.8703 21.8742 33.8703 21.0058C34.1597 21.0058 34.1597 20.7163 34.1597 20.4268C36.1862 21.8742 35.3177 24.4796 37.0546 25.9271C38.2126 27.085 39.0811 27.664 39.9495 26.2166C41.397 23.6112 43.4234 21.8742 46.0288 20.4268C46.6078 20.1373 46.3183 19.5583 46.0288 19.2688C46.3183 18.9793 46.3183 18.9793 46.6078 18.6898C47.1868 18.6898 47.7658 19.5583 48.3447 18.9794C48.9237 18.4004 48.3447 17.8214 48.0552 17.5319C46.3183 14.3475 42.8444 14.058 39.9495 12.6106C39.0811 12.3211 39.3706 13.1896 39.3706 13.479C38.5021 15.216 37.3441 14.637 35.8967 13.7685C35.6072 14.9265 37.6336 15.795 36.4757 16.9529C35.8967 17.5319 35.8967 18.9793 34.7387 18.4004C33.0018 17.5319 35.0282 17.5319 35.3177 16.9529C35.3177 16.3739 35.0282 15.795 34.7387 15.5055C33.8703 14.3475 35.0282 13.1896 35.3177 13.479C37.6336 14.637 38.7916 11.4526 41.1075 12.3211C43.4234 13.1896 45.7393 13.479 47.4763 15.5055C48.9237 17.5319 50.3712 19.5583 52.9766 20.7163C54.1345 21.2953 56.4504 22.7427 53.5555 24.7691C52.6871 25.3481 53.5555 26.5061 54.424 27.3745C55.582 27.085 55.003 25.6376 55.582 25.3481C56.4504 24.7691 56.4504 23.0322 57.8979 23.9007C59.0558 24.7691 59.3453 25.9271 58.4769 27.085C58.1874 27.664 57.6084 27.9535 57.3189 28.243C53.5555 29.9799 51.8186 33.1643 50.0817 36.3487C48.3447 38.3751 46.6078 40.6911 44.0024 42.428C39.3706 47.0598 38.5021 47.0598 34.7387 42.428C33.0018 40.4016 31.8438 38.0857 30.3964 34.9013C30.3964 38.3751 32.7123 42.1385 36.1862 45.0334C39.0811 47.9283 42.8444 46.7703 44.0024 42.428ZM31.8438 27.3745C31.5543 26.2166 31.2649 25.3481 30.3964 26.7956C29.5279 28.5325 28.9489 30.5589 29.5279 32.8748C30.9754 30.8484 29.5279 28.243 31.8438 27.3745C31.8438 29.401 30.9754 31.7169 31.8438 34.0328C33.0018 37.5067 35.0282 40.1121 38.5021 41.27C41.976 42.1385 44.2919 40.4016 46.0288 37.7962C48.0552 35.1908 49.2132 32.2959 49.7922 29.1115C50.0817 27.3745 50.3712 25.3481 50.9501 23.6112C51.2396 23.0322 53.5555 22.7427 51.8186 21.5847C50.6606 20.7163 49.2132 20.1373 48.0552 21.8742C46.3183 23.9007 44.8709 25.9271 44.0024 28.5325C42.5549 33.4538 39.66 34.9013 34.7387 34.3223C36.4757 31.4274 35.8967 30.2694 31.8438 27.3745Z" fill="#F9C811"/>
<path d="M46.0288 19.5579C44.0024 18.6894 43.7129 20.7159 42.5549 21.5843C42.8444 17.821 43.7129 17.242 46.6078 18.9789C46.3183 19.2684 46.0288 19.2684 46.0288 19.5579Z" fill="#F9C811"/>
<path d="M33.8704 21.2953C33.5809 21.0058 33.2914 20.7163 33.2914 20.7163C33.5809 20.1373 33.8704 20.7163 34.1599 20.7163C34.1599 21.0058 34.1599 21.0058 33.8704 21.2953Z" fill="#F9C811"/>
<path d="M31.8442 27.3745C35.8971 30.2694 36.4761 31.4274 35.0286 34.0328C40.2394 34.6117 42.8448 32.8748 44.2923 28.243C45.1608 25.6376 46.6082 23.6111 48.3451 21.5847C49.7926 19.8478 50.9505 20.4268 52.1085 21.2952C53.8454 22.4532 51.5295 22.7427 51.24 23.3217C50.3716 25.0586 50.0821 26.7955 50.0821 28.8219C49.7926 32.0063 48.3451 34.9012 46.3187 37.5066C44.2923 40.112 41.9764 41.849 38.792 40.9805C35.3181 39.8226 33.2917 37.2171 32.1337 33.7433C30.9758 31.7168 31.8442 29.4009 31.8442 27.3745Z" fill="#20201E"/>
<path d="M44.0022 42.4277C42.5548 46.77 39.0809 47.928 35.8965 45.3226C32.4227 42.1382 30.3962 38.6643 30.1068 35.1904C31.5542 38.3748 32.7122 40.6907 34.4491 42.7172C38.7914 47.0595 39.3704 47.0595 44.0022 42.4277C44.2917 42.4277 44.0022 42.4277 44.0022 42.4277Z" fill="#20201E"/>
<path d="M31.8442 27.3743C29.5283 28.5323 30.9758 31.1377 29.5283 32.8746C28.9493 30.5587 29.2388 28.5323 30.3968 26.7953C31.2653 25.3479 31.5547 26.2163 31.8442 27.3743Z" fill="#20201E"/>
</svg>
