<svg width="102" height="104" viewBox="0 0 102 104" fill="none" xmlns="http://www.w3.org/2000/svg">
<path d="M98.0334 44.443C99.1568 45.5664 100.655 45.192 100.655 47.0643C100.28 55.3024 99.5312 63.5406 95.0377 70.6553C94.2888 71.7787 93.5398 72.5276 94.6632 73.2766C97.6589 75.8978 95.7866 78.8935 94.2888 80.0169C91.2931 82.6381 89.7952 86.7572 86.4251 89.004C84.5528 90.1273 83.4294 93.123 80.8082 93.4975C73.3189 94.9953 66.9531 100.612 58.7149 99.8634C57.966 99.8634 56.4682 100.238 55.7192 100.987C50.1023 104.731 48.9789 104.357 42.9875 100.987C39.6174 99.1144 38.494 96.4932 36.2472 93.8719C35.1239 93.8719 34.7494 93.123 34.0005 93.123C28.758 92.7486 25.3878 87.5061 20.1454 86.7572C18.6475 86.3827 16.7752 84.136 14.9029 85.6338C14.5285 85.6338 13.7795 85.6338 13.7795 85.6338C11.5328 81.1403 7.03924 78.519 6.29031 72.5277C5.91585 69.532 5.54139 66.5363 4.79247 63.5406C4.79247 63.1661 4.418 62.4172 3.66908 62.4172C1.42231 62.0427 -0.824458 57.1747 0.298927 54.928C1.04785 53.8046 4.04354 54.928 3.66908 53.0557C2.5457 50.4344 4.04354 48.1877 3.66908 45.9409C2.5457 42.1963 4.418 42.9452 6.66477 43.3196C9.286 43.6941 12.2817 45.192 15.6518 44.0686C13.0306 42.1963 10.0349 42.9452 7.78816 42.1963C5.91585 41.4474 3.66908 41.8218 3.29462 38.4517C2.92016 35.8304 2.92016 33.9581 5.91585 32.8347C7.4137 32.0858 7.78816 30.9624 5.91585 29.4646C5.91585 30.588 6.66477 31.3369 7.03923 30.9624C7.78816 29.839 8.91154 27.9667 8.16262 27.2178C5.91585 25.3455 7.78816 23.8477 8.53708 23.4732C13.0306 19.7286 17.5242 15.984 21.6432 11.8649C22.3922 11.116 23.5155 10.367 22.7666 9.99259C20.8943 8.49474 22.7666 8.12028 23.5155 8.12028C29.8814 6.99689 35.4983 4.37565 41.4897 1.37996C42.2386 1.0055 42.6131 0.631037 43.362 1.37996C45.9832 4.37565 48.9789 1.75443 50.8512 1.0055C54.2214 -0.492341 56.8426 -0.11788 59.8383 1.0055C60.5872 1.37997 61.7106 2.12888 62.834 1.75442C71.8211 1.00549 77.0635 7.37136 83.0549 11.8649C89.4208 16.7329 94.6632 22.7243 99.9057 29.0901C103.276 32.0858 102.527 42.5707 98.0334 44.443ZM74.4423 41.8218C74.0678 41.4474 74.0678 41.4473 73.6934 41.0729C75.1912 37.3283 78.5614 33.5837 74.8168 29.4646C74.0678 30.9624 73.6934 32.4603 72.9445 34.3326C71.8211 30.588 74.4423 26.4689 70.3232 23.8477C68.8254 24.2221 70.3232 26.4689 68.4509 26.4689C67.3275 21.6009 57.966 17.1073 52.3491 18.9796C57.5915 21.9753 54.5958 24.5966 52.3491 27.2178C50.8512 29.0901 49.3534 31.3369 47.4811 33.2092C45.6088 35.456 45.6088 37.3283 47.1066 39.575C47.8555 40.6984 48.9789 38.8261 49.7278 40.324C51.2257 43.3197 53.098 43.3197 54.5958 40.6984C56.0937 38.4517 57.966 38.4517 60.2128 38.4517C61.3362 38.4517 62.4595 39.575 61.7106 40.6984C59.8383 43.3197 57.966 45.9409 55.7192 48.1877C54.2214 49.6855 51.9746 49.3111 51.2257 47.4387C50.1023 45.192 48.23 44.8175 46.7322 44.443C41.1152 43.3197 35.8728 44.443 31.0048 47.8132C25.7623 51.5578 25.0134 57.1747 24.2645 62.4172C23.1411 71.0298 29.8814 78.519 38.494 80.3913C41.8642 81.1403 45.2343 79.268 48.23 79.6424C55.7192 81.1403 63.2085 80.3913 70.6977 80.3913C73.3189 80.3913 79.3103 84.136 78.5614 75.8978C78.1869 73.651 78.5614 71.7787 77.438 69.1575C76.3146 66.1618 71.0722 63.915 75.1912 59.4215C76.3146 58.2981 73.6934 59.047 73.3189 57.9236C77.0635 56.8003 78.1869 54.5535 77.438 50.8089C75.1912 50.8089 74.0678 53.0556 71.4466 52.3067C74.4423 48.5621 80.8082 46.3153 77.8125 39.575C76.3146 39.9495 75.1912 41.0729 74.4423 41.8218ZM43.7365 32.4603C44.1109 26.8434 44.1109 26.8433 38.1195 27.2178C37.3706 27.2178 36.6217 27.2178 35.8728 27.5923C34.3749 27.9667 32.5026 28.3412 32.8771 30.2135C33.2515 31.7113 34.7494 30.9624 35.8728 30.9624C36.9962 30.9624 38.1195 30.588 39.2429 30.588C40.7408 30.588 42.6131 29.4646 42.2386 32.4603C41.8642 33.9581 42.9875 36.5793 39.6174 35.8304C38.1195 35.456 36.6217 36.2049 36.2472 38.0772C35.8728 39.5751 36.9962 40.324 38.1195 40.324C39.9919 40.6984 41.8642 40.324 42.2386 38.0772C43.362 35.8304 43.362 34.3326 43.7365 32.4603ZM30.6303 18.9796C28.3835 20.8519 29.5069 22.7243 29.1325 24.2221C28.758 25.3455 29.5069 26.8434 27.6346 26.8434C26.1368 26.8434 24.2645 26.4689 24.6389 28.7157C24.6389 29.839 26.1368 30.588 27.2602 30.588C29.5069 30.588 29.8814 29.0901 29.8814 27.2178C29.8814 26.0944 29.8814 24.971 29.8814 23.4732C29.8814 23.0987 30.2558 22.7243 30.2558 22.7243C32.1282 22.3498 31.3792 24.971 33.2515 24.5966C33.2515 22.3498 31.0048 21.2264 30.6303 18.9796ZM30.2558 40.324C31.7537 40.324 33.626 39.5751 33.2515 38.0772C32.8771 36.5794 31.3792 35.8304 29.5069 35.8304C28.0091 35.8304 26.5112 36.5794 26.5112 38.0772C26.8857 39.9495 28.758 40.324 30.2558 40.324Z" fill="#20201E"/>
<path d="M74.4418 41.8214C75.5652 41.0725 76.3142 40.3235 77.4375 39.2002C80.8077 45.9405 74.4419 48.1872 71.0717 51.9319C73.3185 52.6808 74.8163 50.434 77.0631 50.434C77.4375 53.8042 76.3142 56.4254 72.944 57.5488C73.3185 58.6722 75.9397 58.2977 74.8163 59.0466C70.6972 63.5402 75.9397 65.7869 77.0631 68.7826C77.812 71.0294 77.812 73.2762 78.1865 75.5229C78.9354 83.7611 72.944 80.0165 70.3228 80.0165C62.8335 80.0165 55.3443 80.7654 47.8551 79.2676C44.8594 78.5186 41.4892 80.7654 38.1191 80.0165C29.5065 78.1442 22.7662 70.6549 23.8895 62.0423C24.6385 56.7999 25.3874 51.1829 30.6299 47.4383C35.4979 44.0682 40.7403 42.9448 46.3572 44.0682C48.2295 44.4426 50.1019 44.8171 50.8508 47.0639C51.5997 48.9362 53.8465 49.3106 55.3443 47.8128C57.5911 45.566 59.4634 42.9448 61.3357 40.3236C62.0846 39.2002 60.9612 38.4513 59.8379 38.0768C57.5911 38.0768 55.3443 38.0768 54.2209 40.3236C52.7231 42.9448 50.8508 42.9448 49.3529 39.9491C48.604 38.4513 47.4806 39.9491 46.7317 39.2002C45.2339 36.9534 45.2339 34.7066 47.1062 32.8343C48.9785 30.962 50.4763 29.0897 51.9742 26.843C54.2209 23.8473 57.5911 21.6005 51.9742 18.6048C57.9655 16.7325 66.9526 21.226 68.076 26.094C69.9483 26.094 68.4505 23.8473 69.9483 23.4728C73.6929 26.094 71.0717 29.8386 72.5695 33.9577C73.3185 32.0854 73.6929 30.5876 74.4418 29.0897C78.5609 33.5833 75.1908 36.9534 73.3185 40.698C72.944 41.0725 72.5695 41.4469 72.1951 41.8214C73.3185 42.5703 73.6929 42.5703 74.4418 41.8214ZM35.1234 72.9017C37.3702 72.1528 36.9957 69.5315 37.7446 67.2848C38.1191 66.5359 32.8766 60.9189 32.1277 61.2934C30.6299 62.4168 27.6342 62.4168 27.6342 65.4125C27.6342 69.906 30.6299 73.2762 35.1234 72.9017ZM38.4935 45.566C35.8723 46.3149 33.2511 47.4383 32.8766 50.434C32.8766 51.5574 34 54.1786 36.6212 53.4297C39.6169 52.6808 43.736 53.4297 43.736 48.5617C43.736 45.1915 40.3659 46.6894 38.4935 45.566ZM54.5954 62.0423C53.0975 60.5445 51.5997 59.0466 49.7274 57.9232C48.2295 57.1743 47.8551 58.6722 47.1062 59.7955C46.7317 61.2934 45.9828 62.7912 45.9828 63.9146C45.6083 65.7869 47.4806 66.5359 48.604 67.6592C48.9785 68.4082 49.7274 68.7826 50.4763 67.6592C52.3486 66.1614 51.9742 63.5402 54.5954 62.0423ZM71.4462 63.9146C71.0717 67.2848 72.1951 69.5316 72.944 71.7783C73.6929 73.6506 73.3185 75.1485 70.6972 75.1485C66.2037 75.1485 61.7102 75.8974 56.8422 76.2719C62.0846 76.6463 66.9526 77.0208 71.8206 75.5229C74.0674 74.774 76.3142 74.0251 74.0674 70.6549C72.944 68.7826 72.5695 66.5359 71.4462 63.9146ZM39.2425 78.8931C42.9871 79.642 45.6083 78.8931 48.2295 77.7697C48.604 77.3953 49.3529 77.0208 49.3529 76.6463C49.3529 75.8974 48.604 75.5229 48.2295 75.5229C45.6083 76.2719 42.2382 75.5229 39.2425 78.8931Z" fill="#F9C811"/>
<path d="M43.7362 32.4602C43.3618 34.3325 43.3618 36.2048 42.9873 37.7027C42.6129 39.9494 40.7406 39.9495 38.8682 39.9495C37.7449 39.9495 36.6215 38.826 36.9959 37.7027C37.3704 35.8304 38.8682 35.4559 40.3661 35.4559C43.7362 36.2048 42.6129 33.5836 42.9873 32.0857C43.3618 29.4645 41.4895 30.2134 39.9916 30.2134C38.8682 30.2134 37.7449 30.5879 36.6215 30.5879C35.4981 30.5879 34.0002 31.3368 33.6258 29.839C33.2513 27.9667 35.1236 27.5922 36.6215 27.2178C37.3704 27.2178 38.1193 27.2178 38.8682 26.8433C43.7362 26.4688 43.7362 26.4688 43.7362 32.4602Z" fill="#F9C811"/>
<path d="M30.6305 18.9795C31.0049 21.2263 33.2517 22.3496 33.2517 24.5964C31.3794 24.9709 32.1283 22.3496 30.256 22.7241C30.256 23.0986 29.8815 23.0986 29.8815 23.473C29.8815 24.5964 29.8815 25.7198 29.8815 27.2177C29.8815 29.09 29.5071 30.5878 27.2603 30.5878C26.1369 30.5878 24.6391 29.8389 24.6391 28.7155C24.6391 26.4687 26.5114 26.8432 27.6348 26.8432C29.5071 26.8432 29.1326 25.3453 29.1326 24.222C29.5071 22.7241 28.3837 20.8518 30.6305 18.9795Z" fill="#F9C811"/>
<path d="M30.2554 40.3241C28.3831 40.3241 26.8853 39.9497 26.8853 38.0774C26.8853 36.5795 28.3831 35.8306 29.881 35.8306C31.3788 35.8306 33.2511 36.5795 33.6256 38.0774C33.6256 39.9497 32.1278 40.3241 30.2554 40.3241Z" fill="#F9C811"/>
<path d="M35.1242 72.9024C30.6306 72.9024 27.6349 69.9067 27.6349 65.7876C27.6349 62.7919 30.6306 62.7919 32.1285 61.6685C32.8774 61.2941 38.1199 66.5365 37.7454 67.6599C36.622 69.5322 36.9965 72.1534 35.1242 72.9024Z" fill="#20201E"/>
<path d="M38.4936 45.5664C39.9914 46.6898 43.3616 45.1919 43.3616 48.5621C43.3616 53.0556 39.2425 52.6812 36.2468 53.4301C34.0001 53.8046 32.5022 51.5578 32.5022 50.4344C33.2511 47.4387 35.8724 46.3153 38.4936 45.5664Z" fill="#20201E"/>
<path d="M54.5955 62.0429C51.9743 63.5407 52.3487 66.5364 50.8509 68.0343C50.102 68.7832 49.3531 68.4087 48.9786 68.0343C47.8552 66.9109 45.9829 66.162 46.3574 64.2897C46.7318 62.7918 47.1063 61.294 47.4807 60.1706C47.8552 59.0472 48.6041 57.5493 50.102 58.2983C51.5998 59.0472 53.0977 60.545 54.5955 62.0429Z" fill="#20201E"/>
<path d="M71.4466 63.915C72.57 66.5363 72.9444 68.7831 74.4423 70.6554C76.689 74.0255 74.4423 74.7744 72.1955 75.5234C67.3275 77.3957 62.085 76.6467 57.217 76.2723C61.7106 75.8978 66.2041 75.1489 71.0721 75.1489C74.0678 75.1489 74.0678 73.6511 73.3189 71.7788C72.1955 69.1575 71.0721 67.2852 71.4466 63.915Z" fill="#20201E"/>
<path d="M39.2427 78.8936C42.2384 75.5234 45.6086 76.2724 48.2298 75.5234C48.6042 75.5234 49.3532 75.8979 49.3532 76.6468C49.3532 77.0213 48.6042 77.7702 48.2298 77.7702C45.983 78.8936 42.9873 79.6425 39.2427 78.8936Z" fill="#20201E"/>
<path d="M74.4426 41.8222C74.0682 42.5711 73.3193 42.5711 72.5703 42.1966C72.9448 41.8222 73.3193 41.4477 73.6937 41.0732C73.6937 41.0732 74.0682 41.4477 74.4426 41.8222Z" fill="#20201E"/>
</svg>
