<svg width="179" height="187" viewBox="0 0 179 187" fill="none" xmlns="http://www.w3.org/2000/svg">
<path d="M38.3241 168.063C35.6686 166.071 32.3493 167.399 30.3577 162.088C28.3661 158.104 23.719 153.457 19.072 149.474C15.0888 146.155 10.4417 141.508 11.7694 138.189C15.7526 122.92 1.81143 110.97 3.13917 96.365C3.13917 93.0456 4.4669 89.0624 3.13917 85.7431C1.81143 81.7599 6.4585 83.0877 7.12236 81.7599C-0.180165 77.7767 -2.83563 58.5246 3.80303 52.5498C10.4417 47.2388 13.0972 39.2724 19.7358 33.9615C22.3913 31.9699 24.3829 29.3145 28.3661 27.9868C32.3493 26.659 34.3409 19.3565 38.9879 16.701C46.2905 12.7178 50.9375 5.41526 60.2316 4.08753C68.198 2.7598 76.1644 -0.559474 84.7947 0.104392C88.7779 0.104392 92.0972 4.75141 96.0804 2.75982C96.7443 4.75141 93.4249 4.75139 94.7527 7.40686C102.719 0.104331 110.022 4.75148 117.988 8.73467C123.963 11.3901 129.938 14.0456 137.24 14.7094C141.223 15.3733 139.232 20.0204 139.896 20.0204C145.206 23.3397 147.198 29.9783 152.509 32.6338C157.156 35.2893 160.475 38.6087 163.795 41.928C165.786 43.9196 169.106 45.2473 165.122 49.8944C163.131 52.5498 165.786 58.5246 169.106 59.1884C176.408 60.5162 175.08 66.4909 175.08 70.4741C175.744 73.7935 170.433 74.4574 167.778 75.7851C163.131 77.1128 158.484 77.7767 153.837 78.4406C153.837 79.1045 153.837 79.7683 154.501 80.4321C159.812 79.1044 165.122 78.4405 170.433 77.1128C174.417 76.4489 177.072 76.449 175.08 81.7599C173.753 85.7431 178.4 90.3902 174.417 94.3734C174.417 94.3734 174.417 95.7011 175.08 96.365C179.728 101.676 179.728 101.676 177.736 109.642C177.736 110.97 177.736 112.962 177.736 114.289C173.753 116.281 175.744 110.97 173.753 111.634C171.097 112.962 171.761 115.617 171.761 118.273C173.089 130.886 166.45 140.18 159.812 150.138C157.82 153.457 154.501 152.13 151.845 152.13C140.559 154.785 131.929 162.752 121.307 167.399C116.66 169.39 110.685 175.365 106.702 180.676C101.391 187.315 92.0972 187.979 86.1224 182.668C83.467 180.012 80.8115 180.012 76.8283 180.012C67.5342 179.348 58.9039 176.029 50.9375 171.382C49.6098 170.718 47.6182 169.39 46.2905 168.726C46.9543 168.062 47.6182 166.735 48.2821 166.071C44.9627 165.407 42.3073 164.743 38.9879 164.079C37.6602 165.407 38.3241 166.735 38.3241 168.063ZM131.929 63.8355C126.618 71.8019 121.307 79.1044 113.341 84.4154C106.702 89.0624 106.702 91.7179 111.349 98.3566C114.005 101.676 113.341 105.659 112.013 108.978C110.685 112.298 107.366 110.97 104.047 110.97C102.055 110.97 99.3997 110.97 98.7359 108.315C98.072 104.995 96.7443 100.348 100.727 98.3566C103.383 96.365 104.047 93.7095 102.719 91.7179C101.391 89.0625 98.7359 91.0541 97.4081 91.7179C90.7695 93.0457 83.467 93.0457 76.8283 91.7179C74.8367 91.0541 72.1812 88.3985 70.8535 92.3817C70.1896 94.3733 70.8535 97.0289 72.8451 98.3566C76.8283 101.012 75.5006 105.659 74.1728 108.978C73.509 112.298 69.5258 110.97 67.5342 110.97C64.8787 110.97 62.2232 110.97 61.5594 108.315C60.8955 104.995 59.5678 101.012 63.551 98.3566C67.5342 95.0373 67.5342 89.7263 64.8787 88.3986C56.2485 82.4238 48.9459 75.1212 43.635 63.8355C42.3073 77.1128 40.9795 87.0708 40.3157 97.6927C39.6518 103.004 40.3157 107.651 33.0131 107.651C31.0215 107.651 29.0299 109.642 28.3661 111.634C22.3913 122.256 29.0299 138.189 40.9795 139.516C47.6182 140.18 54.2569 142.172 61.5594 142.172C85.4586 142.172 109.358 143.499 133.257 140.18C145.87 138.188 153.837 122.92 147.198 111.634C145.87 108.978 143.879 106.987 140.559 107.651C135.249 107.651 135.249 104.995 135.249 101.012C133.921 88.3986 132.593 76.4489 131.929 63.8355ZM66.2064 81.096C64.2148 73.7935 70.8535 65.1633 62.2232 58.5246C60.8955 57.8608 62.8871 55.8692 64.2148 55.2053C66.2064 55.2053 68.198 55.2053 70.8535 55.2053C72.1812 55.2053 74.1728 55.2052 74.8367 57.1968C75.5006 58.5246 74.1728 59.1885 72.8451 59.8523C72.1812 60.5162 70.8535 61.1801 70.8535 61.844C70.8535 69.1465 67.5342 78.4405 72.1812 83.7515C76.8283 89.7263 86.1224 89.0624 94.0888 87.7347C97.4081 87.0708 101.391 87.0708 103.383 84.4154C106.038 81.096 104.047 63.1717 100.727 59.8523C98.072 57.1969 99.3997 55.8691 102.055 55.8691C104.711 55.2052 107.366 55.8691 110.022 55.8691C112.013 55.8691 114.005 57.1968 112.013 59.1884C104.711 65.8271 110.685 74.4574 106.702 82.4238C118.652 77.1128 121.307 74.4574 126.618 62.5078C130.601 53.2136 129.274 48.5666 120.643 43.2557C117.988 41.928 114.669 39.9364 112.013 39.9364C108.694 39.2725 106.702 37.9447 105.375 34.6254C100.064 24.0036 82.1392 20.6842 74.8367 30.6422C70.1896 37.2808 64.2148 39.9363 58.24 42.5918C52.9291 45.2472 46.2905 49.2304 48.2821 57.1968C49.6098 67.8187 55.5846 76.449 66.2064 81.096Z" fill="#20201E"/>
<path d="M38.3241 168.063C38.3241 166.735 38.3241 165.407 37.6603 164.08C40.9796 164.743 43.6351 165.407 46.9544 166.071C46.2905 166.735 45.6267 168.063 44.9628 168.727C44.2989 169.39 42.3073 169.391 43.6351 171.382C41.6435 170.718 38.988 170.054 38.3241 168.063Z" fill="#F9C811"/>
<path d="M42.9715 171.382L43.6354 172.046L42.9715 171.382Z" fill="#F9C811"/>
<path d="M131.929 63.8352C132.593 75.7848 133.92 87.7344 134.584 100.348C134.584 103.667 135.248 106.986 139.895 106.986C142.551 106.986 144.542 108.978 146.534 110.97C153.172 122.255 145.206 137.524 132.593 139.516C108.693 142.835 84.7942 141.508 60.8951 141.508C54.2564 141.508 47.6178 140.18 40.3152 138.852C29.0295 137.524 21.727 121.592 27.7018 110.97C29.0295 108.978 30.3572 106.986 32.3488 106.986C39.6514 106.986 39.6514 102.339 39.6514 97.0285C40.3152 86.4066 41.643 75.7848 42.9707 63.1714C48.2816 74.4571 55.5841 81.7596 64.2144 87.7344C66.8699 89.726 67.5337 95.0369 62.8867 97.6924C58.9035 100.348 60.8951 104.331 60.8951 107.65C60.8951 110.97 64.2144 110.97 66.8699 110.306C69.5253 110.306 72.8447 111.634 73.5085 108.314C74.1724 104.995 76.164 100.348 72.1808 97.6924C69.5253 95.7008 68.8615 93.7092 70.1892 91.7176C71.5169 88.3983 74.1724 91.0537 76.164 91.0537C82.8027 92.3815 90.1052 92.3815 96.7438 91.0537C98.7354 90.3899 101.391 88.3983 102.055 91.0537C103.382 93.0453 102.719 95.7008 100.063 97.6924C96.08 100.348 98.0716 104.331 98.0716 107.65C98.0716 110.306 101.391 110.306 103.382 110.306C106.038 110.306 110.021 111.634 111.349 108.314C112.677 104.995 113.34 101.012 110.685 97.6924C106.038 91.7176 106.038 88.3982 112.677 83.7512C121.307 79.1041 126.618 71.8016 131.929 63.8352ZM86.7858 132.213C92.7606 132.213 98.7354 132.213 105.374 132.213C112.013 132.877 110.685 128.23 110.685 124.247C111.349 119.6 109.357 118.272 104.71 118.272C93.4245 118.272 82.1388 118.936 71.5169 118.272C66.206 118.272 64.2144 119.6 64.2144 125.575C64.2144 131.55 66.8699 132.877 72.1808 132.213C76.8279 131.55 81.4749 132.213 86.7858 132.213ZM131.265 134.205C136.576 134.205 140.559 132.213 141.887 127.566C143.214 122.919 144.542 117.608 141.887 112.297C141.223 110.97 139.231 110.306 137.904 110.97C135.912 111.634 136.576 113.625 136.576 114.953C136.576 121.592 135.912 128.23 131.265 134.205ZM44.2984 134.869C38.9875 128.23 37.6598 121.592 38.3236 114.953C38.3236 113.625 38.9875 111.634 36.332 110.97C34.3404 110.97 32.3488 111.634 31.685 113.625C28.3656 122.919 33.0127 131.55 44.2984 134.869Z" fill="#F9C811"/>
<path d="M66.2062 81.0963C55.5843 75.7854 49.6095 67.1551 46.9541 57.1971C44.9625 49.8946 51.6011 45.2475 56.9121 42.5921C63.5507 39.2728 68.8617 36.6173 73.5087 30.6425C80.8112 20.6845 98.0718 24.0039 104.047 34.6257C105.374 37.945 107.366 39.2728 110.685 39.9367C114.005 40.6005 116.66 41.9283 119.315 43.256C127.946 48.5669 129.273 52.5501 125.29 62.5081C119.979 74.4577 117.988 77.1131 105.374 82.424C109.357 74.4577 103.383 65.8274 110.685 59.1887C112.677 57.1971 110.685 55.8694 108.694 55.8694C106.038 55.8694 103.383 55.2055 100.727 55.8694C98.0718 56.5333 96.744 57.1972 99.3995 59.8526C102.719 63.172 104.71 81.0963 102.055 84.4157C100.063 87.0711 96.0802 87.0711 92.7608 87.735C84.7944 89.0627 75.5003 89.7266 70.8533 83.7518C66.8701 78.4408 70.1894 69.1468 69.5255 61.8443C69.5255 61.1804 70.8533 59.8526 71.5171 59.8526C72.8449 59.1888 74.1726 58.5248 73.5087 57.1971C72.8449 55.2055 71.5171 55.2056 69.5255 55.2056C67.5339 55.2056 65.5423 55.2056 62.8869 55.2056C60.8953 55.2056 59.5675 57.1972 60.8953 58.5249C70.8533 65.1636 64.2146 73.7938 66.2062 81.0963ZM100.727 39.2728C97.4079 31.9702 92.7608 29.9786 86.786 30.6425C80.8112 30.6425 76.1642 32.6341 73.5087 39.2728C82.8028 39.2728 91.4331 39.2728 100.727 39.2728Z" fill="#F9C811"/>
<path d="M86.7857 132.214C81.4748 132.214 76.8277 132.214 71.5168 132.214C66.2058 132.878 63.5504 131.55 63.5504 125.575C63.5504 119.601 65.542 118.273 70.8529 118.273C82.1386 118.273 92.7605 118.273 104.046 118.273C108.693 118.273 110.685 119.601 110.021 124.248C109.357 127.567 111.349 132.878 104.71 132.214C98.7353 131.55 92.7605 132.214 86.7857 132.214ZM86.7857 127.567C92.0966 127.567 96.7437 127.567 102.055 127.567C104.046 127.567 106.038 128.231 106.038 124.912C106.038 122.256 104.046 122.92 102.055 122.256C94.0882 121.592 85.458 123.584 77.4916 120.928C74.8361 120.265 73.5084 122.256 70.8529 122.256C69.5252 122.256 68.8613 123.584 68.8613 124.912C68.8613 126.903 70.189 126.903 71.5168 126.903C76.8277 127.567 81.4748 127.567 86.7857 127.567Z" fill="#20201E"/>
<path d="M131.266 134.205C135.913 127.567 136.577 121.592 135.913 114.953C135.913 113.625 135.249 111.634 137.241 110.97C138.569 110.306 140.56 110.97 141.224 112.298C143.879 116.945 142.552 122.256 141.224 127.567C140.56 132.214 136.577 134.205 131.266 134.205Z" fill="#20201E"/>
<path d="M44.2989 134.869C33.0132 131.55 28.3661 122.92 31.6855 114.29C32.3493 112.298 34.3409 110.97 36.3325 111.634C38.3241 111.634 38.3241 113.626 38.3241 115.617C37.6603 122.256 39.6519 128.231 44.2989 134.869Z" fill="#20201E"/>
<path d="M100.727 39.272C91.4328 39.272 82.8025 39.272 73.5084 39.272C76.1639 32.6333 80.1471 30.6417 86.7857 30.6417C93.4244 29.9778 98.0714 31.9694 100.727 39.272Z" fill="#20201E"/>
<path d="M86.786 127.567C81.4751 127.567 76.828 127.567 71.5171 127.567C70.1894 127.567 68.8616 127.567 68.8616 125.575C68.8616 124.247 69.5255 122.92 70.8532 122.92C73.5087 123.583 74.1726 120.928 77.4919 121.592C85.4583 124.247 93.4247 122.256 102.055 122.92C104.047 122.92 106.038 122.256 106.038 125.575C106.038 128.23 104.047 128.231 102.055 128.231C96.744 127.567 91.4331 127.567 86.786 127.567Z" fill="#F9C811"/>
</svg>
