<svg width="278" height="287" viewBox="0 0 278 287" fill="none" xmlns="http://www.w3.org/2000/svg">
<path d="M226.8 244.749C223.722 242.697 229.878 239.619 226.8 237.567C212.437 239.619 203.203 255.009 186.788 256.035C185.762 270.398 164.217 265.268 162.165 280.658C161.139 287.84 143.697 288.865 136.516 283.736C131.386 279.632 126.256 277.58 118.048 277.58C104.711 277.58 92.399 271.424 81.1135 265.268C75.9836 262.19 69.828 260.139 64.6981 259.113C53.4126 257.061 50.3347 243.723 39.0491 243.723C36.9971 230.386 17.5038 225.256 19.5557 212.944C23.6595 190.373 5.19217 173.958 6.21813 152.412C6.21813 145.231 6.21822 139.075 5.19226 131.893C4.1663 125.737 10.322 128.815 11.3479 125.737C2.11428 121.634 -4.04137 102.14 3.14037 89.8287C9.29615 78.5431 17.5038 68.2835 25.7115 59.0498C31.8673 52.894 34.9452 42.6344 46.2308 43.6603C52.3866 29.2969 67.7759 24.167 78.0355 13.9074C80.0875 11.8555 82.1395 9.80357 85.2174 8.77761C94.4511 7.75164 102.659 6.72568 111.892 2.62183C124.204 -3.53395 137.541 2.62183 149.853 6.72568C150.879 6.72568 151.905 10.8295 153.957 8.77761C164.217 -0.45606 172.424 9.80357 180.632 12.8815C191.917 16.9853 202.177 22.1151 213.463 23.1411C221.67 24.167 213.463 31.3488 216.541 32.3748C224.748 36.4786 227.826 46.7382 236.034 50.8421C244.242 54.9459 247.32 65.2056 256.553 67.2575C255.527 70.3354 262.709 71.3613 257.579 77.5171C253.475 78.5431 259.631 87.7767 263.735 88.8027C273.995 91.8806 272.969 100.088 272.969 106.244C272.969 112.4 264.761 112.4 260.657 114.452C254.501 117.53 246.294 114.452 238.086 120.608C248.345 122.659 256.553 119.582 263.735 117.53C270.917 115.478 273.995 115.478 271.943 124.711C269.891 130.867 276.046 138.049 270.917 144.205C270.917 145.231 270.917 146.257 271.943 147.283C279.124 154.464 279.124 154.464 276.046 166.776C275.02 169.854 277.072 172.932 275.021 174.984C269.891 177.036 273.995 168.828 268.865 170.88C265.787 171.906 265.787 176.01 265.787 178.062C267.839 197.555 258.605 212.944 247.319 227.308C243.216 235.515 233.982 239.619 226.8 244.749ZM191.917 109.322C182.684 112.4 177.554 108.296 173.45 101.114C165.242 85.7248 156.009 71.3613 147.801 56.9979C140.619 44.6863 132.412 44.6863 125.23 56.9979C101.633 97.0104 78.0356 137.023 53.4125 177.036C43.1529 194.477 48.2827 203.711 69.828 205.762C89.3213 207.814 108.814 206.788 127.282 206.788C159.087 205.762 191.918 208.84 223.722 204.737C224.748 204.737 227.826 205.762 226.8 203.711C223.722 197.555 228.852 190.373 223.722 183.191C211.411 164.724 200.125 145.231 188.84 125.737C183.71 118.556 182.684 112.4 191.917 109.322Z" fill="#20201E"/>
<path d="M226.8 244.75C226.8 245.776 225.774 246.802 224.748 246.802V245.776C224.748 243.724 225.774 243.724 226.8 244.75Z" fill="#20201E"/>
<path d="M191.918 109.322C182.685 112.4 183.711 118.556 187.814 124.711C199.1 144.205 209.36 163.698 222.697 182.165C227.827 189.347 222.697 196.529 225.775 202.685C226.801 204.737 223.723 203.711 222.697 203.711C190.892 207.814 159.088 203.711 126.257 205.763C107.789 206.788 88.296 206.788 68.8027 204.737C48.2834 202.685 42.1276 194.477 52.3872 176.01C75.9844 135.997 99.5815 95.9845 124.205 55.9719C131.386 43.6604 139.594 43.6604 146.776 55.9719C156.01 70.3354 164.217 85.7249 172.425 100.088C177.555 108.296 182.685 112.4 191.918 109.322ZM136.516 58.0239C112.919 98.0364 90.3479 135.997 67.7767 173.958C63.6728 180.113 55.4652 187.295 59.5691 194.477C63.673 201.659 73.9325 196.529 81.1142 196.529C120.101 196.529 160.113 196.529 199.1 196.529C213.463 196.529 216.541 192.425 209.36 180.113C200.126 163.698 190.892 148.309 181.659 132.919C167.295 108.296 151.906 83.6729 136.516 58.0239Z" fill="#F9C811"/>
<path d="M136.516 58.0234C151.905 84.6985 166.268 109.322 181.658 132.919C190.891 148.308 201.151 164.724 209.359 180.113C216.541 192.425 213.463 196.528 199.099 196.528C160.113 196.528 120.1 196.528 81.1134 196.528C73.9317 196.528 63.6722 201.658 59.5683 194.477C55.4645 187.295 64.698 180.113 67.7759 173.957C90.3471 135.997 112.918 98.036 136.516 58.0234ZM136.516 94.9581C125.23 91.8802 124.204 98.036 125.23 107.27C127.282 120.607 128.308 133.945 130.36 147.282C130.36 151.386 130.36 155.49 135.49 155.49C141.645 156.516 141.645 151.386 141.645 147.282C143.697 133.945 144.723 119.581 146.775 106.244C148.827 97.01 146.775 91.8802 136.516 94.9581ZM136.516 164.724C130.36 165.75 126.256 168.827 126.256 176.009C126.256 183.191 131.386 186.269 137.541 186.269C143.697 186.269 147.801 182.165 147.801 176.009C146.775 168.827 142.671 165.75 136.516 164.724Z" fill="#20201E"/>
<path d="M136.517 94.9584C146.776 92.9064 148.828 97.0103 146.776 106.244C144.724 119.581 143.698 133.945 141.646 147.282C141.646 151.386 140.62 156.516 135.491 155.49C130.361 155.49 131.387 150.36 130.361 147.282C128.309 133.945 127.283 120.607 125.231 107.27C124.205 98.0363 125.231 91.8805 136.517 94.9584Z" fill="#F9C811"/>
<path d="M136.515 164.724C143.696 164.724 147.8 168.828 147.8 174.984C147.8 181.14 144.722 185.243 137.54 185.243C130.359 185.243 126.255 182.165 126.255 174.984C125.229 168.828 129.333 165.75 136.515 164.724Z" fill="#F9C811"/>
</svg>
