<svg width="180" height="187" viewBox="0 0 180 187" fill="none" xmlns="http://www.w3.org/2000/svg">
<path d="M32.4505 157.092C25.1657 154.443 9.27171 139.211 9.27171 132.588C8.60945 125.303 7.94714 118.681 6.62264 111.396C5.96039 111.396 5.29812 111.396 4.63586 111.396C4.63586 112.058 4.6359 112.721 5.29816 113.383C3.97365 116.032 2.64915 116.032 1.9869 113.383C0.662394 108.085 0.662374 103.449 0.00012207 98.1512C0.00012207 97.4889 0.00012207 96.8266 0.00012207 96.8266C3.97363 92.1908 5.96037 86.8929 4.63586 81.5949C3.31136 76.9591 7.28489 77.6214 9.9339 74.9724C1.98688 73.6479 3.31144 68.3498 5.96045 63.714C7.9472 59.7405 7.94718 53.7802 13.9074 52.4557C14.5697 52.4557 15.2319 50.469 15.2319 49.8068C9.27167 43.8465 17.2187 43.1843 18.5432 39.873C21.1922 41.1975 19.2054 43.1843 21.1922 45.171C20.5299 37.8863 25.1657 35.2372 29.8014 31.2637C34.4372 27.2902 39.7353 23.3167 40.3975 16.0319C41.0598 13.3829 47.02 13.3829 50.3313 12.7206C56.9538 11.3961 62.914 7.42268 69.5365 5.43593C73.5101 4.11143 76.159 0.800127 80.7948 4.77364C82.1193 6.09814 87.4174 4.11136 90.0664 2.78686C99.3379 -1.18665 107.285 -1.18663 115.232 4.77364C115.894 4.77364 116.556 4.77364 116.556 4.77364C130.464 3.44913 138.411 14.7075 147.02 21.9922C158.278 30.6015 167.55 41.1975 176.821 52.4557C182.119 59.0783 180.795 78.2836 172.848 81.5949C176.159 82.9194 177.484 84.2439 177.484 88.2174C177.484 102.787 174.172 116.032 167.55 128.615C165.563 131.926 166.225 133.913 170.199 133.913C169.537 138.548 168.874 143.846 164.901 145.833C158.941 149.807 157.616 157.754 150.994 160.403C147.682 161.727 148.345 166.363 143.047 168.35C135.1 170.999 126.49 172.986 118.543 176.959C113.245 179.608 107.947 182.257 101.325 180.27C99.3379 179.608 97.3511 181.595 96.0266 182.919C88.0796 189.542 78.1458 187.555 72.8478 177.621C72.8478 176.959 72.8479 176.297 72.1856 176.297C64.9008 174.972 62.9141 166.363 54.967 165.039C51.6558 164.376 49.0067 163.052 46.3577 160.403C44.371 157.754 40.3975 154.443 35.7618 157.092C37.0863 156.429 37.0862 155.767 36.424 155.105C36.424 154.442 35.7617 154.443 35.0995 154.443C31.7882 154.443 32.4505 155.767 32.4505 157.092ZM92.7154 68.3498C90.0663 59.7406 88.0796 53.118 86.7551 45.8332C85.4306 41.8597 84.1061 40.5353 79.4703 41.8598C66.2253 45.8333 52.3181 49.8068 39.073 53.118C35.0995 53.7803 34.4372 55.767 35.0995 59.0783C41.0597 80.2703 46.3578 101.462 52.3181 122.654C53.6426 126.628 55.6293 128.615 59.6028 127.29C61.5895 126.628 63.5763 125.966 65.5631 125.966C70.8611 125.303 76.8214 118.681 80.1326 128.615C80.1326 129.277 82.1194 129.939 83.4439 129.939C96.6889 133.25 109.272 136.562 122.517 140.535C127.815 141.86 129.139 139.873 130.464 135.899C135.762 115.37 141.722 94.8399 147.02 74.3101C148.344 70.3365 148.345 68.3498 143.047 67.0253C132.451 65.0385 122.517 61.7273 112.583 58.4161C98.0134 53.7803 98.0134 53.7803 92.7154 68.3498ZM9.9339 76.959C22.5167 80.2703 22.5167 80.2704 25.1657 78.2836C19.8677 77.6214 15.2319 74.9723 9.9339 76.959Z" fill="#20201E"/>
<path d="M33.7752 157.092C34.4375 158.417 34.4374 159.079 35.0997 160.404C34.4374 160.404 33.7752 161.066 33.7752 160.404C33.113 159.741 31.1262 159.079 32.4507 157.092C33.113 157.092 33.113 157.092 33.7752 157.092Z" fill="#20201E"/>
<path d="M92.7155 68.3492C98.0135 53.7797 98.0135 53.7797 112.583 57.7532C122.517 60.4022 132.451 63.7135 143.047 66.3625C148.345 67.687 148.345 69.6737 147.02 73.6472C141.722 94.177 135.762 114.707 130.464 135.237C129.139 139.21 127.815 141.859 122.517 139.872C109.934 135.899 96.689 132.588 83.444 129.276C82.1195 128.614 80.1327 128.614 80.1327 127.952C76.8215 118.018 70.8612 124.641 65.5632 125.303C63.5764 125.303 61.5896 125.965 59.6029 126.627C55.6294 127.952 52.9804 126.627 52.3182 121.992C47.0202 100.8 41.0598 79.6075 35.0996 58.4155C34.4373 55.1042 35.0996 53.1174 39.0731 52.4551C52.3182 49.1439 66.2254 45.1704 79.4704 41.1969C84.1062 39.8724 85.4307 41.1969 86.7552 45.1704C88.0797 53.1174 90.0664 60.4022 92.7155 68.3492Z" fill="#F9C811"/>
</svg>
