<svg width="79" height="84" viewBox="0 0 79 84" fill="none" xmlns="http://www.w3.org/2000/svg">
<path d="M1.1778 33.5818C1.1778 30.3431 3.8276 27.6933 3.23875 24.4547C5.59414 25.338 5.59417 25.338 5.29975 22.3937C5.29975 21.216 5.88859 20.3328 6.77186 19.7439C7.94956 18.8607 7.94952 20.6272 9.12721 20.6272C8.53837 17.9774 10.3049 17.0941 12.0714 15.622C14.1324 13.8555 17.0766 12.3834 17.3711 8.85027C17.6655 6.78931 20.6097 7.37814 21.7874 7.08372C24.7316 6.20045 27.3815 4.72834 30.3257 3.84507C31.7978 3.25622 33.2699 2.07853 35.0365 3.84507C36.2142 5.02276 35.9198 2.37296 37.6863 2.96181C39.7473 3.55066 41.5138 1.48969 43.8692 1.78411C45.3413 1.78411 43.8692 0.900848 43.5748 0.0175781C44.7524 4.1395 48.5799 2.66739 50.6409 2.96181C56.5294 4.1395 60.6513 7.67256 63.8899 11.5001C65.9509 13.561 68.8951 14.4443 70.6617 16.7997C72.4282 19.4495 74.1947 22.3937 76.8445 24.4547C79.4943 26.5157 78.9055 34.1707 76.2557 36.2316C75.9613 36.526 75.6669 36.526 75.9613 37.1149C79.2 43.5922 75.9613 49.4807 73.9003 55.3691C73.3115 56.8412 71.5449 58.0189 73.6059 60.0799C74.7836 61.2576 72.7226 64.4962 70.6617 65.9684C69.484 67.146 68.0119 67.7349 68.3063 69.7959C68.3063 70.0903 68.0119 71.8568 66.8342 70.3847C66.8342 70.3847 65.6565 70.9735 65.0676 71.5624C62.4178 74.2122 62.1234 73.6234 57.707 75.6843C55.6461 76.5676 52.7019 77.1565 50.9353 78.923C49.4632 80.1007 48.2855 80.1007 46.8134 80.1007C43.8692 80.1007 41.5138 80.3951 39.1584 82.4561C37.3919 83.9282 34.4476 82.7505 32.3867 81.2784C31.209 80.3951 30.0313 79.8062 28.5592 79.2174C27.087 78.6285 25.6149 78.3341 26.4982 75.9787C26.7926 75.0955 26.2038 74.2122 25.0261 73.6234C22.0819 72.7401 18.8432 72.4457 17.0767 69.5014C16.7823 68.9126 15.6045 68.3237 15.0157 68.6182C8.53837 69.5014 6.77183 63.9074 4.71087 60.0799C3.8276 58.3133 2.94434 55.3691 3.53319 52.7193C3.82761 50.9528 3.23877 50.9528 2.06108 51.5416C1.47223 51.8361 1.17782 51.5416 0.8834 51.2472C0.588977 49.1862 0.294545 47.1253 0.00012207 44.7699C0.00012207 44.181 0.294554 43.8866 0.8834 43.8866C2.94436 43.5922 2.6499 42.7089 1.76663 41.2368C0.883364 39.4703 2.64991 35.0539 4.12203 34.4651C3.23876 33.8762 2.64991 32.6985 1.1778 33.5818ZM40.6305 62.7297C53.2907 63.0241 63.0067 52.1305 62.7123 40.3535C62.7123 28.2822 52.4074 18.2718 40.3361 18.2718C28.2647 18.5662 18.2543 28.5766 18.2543 40.648C18.2543 53.0137 28.2648 62.7297 40.6305 62.7297Z" fill="#20201E"/>
<path d="M40.6304 62.7294C28.2646 62.7294 18.2542 53.0134 18.2542 40.6476C18.2542 28.5763 27.9702 18.2715 40.3359 18.2715C52.4073 18.2715 62.7121 28.2819 62.7121 40.3532C62.7121 52.1301 53.2906 62.7294 40.6304 62.7294ZM27.3813 49.4803C26.7925 48.3026 25.3204 47.125 27.3813 45.9473C30.3256 44.4752 32.0921 42.1198 32.3865 38.5867C32.681 34.7592 32.681 34.1703 28.8535 34.7592C27.3813 35.0536 24.7315 32.6982 24.4371 36.2313C23.5538 41.2365 23.8483 45.9473 27.0869 50.0692C32.0921 58.9019 47.9909 60.374 54.1738 50.658C58.0013 45.9473 58.5902 40.6476 56.8237 35.0536C54.7627 28.5763 50.0519 24.7488 43.2802 23.8655C36.8029 22.9823 31.5033 25.3376 27.3813 30.3428C26.7925 30.9317 25.6148 31.8149 26.4981 32.9926C27.0869 33.5815 34.4475 34.1703 35.3308 33.8759C38.275 32.6982 37.6862 30.3428 37.6862 27.9875C37.3917 25.6321 38.275 24.7488 40.6304 25.0432C42.6914 25.0432 43.869 25.6321 43.5746 27.9875C43.2802 30.6373 43.5746 32.9926 46.5189 34.4648C48.2854 35.348 49.4631 37.409 49.1686 39.4699C48.8742 42.4142 50.6408 43.5919 52.4073 44.7696C55.0571 46.2417 55.6459 48.0082 53.2906 50.3636C52.1129 52.4246 50.9352 51.5413 49.7575 50.3636C47.6965 48.5971 45.93 47.4194 42.9857 49.1859C41.5136 50.0692 39.4527 50.0692 37.9806 49.1859C35.3307 47.4194 33.2698 48.5971 31.7977 50.3636C29.7367 51.8357 28.559 51.5413 27.3813 49.4803ZM44.4579 40.3532C44.1634 38.2923 42.6914 36.5257 40.6304 36.5257C38.275 36.5257 36.5085 37.9978 36.8029 40.6476C36.8029 43.003 38.275 44.1807 40.6304 44.1807C42.9858 44.1807 44.1634 42.7086 44.4579 40.3532Z" fill="#F9C811"/>
<path d="M53.2906 50.0699C55.3515 47.7145 54.7627 46.2424 52.4073 44.4759C50.6408 43.2982 48.8742 42.1205 49.1687 39.1763C49.4631 37.1153 48.2854 35.0543 46.5189 34.1711C43.5746 32.699 43.2802 30.3436 43.5746 27.6937C43.8691 25.3384 42.6914 24.7495 40.6304 24.7495C38.275 24.7495 37.3918 25.6328 37.6862 27.6937C37.9806 30.0491 38.5694 32.4045 35.3308 33.5822C34.4475 33.8766 27.0869 33.5822 26.4981 32.699C25.6148 31.5213 26.7925 30.638 27.3814 30.0491C31.5033 25.0439 36.8029 22.6886 43.2802 23.5718C50.0519 24.4551 54.7627 28.577 56.8237 34.7599C58.5902 40.3539 58.0013 45.6536 54.1738 50.3643C53.585 50.3643 53.2906 50.3643 53.2906 50.0699Z" fill="#20201E"/>
<path d="M53.5851 50.6585C47.6967 60.08 31.7978 58.9023 26.4982 50.0696C26.7926 49.7752 26.7926 49.7752 27.087 49.4808C28.2647 51.5417 29.4424 51.8362 31.2089 50.0696C32.9755 48.3031 34.742 47.1254 37.3918 48.8919C38.864 49.7752 40.9249 49.7752 42.397 48.8919C45.3413 47.1254 47.1078 48.3031 49.1688 50.0696C50.3465 51.2473 51.5241 52.1306 52.7018 50.0696C53.2907 50.364 53.5851 50.364 53.5851 50.6585Z" fill="#20201E"/>
<path d="M26.7925 50.0696C23.5539 45.9477 23.5539 41.2369 24.1427 36.2317C24.7316 32.6986 27.087 35.054 28.5591 34.7596C32.3866 34.1708 32.681 34.7596 32.0921 38.5871C31.7977 42.1202 30.0312 44.1812 27.087 45.9477C24.7316 47.1254 26.4981 48.3031 27.087 49.4808C27.087 49.4808 26.7925 49.7752 26.7925 50.0696Z" fill="#20201E"/>
<path d="M44.458 40.3534C44.1636 42.7088 42.9859 44.1809 40.6305 44.1809C38.2751 44.1809 36.803 43.0032 36.803 40.6478C36.803 37.998 38.2751 36.5259 40.6305 36.5259C42.6915 36.5259 43.8691 38.2924 44.458 40.3534Z" fill="#20201E"/>
</svg>
