<svg width="138" height="142" viewBox="0 0 138 142" fill="none" xmlns="http://www.w3.org/2000/svg">
<path d="M34.889 13.3509C40.4763 9.79536 46.0636 8.27155 52.1588 5.73186C54.6985 4.71599 56.7302 3.70009 59.7779 4.71597C61.8096 5.2239 63.8414 4.71599 65.3652 3.19218C68.9207 -1.88718 73.4921 0.652499 77.5556 0.652499C78.0636 0.652499 78.5716 1.16043 78.5716 1.16043C80.6033 7.25567 88.2224 8.27154 91.27 13.8588C91.7779 14.3668 92.2858 15.3827 92.7937 15.3827C99.9048 15.8906 103.968 21.9858 110.064 24.0176C112.603 25.0334 114.635 26.5573 118.191 25.5414C121.238 24.5255 122.254 28.0811 123.778 29.6049C129.873 36.716 131.905 45.3509 131.905 54.4938C131.905 55.5096 132.413 56.0176 132.413 56.5255C135.46 58.0493 133.429 52.462 135.46 54.4938C136.984 56.0176 138.508 59.5731 137.492 61.6049C136.476 64.1446 138 66.1763 138 68.716C135.968 69.2239 131.397 65.6684 133.937 71.2557C135.46 74.8112 131.905 78.3668 133.937 81.9223C134.445 82.9382 131.905 84.462 130.381 83.4461C128.349 81.9223 125.81 82.4303 123.778 82.4303C124.286 83.9541 125.81 84.462 126.826 84.462C130.381 84.97 134.952 86.4938 134.952 88.5255C134.445 93.0969 133.937 98.6842 128.349 101.224C126.825 101.732 126.318 104.272 126.826 104.779C130.381 107.827 127.333 109.351 125.81 110.875C119.714 115.954 114.127 121.033 108.032 126.113C106 127.637 110.572 132.208 104.984 131.7C101.937 131.7 99.397 133.224 96.3493 134.24C93.3017 135.256 90.762 136.779 88.2223 137.795C84.1588 139.319 80.0954 142.367 76.0319 138.303C75.5239 138.811 75.5239 138.811 75.0159 139.319C76.5398 137.795 75.016 137.795 74.0001 137.287L73.4922 137.795C73.4922 138.811 74.508 138.811 75.0159 138.811C66.889 142.875 58.762 141.859 49.6191 139.827C39.9683 137.795 32.8572 131.7 26.762 125.605C23.2064 121.541 18.1271 120.018 14.5715 115.446C10.508 110.875 8.47632 104.779 2.38109 101.224C-0.158597 99.7001 -0.66655 85.9858 0.85726 82.4303C1.87313 80.3985 4.41279 81.4144 5.42866 79.3827C2.38104 78.8747 2.38109 76.843 2.38109 73.7954C1.87315 63.1287 4.41283 53.4779 10.0001 44.335C11.5239 41.2874 8.9842 40.2715 8.9842 38.7477C8.47626 34.6842 11.016 30.6207 14.5715 27.5731C18.635 24.5255 22.1905 20.462 24.2223 16.9065C26.254 13.3509 27.7779 14.3668 29.8096 13.8588C31.3334 18.4303 34.3811 12.843 36.4128 14.8747C35.9049 14.8747 35.3969 14.3668 34.889 13.3509ZM67.3969 114.938C75.5239 114.43 83.143 112.399 89.7462 108.335C92.2858 106.811 93.3017 105.287 90.762 102.24C87.2065 98.6842 84.1588 94.1128 81.6191 90.0493C79.0795 85.9858 76.5398 82.4303 70.9525 86.4938C69.9366 87.0017 67.9049 87.0017 66.889 86.4938C59.7779 82.4303 56.7302 86.4938 54.6985 92.589C54.1905 93.0969 53.6826 94.1128 53.6826 94.6208C52.1588 99.7001 44.0318 103.256 47.5874 108.843C50.635 113.414 57.2382 113.922 63.3335 114.43C64.8573 114.43 66.381 114.43 67.3969 114.938ZM27.7779 72.2715C26.762 76.843 28.7938 77.3509 32.8573 76.843C38.9525 75.8271 45.5557 75.3192 51.6509 74.8112C53.1747 74.8112 54.6985 75.3191 55.2065 73.2874C57.7461 66.1763 64.3493 59.5731 56.7303 51.4462C54.1906 48.9065 53.1747 45.3509 52.1588 42.3033C50.1271 36.716 46.5715 38.7477 44.5398 40.7795C34.889 49.4144 27.7779 59.0652 27.7779 72.2715ZM94.8255 73.7954C98.3811 73.7954 101.937 73.7954 104.984 73.7954C107.524 73.7954 109.048 73.2874 108.54 70.2398C106.508 57.0334 100.413 46.8747 88.7303 39.2557C85.1747 37.2239 83.6509 38.2398 82.1271 41.2874C80.6033 44.843 79.0794 48.3985 77.5556 51.9541C75.0159 57.0334 70.9525 62.6207 78.5716 67.1922C79.0795 67.1922 79.0795 67.7001 79.0795 68.208C79.5874 74.3033 83.6509 74.3033 88.2223 73.7954C90.762 73.7954 92.7938 73.7954 94.8255 73.7954ZM67.9049 82.4303C72.9842 82.4303 77.0477 78.3668 77.0477 73.7954C77.0477 69.2239 72.4763 65.6684 67.9049 65.6684C63.3334 65.6684 59.27 69.7319 59.27 74.3033C59.27 78.8747 62.8255 82.4303 67.9049 82.4303Z" fill="#20201E"/>
<path d="M34.8885 13.3505C35.3964 14.3664 35.9044 15.3822 36.4123 15.8902C34.3806 13.8584 31.333 19.4457 29.8091 14.8743C31.8409 14.3663 32.3488 11.8267 34.8885 13.3505Z" fill="#F9C811"/>
<path d="M67.397 114.938C66.3811 114.938 64.8573 114.938 62.8256 114.43C57.2383 113.922 50.1271 112.906 47.0795 108.843C43.524 103.763 51.651 99.6997 53.1748 94.6204C53.1748 94.1124 54.1907 93.0965 54.1907 92.5886C56.2224 86.4934 59.27 82.9378 66.3811 86.4934C67.397 87.0013 69.4288 87.0013 70.4446 86.4934C76.0319 82.4299 78.5716 85.9854 81.1113 90.0489C84.1589 94.1124 87.2065 98.1759 90.2541 102.239C92.7938 105.287 91.7779 106.303 89.2383 108.335C83.143 112.398 76.0319 114.43 67.397 114.938Z" fill="#F9C811"/>
<path d="M27.7778 72.2711C28.2857 59.0648 34.8889 49.414 44.0317 40.7791C46.0635 38.7473 50.1269 36.7155 51.6508 42.3028C52.6666 45.3505 54.1904 48.906 56.2222 51.4457C63.8412 59.5727 57.238 66.1758 54.6983 73.287C54.1904 74.8108 52.1587 74.3028 51.1428 74.8108C45.0476 75.3187 38.4444 75.8267 32.3492 76.8425C28.7936 77.3505 26.7619 76.8425 27.7778 72.2711Z" fill="#F9C811"/>
<path d="M94.825 73.7958C92.7932 73.7958 90.7615 73.7958 88.7297 73.7958C84.1583 74.3037 80.0948 74.3037 79.5869 68.2085C79.5869 67.7005 79.0789 67.1926 79.0789 67.1926C71.9678 62.6212 75.5234 57.0339 78.063 51.9545C79.5868 48.399 81.1106 44.8434 82.6344 41.2879C84.1582 38.2402 85.6821 36.7164 89.2376 39.2561C100.412 46.3672 107.015 56.5259 109.047 70.2402C109.555 73.2878 108.031 74.3037 105.492 73.7958C101.936 73.7958 98.3805 73.7958 94.825 73.7958Z" fill="#F9C811"/>
<path d="M67.9046 82.4306C62.8253 82.4306 59.2697 78.8751 59.2697 74.3036C59.2697 69.7322 63.3332 65.6687 67.9046 65.6687C72.476 65.6687 76.5396 69.2243 77.0475 73.7957C77.0475 78.3671 72.984 82.4306 67.9046 82.4306Z" fill="#F9C811"/>
</svg>
