<svg width="181" height="186" viewBox="0 0 181 186" fill="none" xmlns="http://www.w3.org/2000/svg">
<path d="M0.00012207 97.3554C6.61768 99.3406 7.94125 98.6789 5.95598 94.0466C3.97072 89.4143 8.60301 85.4437 5.95598 80.1497C5.29423 78.8262 9.26472 76.8409 11.9117 79.4879C11.9117 78.1644 12.5735 77.5027 11.9117 76.8409C7.27946 74.1939 1.98539 72.2086 6.61768 65.5911C8.60295 61.6205 7.94123 55.6647 13.897 55.003C14.5588 55.003 15.8823 53.0177 15.8823 53.0177C11.9118 40.4444 24.4851 39.1208 30.4409 33.8268C34.4115 29.8563 36.3967 24.5622 41.6908 21.9152C38.382 11.9889 48.97 14.6359 50.9553 13.9741C59.5581 11.9888 66.1757 7.35657 74.1167 4.70955C75.4403 4.04779 76.102 3.38602 77.4255 4.04778C83.3813 8.01831 87.3519 4.04779 92.6459 1.40077C95.9547 0.0772588 100.587 -0.584512 103.896 0.738999C111.175 4.70953 118.454 5.37128 126.396 6.03304C131.028 6.03304 131.028 11.3271 134.337 12.6506C140.292 15.9594 146.248 20.5917 150.88 26.5475C154.189 30.518 160.807 32.5033 164.116 37.1356C169.41 43.7531 175.365 49.7089 179.336 57.65C182.645 64.2676 179.998 70.8851 179.998 77.5027C179.998 80.1497 176.689 80.8115 173.38 80.8115C179.336 82.7967 177.351 86.7673 177.351 90.076C178.012 103.311 174.042 115.885 168.086 127.134C167.424 128.458 164.116 130.443 166.763 132.428C172.057 135.737 168.748 140.369 166.763 142.355C161.468 147.649 158.822 155.59 151.542 158.899C150.219 159.56 146.248 160.884 149.557 164.193C150.219 164.854 148.895 166.178 148.233 166.178C142.939 164.854 140.292 171.472 136.984 170.81C129.704 169.487 125.072 174.781 118.454 176.104C112.499 177.428 107.205 181.398 101.249 179.413C99.9253 178.751 97.9399 180.075 97.2782 180.737C87.3519 187.354 84.7049 187.354 74.7785 180.737C72.7933 179.413 70.1462 178.09 68.161 177.428C69.4845 175.443 71.4697 178.09 72.7933 176.104V175.443C66.1757 174.781 64.1905 167.501 58.8964 166.178C48.9701 162.869 41.6908 153.605 31.7644 153.605C21.1763 152.943 19.1911 145.002 15.2205 139.046C10.5882 133.09 10.5883 126.473 10.5883 119.193C10.5883 116.546 10.5882 113.237 8.60297 111.914C3.97068 109.267 3.97072 109.267 2.64721 100.002C1.32369 100.664 0.661878 99.3406 0.00012207 97.3554ZM35.735 90.076C35.735 92.0613 35.735 94.0466 35.735 96.6936C35.735 116.546 50.9554 127.796 70.1463 121.84C81.3961 118.532 86.6901 111.252 86.0284 99.3406C86.0284 92.0613 86.0284 84.782 86.0284 77.5027C86.0284 70.8851 82.7196 64.9293 76.7638 61.6205C66.8375 55.6647 56.9111 55.6647 46.323 60.9588C36.3967 65.5911 34.4114 74.1939 34.4114 84.1202C35.7349 85.4437 35.735 88.0908 35.735 90.076ZM89.3371 57.65C95.2929 68.8999 99.9253 78.8262 105.219 88.7525C110.513 98.0171 114.484 106.62 106.543 115.885C105.219 117.208 104.558 119.193 106.543 120.517C109.19 122.502 120.44 120.517 121.763 117.87C131.028 99.3406 139.631 80.8114 148.895 62.2823C149.557 60.297 150.219 58.9735 147.572 57.65C141.616 55.6647 134.337 58.3118 131.69 63.6058C128.381 70.8851 125.072 78.1644 121.101 86.1055C117.131 77.5027 113.822 70.2234 110.513 62.944C109.19 58.9735 106.543 57.65 102.572 58.3118C97.94 59.6353 93.9694 59.6353 89.3371 57.65Z" fill="#20201E"/>
<path d="M35.7345 90.0765C35.7345 88.0912 35.7345 86.106 35.7345 83.4589C35.0728 73.5326 37.7197 64.9298 47.6461 60.2975C57.5724 55.6652 68.1605 55.6652 78.0869 60.9593C84.0427 64.268 86.6896 69.5621 87.3514 76.8414C87.3514 84.1207 87.3514 91.4 87.3514 98.6793C87.3514 110.591 82.0574 117.208 71.4693 121.179C52.2784 127.135 37.058 115.885 37.058 96.0323C35.7345 94.047 35.7345 92.0618 35.7345 90.0765ZM56.2489 73.5326C51.6166 73.5326 51.6166 76.8414 51.6166 80.1502C51.6166 86.106 51.6166 92.0618 51.6166 98.6793C51.6166 105.297 54.9254 108.606 60.8812 108.606C67.4987 108.606 71.4693 105.959 72.1311 99.3411C72.1311 93.3853 72.1311 87.4295 72.1311 82.1354C72.1311 78.8266 70.8075 76.1796 67.4987 77.5031C62.2047 78.8267 59.5577 75.5179 56.2489 73.5326C60.8812 73.5326 64.8517 76.8414 70.8075 74.8561C65.5135 70.8856 60.8812 68.2386 56.2489 73.5326Z" fill="#F9C811"/>
<path d="M89.3369 57.6498C93.9692 58.9733 97.9398 59.635 101.91 58.9733C105.881 58.3115 107.866 59.635 109.851 63.6055C113.16 70.8849 116.469 78.1642 120.439 86.767C124.41 78.8259 127.719 71.5466 131.028 64.2673C133.675 58.9733 140.954 55.6645 146.91 58.3115C149.557 58.9733 148.895 60.9585 148.233 62.9438C138.969 81.473 130.366 100.002 121.101 118.531C119.778 121.178 108.528 123.164 105.881 121.178C103.896 119.855 105.219 117.87 105.881 116.546C113.822 107.281 109.851 98.0169 104.557 89.414C99.2633 79.4877 94.631 68.8996 89.3369 57.6498Z" fill="#F9C811"/>
<path d="M56.2487 73.5327C59.5575 75.518 62.8662 78.8268 67.4985 76.8415C70.8073 75.518 72.1309 78.165 72.1309 81.4738C72.1309 87.4296 72.1309 93.3854 72.1309 98.6794C72.1309 105.297 67.4985 108.606 60.881 107.944C54.2634 107.944 50.9547 103.973 51.6164 98.0177C51.6164 92.0619 51.6164 86.1061 51.6164 79.4885C51.6164 76.8415 51.6164 73.5327 56.2487 73.5327Z" fill="#20201E"/>
<path d="M56.2492 73.533C61.5432 68.239 65.5137 70.886 70.8078 74.8565C64.852 76.8418 60.8814 73.533 56.2492 73.533Z" fill="#20201E"/>
</svg>
