<svg width="1895" height="1438" viewBox="0 0 1895 1438" fill="none" xmlns="http://www.w3.org/2000/svg">
<path d="M843.785 81.9723C744.379 17.5792 510.59 -29.2522 216.052 21.4818C197.03 145.715 167.454 383.254 201.326 339.545C243.665 284.908 350.435 173.684 497.704 261.493C644.972 349.302 626.564 560.043 810.65 583.459C994.736 606.874 989.213 491.747 1142 478.088C1294.8 464.429 1377.63 628.339 1311.36 677.121C1245.09 725.904 946.873 632.241 932.146 706.391C917.419 780.541 1051.8 852.739 882.443 878.106C713.084 903.473 517.953 425.403 216.052 431.257C-85.8483 437.111 8.03546 1016.65 35.6483 936.646C63.2612 856.642 120.328 534.676 471.932 985.428C823.536 1436.18 1554.36 1549.36 1795.51 1328.86C2036.66 1108.36 1502.81 883.96 1554.36 780.541C1605.9 677.121 2090.05 1032.26 1806.55 560.043C1523.06 87.8263 957.918 333.691 908.215 277.103C858.512 220.515 943.192 146.366 843.785 81.9723Z" fill="#FFCC09"/>
</svg>
