<svg width="1809" height="1474" viewBox="0 0 1809 1474" fill="none" xmlns="http://www.w3.org/2000/svg">
<path d="M666 84.0178C558 18.0178 304 -29.9822 -15.9999 22.0178C-36.6665 149.351 -68.7999 392.818 -31.9999 348.018C14.0001 292.018 130 178.018 290 268.018C450 358.018 430 574.018 630 598.018C830 622.018 824 504.018 990 490.018C1156 476.018 1246 644.018 1174 694.018C1102 744.018 778 648.018 762 724.018C746 800.018 892 874.018 708 900.018C524 926.018 312 436.018 -15.9999 442.018C-344 448.018 -242 1042.02 -212 960.018C-182 878.018 -120 548.018 262 1010.02C644 1472.02 1438 1588.02 1700 1362.02C1962 1136.02 1382 906.018 1438 800.018C1494 694.018 2020 1058.02 1712 574.018C1404 90.0178 790 342.018 736 284.018C682 226.018 774 150.018 666 84.0178Z" fill="#FFCC09"/>
</svg>
