<svg width="1685" height="1753" viewBox="0 0 1685 1753" fill="none" xmlns="http://www.w3.org/2000/svg">
<g filter="url(#filter0_d_24_22303)">
<path d="M1511 984C1642.29 1033.83 1693 1284 1703 1440C1703 1606 1685 1888.4 1685 1658C1685 1370 1553 1202 1423 1176C1267.58 1144.92 1011 1216 797 1202C583 1188 -88.9999 1006 15.0001 756C119 506 865 248 1223 262C1581 276 1273 166 1317 66C1361 -34 1543 2 1693 30C1843 58 2055 166 1693 78C1331 -9.99995 1691 300 1531 338C1371 376 1326.33 297.129 1119 354C193 608 657.709 1069.38 797 1094C1261 1176 1223 874.699 1511 984Z" fill="#F7C60A"/>
</g>
<defs>
<filter id="filter0_d_24_22303" x="0.141846" y="0" width="1896.49" height="1752.86" filterUnits="userSpaceOnUse" color-interpolation-filters="sRGB">
<feFlood flood-opacity="0" result="BackgroundImageFix"/>
<feColorMatrix in="SourceAlpha" type="matrix" values="0 0 0 0 0 0 0 0 0 0 0 0 0 0 0 0 0 0 127 0" result="hardAlpha"/>
<feOffset dy="4"/>
<feGaussianBlur stdDeviation="2"/>
<feComposite in2="hardAlpha" operator="out"/>
<feColorMatrix type="matrix" values="0 0 0 0 0 0 0 0 0 0 0 0 0 0 0 0 0 0 0.25 0"/>
<feBlend mode="normal" in2="BackgroundImageFix" result="effect1_dropShadow_24_22303"/>
<feBlend mode="normal" in="SourceGraphic" in2="effect1_dropShadow_24_22303" result="shape"/>
</filter>
</defs>
</svg>
