<svg width="503" height="513" viewBox="0 0 503 513" fill="none" xmlns="http://www.w3.org/2000/svg">
<mask id="path-1-inside-1_24_10635" fill="white">
<path d="M495.698 224.507C494.957 228.025 494.402 230.989 493.661 234.878C492.181 232.285 491.44 229.507 490.33 229.322C485.517 228.766 486.072 225.433 485.887 222.284C485.702 219.877 485.147 217.284 484.592 214.876C483.851 211.728 482.556 208.579 482 205.246C481.075 200.245 479.224 195.8 475.151 192.282C473.486 190.8 472.56 188.207 471.635 185.985C470.709 183.577 470.524 180.799 469.228 178.577C466.822 174.502 463.49 170.798 461.084 166.724C455.531 157.093 450.533 147.278 444.98 137.832C440.908 130.795 436.281 124.127 431.468 117.645C428.321 113.571 424.619 109.682 420.917 106.163C416.845 102.274 412.403 98.94 407.96 95.4212C405.739 93.5692 403.333 91.9023 400.926 90.2355C397.595 87.8279 394.078 85.7907 391.116 83.1979C388.895 81.1607 387.229 79.8643 384.267 81.1607C383.157 81.7163 381.306 81.1607 380.38 80.6051C379.825 80.2347 380.565 78.1974 380.565 77.0862C380.565 75.2342 381.491 72.4562 380.565 71.5302C376.123 67.2706 371.31 63.3813 366.313 59.6773C365.017 58.7513 361.5 58.7513 360.575 59.8625C357.983 62.6405 355.947 62.0849 353.356 60.2329C352.06 59.3069 350.394 58.9365 348.913 58.1957C344.656 56.5289 340.399 55.0473 336.327 53.1952C334.846 52.4544 333.735 51.158 332.439 50.0468C333.735 49.1208 335.216 48.38 336.512 47.454C336.697 47.2688 336.697 46.8984 337.067 45.7872C334.661 44.8612 332.069 43.9352 329.663 42.824C327.627 42.0832 325.961 41.3424 327.812 38.7495C328.367 38.0087 328.182 35.9715 327.812 35.9715C326.701 35.6011 325.221 35.4159 324.11 35.7863C321.519 36.8975 318.927 38.3791 315.966 39.8607C317.631 40.6016 319.482 41.5276 321.333 42.4536C322.444 43.0092 323.555 43.75 324.48 44.4908C324.665 44.676 324.11 46.3428 323.74 46.3428C322.444 46.3428 320.963 46.3428 319.668 45.7872C317.817 45.2316 315.966 44.1204 314.115 43.5648C311.153 42.6388 308.191 42.2684 305.23 41.1572C303.564 40.6016 302.268 39.1199 300.787 38.1939C302.638 37.8235 304.304 37.2679 306.155 36.8975C306.34 36.8975 306.525 36.5271 307.081 35.7863C302.638 33.0083 301.528 26.7114 295.419 25.6002C294.494 25.415 293.198 23.7482 293.198 22.8222C293.198 19.859 291.347 19.1182 289.126 18.5626C286.535 17.8218 283.943 17.2662 281.537 16.3402C280.241 15.7846 279.316 14.4882 278.205 13.5621C279.316 12.6361 280.241 11.3397 281.537 10.7841C285.239 9.11731 288.941 8.0061 292.643 6.33929C293.383 5.96889 294.309 4.48728 294.124 3.74647C293.939 2.82046 292.643 1.70926 291.717 1.70926C288.386 1.70926 284.684 1.33885 281.722 2.45006C276.539 4.48728 272.282 2.45006 267.84 0.598047C266.914 0.227645 265.433 -0.142758 265.248 0.227645C264.693 0.96845 264.138 2.45006 264.508 3.37607C264.878 4.85768 265.803 6.15409 266.729 8.37651C264.323 8.56171 262.657 8.74691 260.991 8.74691C257.289 8.56171 253.587 8.19131 249.885 8.19131C248.774 8.19131 247.849 9.30252 246.738 10.0433C247.479 10.7841 248.034 11.7101 248.959 12.4509C250.255 13.3769 251.551 14.1178 252.846 14.8586C252.846 15.4142 252.846 15.9698 252.846 16.3402C247.849 17.4514 242.851 18.5626 237.853 19.4886C237.853 19.859 237.853 20.4146 237.853 20.785C238.964 21.1554 240.075 21.711 241.185 22.0814C242.481 22.4518 243.777 22.8222 245.257 23.1926C245.257 23.7482 245.443 24.1186 245.443 24.6742C243.221 25.415 241 25.7854 238.779 26.8966C237.483 27.4523 235.447 28.9339 235.632 30.0451C235.817 35.2307 231.93 39.1199 226.377 38.9347C226.562 38.0087 226.933 37.2679 227.118 36.5271C227.488 35.4159 227.673 34.1195 228.043 33.0083C226.747 32.8231 225.637 32.6379 224.341 32.6379C222.675 32.6379 221.009 33.0083 219.529 32.6379C215.456 31.1563 211.939 30.7859 208.793 34.6751C208.237 35.4159 206.016 34.6751 204.535 34.6751C204.906 33.1935 205.091 31.7119 205.646 30.4155C205.831 29.8599 206.942 29.6747 207.312 29.1191C207.867 28.1931 208.608 26.8966 208.423 26.1558C208.052 25.415 206.386 24.6742 205.646 24.8594C201.204 25.7854 196.761 26.7114 192.319 28.0079C190.838 28.3783 189.727 30.0451 188.432 31.1563C189.727 31.8971 191.208 32.2675 192.134 33.1935C193.8 34.4899 195.095 36.1567 196.576 37.6383C195.095 38.9347 193.8 40.7868 191.949 41.1572C188.062 42.0832 183.804 42.6388 179.732 43.0092C178.621 43.1944 177.511 42.4536 176.215 42.2684C176.215 41.898 176.215 41.5276 176.215 41.1572C177.511 40.6016 178.992 40.4164 180.102 39.6755C181.028 38.9347 182.138 36.7123 181.768 36.5271C178.992 33.9343 180.472 32.2675 182.694 30.4155C183.434 29.8599 183.619 28.7487 184.36 27.0819C175.105 27.4523 170.847 31.8971 170.477 40.972C170.107 40.7868 169.552 40.7868 169.181 40.6016C167.701 38.0087 166.405 35.4159 164.739 32.4527C159.371 35.6011 154.558 38.3791 149.931 41.3424C145.303 44.3056 140.491 47.2688 136.234 50.7876C134.568 52.2692 134.197 55.4177 133.272 57.8253C135.863 57.4549 138.455 57.4549 141.046 56.8993C141.972 56.7141 142.712 55.6029 143.452 55.0473C145.303 53.5657 147.34 52.2692 149.005 50.7876C150.671 49.1208 151.967 47.0836 153.633 45.4168C154.929 43.9352 156.595 42.6388 158.075 41.3424C159.371 43.3796 159.741 45.0464 160.852 45.7872C163.999 47.8244 164.369 49.4912 161.222 51.7136C154.558 56.7141 146.784 59.8625 139.01 63.0109C131.976 65.7889 124.202 67.641 120.13 75.6046C118.279 79.3087 116.058 84.1239 109.949 83.3831C109.394 83.3831 108.469 84.8647 108.098 85.9759C106.432 90.6059 103.471 93.7544 99.0285 95.9768C96.0669 97.4584 93.4755 99.6808 91.0692 102.088C87.3672 105.792 84.0354 109.682 80.7036 113.571C74.2251 121.535 67.9317 129.683 61.6383 137.832C57.7512 142.833 57.381 150.426 50.3472 153.389C49.977 153.574 49.7919 154.13 49.6068 154.5C45.5346 165.242 40.722 175.799 37.3902 186.725C31.6521 205.801 28.1352 225.247 26.8395 245.064C26.6544 247.472 27.0246 248.953 29.8011 249.324C33.318 249.879 33.8733 252.657 32.7627 255.25C32.0223 257.102 30.1713 258.769 28.6905 260.25C25.914 262.658 24.9885 265.251 26.4693 268.955C27.2097 270.622 27.3948 272.659 27.2097 274.511C26.4693 281.178 25.5438 287.845 24.6183 294.513C24.4332 295.809 24.2481 297.291 23.5077 298.217C21.6567 300.995 20.7312 303.588 22.3971 306.921C22.7673 307.662 21.6567 309.144 21.2865 310.255C20.1759 309.699 18.8802 309.514 17.9547 308.773C17.3994 308.218 17.0292 307.292 16.8441 306.366C15.7335 299.143 14.9931 291.92 13.8825 284.882C13.6974 283.586 12.5868 282.66 12.0315 281.363C11.106 282.104 9.6252 282.845 9.255 283.771C8.8848 285.253 9.0699 286.919 9.255 288.586C11.4762 303.217 13.5123 317.663 16.1037 332.294C16.8441 336.368 18.6951 340.257 19.9908 344.147C20.361 345.258 20.1759 346.554 20.1759 347.665C18.8802 347.295 17.0292 347.11 16.4739 346.369C14.9931 343.591 13.8825 340.628 13.3272 337.665C11.106 327.108 9.255 316.552 7.404 305.995C6.2934 300.069 5.553 294.142 4.2573 288.216C4.0722 287.105 2.4063 286.364 1.4808 285.623C0.9255 286.919 0 288.401 0 289.697C0.1851 295.068 0.5553 300.624 0.9255 305.995C1.1106 310.07 0.7404 314.329 1.2957 318.404C2.4063 326.182 3.8871 333.775 5.553 341.369C5.9232 343.221 6.4785 345.813 7.9593 346.925C12.5868 350.444 15.7335 354.518 16.2888 360.259C16.2888 360.815 17.0292 361.556 17.5845 362.111C20.1759 364.889 22.5822 367.852 25.7289 370.26C27.9501 371.927 31.0968 372.668 33.6882 373.964C36.2796 375.261 38.871 376.742 41.4624 378.224C42.573 378.965 43.4985 379.891 44.424 380.817C44.7942 380.631 45.3495 380.261 45.7197 380.076C44.9793 378.224 44.6091 376.372 43.6836 374.705C41.2773 370.816 38.1306 367.297 36.4647 363.222C31.8372 351.555 27.765 339.702 23.5077 328.034C23.1375 326.923 23.6928 325.441 23.8779 324.145C24.9885 324.886 26.6544 325.441 27.0246 326.553C29.2458 331.368 30.9117 336.368 33.1329 341.183C34.0584 343.035 35.5392 344.702 36.8349 346.554C37.3902 344.517 37.7604 342.665 38.3157 340.257C40.3518 342.295 44.0538 345.073 42.3879 348.036C39.7965 352.851 41.2773 356.74 42.0177 361.185C42.9432 366.371 52.0131 382.854 56.0853 386.743C62.0085 392.299 67.0062 398.411 64.0446 407.671C64.4148 407.856 64.9701 408.041 65.3403 408.041C68.1168 408.782 71.2635 413.227 69.7827 414.708C68.8572 415.634 66.0807 414.708 64.0446 414.523C63.4893 414.523 62.934 413.968 62.3787 413.968C60.5277 414.153 57.0108 414.153 57.0108 414.523C56.8257 417.116 56.2704 420.45 57.5661 422.302C60.1575 426.191 63.8595 429.525 67.3764 432.858C68.487 433.969 70.338 434.155 71.8188 434.895C71.6337 433.229 72.0039 431.562 71.2635 430.08C70.1529 427.858 68.6721 425.82 66.8211 423.042C68.6721 423.228 69.4125 423.042 69.7827 423.228C75.891 427.858 82.3695 431.747 86.2566 438.785C87.5523 441.192 90.3288 443.97 92.7351 444.341C101.065 445.637 104.767 451.008 107.728 458.046C111.06 465.639 116.613 471.195 125.683 471.75C129.57 471.936 134.938 477.677 134.568 481.381C134.197 485.085 136.234 485.641 138.825 486.196C145.674 488.048 152.893 488.974 159.001 491.937C167.515 496.012 178.251 494.53 185.285 502.124C185.84 502.679 186.951 502.679 187.876 502.494C195.095 501.383 201.574 503.605 207.682 506.939C210.459 508.606 213.235 508.235 216.012 506.383C222.12 502.309 228.598 503.42 233.966 508.976C234.522 509.717 235.817 509.902 236.743 510.087C238.964 510.643 241.555 510.643 243.591 511.754C246.738 513.236 249.145 512.865 251.736 510.643C253.772 508.791 255.808 508.606 258.585 510.087C263.397 512.68 268.58 514.532 273.578 510.087C274.688 509.161 276.724 508.606 278.02 508.976C284.684 511.198 290.052 508.606 295.234 504.531C298.196 502.123 301.343 502.309 304.674 503.79C306.34 504.531 309.117 505.272 310.227 504.346C317.446 499.531 325.776 497.493 333.735 494.53C339.473 492.308 342.805 488.233 343.916 481.937C344.101 481.011 345.767 479.159 346.137 479.344C348.173 479.899 350.394 480.825 351.875 482.307C352.245 482.677 350.764 485.455 349.654 486.937C348.728 488.233 347.062 488.974 345.952 490.085C345.211 490.826 344.841 491.937 344.286 492.863C345.767 493.234 346.322 493.049 347.062 492.678C351.135 490.456 355.207 488.048 359.279 486.196C363.166 484.529 366.128 482.307 368.719 478.788C373.717 472.491 379.64 467.306 389.08 469.528C390.561 469.898 392.967 468.602 394.448 467.491C396.299 466.009 397.595 463.972 399.261 462.305C405.924 455.268 412.773 448.415 419.436 441.192C422.398 437.859 425.545 435.451 430.172 435.081C431.468 434.895 432.949 433.969 433.874 433.043C437.761 428.969 442.019 424.895 442.389 418.412C442.389 417.301 443.499 416.19 444.24 415.079C448.312 409.152 452.199 403.041 456.456 397.299C459.418 393.04 462.565 388.78 466.082 384.891C469.228 381.372 472.93 378.409 476.077 375.075C477.928 373.038 480.149 370.63 478.298 366.556C477.003 367.667 475.892 368.223 475.337 369.149C473.301 372.668 470.894 375.446 466.822 377.113C464.601 378.039 462.935 380.631 461.454 382.669C456.827 389.521 452.754 396.744 447.757 403.226C440.908 412.301 433.504 421.005 426.1 429.525C424.989 431.006 422.768 431.377 420.917 432.303C420.547 431.747 420.177 431.377 419.807 430.821C420.732 429.71 421.658 428.413 422.583 427.487C424.804 425.265 427.581 423.413 429.432 420.82C433.874 415.079 437.391 408.782 442.019 403.226C448.682 395.262 454.05 386.558 457.937 376.927C458.863 374.705 459.788 372.668 460.344 370.26C460.529 369.519 459.788 368.593 459.418 367.667C458.678 368.223 457.567 368.593 457.012 369.149C455.901 370.816 455.346 372.853 454.05 374.52C453.495 375.261 451.644 375.631 450.718 375.446C450.163 375.261 449.423 373.223 449.793 372.482C452.94 364.889 456.086 357.296 459.418 349.703C459.788 348.962 462.195 348.221 462.935 348.592C463.86 348.962 464.046 350.814 464.231 352.11C464.416 353.407 464.046 354.888 463.86 356.185C465.341 355.259 467.748 354.888 468.303 353.592C470.894 348.592 474.041 343.406 475.337 337.85C479.594 320.256 483.111 302.476 486.998 284.882C488.109 279.326 489.219 273.955 490.7 268.399C490.885 267.473 492.366 266.732 493.291 265.806C494.032 266.547 495.142 267.288 495.142 267.844C495.142 272.103 494.772 276.178 494.587 280.437C494.402 282.845 493.847 285.067 493.476 287.475C494.217 287.66 494.957 287.845 495.512 288.031C496.253 286.549 497.549 285.067 497.734 283.401C498.289 277.845 498.659 272.289 498.844 266.732C498.844 264.14 498.289 261.732 494.772 261.547C494.032 261.547 492.921 260.065 492.736 259.139C491.996 256.917 491.255 254.694 491.07 252.472C490.885 251.546 491.625 250.435 491.996 249.509C492.921 250.064 494.032 250.62 494.587 251.361C495.327 252.472 495.883 253.768 496.438 254.88C496.993 254.88 497.549 254.694 498.104 254.694C498.104 253.213 498.474 251.361 497.919 250.064C496.808 247.472 497.363 245.805 499.214 243.768C504.027 239.137 502.731 229.507 495.698 224.507ZM36.4647 327.108C36.2796 327.293 34.7988 327.479 34.6137 327.108C33.1329 325.256 31.8372 323.404 30.5415 321.367C31.2819 320.996 31.8372 320.441 32.5776 320.07C34.0584 321.552 35.5392 323.034 36.8349 324.701C37.02 325.256 36.8349 326.367 36.4647 327.108ZM313.189 48.5652C314.855 48.7504 316.521 48.5652 317.817 49.1208C326.146 53.1952 334.29 57.4549 342.435 61.7145C342.99 62.0849 343.36 64.6777 342.805 65.4185C341.139 67.2706 338.918 68.9374 336.882 70.419C336.141 70.9746 334.846 71.345 334.105 71.1598C333.365 70.7894 332.995 69.493 332.81 68.567C331.884 61.3441 328.552 57.8253 321.889 55.6029C318.557 54.4917 315.595 52.084 312.449 50.232C312.819 49.6764 313.004 49.1208 313.189 48.5652ZM290.237 29.8599C292.643 29.4895 295.049 30.0451 297.641 30.0451C297.826 30.6007 298.011 31.3415 298.011 31.8971C295.79 33.0083 293.568 34.6751 290.977 35.2307C290.237 35.4159 288.386 33.7491 287.83 32.4527C287.645 32.0823 289.311 30.0451 290.237 29.8599ZM255.438 16.5254C255.253 16.155 256.734 14.6734 257.289 14.6734C263.027 14.8586 268.765 15.0438 274.318 15.9698C277.465 16.5254 278.946 19.3034 279.131 23.563C277.095 22.8222 275.799 22.2666 274.318 21.8962C271.912 21.1554 269.691 20.2294 267.284 19.6738C266.544 19.4886 265.618 20.5998 264.878 21.1554C265.433 21.8962 265.989 23.1926 266.544 23.3778C270.986 24.3038 275.614 24.6742 280.241 25.6002C281.907 25.9706 283.388 26.8967 284.869 27.6375C283.573 28.7487 282.277 29.8599 280.797 30.9711C280.426 31.3415 279.686 31.3415 279.131 31.1563C275.058 29.8599 271.542 29.3043 271.542 36.1567C267.84 29.4895 262.287 31.5267 257.289 31.3415C252.847 31.1563 252.106 27.2671 249.7 24.3038C253.032 22.2666 256.734 21.1554 255.438 16.5254ZM169.737 43.0092C171.032 43.5648 172.513 43.75 173.624 44.4908C174.919 45.602 175.845 46.8984 177.141 48.5652C173.439 50.9728 169.552 50.6024 168.626 47.454C168.256 46.3428 169.366 44.676 169.737 43.0092ZM49.4217 367.112C48.3111 366.186 47.2005 364.889 46.4601 363.593C46.275 363.408 48.126 361.741 48.126 361.741C49.4217 362.667 50.5323 363.778 52.3833 365.445C50.9025 366.371 49.7919 367.297 49.4217 367.112ZM254.327 495.456C258.029 491.011 265.989 490.271 269.505 493.789C266.544 496.567 258.4 497.679 254.327 495.456ZM310.042 471.565C308.376 472.862 306.711 474.158 304.86 474.899C303.194 475.64 301.158 476.195 299.677 475.825C297.085 475.084 293.939 474.343 293.568 471.195C299.121 469.713 303.934 468.232 308.747 467.12C310.227 466.75 311.893 467.676 313.374 468.046C312.078 469.343 311.153 470.639 310.042 471.565ZM328.923 465.083C327.257 466.009 325.035 466.565 323.184 466.935C322.444 467.12 321.704 466.009 320.963 465.454C321.519 464.713 321.704 463.787 322.444 463.416C330.218 458.786 337.807 454.342 345.582 449.897C346.877 449.156 348.358 448.6 349.098 447.489C351.32 444.526 353.356 443.229 357.613 443.415C360.019 443.6 362.611 440.451 365.017 438.599C367.608 436.562 369.83 433.969 372.606 432.117C375.753 430.08 377.049 428.043 375.753 424.154C375.198 422.487 376.308 420.264 376.678 418.227C377.234 418.227 377.974 418.227 378.529 418.412C378.9 420.264 379.27 422.116 379.825 425.635C385.193 421.376 389.82 417.672 394.263 413.782C394.818 413.227 394.818 410.819 394.263 410.449C391.486 408.041 392.967 406.374 394.818 404.522C396.854 402.3 398.89 400.077 401.297 397.299C402.037 401.189 397.224 405.448 404.443 407.3C399.816 412.486 396.114 417.301 391.671 421.376C383.712 428.599 375.568 435.451 367.238 442.118C362.796 445.637 357.798 448.785 352.986 451.749C345.026 455.823 336.882 460.453 328.923 465.083ZM413.513 440.637C412.958 440.081 412.403 439.711 411.847 439.155C413.328 437.488 414.809 435.821 416.29 434.155C416.845 434.525 417.215 434.895 417.771 435.451C416.105 437.118 414.809 438.785 413.513 440.637ZM431.838 400.818C430.172 406.374 429.062 412.486 426.285 417.486C422.953 423.042 417.956 427.487 413.513 432.488C410.922 435.451 406.294 437.303 409.256 442.674C409.626 443.229 408.516 445.267 407.59 445.822C400.186 451.749 392.967 457.675 385.378 463.231C383.527 464.713 380.936 465.083 378.529 465.824C378.344 465.454 378.159 464.898 377.974 464.528C375.383 465.824 372.791 466.75 370.2 468.232C366.868 470.269 363.536 472.677 360.204 474.714C359.464 475.269 358.168 474.714 357.058 474.714C357.243 473.603 357.058 471.936 357.798 471.195C359.094 469.898 360.945 469.158 362.426 468.046C367.238 464.713 371.866 461.379 376.493 457.86C379.085 456.008 381.676 453.971 384.082 451.749C393.893 442.303 404.258 433.229 413.143 422.857C419.066 416.005 422.768 407.115 427.581 399.337C428.321 398.04 429.987 397.299 431.283 396.373C431.468 397.855 432.208 399.522 431.838 400.818ZM437.206 367.852C435.725 372.112 434.615 376.557 433.689 381.002C432.393 388.595 428.506 392.484 421.102 394.521C418.141 395.262 415.549 397.855 412.773 399.522C410.737 401.004 408.701 402.485 406.665 404.152C405.924 403.596 405.369 403.226 404.628 402.67C406.109 399.892 407.775 397.114 409.071 394.151C410.181 391.558 410.922 388.78 411.847 386.187C412.218 385.261 412.218 383.78 412.958 383.595C419.622 380.817 421.102 373.779 425.175 368.964C426.655 367.297 427.766 365.26 428.877 363.408C430.357 360.815 432.023 360.259 434.615 361.741C437.391 363.037 438.317 364.704 437.206 367.852ZM456.271 331.923C454.791 335.998 453.125 340.072 450.903 343.961C450.163 345.258 447.942 345.813 445.721 345.999C445.536 346.369 445.165 346.74 444.98 346.925C443.499 348.591 442.204 350.258 440.723 351.925C439.797 350.073 438.502 348.221 437.761 346.184C437.021 343.591 438.872 343.035 441.093 342.85C447.757 342.295 447.572 341.739 448.867 335.257C449.978 330.257 452.569 325.627 454.42 320.996C455.161 321.182 455.716 321.367 456.456 321.552C458.307 325.071 457.567 328.59 456.271 331.923ZM477.558 260.806C477.558 261.176 476.632 261.917 476.077 261.917C475.522 261.917 474.781 261.362 474.411 260.806C472.745 258.213 474.226 251.916 477.743 248.953C477.558 253.398 477.743 257.102 477.558 260.806Z"/>
</mask>
<path d="M495.698 224.507C494.957 228.025 494.402 230.989 493.661 234.878C492.181 232.285 491.44 229.507 490.33 229.322C485.517 228.766 486.072 225.433 485.887 222.284C485.702 219.877 485.147 217.284 484.592 214.876C483.851 211.728 482.556 208.579 482 205.246C481.075 200.245 479.224 195.8 475.151 192.282C473.486 190.8 472.56 188.207 471.635 185.985C470.709 183.577 470.524 180.799 469.228 178.577C466.822 174.502 463.49 170.798 461.084 166.724C455.531 157.093 450.533 147.278 444.98 137.832C440.908 130.795 436.281 124.127 431.468 117.645C428.321 113.571 424.619 109.682 420.917 106.163C416.845 102.274 412.403 98.94 407.96 95.4212C405.739 93.5692 403.333 91.9023 400.926 90.2355C397.595 87.8279 394.078 85.7907 391.116 83.1979C388.895 81.1607 387.229 79.8643 384.267 81.1607C383.157 81.7163 381.306 81.1607 380.38 80.6051C379.825 80.2347 380.565 78.1974 380.565 77.0862C380.565 75.2342 381.491 72.4562 380.565 71.5302C376.123 67.2706 371.31 63.3813 366.313 59.6773C365.017 58.7513 361.5 58.7513 360.575 59.8625C357.983 62.6405 355.947 62.0849 353.356 60.2329C352.06 59.3069 350.394 58.9365 348.913 58.1957C344.656 56.5289 340.399 55.0473 336.327 53.1952C334.846 52.4544 333.735 51.158 332.439 50.0468C333.735 49.1208 335.216 48.38 336.512 47.454C336.697 47.2688 336.697 46.8984 337.067 45.7872C334.661 44.8612 332.069 43.9352 329.663 42.824C327.627 42.0832 325.961 41.3424 327.812 38.7495C328.367 38.0087 328.182 35.9715 327.812 35.9715C326.701 35.6011 325.221 35.4159 324.11 35.7863C321.519 36.8975 318.927 38.3791 315.966 39.8607C317.631 40.6016 319.482 41.5276 321.333 42.4536C322.444 43.0092 323.555 43.75 324.48 44.4908C324.665 44.676 324.11 46.3428 323.74 46.3428C322.444 46.3428 320.963 46.3428 319.668 45.7872C317.817 45.2316 315.966 44.1204 314.115 43.5648C311.153 42.6388 308.191 42.2684 305.23 41.1572C303.564 40.6016 302.268 39.1199 300.787 38.1939C302.638 37.8235 304.304 37.2679 306.155 36.8975C306.34 36.8975 306.525 36.5271 307.081 35.7863C302.638 33.0083 301.528 26.7114 295.419 25.6002C294.494 25.415 293.198 23.7482 293.198 22.8222C293.198 19.859 291.347 19.1182 289.126 18.5626C286.535 17.8218 283.943 17.2662 281.537 16.3402C280.241 15.7846 279.316 14.4882 278.205 13.5621C279.316 12.6361 280.241 11.3397 281.537 10.7841C285.239 9.11731 288.941 8.0061 292.643 6.33929C293.383 5.96889 294.309 4.48728 294.124 3.74647C293.939 2.82046 292.643 1.70926 291.717 1.70926C288.386 1.70926 284.684 1.33885 281.722 2.45006C276.539 4.48728 272.282 2.45006 267.84 0.598047C266.914 0.227645 265.433 -0.142758 265.248 0.227645C264.693 0.96845 264.138 2.45006 264.508 3.37607C264.878 4.85768 265.803 6.15409 266.729 8.37651C264.323 8.56171 262.657 8.74691 260.991 8.74691C257.289 8.56171 253.587 8.19131 249.885 8.19131C248.774 8.19131 247.849 9.30252 246.738 10.0433C247.479 10.7841 248.034 11.7101 248.959 12.4509C250.255 13.3769 251.551 14.1178 252.846 14.8586C252.846 15.4142 252.846 15.9698 252.846 16.3402C247.849 17.4514 242.851 18.5626 237.853 19.4886C237.853 19.859 237.853 20.4146 237.853 20.785C238.964 21.1554 240.075 21.711 241.185 22.0814C242.481 22.4518 243.777 22.8222 245.257 23.1926C245.257 23.7482 245.443 24.1186 245.443 24.6742C243.221 25.415 241 25.7854 238.779 26.8966C237.483 27.4523 235.447 28.9339 235.632 30.0451C235.817 35.2307 231.93 39.1199 226.377 38.9347C226.562 38.0087 226.933 37.2679 227.118 36.5271C227.488 35.4159 227.673 34.1195 228.043 33.0083C226.747 32.8231 225.637 32.6379 224.341 32.6379C222.675 32.6379 221.009 33.0083 219.529 32.6379C215.456 31.1563 211.939 30.7859 208.793 34.6751C208.237 35.4159 206.016 34.6751 204.535 34.6751C204.906 33.1935 205.091 31.7119 205.646 30.4155C205.831 29.8599 206.942 29.6747 207.312 29.1191C207.867 28.1931 208.608 26.8966 208.423 26.1558C208.052 25.415 206.386 24.6742 205.646 24.8594C201.204 25.7854 196.761 26.7114 192.319 28.0079C190.838 28.3783 189.727 30.0451 188.432 31.1563C189.727 31.8971 191.208 32.2675 192.134 33.1935C193.8 34.4899 195.095 36.1567 196.576 37.6383C195.095 38.9347 193.8 40.7868 191.949 41.1572C188.062 42.0832 183.804 42.6388 179.732 43.0092C178.621 43.1944 177.511 42.4536 176.215 42.2684C176.215 41.898 176.215 41.5276 176.215 41.1572C177.511 40.6016 178.992 40.4164 180.102 39.6755C181.028 38.9347 182.138 36.7123 181.768 36.5271C178.992 33.9343 180.472 32.2675 182.694 30.4155C183.434 29.8599 183.619 28.7487 184.36 27.0819C175.105 27.4523 170.847 31.8971 170.477 40.972C170.107 40.7868 169.552 40.7868 169.181 40.6016C167.701 38.0087 166.405 35.4159 164.739 32.4527C159.371 35.6011 154.558 38.3791 149.931 41.3424C145.303 44.3056 140.491 47.2688 136.234 50.7876C134.568 52.2692 134.197 55.4177 133.272 57.8253C135.863 57.4549 138.455 57.4549 141.046 56.8993C141.972 56.7141 142.712 55.6029 143.452 55.0473C145.303 53.5657 147.34 52.2692 149.005 50.7876C150.671 49.1208 151.967 47.0836 153.633 45.4168C154.929 43.9352 156.595 42.6388 158.075 41.3424C159.371 43.3796 159.741 45.0464 160.852 45.7872C163.999 47.8244 164.369 49.4912 161.222 51.7136C154.558 56.7141 146.784 59.8625 139.01 63.0109C131.976 65.7889 124.202 67.641 120.13 75.6046C118.279 79.3087 116.058 84.1239 109.949 83.3831C109.394 83.3831 108.469 84.8647 108.098 85.9759C106.432 90.6059 103.471 93.7544 99.0285 95.9768C96.0669 97.4584 93.4755 99.6808 91.0692 102.088C87.3672 105.792 84.0354 109.682 80.7036 113.571C74.2251 121.535 67.9317 129.683 61.6383 137.832C57.7512 142.833 57.381 150.426 50.3472 153.389C49.977 153.574 49.7919 154.13 49.6068 154.5C45.5346 165.242 40.722 175.799 37.3902 186.725C31.6521 205.801 28.1352 225.247 26.8395 245.064C26.6544 247.472 27.0246 248.953 29.8011 249.324C33.318 249.879 33.8733 252.657 32.7627 255.25C32.0223 257.102 30.1713 258.769 28.6905 260.25C25.914 262.658 24.9885 265.251 26.4693 268.955C27.2097 270.622 27.3948 272.659 27.2097 274.511C26.4693 281.178 25.5438 287.845 24.6183 294.513C24.4332 295.809 24.2481 297.291 23.5077 298.217C21.6567 300.995 20.7312 303.588 22.3971 306.921C22.7673 307.662 21.6567 309.144 21.2865 310.255C20.1759 309.699 18.8802 309.514 17.9547 308.773C17.3994 308.218 17.0292 307.292 16.8441 306.366C15.7335 299.143 14.9931 291.92 13.8825 284.882C13.6974 283.586 12.5868 282.66 12.0315 281.363C11.106 282.104 9.6252 282.845 9.255 283.771C8.8848 285.253 9.0699 286.919 9.255 288.586C11.4762 303.217 13.5123 317.663 16.1037 332.294C16.8441 336.368 18.6951 340.257 19.9908 344.147C20.361 345.258 20.1759 346.554 20.1759 347.665C18.8802 347.295 17.0292 347.11 16.4739 346.369C14.9931 343.591 13.8825 340.628 13.3272 337.665C11.106 327.108 9.255 316.552 7.404 305.995C6.2934 300.069 5.553 294.142 4.2573 288.216C4.0722 287.105 2.4063 286.364 1.4808 285.623C0.9255 286.919 0 288.401 0 289.697C0.1851 295.068 0.5553 300.624 0.9255 305.995C1.1106 310.07 0.7404 314.329 1.2957 318.404C2.4063 326.182 3.8871 333.775 5.553 341.369C5.9232 343.221 6.4785 345.813 7.9593 346.925C12.5868 350.444 15.7335 354.518 16.2888 360.259C16.2888 360.815 17.0292 361.556 17.5845 362.111C20.1759 364.889 22.5822 367.852 25.7289 370.26C27.9501 371.927 31.0968 372.668 33.6882 373.964C36.2796 375.261 38.871 376.742 41.4624 378.224C42.573 378.965 43.4985 379.891 44.424 380.817C44.7942 380.631 45.3495 380.261 45.7197 380.076C44.9793 378.224 44.6091 376.372 43.6836 374.705C41.2773 370.816 38.1306 367.297 36.4647 363.222C31.8372 351.555 27.765 339.702 23.5077 328.034C23.1375 326.923 23.6928 325.441 23.8779 324.145C24.9885 324.886 26.6544 325.441 27.0246 326.553C29.2458 331.368 30.9117 336.368 33.1329 341.183C34.0584 343.035 35.5392 344.702 36.8349 346.554C37.3902 344.517 37.7604 342.665 38.3157 340.257C40.3518 342.295 44.0538 345.073 42.3879 348.036C39.7965 352.851 41.2773 356.74 42.0177 361.185C42.9432 366.371 52.0131 382.854 56.0853 386.743C62.0085 392.299 67.0062 398.411 64.0446 407.671C64.4148 407.856 64.9701 408.041 65.3403 408.041C68.1168 408.782 71.2635 413.227 69.7827 414.708C68.8572 415.634 66.0807 414.708 64.0446 414.523C63.4893 414.523 62.934 413.968 62.3787 413.968C60.5277 414.153 57.0108 414.153 57.0108 414.523C56.8257 417.116 56.2704 420.45 57.5661 422.302C60.1575 426.191 63.8595 429.525 67.3764 432.858C68.487 433.969 70.338 434.155 71.8188 434.895C71.6337 433.229 72.0039 431.562 71.2635 430.08C70.1529 427.858 68.6721 425.82 66.8211 423.042C68.6721 423.228 69.4125 423.042 69.7827 423.228C75.891 427.858 82.3695 431.747 86.2566 438.785C87.5523 441.192 90.3288 443.97 92.7351 444.341C101.065 445.637 104.767 451.008 107.728 458.046C111.06 465.639 116.613 471.195 125.683 471.75C129.57 471.936 134.938 477.677 134.568 481.381C134.197 485.085 136.234 485.641 138.825 486.196C145.674 488.048 152.893 488.974 159.001 491.937C167.515 496.012 178.251 494.53 185.285 502.124C185.84 502.679 186.951 502.679 187.876 502.494C195.095 501.383 201.574 503.605 207.682 506.939C210.459 508.606 213.235 508.235 216.012 506.383C222.12 502.309 228.598 503.42 233.966 508.976C234.522 509.717 235.817 509.902 236.743 510.087C238.964 510.643 241.555 510.643 243.591 511.754C246.738 513.236 249.145 512.865 251.736 510.643C253.772 508.791 255.808 508.606 258.585 510.087C263.397 512.68 268.58 514.532 273.578 510.087C274.688 509.161 276.724 508.606 278.02 508.976C284.684 511.198 290.052 508.606 295.234 504.531C298.196 502.123 301.343 502.309 304.674 503.79C306.34 504.531 309.117 505.272 310.227 504.346C317.446 499.531 325.776 497.493 333.735 494.53C339.473 492.308 342.805 488.233 343.916 481.937C344.101 481.011 345.767 479.159 346.137 479.344C348.173 479.899 350.394 480.825 351.875 482.307C352.245 482.677 350.764 485.455 349.654 486.937C348.728 488.233 347.062 488.974 345.952 490.085C345.211 490.826 344.841 491.937 344.286 492.863C345.767 493.234 346.322 493.049 347.062 492.678C351.135 490.456 355.207 488.048 359.279 486.196C363.166 484.529 366.128 482.307 368.719 478.788C373.717 472.491 379.64 467.306 389.08 469.528C390.561 469.898 392.967 468.602 394.448 467.491C396.299 466.009 397.595 463.972 399.261 462.305C405.924 455.268 412.773 448.415 419.436 441.192C422.398 437.859 425.545 435.451 430.172 435.081C431.468 434.895 432.949 433.969 433.874 433.043C437.761 428.969 442.019 424.895 442.389 418.412C442.389 417.301 443.499 416.19 444.24 415.079C448.312 409.152 452.199 403.041 456.456 397.299C459.418 393.04 462.565 388.78 466.082 384.891C469.228 381.372 472.93 378.409 476.077 375.075C477.928 373.038 480.149 370.63 478.298 366.556C477.003 367.667 475.892 368.223 475.337 369.149C473.301 372.668 470.894 375.446 466.822 377.113C464.601 378.039 462.935 380.631 461.454 382.669C456.827 389.521 452.754 396.744 447.757 403.226C440.908 412.301 433.504 421.005 426.1 429.525C424.989 431.006 422.768 431.377 420.917 432.303C420.547 431.747 420.177 431.377 419.807 430.821C420.732 429.71 421.658 428.413 422.583 427.487C424.804 425.265 427.581 423.413 429.432 420.82C433.874 415.079 437.391 408.782 442.019 403.226C448.682 395.262 454.05 386.558 457.937 376.927C458.863 374.705 459.788 372.668 460.344 370.26C460.529 369.519 459.788 368.593 459.418 367.667C458.678 368.223 457.567 368.593 457.012 369.149C455.901 370.816 455.346 372.853 454.05 374.52C453.495 375.261 451.644 375.631 450.718 375.446C450.163 375.261 449.423 373.223 449.793 372.482C452.94 364.889 456.086 357.296 459.418 349.703C459.788 348.962 462.195 348.221 462.935 348.592C463.86 348.962 464.046 350.814 464.231 352.11C464.416 353.407 464.046 354.888 463.86 356.185C465.341 355.259 467.748 354.888 468.303 353.592C470.894 348.592 474.041 343.406 475.337 337.85C479.594 320.256 483.111 302.476 486.998 284.882C488.109 279.326 489.219 273.955 490.7 268.399C490.885 267.473 492.366 266.732 493.291 265.806C494.032 266.547 495.142 267.288 495.142 267.844C495.142 272.103 494.772 276.178 494.587 280.437C494.402 282.845 493.847 285.067 493.476 287.475C494.217 287.66 494.957 287.845 495.512 288.031C496.253 286.549 497.549 285.067 497.734 283.401C498.289 277.845 498.659 272.289 498.844 266.732C498.844 264.14 498.289 261.732 494.772 261.547C494.032 261.547 492.921 260.065 492.736 259.139C491.996 256.917 491.255 254.694 491.07 252.472C490.885 251.546 491.625 250.435 491.996 249.509C492.921 250.064 494.032 250.62 494.587 251.361C495.327 252.472 495.883 253.768 496.438 254.88C496.993 254.88 497.549 254.694 498.104 254.694C498.104 253.213 498.474 251.361 497.919 250.064C496.808 247.472 497.363 245.805 499.214 243.768C504.027 239.137 502.731 229.507 495.698 224.507ZM36.4647 327.108C36.2796 327.293 34.7988 327.479 34.6137 327.108C33.1329 325.256 31.8372 323.404 30.5415 321.367C31.2819 320.996 31.8372 320.441 32.5776 320.07C34.0584 321.552 35.5392 323.034 36.8349 324.701C37.02 325.256 36.8349 326.367 36.4647 327.108ZM313.189 48.5652C314.855 48.7504 316.521 48.5652 317.817 49.1208C326.146 53.1952 334.29 57.4549 342.435 61.7145C342.99 62.0849 343.36 64.6777 342.805 65.4185C341.139 67.2706 338.918 68.9374 336.882 70.419C336.141 70.9746 334.846 71.345 334.105 71.1598C333.365 70.7894 332.995 69.493 332.81 68.567C331.884 61.3441 328.552 57.8253 321.889 55.6029C318.557 54.4917 315.595 52.084 312.449 50.232C312.819 49.6764 313.004 49.1208 313.189 48.5652ZM290.237 29.8599C292.643 29.4895 295.049 30.0451 297.641 30.0451C297.826 30.6007 298.011 31.3415 298.011 31.8971C295.79 33.0083 293.568 34.6751 290.977 35.2307C290.237 35.4159 288.386 33.7491 287.83 32.4527C287.645 32.0823 289.311 30.0451 290.237 29.8599ZM255.438 16.5254C255.253 16.155 256.734 14.6734 257.289 14.6734C263.027 14.8586 268.765 15.0438 274.318 15.9698C277.465 16.5254 278.946 19.3034 279.131 23.563C277.095 22.8222 275.799 22.2666 274.318 21.8962C271.912 21.1554 269.691 20.2294 267.284 19.6738C266.544 19.4886 265.618 20.5998 264.878 21.1554C265.433 21.8962 265.989 23.1926 266.544 23.3778C270.986 24.3038 275.614 24.6742 280.241 25.6002C281.907 25.9706 283.388 26.8967 284.869 27.6375C283.573 28.7487 282.277 29.8599 280.797 30.9711C280.426 31.3415 279.686 31.3415 279.131 31.1563C275.058 29.8599 271.542 29.3043 271.542 36.1567C267.84 29.4895 262.287 31.5267 257.289 31.3415C252.847 31.1563 252.106 27.2671 249.7 24.3038C253.032 22.2666 256.734 21.1554 255.438 16.5254ZM169.737 43.0092C171.032 43.5648 172.513 43.75 173.624 44.4908C174.919 45.602 175.845 46.8984 177.141 48.5652C173.439 50.9728 169.552 50.6024 168.626 47.454C168.256 46.3428 169.366 44.676 169.737 43.0092ZM49.4217 367.112C48.3111 366.186 47.2005 364.889 46.4601 363.593C46.275 363.408 48.126 361.741 48.126 361.741C49.4217 362.667 50.5323 363.778 52.3833 365.445C50.9025 366.371 49.7919 367.297 49.4217 367.112ZM254.327 495.456C258.029 491.011 265.989 490.271 269.505 493.789C266.544 496.567 258.4 497.679 254.327 495.456ZM310.042 471.565C308.376 472.862 306.711 474.158 304.86 474.899C303.194 475.64 301.158 476.195 299.677 475.825C297.085 475.084 293.939 474.343 293.568 471.195C299.121 469.713 303.934 468.232 308.747 467.12C310.227 466.75 311.893 467.676 313.374 468.046C312.078 469.343 311.153 470.639 310.042 471.565ZM328.923 465.083C327.257 466.009 325.035 466.565 323.184 466.935C322.444 467.12 321.704 466.009 320.963 465.454C321.519 464.713 321.704 463.787 322.444 463.416C330.218 458.786 337.807 454.342 345.582 449.897C346.877 449.156 348.358 448.6 349.098 447.489C351.32 444.526 353.356 443.229 357.613 443.415C360.019 443.6 362.611 440.451 365.017 438.599C367.608 436.562 369.83 433.969 372.606 432.117C375.753 430.08 377.049 428.043 375.753 424.154C375.198 422.487 376.308 420.264 376.678 418.227C377.234 418.227 377.974 418.227 378.529 418.412C378.9 420.264 379.27 422.116 379.825 425.635C385.193 421.376 389.82 417.672 394.263 413.782C394.818 413.227 394.818 410.819 394.263 410.449C391.486 408.041 392.967 406.374 394.818 404.522C396.854 402.3 398.89 400.077 401.297 397.299C402.037 401.189 397.224 405.448 404.443 407.3C399.816 412.486 396.114 417.301 391.671 421.376C383.712 428.599 375.568 435.451 367.238 442.118C362.796 445.637 357.798 448.785 352.986 451.749C345.026 455.823 336.882 460.453 328.923 465.083ZM413.513 440.637C412.958 440.081 412.403 439.711 411.847 439.155C413.328 437.488 414.809 435.821 416.29 434.155C416.845 434.525 417.215 434.895 417.771 435.451C416.105 437.118 414.809 438.785 413.513 440.637ZM431.838 400.818C430.172 406.374 429.062 412.486 426.285 417.486C422.953 423.042 417.956 427.487 413.513 432.488C410.922 435.451 406.294 437.303 409.256 442.674C409.626 443.229 408.516 445.267 407.59 445.822C400.186 451.749 392.967 457.675 385.378 463.231C383.527 464.713 380.936 465.083 378.529 465.824C378.344 465.454 378.159 464.898 377.974 464.528C375.383 465.824 372.791 466.75 370.2 468.232C366.868 470.269 363.536 472.677 360.204 474.714C359.464 475.269 358.168 474.714 357.058 474.714C357.243 473.603 357.058 471.936 357.798 471.195C359.094 469.898 360.945 469.158 362.426 468.046C367.238 464.713 371.866 461.379 376.493 457.86C379.085 456.008 381.676 453.971 384.082 451.749C393.893 442.303 404.258 433.229 413.143 422.857C419.066 416.005 422.768 407.115 427.581 399.337C428.321 398.04 429.987 397.299 431.283 396.373C431.468 397.855 432.208 399.522 431.838 400.818ZM437.206 367.852C435.725 372.112 434.615 376.557 433.689 381.002C432.393 388.595 428.506 392.484 421.102 394.521C418.141 395.262 415.549 397.855 412.773 399.522C410.737 401.004 408.701 402.485 406.665 404.152C405.924 403.596 405.369 403.226 404.628 402.67C406.109 399.892 407.775 397.114 409.071 394.151C410.181 391.558 410.922 388.78 411.847 386.187C412.218 385.261 412.218 383.78 412.958 383.595C419.622 380.817 421.102 373.779 425.175 368.964C426.655 367.297 427.766 365.26 428.877 363.408C430.357 360.815 432.023 360.259 434.615 361.741C437.391 363.037 438.317 364.704 437.206 367.852ZM456.271 331.923C454.791 335.998 453.125 340.072 450.903 343.961C450.163 345.258 447.942 345.813 445.721 345.999C445.536 346.369 445.165 346.74 444.98 346.925C443.499 348.591 442.204 350.258 440.723 351.925C439.797 350.073 438.502 348.221 437.761 346.184C437.021 343.591 438.872 343.035 441.093 342.85C447.757 342.295 447.572 341.739 448.867 335.257C449.978 330.257 452.569 325.627 454.42 320.996C455.161 321.182 455.716 321.367 456.456 321.552C458.307 325.071 457.567 328.59 456.271 331.923ZM477.558 260.806C477.558 261.176 476.632 261.917 476.077 261.917C475.522 261.917 474.781 261.362 474.411 260.806C472.745 258.213 474.226 251.916 477.743 248.953C477.558 253.398 477.743 257.102 477.558 260.806Z" stroke="black" stroke-width="10" mask="url(#path-1-inside-1_24_10635)"/>
</svg>
