<svg viewBox="0 0 636 650" fill="none" xmlns="http://www.w3.org/2000/svg">
<path d="M627.914 285.048C626.976 289.503 626.272 293.255 625.334 298.179C623.459 294.896 622.521 291.379 621.114 291.145C615.018 290.441 615.721 286.221 615.487 282.235C615.252 279.187 614.549 275.904 613.845 272.856C612.907 268.87 611.266 264.884 610.563 260.663C609.39 254.333 607.046 248.705 601.887 244.25C599.777 242.375 598.605 239.092 597.432 236.278C596.26 233.23 596.026 229.713 594.384 226.9C591.336 221.741 587.116 217.052 584.067 211.893C577.033 199.701 570.703 187.274 563.668 175.316C558.51 166.406 552.648 157.965 546.552 149.759C542.566 144.6 537.877 139.676 533.187 135.221C528.029 130.297 522.402 126.077 516.774 121.622C513.961 119.277 510.912 117.167 507.864 115.057C503.644 112.009 499.189 109.43 495.437 106.147C492.624 103.568 490.513 101.926 486.762 103.568C485.355 104.271 483.01 103.568 481.838 102.864C481.135 102.395 482.073 99.8162 482.073 98.4094C482.073 96.0647 483.245 92.5476 482.073 91.3753C476.445 85.9824 470.349 81.0585 464.018 76.3691C462.377 75.1968 457.922 75.1968 456.75 76.6036C453.467 80.1207 450.888 79.4173 447.605 77.0725C445.964 75.9002 443.854 75.4312 441.978 74.4934C436.585 72.3831 431.192 70.5073 426.034 68.1626C424.158 67.2248 422.751 65.5835 421.11 64.1766C422.751 63.0043 424.627 62.0664 426.268 60.894C426.503 60.6596 426.503 60.1906 426.972 58.7838C423.924 57.6114 420.641 56.4391 417.593 55.0323C415.014 54.0944 412.904 53.1565 415.248 49.8739C415.952 48.936 415.717 46.3568 415.248 46.3568C413.841 45.8879 411.966 45.6534 410.559 46.1224C407.276 47.5292 403.994 49.4049 400.242 51.2807C402.352 52.2186 404.697 53.391 407.042 54.5633C408.449 55.2667 409.855 56.2046 411.028 57.1425C411.262 57.377 410.559 59.4872 410.09 59.4872C408.449 59.4872 406.573 59.4872 404.932 58.7838C402.587 58.0804 400.242 56.6736 397.897 55.9701C394.146 54.7978 390.394 54.3288 386.643 52.922C384.533 52.2186 382.891 50.3428 381.016 49.1705C383.36 48.7015 385.47 47.9981 387.815 47.5292C388.05 47.5292 388.284 47.0602 388.988 46.1224C383.36 42.6053 381.953 34.6333 374.216 33.2264C373.043 32.992 371.402 30.8817 371.402 29.7094C371.402 25.9578 369.057 25.02 366.244 24.3165C362.961 23.3787 359.679 22.6752 356.63 21.5029C354.989 20.7995 353.817 19.1582 352.41 17.9858C353.817 16.8135 354.989 15.1722 356.63 14.4688C361.32 12.3585 366.009 10.9517 370.699 8.84146C371.637 8.37251 372.809 6.49675 372.575 5.55886C372.34 4.38651 370.699 2.97968 369.526 2.97968C365.306 2.97968 360.617 2.51074 356.865 3.91756C350.3 6.49675 344.907 3.91756 339.28 1.57285C338.107 1.10391 336.232 0.634968 335.997 1.10391C335.294 2.04179 334.59 3.91756 335.059 5.08992C335.528 6.96569 336.7 8.60699 337.873 11.4206C334.825 11.6551 332.714 11.8896 330.604 11.8896C325.915 11.6551 321.225 11.1862 316.536 11.1862C315.129 11.1862 313.957 12.593 312.55 13.5309C313.488 14.4688 314.191 15.6411 315.364 16.579C317.005 17.7514 318.646 18.6892 320.287 19.6271C320.287 20.3305 320.287 21.034 320.287 21.5029C313.957 22.9097 307.626 24.3165 301.295 25.4889C301.295 25.9578 301.295 26.6613 301.295 27.1302C302.702 27.5991 304.109 28.3026 305.516 28.7715C307.157 29.2404 308.798 29.7094 310.674 30.1783C310.674 30.8817 310.909 31.3507 310.909 32.0541C308.095 32.992 305.281 33.4609 302.468 34.8677C300.826 35.5712 298.247 37.4469 298.482 38.8538C298.716 45.4189 293.792 50.3428 286.758 50.1084C286.993 48.936 287.462 47.9981 287.696 47.0602C288.165 45.6534 288.399 44.0121 288.868 42.6053C287.227 42.3708 285.82 42.1363 284.179 42.1363C282.069 42.1363 279.958 42.6053 278.083 42.1363C272.924 40.2606 268.469 39.7916 264.483 44.7155C263.78 45.6534 260.966 44.7155 259.091 44.7155C259.559 42.8398 259.794 40.964 260.497 39.3227C260.732 38.6193 262.139 38.3848 262.608 37.6814C263.311 36.509 264.249 34.8677 264.014 33.9299C263.546 32.992 261.435 32.0541 260.497 32.2886C254.87 33.4609 249.243 34.6333 243.615 36.2746C241.74 36.7435 240.333 38.8538 238.692 40.2606C240.333 41.1985 242.209 41.6674 243.381 42.8398C245.491 44.4811 247.133 46.5913 249.008 48.4671C247.133 50.1084 245.491 52.4531 243.147 52.922C238.223 54.0944 232.83 54.7978 227.671 55.2667C226.265 55.5012 224.858 54.5633 223.216 54.3288C223.216 53.8599 223.216 53.391 223.216 52.922C224.858 52.2186 226.734 51.9841 228.14 51.0462C229.313 50.1084 230.72 47.2947 230.251 47.0602C226.734 43.7776 228.609 41.6674 231.423 39.3227C232.361 38.6193 232.595 37.2125 233.533 35.1022C221.81 35.5712 216.417 41.1985 215.948 52.6875C215.479 52.4531 214.776 52.4531 214.307 52.2186C212.431 48.936 210.79 45.6534 208.679 41.9019C201.88 45.8879 195.783 49.405 189.922 53.1565C184.06 56.908 177.964 60.6596 172.571 65.1145C170.46 66.9903 169.992 70.9763 168.819 74.0244C172.102 73.5555 175.384 73.5555 178.667 72.8521C179.839 72.6176 180.777 71.2108 181.715 70.5073C184.06 68.6316 186.639 66.9903 188.749 65.1145C190.859 63.0043 192.501 60.4251 194.611 58.3148C196.252 56.4391 198.363 54.7978 200.238 53.1565C201.88 55.7357 202.349 57.8459 203.755 58.7838C207.741 61.363 208.21 63.4732 204.224 66.2869C195.783 72.6176 185.936 76.6036 176.088 80.5896C167.178 84.1067 157.33 86.4514 152.172 96.5336C149.827 101.223 147.013 107.319 139.276 106.381C138.572 106.381 137.4 108.257 136.931 109.664C134.821 115.526 131.069 119.512 125.442 122.325C121.69 124.201 118.408 127.015 115.36 130.063C110.67 134.752 106.45 139.676 102.229 144.6C94.0229 154.682 86.0509 164.999 78.0789 175.316C73.155 181.647 72.686 191.26 63.7761 195.011C63.3072 195.246 63.0727 195.949 62.8382 196.418C57.6799 210.018 51.5836 223.382 47.3632 237.216C40.0946 261.367 35.6396 285.986 33.9983 311.075C33.7638 314.123 34.2328 315.999 37.7498 316.467C42.2048 317.171 42.9082 320.688 41.5014 323.971C40.5635 326.315 38.2188 328.426 36.343 330.301C32.826 333.349 31.6536 336.632 33.5294 341.321C34.4672 343.432 34.7017 346.011 34.4672 348.356C33.5294 356.797 32.357 365.237 31.1847 373.678C30.9502 375.32 30.7157 377.195 29.7778 378.368C27.4331 381.885 26.2608 385.168 28.371 389.388C28.8399 390.326 27.4331 392.202 26.9642 393.608C25.5573 392.905 23.916 392.671 22.7437 391.733C22.0403 391.029 21.5713 389.857 21.3369 388.685C19.93 379.54 18.9922 370.396 17.5853 361.486C17.3509 359.845 15.944 358.672 15.2406 357.031C14.0683 357.969 12.1925 358.907 11.7236 360.079C11.2546 361.955 11.4891 364.065 11.7236 366.175C14.5372 384.699 17.1164 402.987 20.399 421.511C21.3369 426.669 23.6816 431.593 25.3229 436.517C25.7918 437.924 25.5573 439.565 25.5573 440.972C23.916 440.503 21.5713 440.268 20.8679 439.33C18.9922 435.813 17.5853 432.062 16.8819 428.31C14.0683 414.945 11.7236 401.581 9.37884 388.216C7.97202 380.713 7.03413 373.21 5.39284 365.706C5.15836 364.3 3.04812 363.362 1.87577 362.424C1.17236 364.065 0 365.941 0 367.582C0.234471 374.382 0.703413 381.416 1.17236 388.216C1.40683 393.374 0.937884 398.767 1.6413 403.925C3.04812 413.773 4.92389 423.386 7.03413 433C7.50307 435.344 8.20649 438.627 10.0823 440.034C15.944 444.489 19.93 449.647 20.6335 456.916C20.6335 457.619 21.5713 458.557 22.2748 459.26C25.5573 462.777 28.6055 466.529 32.5915 469.577C35.4051 471.687 39.3911 472.625 42.6737 474.267C45.9563 475.908 49.2389 477.784 52.5215 479.659C53.9283 480.597 55.1007 481.77 56.2731 482.942C56.742 482.708 57.4454 482.239 57.9144 482.004C56.9765 479.659 56.5075 477.315 55.3352 475.204C52.2871 470.281 48.301 465.826 46.1908 460.667C40.329 445.896 35.1707 430.889 29.7778 416.118C29.3089 414.711 30.0123 412.835 30.2468 411.194C31.6536 412.132 33.7638 412.835 34.2328 414.242C37.0464 420.338 39.1567 426.669 41.9703 432.765C43.1427 435.11 45.0184 437.22 46.6597 439.565C47.3632 436.986 47.8321 434.641 48.5355 431.593C51.1147 434.172 55.8041 437.689 53.6939 441.441C50.4113 447.537 52.287 452.461 53.2249 458.088C54.3973 464.653 65.8864 485.521 71.0447 490.445C78.5478 497.479 84.8785 505.217 81.127 516.94C81.5959 517.175 82.2994 517.409 82.7683 517.409C86.2854 518.347 90.2714 523.974 88.3956 525.85C87.2232 527.023 83.7062 525.85 81.127 525.616C80.4236 525.616 79.7202 524.912 79.0168 524.912C76.672 525.147 72.2171 525.147 72.2171 525.616C71.9826 528.898 71.2792 533.119 72.9205 535.464C76.2031 540.387 80.8925 544.608 85.3475 548.828C86.7543 550.235 89.099 550.47 90.9748 551.408C90.7403 549.297 91.2093 547.187 90.2714 545.311C88.8645 542.498 86.9888 539.918 84.6441 536.401C86.9888 536.636 87.9267 536.401 88.3956 536.636C96.1331 542.498 104.34 547.422 109.264 556.331C110.905 559.38 114.422 562.897 117.47 563.366C128.021 565.007 132.711 571.807 136.462 580.716C140.683 590.33 147.717 597.364 159.206 598.067C164.13 598.302 170.929 605.57 170.46 610.26C169.992 614.949 172.571 615.653 175.853 616.356C184.529 618.701 193.673 619.873 201.411 623.625C212.196 628.783 225.796 626.907 234.706 636.521C235.409 637.224 236.816 637.224 237.988 636.99C247.133 635.583 255.339 638.396 263.077 642.617C266.594 644.727 270.111 644.258 273.628 641.913C281.365 636.755 289.572 638.162 296.371 645.196C297.075 646.134 298.716 646.368 299.889 646.603C302.702 647.306 305.985 647.306 308.564 648.713C312.55 650.589 315.598 650.12 318.881 647.306C321.46 644.962 324.039 644.727 327.556 646.603C333.652 649.885 340.217 652.23 346.548 646.603C347.955 645.43 350.534 644.727 352.176 645.196C360.617 648.01 367.416 644.727 373.981 639.569C377.733 636.521 381.719 636.755 385.939 638.631C388.05 639.569 391.567 640.507 392.974 639.334C402.118 633.238 412.669 630.659 422.751 626.907C430.02 624.094 434.24 618.935 435.647 610.963C435.882 609.791 437.992 607.446 438.461 607.681C441.04 608.384 443.854 609.556 445.729 611.432C446.198 611.901 444.323 615.418 442.916 617.294C441.743 618.935 439.633 619.873 438.226 621.28C437.289 622.218 436.82 623.625 436.116 624.797C437.992 625.266 438.695 625.031 439.633 624.563C444.792 621.749 449.95 618.701 455.108 616.356C460.032 614.246 463.784 611.432 467.066 606.977C473.397 599.005 480.9 592.44 492.858 595.254C494.734 595.723 497.782 594.081 499.658 592.674C502.003 590.799 503.644 588.219 505.754 586.109C514.195 577.199 522.87 568.524 531.311 559.38C535.063 555.159 539.049 552.111 544.911 551.642C546.552 551.408 548.428 550.235 549.6 549.063C554.524 543.904 559.917 538.746 560.386 530.54C560.386 529.133 561.793 527.726 562.731 526.319C567.889 518.816 572.813 511.078 578.206 503.81C581.957 498.417 585.943 493.024 590.398 488.1C594.384 483.645 599.074 479.894 603.06 475.673C605.404 473.094 608.218 470.046 605.873 464.888C604.232 466.295 602.825 466.998 602.122 468.17C599.543 472.625 596.494 476.142 591.336 478.253C588.522 479.425 586.412 482.708 584.536 485.287C578.675 493.962 573.516 503.107 567.186 511.313C558.51 522.802 549.131 533.822 539.752 544.608C538.346 546.484 535.532 546.953 533.187 548.125C532.718 547.422 532.249 546.953 531.78 546.249C532.953 544.842 534.125 543.201 535.297 542.029C538.111 539.215 541.628 536.87 543.973 533.588C549.6 526.319 554.055 518.347 559.917 511.313C568.358 501.231 575.158 490.211 580.081 478.018C581.254 475.204 582.426 472.625 583.13 469.577C583.364 468.639 582.426 467.467 581.957 466.295C581.019 466.998 579.612 467.467 578.909 468.17C577.502 470.281 576.799 472.86 575.158 474.97C574.454 475.908 572.109 476.377 570.937 476.142C570.234 475.908 569.296 473.329 569.765 472.391C573.751 462.777 577.737 453.164 581.957 443.551C582.426 442.613 585.474 441.675 586.412 442.144C587.585 442.613 587.819 444.958 588.053 446.599C588.288 448.24 587.819 450.116 587.585 451.757C589.46 450.585 592.508 450.116 593.212 448.475C596.494 442.144 600.48 435.579 602.122 428.545C607.515 406.27 611.97 383.761 616.893 361.486C618.3 354.452 619.707 347.652 621.583 340.618C621.817 339.446 623.693 338.508 624.865 337.335C625.803 338.273 627.21 339.211 627.21 339.915C627.21 345.307 626.741 350.466 626.507 355.859C626.272 358.907 625.569 361.72 625.1 364.769C626.038 365.003 626.976 365.237 627.679 365.472C628.617 363.596 630.258 361.72 630.493 359.61C631.196 352.576 631.665 345.542 631.9 338.508C631.9 335.225 631.196 332.177 626.741 331.943C625.803 331.943 624.396 330.067 624.162 328.894C623.224 326.081 622.286 323.267 622.052 320.454C621.817 319.281 622.755 317.874 623.224 316.702C624.396 317.405 625.803 318.109 626.507 319.047C627.445 320.454 628.148 322.095 628.851 323.502C629.555 323.502 630.258 323.267 630.962 323.267C630.962 321.391 631.431 319.047 630.727 317.405C629.32 314.123 630.024 312.013 632.368 309.433C638.465 303.572 636.823 291.379 627.914 285.048ZM46.1908 414.945C45.9563 415.18 44.0806 415.414 43.8461 414.945C41.9703 412.601 40.329 410.256 38.6877 407.677C39.6256 407.208 40.329 406.504 41.2669 406.035C43.1427 407.911 45.0184 409.787 46.6597 411.897C46.8942 412.601 46.6597 414.007 46.1908 414.945ZM396.725 62.3009C398.835 62.5353 400.946 62.3009 402.587 63.0043C413.138 68.1626 423.455 73.5555 433.772 78.9483C434.475 79.4173 434.944 82.6999 434.24 83.6377C432.13 85.9824 429.317 88.0927 426.737 89.9685C425.799 90.6719 424.158 91.1408 423.22 90.9063C422.282 90.4374 421.813 88.7961 421.579 87.6237C420.407 78.4794 416.186 74.0244 407.745 71.2108C403.525 69.8039 399.773 66.7558 395.787 64.4111C396.256 63.7077 396.491 63.0043 396.725 62.3009ZM367.651 38.6193C370.699 38.1503 373.747 38.8538 377.029 38.8538C377.264 39.5572 377.498 40.4951 377.498 41.1985C374.685 42.6053 371.871 44.7155 368.589 45.4189C367.651 45.6534 365.306 43.5432 364.603 41.9019C364.368 41.4329 366.478 38.8538 367.651 38.6193ZM323.57 21.7374C323.336 21.2684 325.211 19.3927 325.915 19.3927C333.183 19.6271 340.452 19.8616 347.486 21.034C351.472 21.7374 353.348 25.2544 353.582 30.6473C351.003 29.7094 349.362 29.006 347.486 28.537C344.438 27.5991 341.624 26.4268 338.576 25.7234C337.638 25.4889 336.466 26.8957 335.528 27.5991C336.232 28.537 336.935 30.1783 337.638 30.4128C343.266 31.5852 349.127 32.0541 354.989 33.2264C357.099 33.6954 358.975 34.8677 360.851 35.8056C359.21 37.2125 357.568 38.6193 355.693 40.0261C355.224 40.4951 354.286 40.4951 353.582 40.2606C348.424 38.6193 343.969 37.9159 343.969 46.5913C339.28 38.1503 332.246 40.7295 325.915 40.495C320.288 40.2606 319.35 35.3367 316.301 31.5852C320.522 29.006 325.211 27.5991 323.57 21.7374ZM215.01 55.2667C216.651 55.9701 218.527 56.2046 219.934 57.1425C221.575 58.5493 222.748 60.1906 224.389 62.3009C219.699 65.349 214.776 64.88 213.603 60.894C213.134 59.4872 214.541 57.377 215.01 55.2667ZM62.6038 465.591C61.1969 464.419 59.7901 462.777 58.8522 461.136C58.6178 460.902 60.9625 458.791 60.9625 458.791C62.6038 459.964 64.0106 461.371 66.3553 463.481C64.4795 464.653 63.0727 465.826 62.6038 465.591ZM322.163 628.08C326.853 622.452 336.935 621.514 341.39 625.969C337.638 629.486 327.322 630.893 322.163 628.08ZM392.739 597.833C390.629 599.474 388.519 601.115 386.174 602.053C384.064 602.991 381.484 603.695 379.609 603.226C376.326 602.288 372.34 601.35 371.871 597.364C378.905 595.488 385.001 593.612 391.098 592.206C392.974 591.737 395.084 592.909 396.96 593.378C395.318 595.019 394.146 596.66 392.739 597.833ZM416.655 589.626C414.545 590.799 411.731 591.502 409.386 591.971C408.449 592.206 407.511 590.799 406.573 590.095C407.276 589.157 407.511 587.985 408.449 587.516C418.296 581.654 427.91 576.027 437.758 570.4C439.399 569.462 441.275 568.758 442.212 567.352C445.026 563.6 447.605 561.959 452.998 562.193C456.046 562.428 459.329 558.442 462.377 556.097C465.66 553.518 468.473 550.235 471.99 547.89C475.976 545.311 477.618 542.732 475.976 537.808C475.273 535.698 476.68 532.884 477.149 530.305C477.852 530.305 478.79 530.305 479.493 530.54C479.962 532.884 480.431 535.229 481.135 539.684C487.934 534.291 493.796 529.602 499.423 524.678C500.127 523.974 500.127 520.926 499.423 520.457C495.906 517.409 497.782 515.299 500.127 512.954C502.706 510.141 505.285 507.327 508.333 503.81C509.271 508.734 503.175 514.127 512.319 516.471C506.458 523.037 501.768 529.133 496.141 534.291C486.059 543.435 475.742 552.111 465.191 560.552C459.563 565.007 453.233 568.993 447.136 572.744C437.054 577.903 426.737 583.765 416.655 589.626ZM523.808 558.676C523.105 557.973 522.402 557.504 521.698 556.8C523.574 554.69 525.45 552.58 527.325 550.47C528.029 550.939 528.498 551.408 529.201 552.111C527.091 554.221 525.45 556.331 523.808 558.676ZM547.021 508.265C544.911 515.299 543.504 523.037 539.987 529.367C535.766 536.401 529.436 542.029 523.808 548.359C520.526 552.111 514.664 554.456 518.416 561.255C518.884 561.959 517.478 564.538 516.305 565.241C506.926 572.744 497.782 580.247 488.169 587.282C485.824 589.157 482.541 589.626 479.493 590.564C479.259 590.095 479.024 589.392 478.79 588.923C475.507 590.564 472.225 591.737 468.942 593.612C464.722 596.192 460.501 599.24 456.281 601.819C455.343 602.522 453.702 601.819 452.295 601.819C452.529 600.412 452.295 598.302 453.233 597.364C454.874 595.723 457.219 594.785 459.094 593.378C465.191 589.157 471.052 584.937 476.914 580.482C480.197 578.137 483.479 575.558 486.527 572.744C498.954 560.786 512.085 549.297 523.339 536.167C530.843 527.491 535.532 516.237 541.628 506.389C542.566 504.748 544.676 503.81 546.318 502.638C546.552 504.513 547.49 506.624 547.021 508.265ZM553.821 466.529C551.945 471.922 550.538 477.549 549.366 483.176C547.724 492.79 542.801 497.714 533.422 500.293C529.67 501.231 526.388 504.513 522.871 506.624C520.291 508.499 517.712 510.375 515.133 512.485C514.195 511.782 513.492 511.313 512.554 510.61C514.43 507.092 516.54 503.575 518.181 499.824C519.588 496.541 520.526 493.024 521.698 489.742C522.167 488.569 522.167 486.694 523.105 486.459C531.546 482.942 533.422 474.032 538.58 467.936C540.456 465.826 541.863 463.246 543.269 460.902C545.145 457.619 547.255 456.916 550.538 458.791C554.055 460.433 555.228 462.543 553.821 466.529ZM577.971 421.042C576.095 426.2 573.985 431.358 571.172 436.282C570.234 437.924 567.42 438.627 564.606 438.861C564.372 439.33 563.903 439.799 563.668 440.034C561.793 442.144 560.151 444.254 558.276 446.364C557.103 444.02 555.462 441.675 554.524 439.096C553.586 435.813 555.931 435.11 558.745 434.875C567.186 434.172 566.951 433.469 568.592 425.262C569.999 418.931 573.282 413.07 575.627 407.208C576.564 407.442 577.268 407.677 578.206 407.911C580.55 412.366 579.612 416.821 577.971 421.042ZM604.935 331.005C604.935 331.474 603.763 332.412 603.06 332.412C602.356 332.412 601.418 331.708 600.949 331.005C598.839 327.722 600.715 319.75 605.17 315.999C604.935 321.626 605.17 326.315 604.935 331.005Z" fill="black"/>
<path d="M616.424 411.663C614.783 412.366 612.673 413.304 612.204 414.711C608.687 425.496 605.404 436.282 602.356 447.302C601.887 448.475 603.294 450.819 604.466 451.757C605.404 452.461 607.749 451.757 608.687 450.819C610.094 449.647 611.266 448.006 611.5 446.13C613.611 435.579 615.486 424.793 617.597 413.304C617.597 413.304 616.659 411.663 616.424 411.663Z" fill="black"/>
<path d="M617.831 248.706C619.004 251.519 621.114 253.864 622.755 256.678C623.224 256.443 623.927 255.974 624.396 255.74C624.631 255.271 625.1 254.567 624.865 254.333C622.755 244.954 620.879 235.575 618.535 226.196C618.066 224.555 615.252 223.852 613.376 222.445C612.438 224.79 610.563 227.603 611.032 229.479C612.907 236.044 615.252 242.375 617.831 248.706Z" fill="black"/>
<path d="M274.566 34.6332C275.738 35.1022 277.145 34.8677 278.552 34.8677V35.1022C280.896 34.8677 283.007 34.8677 285.351 34.6332C289.572 33.9298 292.151 31.3506 292.385 27.1301C292.385 25.9578 291.916 24.3165 290.979 23.8475C290.275 23.3786 288.165 23.8475 287.696 24.7854C284.648 29.0059 281.834 29.2404 277.145 26.8957C275.503 25.9578 272.221 28.3025 269.876 29.4748C269.173 29.7093 268.938 32.054 269.173 32.2885C270.814 33.2264 272.69 34.1643 274.566 34.6332Z" fill="black"/>
<path d="M61.6657 127.015C55.8039 129.125 45.9561 143.428 46.6595 148.82C52.0524 148.117 62.838 132.173 61.6657 127.015Z" fill="black"/>
<path d="M67.2932 500.059C65.6519 502.403 64.0106 504.748 63.0728 506.155C63.7762 511.548 66.1209 513.658 69.638 512.955C71.9827 512.486 73.8584 510.141 75.9687 508.734C73.155 505.92 70.1069 503.107 67.2932 500.059Z" fill="black"/>
<path d="M625.1 407.677C625.1 408.38 626.507 409.787 627.21 409.787C628.382 409.787 630.024 408.849 630.258 408.146C632.368 402.284 631.899 396.422 629.32 390.795C624.396 395.719 625.1 401.815 625.1 407.677Z" fill="black"/>
<path d="M27.1986 332.412C27.6675 330.536 24.6194 327.722 22.9781 325.377C20.8678 327.957 18.7576 330.536 15.9439 334.053C18.2887 336.398 19.6955 337.804 21.3368 339.211C23.447 336.867 26.7296 334.756 27.1986 332.412Z" fill="black"/>
<path d="M42.6737 175.316C44.0805 175.785 46.4252 172.502 49.4733 169.923C46.4252 167.109 44.315 165.234 42.4392 163.358C40.5634 165.468 37.5153 167.578 37.5153 169.689C37.5153 171.799 40.5634 174.613 42.6737 175.316Z" fill="black"/>
<path d="M460.736 37.6816C456.75 35.3369 453.467 32.9922 450.185 31.1164C449.481 30.8819 448.309 30.8819 447.605 31.3509C447.136 31.8198 447.136 32.9922 447.371 33.6956C448.778 36.9782 456.046 39.5574 460.736 37.6816Z" fill="black"/>
<path d="M192.97 45.888C197.659 46.357 199.066 43.5433 199.301 37.916C196.018 39.3228 193.673 40.0263 191.563 41.1986C190.625 41.6676 189.687 43.5433 189.922 44.2467C190.156 44.9501 191.798 45.888 192.97 45.888Z" fill="black"/>
<path d="M619.707 272.621C620.41 272.387 620.879 272.152 621.583 272.152C620.645 268.166 619.473 264.18 618.535 260.194C614.549 265.118 615.487 269.339 619.707 272.621Z" fill="black"/>
<path d="M165.068 54.7979C166.943 53.6256 168.585 52.4532 170.226 51.0464C169.757 50.343 169.288 49.4051 168.585 48.7017C166.709 49.874 164.833 51.0464 163.192 52.2187C163.895 53.1566 165.068 54.7979 165.068 54.7979Z" fill="black"/>
</svg>
