<svg width="100" height="100" viewBox="0 0 100 100" fill="none" xmlns="http://www.w3.org/2000/svg">
<path d="M43.7749 1.27146C44.4612 1.41892 45.0392 1.52952 45.7978 1.67699C45.2921 1.97192 44.7502 2.11938 44.7141 2.34058C44.6057 3.29912 43.9555 3.18851 43.3414 3.22538C42.8718 3.26224 42.3661 3.37285 41.8965 3.48345C41.2824 3.63091 40.6683 3.88898 40.0181 3.99958C39.0428 4.18391 38.1758 4.55258 37.4895 5.36365C37.2005 5.69544 36.6948 5.87977 36.2613 6.06411C35.7917 6.24843 35.2499 6.2853 34.8164 6.54336C34.0217 7.02263 33.2992 7.68623 32.5045 8.1655C30.6261 9.27149 28.7116 10.2669 26.8693 11.3729C25.4967 12.1839 24.1962 13.1056 22.9319 14.0641C22.1372 14.6909 21.3786 15.4282 20.6923 16.1655C19.9337 16.9766 19.2835 17.8614 18.5972 18.7462C18.2359 19.1886 17.9108 19.6679 17.5857 20.1471C17.1161 20.8107 16.7188 21.5112 16.213 22.101C15.8157 22.5434 15.5628 22.8752 15.8157 23.4651C15.9241 23.6863 15.8157 24.055 15.7073 24.2393C15.6351 24.3499 15.2377 24.2024 15.021 24.2024C14.6598 24.2024 14.1179 24.0181 13.9373 24.2024C13.1065 25.0872 12.3479 26.0458 11.6254 27.0412C11.4448 27.2992 11.4448 27.9997 11.6615 28.184C12.2034 28.7001 12.095 29.1057 11.7338 29.6218C11.5532 29.8799 11.4809 30.2117 11.3364 30.5066C11.0113 31.3545 10.7223 32.2025 10.3611 33.0135C10.2166 33.3085 9.96376 33.5297 9.74702 33.7877C9.5664 33.5297 9.42191 33.2347 9.24129 32.9767C9.20517 32.9398 9.13293 32.9398 8.91619 32.8661C8.73557 33.3453 8.55496 33.8615 8.33822 34.3407C8.19373 34.7463 8.04923 35.0781 7.54351 34.7094C7.39902 34.5988 7.00167 34.6357 7.00167 34.7094C6.92942 34.9306 6.8933 35.2255 6.96554 35.4467C7.18228 35.9629 7.47127 36.479 7.76025 37.0688C7.90474 36.737 8.08536 36.3684 8.26597 35.9997C8.37434 35.7785 8.51883 35.5573 8.66333 35.373C8.69945 35.3361 9.02456 35.4467 9.02456 35.5205C9.02456 35.7785 9.02456 36.0735 8.91619 36.3315C8.80782 36.7002 8.59108 37.0688 8.48271 37.4375C8.3021 38.0274 8.22985 38.6172 8.01311 39.2071C7.90474 39.5389 7.61576 39.797 7.43514 40.0919C7.3629 39.7232 7.25453 39.3914 7.18228 39.0228C7.18228 38.9859 7.11004 38.949 6.96554 38.8384C6.4237 39.7232 5.19552 39.9444 4.97878 41.161C4.94265 41.3454 4.61755 41.6034 4.43693 41.6034C3.85896 41.6034 3.71447 41.9721 3.6061 42.4145C3.46161 42.9306 3.35324 43.4468 3.17263 43.926C3.06426 44.1841 2.8114 44.3684 2.63078 44.5896C2.45017 44.3684 2.1973 44.1841 2.08894 43.926C1.76383 43.1887 1.54709 42.4514 1.22198 41.714C1.14974 41.5666 0.860752 41.3822 0.71626 41.4191C0.535645 41.456 0.318907 41.714 0.318907 41.8984C0.318907 42.562 0.246661 43.2993 0.463399 43.8892C0.860753 44.9214 0.463399 45.7693 0.102169 46.6541C0.029923 46.8385 -0.0423231 47.1334 0.029923 47.1703C0.174415 47.2809 0.463399 47.3915 0.644015 47.3177C0.932999 47.244 1.18586 47.0597 1.61934 46.8753C1.65546 47.3546 1.69158 47.6864 1.69158 48.0182C1.65546 48.7555 1.58321 49.4929 1.58321 50.2302C1.58321 50.4514 1.79995 50.6357 1.94444 50.8569C2.08894 50.7095 2.26955 50.5989 2.41404 50.4145C2.59466 50.1565 2.73915 49.8984 2.88364 49.6403C2.99201 49.6403 3.10038 49.6403 3.17263 49.6403C3.38936 50.6357 3.6061 51.6311 3.78672 52.6265C3.85896 52.6265 3.96733 52.6265 4.03958 52.6265C4.11183 52.4053 4.2202 52.1841 4.29244 51.9629C4.36469 51.7049 4.43693 51.4468 4.50918 51.1519C4.61755 51.1519 4.68979 51.115 4.79816 51.115C4.94266 51.5574 5.0149 51.9998 5.23164 52.4422C5.34001 52.7003 5.62899 53.1058 5.84573 53.0689C6.85718 53.0321 7.61576 53.8062 7.57964 54.9122C7.39902 54.8754 7.25453 54.8016 7.11004 54.7648C6.8933 54.691 6.64044 54.6542 6.4237 54.5804C6.38758 54.8385 6.35145 55.0597 6.35145 55.3178C6.35145 55.6496 6.4237 55.9814 6.35145 56.2763C6.06247 57.0874 5.99022 57.7878 6.74881 58.4146C6.8933 58.5252 6.74881 58.9676 6.74881 59.2625C6.45982 59.1888 6.17084 59.1519 5.91798 59.0413C5.80961 59.0044 5.77349 58.7832 5.66512 58.7095C5.4845 58.5989 5.23164 58.4514 5.08715 58.4883C4.94266 58.562 4.79816 58.8938 4.83429 59.0413C5.0149 59.9261 5.19552 60.8109 5.44838 61.6957C5.52062 61.9906 5.84573 62.2118 6.06247 62.4699C6.20696 62.2118 6.27921 61.9169 6.45982 61.7325C6.71268 61.4007 7.03779 61.1427 7.32678 60.8478C7.57964 61.1427 7.94087 61.4007 8.01311 61.7694C8.19373 62.5436 8.3021 63.3915 8.37434 64.2026C8.41047 64.4238 8.26597 64.645 8.22985 64.9031C8.15761 64.9031 8.08536 64.9031 8.01311 64.9031C7.90474 64.645 7.86862 64.3501 7.72413 64.1289C7.57964 63.9445 7.14616 63.7233 7.11004 63.7971C6.60432 64.3501 6.27921 64.0551 5.91798 63.6127C5.80961 63.4653 5.59287 63.4284 5.26776 63.2809C5.34001 65.1243 6.20696 65.9722 7.97699 66.0459C7.94087 66.1197 7.94087 66.2303 7.90474 66.304C7.39902 66.5989 6.8933 66.857 6.31533 67.1888C6.92942 68.2579 7.47127 69.2165 8.04924 70.1381C8.62721 71.0598 9.20517 72.0183 9.89151 72.8662C10.1805 73.198 10.7946 73.2718 11.2642 73.4561C11.1919 72.94 11.1919 72.4238 11.0836 71.9077C11.0474 71.7234 10.8307 71.5759 10.7223 71.4284C10.4334 71.0598 10.1805 70.6542 9.89151 70.3225C9.5664 69.9907 9.16905 69.7326 8.84394 69.4008C8.55496 69.1427 8.3021 68.8109 8.04924 68.516C8.44659 68.2579 8.7717 68.1842 8.91619 67.963C9.31354 67.3363 9.63865 67.2625 10.0721 67.8893C11.0474 69.2165 11.6615 70.7648 12.2756 72.3132C12.8175 73.7142 13.1787 75.2626 14.732 76.0736C15.4545 76.4423 16.3937 76.8847 16.2492 78.1013C16.2492 78.2119 16.5381 78.3962 16.7549 78.47C17.658 78.8017 18.2721 79.3916 18.7055 80.2764C18.9945 80.8663 19.428 81.3824 19.8976 81.8617C20.6201 82.599 21.3786 83.2626 22.1372 83.9262C23.6905 85.2165 25.2799 86.47 26.8693 87.7234C27.8447 88.4976 29.3257 88.5714 29.9037 89.9723C29.9398 90.046 30.0482 90.0829 30.1204 90.1198C32.2155 90.9308 34.2746 91.8894 36.4058 92.553C40.1265 93.6958 43.9194 94.3963 47.7846 94.6544C48.2542 94.6912 48.5432 94.6175 48.6154 94.0645C48.7238 93.364 49.2656 93.2534 49.7713 93.4746C50.1326 93.6221 50.4577 93.9908 50.7467 94.2857C51.2163 94.8387 51.722 95.023 52.4444 94.7281C52.7696 94.5806 53.1669 94.5438 53.5281 94.5806C54.8286 94.7281 56.129 94.9124 57.4294 95.0968C57.6823 95.1336 57.9713 95.1705 58.1519 95.3179C58.6937 95.6866 59.1995 95.8709 59.8497 95.5391C59.9942 95.4654 60.2831 95.6866 60.4999 95.7603C60.3915 95.9815 60.3554 96.2396 60.2109 96.4239C60.1025 96.5345 59.9219 96.6083 59.7413 96.6451C58.3325 96.8663 56.9237 97.0138 55.551 97.235C55.2982 97.2719 55.1175 97.4931 54.8647 97.6037C55.0092 97.788 55.1537 98.0829 55.3343 98.1567C55.6233 98.2304 55.9484 98.1935 56.2735 98.1567C59.1272 97.7143 61.9448 97.3087 64.7985 96.7926C65.5932 96.6451 66.3518 96.2765 67.1104 96.0184C67.3271 95.9447 67.58 95.9815 67.7967 95.9815C67.7245 96.2396 67.6884 96.6083 67.5439 96.7189C67.002 97.0138 66.4241 97.235 65.8461 97.3456C63.7871 97.788 61.7281 98.1567 59.6691 98.5253C58.5131 98.7465 57.3572 98.894 56.2012 99.1521C55.9845 99.1889 55.84 99.5207 55.6955 99.7051C55.9484 99.8157 56.2374 100 56.4902 100C57.5378 99.9631 58.6215 99.8894 59.6691 99.8157C60.4638 99.7788 61.2946 99.8525 62.0893 99.7419C63.6065 99.5207 65.0875 99.2258 66.5686 98.894C66.9298 98.8203 67.4355 98.7097 67.6522 98.4147C68.3386 97.4931 69.1333 96.8663 70.2531 96.7557C70.3615 96.7557 70.506 96.6083 70.6143 96.4977C71.1562 95.9815 71.7341 95.5023 72.2037 94.8756C72.5288 94.4332 72.6733 93.8064 72.9262 93.2903C73.1791 92.7742 73.468 92.258 73.757 91.7419C73.9015 91.5207 74.0821 91.3364 74.2628 91.152C74.2266 91.0783 74.1544 90.9677 74.1183 90.894C73.757 91.0414 73.3958 91.1152 73.0707 91.2995C72.3121 91.7788 71.6258 92.4055 70.8311 92.7373C68.5553 93.659 66.2434 94.47 63.9677 95.3179C63.7509 95.3917 63.462 95.2811 63.2091 95.2442C63.3536 95.023 63.462 94.6912 63.6787 94.6175C64.6179 94.1751 65.5932 93.8433 66.5324 93.4009C66.8937 93.2166 67.2188 92.9216 67.58 92.6636C67.1826 92.553 66.8214 92.4792 66.3518 92.3686C66.7492 91.9631 67.291 91.2258 67.869 91.5576C68.8082 92.0737 69.5668 91.7788 70.4337 91.6313C71.4452 91.447 74.6601 89.6405 75.4187 88.8294C76.5024 87.6497 77.6944 86.6543 79.5006 87.2442C79.5367 87.1704 79.5728 87.0598 79.5728 86.9861C79.7173 86.4331 80.5843 85.8064 80.8733 86.1013C81.0539 86.2857 80.8733 86.8386 80.8371 87.2442C80.8371 87.3548 80.7288 87.4654 80.7288 87.576C80.7649 87.9446 80.7649 88.6451 80.8371 88.6451C81.3429 88.682 81.9931 88.7926 82.3543 88.5345C83.1129 88.0184 83.7631 87.281 84.4133 86.5806C84.6301 86.3594 84.6662 85.9907 84.8107 85.6958C84.4856 85.7327 84.1605 85.6589 83.8715 85.8064C83.438 86.0276 83.0406 86.3225 82.4988 86.6912C82.5349 86.3225 82.4988 86.175 82.5349 86.1013C83.438 84.8847 84.1966 83.5944 85.5693 82.8202C86.0389 82.5621 86.5807 82.0091 86.653 81.5299C86.9058 79.8709 87.9534 79.1335 89.3261 78.5437C90.8071 77.8801 91.8908 76.7741 91.9992 74.9676C92.0353 74.1934 93.1551 73.1243 93.8776 73.198C94.6 73.2718 94.7084 72.8662 94.8168 72.3501C95.178 70.986 95.3586 69.5482 95.9366 68.3317C96.7313 66.6358 96.4423 64.4975 97.9233 63.0966C98.0317 62.986 98.0317 62.7648 97.9956 62.5805C97.7789 61.1427 98.2123 59.8524 98.8625 58.6358C99.1877 58.0828 99.1154 57.5298 98.7542 56.9768C97.9595 55.7602 98.1762 54.4698 99.2599 53.4007C99.4044 53.2901 99.4405 53.032 99.4766 52.8477C99.585 52.4053 99.585 51.8892 99.8017 51.4837C100.091 50.8569 100.018 50.3777 99.585 49.8615C99.2238 49.456 99.1876 49.0505 99.4766 48.4975C99.9824 47.5389 100.344 46.5067 99.4766 45.5113C99.296 45.2901 99.1877 44.8845 99.2599 44.6265C99.6934 43.2993 99.1876 42.2302 98.3929 41.1979C97.9233 40.608 97.9595 39.9813 98.2484 39.3177C98.3929 38.9859 98.5374 38.4329 98.3568 38.2117C97.4176 36.7739 97.0203 35.1149 96.4423 33.5297C96.0088 32.3868 95.2141 31.7232 93.9859 31.502C93.8053 31.4651 93.4441 31.1333 93.4802 31.0596C93.5886 30.6541 93.7692 30.2117 94.0582 29.9167C94.1304 29.843 94.6723 30.1379 94.9612 30.3591C95.2141 30.5435 95.3586 30.8753 95.5753 31.0965C95.7198 31.2439 95.9366 31.3177 96.1172 31.4283C96.1894 31.1333 96.1533 31.0227 96.0811 30.8753C95.6476 30.0642 95.178 29.2531 94.8168 28.4421C94.4917 27.6679 94.0582 27.078 93.3718 26.5619C92.1437 25.5665 91.1322 24.3868 91.5657 22.5066C91.6379 22.2116 91.3851 21.7324 91.1683 21.4374C90.8793 21.0688 90.482 20.8107 90.1569 20.4789C88.7842 19.1517 87.4477 17.7877 86.0389 16.4605C85.3886 15.8706 84.919 15.2439 84.8468 14.3222C84.8107 14.0641 84.6301 13.7692 84.4494 13.5849C83.6547 12.8107 82.86 11.9627 81.5957 11.889C81.379 11.889 81.1623 11.6678 80.9455 11.5203C79.7896 10.7093 78.5975 9.93509 77.4777 9.08715C76.6469 8.4973 75.816 7.87056 75.0575 7.1701C74.3711 6.54337 73.7931 5.80604 73.1429 5.17931C72.7456 4.81064 72.276 4.36824 71.4813 4.7369C71.698 4.99497 71.8064 5.21618 71.987 5.32677C72.6733 5.7323 73.2152 6.21157 73.5403 7.02263C73.7209 7.46503 74.2266 7.79683 74.624 8.09176C75.9605 9.01342 77.3693 9.82449 78.6336 10.8199C80.4037 12.1839 82.1015 13.6586 83.7631 15.1333C84.0521 15.3545 84.1243 15.7969 84.305 16.1655C84.1966 16.2393 84.1243 16.313 84.016 16.3867C83.7992 16.2024 83.5464 16.0181 83.3657 15.8337C82.9323 15.3913 82.571 14.8383 82.0653 14.4697C80.9455 13.5849 79.7173 12.8844 78.6336 11.9627C77.0803 10.6356 75.3826 9.56642 73.5042 8.79223C73.0707 8.60789 72.6733 8.42356 72.2037 8.31295C72.0592 8.27609 71.8786 8.42356 71.698 8.49729C71.8064 8.64476 71.8786 8.86596 71.987 8.97656C72.3121 9.19776 72.7095 9.30835 73.0346 9.56643C73.1791 9.67702 73.2513 10.0457 73.2152 10.23C73.1791 10.3406 72.7817 10.4881 72.6372 10.4143C71.1562 9.78762 69.6751 9.16089 68.1941 8.49729C68.0496 8.42356 67.9051 7.94429 67.9773 7.79683C68.0496 7.6125 68.4108 7.57563 68.6637 7.53876C68.9165 7.5019 69.2055 7.57563 69.4584 7.6125C69.2778 7.31756 69.2055 6.8383 68.9527 6.7277C67.9773 6.21157 66.9659 5.58484 65.8822 5.32677C62.4505 4.47884 58.9827 3.77837 55.551 3.00418C54.4673 2.78298 53.4198 2.56178 52.3361 2.26684C52.1555 2.22998 52.011 1.93505 51.8303 1.75071C51.9748 1.60325 52.1193 1.38205 52.2277 1.38205C53.0585 1.38205 53.8532 1.45579 54.6841 1.49266C55.1537 1.52952 55.5871 1.64011 56.0567 1.71385C56.0929 1.56638 56.129 1.41893 56.1651 1.30832C55.8761 1.16086 55.5871 0.902791 55.262 0.865926C54.1783 0.755323 53.0946 0.681585 52.011 0.64472C51.5052 0.64472 51.0356 0.755323 50.9995 1.45579C50.9995 1.60325 50.7105 1.82446 50.5299 1.86133C50.0964 2.00879 49.663 2.15626 49.2295 2.19312C49.0489 2.22999 48.8321 2.08252 48.6515 2.00879C48.7599 1.82445 48.8683 1.60325 49.0128 1.49266C49.2295 1.34519 49.4823 1.23459 49.6991 1.12399C49.6991 1.0134 49.663 0.902784 49.663 0.792188C49.374 0.792188 49.0127 0.718458 48.7599 0.829054C48.2542 1.05025 47.9291 0.939657 47.5317 0.570997C46.6286 -0.387537 44.7502 -0.129473 43.7749 1.27146ZM63.7871 92.7373C63.8232 92.7742 63.8593 93.0691 63.7871 93.106C63.4258 93.4009 63.0646 93.659 62.6673 93.917C62.595 93.7696 62.4866 93.659 62.4144 93.5115C62.7034 93.2166 62.9924 92.9216 63.3175 92.6636C63.4258 92.6267 63.6426 92.6636 63.7871 92.7373ZM9.45803 37.6218C9.49416 37.29 9.45803 36.9582 9.5664 36.7002C10.3611 35.0412 11.1919 33.4191 12.0228 31.7969C12.095 31.6863 12.6007 31.6126 12.7452 31.7232C13.1065 32.055 13.4316 32.4974 13.7206 32.9029C13.8289 33.0504 13.9012 33.3085 13.865 33.4559C13.7928 33.6034 13.5399 33.6771 13.3593 33.714C11.9505 33.8983 11.2642 34.5619 10.8307 35.8891C10.614 36.5527 10.1444 37.1426 9.78314 37.7693C9.67477 37.6956 9.5664 37.6587 9.45803 37.6218ZM5.80961 42.1933C5.73736 41.714 5.84573 41.2348 5.84573 40.7186C5.9541 40.6818 6.09859 40.6449 6.20696 40.6449C6.4237 41.0873 6.74881 41.5297 6.85718 42.0458C6.8933 42.1933 6.56819 42.562 6.31533 42.6726C6.24308 42.7094 5.84573 42.3776 5.80961 42.1933ZM3.20875 49.1242C3.1365 49.1611 2.84752 48.8661 2.84752 48.7555C2.88364 47.6127 2.91977 46.4698 3.10038 45.3638C3.20875 44.7371 3.7506 44.4422 4.58143 44.4053C4.43693 44.8108 4.32856 45.0689 4.25632 45.3638C4.11183 45.8431 3.93121 46.2855 3.82284 46.7647C3.78672 46.9122 4.00346 47.0965 4.11183 47.244C4.25632 47.1334 4.50918 47.0228 4.5453 46.9122C4.72592 46.0274 4.79816 45.1058 4.97878 44.1841C5.05102 43.8523 5.23164 43.5574 5.37613 43.2624C5.59287 43.5205 5.80961 43.7786 6.02635 44.0735C6.09859 44.1472 6.09859 44.2947 6.06247 44.4053C5.80961 45.2164 5.70124 45.9168 7.03779 45.9168C5.73736 46.6541 6.13471 47.7601 6.09859 48.7555C6.06247 49.6403 5.30389 49.7878 4.72592 50.2671C4.32856 49.6035 4.11183 48.8661 3.20875 49.1242ZM8.37434 66.1934C8.48271 65.9353 8.51884 65.6404 8.66333 65.4192C8.88007 65.1611 9.13293 64.9768 9.45803 64.7187C9.92763 65.4561 9.85539 66.2303 9.2413 66.4146C9.02456 66.4883 8.69945 66.2671 8.37434 66.1934ZM71.5897 90.1566C71.409 90.3778 71.1562 90.599 70.9033 90.7465C70.8672 90.7834 70.5421 90.4147 70.5421 90.4147C70.7227 90.1566 70.9394 89.9354 71.2645 89.5668C71.4452 89.8617 71.6258 90.0829 71.5897 90.1566ZM96.6229 49.3454C95.756 48.6081 95.6115 47.0228 96.2978 46.3223C96.8397 46.9122 97.0564 48.5343 96.6229 49.3454ZM91.963 38.2486C92.2159 38.5804 92.4688 38.9122 92.6133 39.2808C92.7577 39.6126 92.8661 40.0182 92.7939 40.3131C92.6494 40.8292 92.5049 41.456 91.8908 41.5297C91.6018 40.4237 91.3128 39.4652 91.0961 38.5066C91.0238 38.2117 91.2045 37.8799 91.2767 37.585C91.5296 37.843 91.7824 38.0274 91.963 38.2486ZM90.6987 34.4882C90.8793 34.82 90.9877 35.2624 91.06 35.6311C91.0961 35.7785 90.8793 35.926 90.771 36.0734C90.6265 35.9628 90.4459 35.926 90.3736 35.7785C89.4705 34.2301 88.6036 32.7186 87.7366 31.1702C87.5922 30.9121 87.4838 30.6172 87.267 30.4697C86.6891 30.0273 86.4362 29.6218 86.4723 28.7739C86.5085 28.2946 85.8944 27.7785 85.5331 27.2992C85.1358 26.7831 84.6301 26.3407 84.2688 25.7877C83.8715 25.161 83.4741 24.9029 82.7155 25.161C82.3904 25.2716 81.957 25.0504 81.5596 24.9766C81.5596 24.866 81.5596 24.7186 81.5957 24.608C81.957 24.5342 82.3182 24.4605 83.0045 24.3499C82.1737 23.2808 81.4512 22.3591 80.6927 21.4743C80.5843 21.3637 80.1147 21.3637 80.0424 21.4743C79.5728 22.0273 79.2477 21.7324 78.8865 21.3637C78.453 20.9582 78.0195 20.5526 77.4777 20.0734C78.2363 19.9259 79.0671 20.8844 79.4283 19.4466C80.4398 20.3683 81.379 21.1056 82.1737 21.9904C83.5825 23.5757 84.919 25.1978 86.2195 26.8568C86.9058 27.7416 87.5199 28.737 88.0979 29.6955C88.8926 31.2808 89.7957 32.9029 90.6987 34.4882ZM85.9305 17.6402C85.8221 17.7508 85.7499 17.8614 85.6415 17.972C85.3164 17.6771 84.9913 17.3821 84.6662 17.0872C84.7384 16.9766 84.8107 16.9029 84.919 16.7923C85.2442 17.1241 85.5693 17.3821 85.9305 17.6402ZM78.164 13.9904C79.2477 14.3222 80.4398 14.5434 81.4151 15.0964C82.4988 15.76 83.3657 16.7554 84.3411 17.6402C84.919 18.1563 85.2803 19.078 86.3278 18.4881C86.4362 18.4144 86.8336 18.6356 86.9419 18.8199C88.0979 20.2946 89.2538 21.7324 90.3375 23.2439C90.6265 23.6126 90.6987 24.1287 90.8432 24.608C90.771 24.6448 90.6626 24.6817 90.5904 24.7186C90.8432 25.2347 91.0238 25.7508 91.3128 26.2669C91.7102 26.9306 92.1798 27.5942 92.5771 28.2577C92.6855 28.4052 92.5771 28.6633 92.5771 28.8845C92.3604 28.8476 92.0353 28.8845 91.8908 28.737C91.6379 28.4789 91.4934 28.1103 91.2767 27.8153C90.6265 26.8568 89.9763 25.9352 89.2899 25.0135C88.9287 24.4974 88.5313 23.9812 88.0979 23.502C86.2556 21.548 84.4856 19.4835 82.4627 17.7139C81.1261 16.5342 79.3922 15.7969 77.875 14.8383C77.6222 14.6909 77.4777 14.3591 77.2971 14.101C77.5861 14.0641 77.9112 13.9167 78.164 13.9904ZM71.7341 12.9213C72.565 13.2162 73.4319 13.4374 74.2989 13.6217C75.7799 13.8798 76.5385 14.654 76.9359 16.1287C77.0803 16.7185 77.5861 17.2347 77.9112 17.7877C78.2002 18.1932 78.4891 18.5987 78.8143 19.0042C78.7059 19.1517 78.6336 19.2623 78.5253 19.4098C77.9834 19.1148 77.4416 18.783 76.8636 18.525C76.3579 18.3038 75.816 18.1563 75.3103 17.972C75.1297 17.8983 74.8407 17.8983 74.8046 17.7508C74.2628 16.4236 72.8901 16.1287 71.9509 15.3176C71.6258 15.0227 71.2284 14.8015 70.8672 14.5803C70.3615 14.2853 70.2531 13.9535 70.5421 13.4374C70.7949 12.8844 71.12 12.7001 71.7341 12.9213ZM64.7263 9.12402C65.521 9.41895 66.3157 9.75075 67.0743 10.1932C67.3271 10.3406 67.4355 10.783 67.4716 11.2254C67.5439 11.2623 67.6161 11.336 67.6522 11.3729C67.9773 11.6678 68.3024 11.9259 68.6276 12.2208C68.2663 12.4051 67.9051 12.6632 67.5077 12.8107C67.002 12.9581 66.8937 12.5895 66.8575 12.1471C66.7492 10.8199 66.6408 10.8567 65.3765 10.5987C64.4012 10.3775 63.4981 9.86135 62.595 9.49269C62.6311 9.34522 62.6673 9.23462 62.7034 9.08716C63.3897 8.7185 64.0761 8.86596 64.7263 9.12402ZM50.855 4.88437C50.9273 4.88437 51.0718 5.06871 51.0718 5.17931C51.0718 5.28991 50.9634 5.43738 50.855 5.51111C50.3493 5.84291 49.1211 5.54796 48.5432 4.8475C49.4101 4.88437 50.1326 4.8475 50.855 4.88437Z" fill="black"/>
</svg>
