<svg width="127" height="130" viewBox="0 0 127 130" fill="none" xmlns="http://www.w3.org/2000/svg">
<path d="M1.37323 50.1384C1.32354 49.4427 1.07507 48.8463 0.578125 48.25C0.826596 48.8463 1.12476 49.4924 1.37323 50.1384Z" fill="#FFCC08"/>
<path d="M28.0093 10.3331C27.6614 9.43858 27.413 8.69317 27.1148 7.94775C26.9657 7.99745 26.8663 8.04714 26.7173 8.09684C26.6676 9.68705 26.7669 9.93552 28.0093 10.3331Z" fill="#FFCC08"/>
<path d="M6.39232 98.2423C5.79599 98.5404 5.19966 98.8883 4.60333 99.2361C4.65303 99.3355 4.70272 99.4349 4.75241 99.5343C4.9015 99.7331 5.00089 99.9319 5.14997 100.131C5.64691 99.8822 6.09416 99.6337 6.54141 99.3355C6.83957 99.1367 7.13774 98.938 7.4359 98.7392C7.13774 98.5404 6.64079 98.1429 6.39232 98.2423Z" fill="#FFCC08"/>
<path d="M122.329 37.3669C122.379 37.4166 122.478 37.516 122.528 37.5657C122.428 37.2675 122.329 36.9694 122.18 36.6215C121.782 36.5221 121.335 36.4724 120.937 36.373C121.335 36.8203 121.882 36.9694 122.329 37.3669Z" fill="#FFCC08"/>
<path d="M124.615 82.6384C124.764 81.4954 124.863 80.3524 125.012 79.2095C124.913 79.3586 124.814 79.5573 124.764 79.7561C124.515 80.5512 124.366 81.396 124.168 82.1911C123.72 83.6819 123.273 85.1231 122.776 86.8127C122.826 86.9121 122.925 87.2102 123.124 87.3593C123.472 86.6636 123.82 86.0176 124.217 85.3716C124.317 84.4274 124.466 83.5329 124.615 82.6384Z" fill="#FFCC08"/>
<path d="M122.329 37.3669C122.379 37.4166 122.478 37.516 122.528 37.5657C122.428 37.2675 122.329 36.9694 122.18 36.6215C121.782 36.5221 121.335 36.4724 120.937 36.373C121.335 36.8203 121.882 36.9694 122.329 37.3669Z" fill="black"/>
<path d="M81.033 125.773C82.4741 125.226 83.965 124.829 85.3067 124.083C86.4497 123.437 87.5926 122.592 87.4932 121.002C87.4932 120.803 87.9405 120.406 88.0896 120.455C88.5368 120.505 88.9841 120.754 89.4313 120.952C89.2325 121.4 89.1331 121.847 88.8847 122.244C88.6362 122.592 88.189 122.841 87.8411 123.139C87.6423 123.338 87.4932 123.636 87.3442 123.884C87.7914 124.033 88.0399 123.984 88.2386 123.884C89.3319 123.338 90.4749 122.791 91.5682 122.244C91.9657 122.046 92.3633 121.797 92.7111 121.499C94.2516 120.257 95.7922 119.014 97.3327 117.772C98.2272 117.076 99.072 117.673 99.8174 118.02C100.066 118.12 100.116 118.915 100.165 119.462C101.159 119.014 102.203 118.617 103.197 118.219C104.29 117.822 105.433 117.474 106.626 117.275C106.476 117.225 106.278 117.225 106.029 117.225C104.886 117.225 103.743 117.225 102.551 117.225C102.153 117.225 101.805 117.076 101.408 116.977C101.358 116.828 101.259 116.679 101.209 116.53C102.054 115.784 102.898 115.138 103.694 114.343C104.986 113.051 106.178 111.66 107.47 110.417C108.116 109.821 108.911 109.324 109.756 108.976C111.744 108.082 113.285 106.889 113.781 104.653C113.931 104.056 114.179 103.51 114.477 103.013C115.62 101.224 116.713 99.3852 118.005 97.6956C118.353 97.2483 118.701 96.8508 119.049 96.4532C119.447 95.4096 119.844 94.366 120.291 93.3225C120.341 93.2231 120.391 93.1237 120.44 93.0243C119.944 93.5212 119.397 93.9188 118.999 94.5151C118.105 95.8072 117.31 97.1489 116.415 98.441C115.173 100.18 113.831 101.87 112.489 103.51C111.843 104.305 111.048 104.951 110.353 105.696C110.253 105.597 110.154 105.498 110.054 105.448C110.303 105.1 110.551 104.702 110.8 104.355C112.688 101.87 114.626 99.4349 116.366 96.8011C117.409 95.2605 118.105 93.4715 118.85 91.7819C118.999 91.4838 118.751 90.9868 118.652 90.5396C118.304 90.7881 117.906 90.9371 117.658 91.2353C117.21 91.782 116.863 92.428 116.515 93.074C116.366 93.0243 116.216 92.9746 116.018 92.9249C116.018 92.4777 115.918 92.0304 116.018 91.6329C116.664 89.8439 117.409 88.0549 118.155 86.3156C118.304 85.9677 118.85 85.769 119.198 85.4708C119.298 85.918 119.447 86.3156 119.496 86.7628C119.546 87.1107 119.496 87.4585 119.496 87.8064C119.894 87.6076 120.44 87.5082 120.59 87.2101C121.335 85.8683 122.229 84.5763 122.577 83.1352C123.621 79.1099 124.416 74.9853 125.311 70.9104C125.609 69.4196 125.907 67.9784 126.205 66.4876C126.354 65.3943 126.503 64.3011 126.652 63.2078C126.901 60.0771 126.801 56.9463 126.503 53.8156C126.503 53.7162 126.453 53.5671 126.453 53.4677C126.354 53.3683 126.255 53.3186 126.155 53.2193C125.907 52.9708 125.708 52.5732 125.609 52.2254C125.41 51.2812 125.311 50.337 125.112 49.3928C124.963 48.6971 124.615 48.0511 124.515 47.3553C124.317 45.8645 123.919 44.5725 122.677 43.5289C122.18 43.1313 121.931 42.3362 121.583 41.7399C122.13 41.4914 122.627 41.2927 123.174 41.0442C123.223 41.0442 123.223 41.0442 123.273 40.9945C123.323 40.9945 123.323 40.9945 123.323 40.9945C123.074 40.2988 122.876 39.5534 122.627 38.8576C122.279 38.9073 121.931 38.957 121.633 38.9073C121.335 38.8576 121.087 38.6589 120.838 38.5098C119.347 37.5656 118.502 36.1245 117.707 34.6336C117.012 33.2919 116.465 31.8011 115.62 30.509C113.881 27.7758 112.042 25.0923 110.203 22.4089C109.707 21.7131 109.011 21.1665 108.365 20.5702C107.868 20.1229 107.272 19.7254 106.775 19.2781C105.483 18.2346 104.24 16.9922 102.799 16.1474C101.706 15.5014 100.662 14.905 99.7677 13.9112C99.4695 13.5633 98.7738 13.6627 98.2272 13.5633C97.929 13.5136 97.5812 13.5633 97.283 13.5633C97.283 13.2154 97.2333 12.7682 97.3824 12.5197C97.8793 11.6252 97.5812 11.1283 96.7861 10.6313C96.3388 10.3829 95.9909 9.93562 95.5934 9.58776C94.8977 8.99143 94.202 8.3951 93.4565 7.84847C92.8105 7.40122 92.1148 7.35153 91.5185 8.04724C91.3197 8.24602 90.8228 8.34541 90.5743 8.29572C89.1828 7.84847 87.8411 7.30183 86.4994 6.75519C85.7539 6.45703 85.0582 5.96009 84.0643 5.41345C84.8595 5.06559 85.257 4.91651 86.0024 4.61834C85.257 4.22079 84.8098 3.87293 84.3128 3.72385C82.6729 3.17721 82.6729 3.17721 83.468 1.5373C82.9711 1.43792 82.4741 1.18945 82.0766 1.28883C81.2815 1.5373 80.5361 2.03425 79.5919 2.48149C80.1882 2.82935 80.7845 3.12752 81.3312 3.47538C81.5796 3.62446 81.7287 3.97232 81.8778 4.1711C81.5796 4.1711 81.2815 4.27048 80.9833 4.22079C80.2876 4.07171 79.6416 3.72385 78.9458 3.62446C77.8029 3.47538 76.9084 2.92874 76.1133 2.08394C70.1003 2.33241 64.137 1.18945 58.2234 0.195562C58.3228 0.692504 58.4221 1.13975 57.6767 1.38822C57.1301 1.587 56.5835 1.93486 55.7884 2.38211C56.0368 1.587 56.1362 1.23914 56.2356 0.791892C54.8442 0.692504 53.5521 0.543421 52.2601 0.444033C52.0613 0.444033 51.8625 0.64281 51.614 0.692504C51.0177 0.841586 50.4214 0.940975 49.8251 1.09006C50.0735 0.593115 50.3717 0.145868 50.6202 -0.351074C50.1232 -0.351074 49.676 -0.30138 49.179 -0.30138C48.7318 -0.201992 48.2845 -0.102603 47.8373 -0.00321493C47.0422 0.195562 46.2471 0.29495 45.5017 0.394339C45.8992 0.593115 46.3465 0.841586 46.744 1.04036C47.0422 1.23914 47.4397 1.38822 47.5888 1.68639C47.6882 1.83547 47.3403 2.38211 47.1416 2.4318C45.7998 2.77966 44.4084 3.02813 43.0169 3.3263C42.9176 3.3263 42.7685 3.22691 42.3709 3.02813C43.5636 2.53119 44.1599 1.88516 43.6133 0.791892C43.5636 0.742198 43.7624 0.593115 43.7624 0.493727V0.444033C43.1163 0.444033 42.4206 0.344644 41.7746 0.245256C41.2776 0.940975 40.7807 1.63669 40.2341 2.33241C39.9856 1.93486 39.7868 1.13975 39.3396 0.990669C38.7929 0.791892 38.0475 1.04036 37.3021 1.13975C37.3021 0.791892 37.4015 0.444033 37.3518 0.195562C37.3021 -0.00321496 36.9543 -0.30138 36.8549 -0.251686C36.1591 0.0961734 35.5131 0.493727 34.8671 0.89128C34.8671 0.990669 34.9168 1.09006 34.9168 1.23914C35.4137 1.33853 35.9604 1.38822 36.4573 1.48761C36.5567 1.63669 36.7058 1.78578 36.8052 1.88516C36.4573 2.08394 36.0598 2.23302 35.7119 2.48149C34.3205 3.37599 32.9787 4.27048 31.637 5.21467C31.2891 5.46315 30.9413 5.8607 30.7425 6.25825C30.5934 6.55642 30.494 7.05336 30.6431 7.30183C30.7922 7.5503 31.3388 7.69938 31.637 7.5503C32.283 7.30183 32.929 6.90428 33.5254 6.50672C34.1217 6.15886 34.6683 5.76131 35.215 5.31406C35.6125 4.9662 35.9107 4.51896 36.2585 4.1214C36.6561 3.67415 37.0536 3.2766 37.4015 2.82935C37.5009 2.87905 37.5506 2.97844 37.65 3.02813C37.8487 3.37599 37.8488 3.72385 37.7991 3.92263C38.2463 4.22079 38.5445 4.41957 38.8923 4.66804C38.6439 4.9662 38.4451 5.36376 38.1469 5.61223C36.507 7.15275 34.3205 7.64969 32.3327 8.54419C30.0468 9.53807 27.6614 10.2835 26.6676 13.0167C26.5185 13.4639 25.6737 13.9112 25.1767 13.9609C24.3816 13.9609 24.1828 14.259 23.9344 14.9547C23.5368 15.9983 23.0896 17.2407 21.4497 17.1413C21.4497 16.9922 21.4 16.8431 21.4 16.694C20.7043 17.5388 19.9588 18.3836 19.114 19.1787C19.0147 19.626 18.7662 19.9738 18.4183 20.3714C16.7784 22.2101 15.3373 24.1482 13.6477 25.9372C13.0017 26.6329 12.1072 27.3783 11.2127 27.4777C10.9145 27.5274 10.5666 27.5274 10.2685 27.5274C10.2188 27.6268 10.1194 27.6764 10.0697 27.7758C10.0697 27.7758 10.02 27.8255 9.97031 27.8752C9.72184 28.2231 9.42367 28.6206 9.32428 28.7697C8.97643 29.2667 8.62857 29.7636 8.28071 30.2605C7.4359 31.5029 6.6408 32.7453 5.84569 34.0373C4.70272 36.1245 3.55976 38.2613 2.51618 40.4479C2.3174 40.7957 2.16832 41.1933 2.01924 41.5411C2.3671 41.5411 2.71496 41.4914 3.06282 41.5411C3.55976 41.6405 4.15609 41.7399 4.65303 41.9884C4.9015 42.1375 5.00089 42.7338 4.9015 43.0319C4.20578 46.6099 3.41068 50.1879 2.66526 53.7162C3.11251 55.3561 3.36098 57.0457 3.41068 58.785C3.65915 58.8347 3.90762 59.0335 4.0567 59.2323C4.35487 59.7789 4.10639 60.4249 3.41068 61.0212C3.41068 61.4685 3.36098 61.9157 3.31129 62.363C2.66526 68.4754 1.32352 74.389 0.329636 80.4517C0.230248 81.4952 0.180554 82.4891 0.130859 83.5327C0.230248 83.7315 0.329636 83.98 0.429024 84.2284C0.528413 84.4272 0.478719 84.6757 0.478719 84.9241C0.37933 84.8745 0.230248 84.8745 0.130859 84.8248C0.130859 85.8186 0.130859 86.8622 0.230248 87.8561C0.528413 89.3966 0.925967 90.9371 1.42291 92.428C3.55976 92.3783 5.54753 93.0243 7.53529 93.9685C6.34263 91.2353 5.19967 88.8003 4.20578 86.3156C3.2119 83.8309 1.67138 81.4953 1.62169 78.6627C1.96954 78.7621 2.26771 78.9111 2.3671 79.1099C3.01312 80.4517 3.65915 81.7934 4.15609 83.1848C4.75242 84.8248 4.70272 84.8248 6.29294 83.9303C6.29294 84.4272 6.44202 84.9241 6.24324 85.1726C5.64691 86.0174 5.89539 86.8622 6.04447 87.8064C6.29294 89.4463 7.28682 90.639 7.98254 92.0304C8.23101 92.5274 8.3304 93.2231 8.23101 93.8194C8.08193 94.6642 8.38009 95.1611 9.07581 95.1115C10.5666 94.9624 10.9145 96.0556 11.5108 96.9501C11.9084 97.5465 11.5605 97.8446 11.0139 97.8943C10.7157 97.944 10.3679 97.7949 10.0697 97.6459C9.37398 97.3477 8.92673 97.4471 8.67826 98.2422C8.52918 98.7888 8.18132 99.2361 7.83346 99.6833C7.18743 100.578 7.28682 101.025 8.13162 101.721C9.07581 102.466 10.3182 102.963 10.2685 104.454C10.2685 104.603 10.3679 104.752 10.4673 104.852C10.9642 105.398 11.4611 105.994 11.9581 106.491C12.7035 107.237 13.4489 107.933 14.1943 108.678C14.4428 108.429 14.4925 108.38 14.5422 108.28C14.6416 107.933 14.741 107.634 14.8403 107.287C15.1385 106.342 15.4864 106.243 16.1821 106.889C16.679 107.386 17.176 107.933 17.5735 108.579C18.3189 109.821 19.2631 110.715 20.7539 110.964C21.3006 111.063 21.8969 111.461 22.2448 111.908C23.4871 113.647 24.7792 115.337 25.7731 117.225C26.4191 118.468 26.8663 119.809 27.2639 121.151C27.2639 121.151 27.2639 121.151 27.3136 121.151C28.3075 121.748 27.9596 121.549 27.3136 121.151C27.3136 121.151 27.3136 121.151 27.2639 121.151C27.2639 121.201 27.3136 121.251 27.3136 121.3C27.6117 121.549 27.9099 121.797 28.2578 122.046C29.0529 122.642 29.848 123.189 30.6431 123.785C30.0965 121.996 29.5995 120.157 29.0529 118.368C29.9971 118.865 31.0903 119.362 31.0903 120.455C31.0406 121.698 31.637 121.897 32.6309 122.145C34.4695 122.592 36.2585 123.089 38.0475 123.636C39.5384 124.083 40.8304 125.027 42.4703 125.077C43.2654 125.127 44.0605 126.021 44.8556 126.518C44.8556 126.667 45.0544 126.468 45.2532 126.468C47.1416 126.22 48.9306 126.319 50.5208 127.512C51.5147 128.257 52.3595 128.407 53.3533 127.413C54.2975 126.468 57.0804 126.667 57.5276 127.661C57.8755 128.407 58.3228 128.556 59.0185 128.655C59.5651 128.754 60.1614 128.953 60.6584 129.202C61.3044 129.55 61.9007 129.55 62.4474 129.003C63.1928 128.208 63.9879 128.108 64.8824 128.705C66.1247 129.5 67.3174 129.599 68.5598 128.605C69.007 128.307 69.7524 128.307 70.3984 128.357C71.5414 128.456 72.5353 128.307 73.5292 127.562C74.2746 127.015 75.5169 126.27 76.1133 126.518C77.6041 127.164 78.6477 126.916 79.8403 126.071C80.0888 125.922 80.6354 125.922 81.033 125.773ZM123.372 58.6856V61.866C122.329 61.0212 122.428 59.5801 123.372 58.6856ZM4.80211 79.5075C4.40456 79.0105 4.00701 78.5633 3.60945 78.0664C3.75854 77.967 3.85792 77.8179 4.00701 77.7185C4.40456 78.1657 4.85181 78.6627 5.24936 79.1099C5.10028 79.2093 4.9512 79.3584 4.80211 79.5075ZM8.47948 90.1917C8.18132 89.9433 7.93285 89.6451 7.73407 89.2972C7.68438 89.1978 8.03224 88.8997 8.18132 88.7009C8.42979 88.9991 8.72795 89.2475 9.07581 89.6451C8.82734 89.9433 8.52918 90.1917 8.47948 90.1917ZM90.3258 112.554C90.0276 112.852 89.481 112.902 89.0835 113.15C87.046 114.293 85.0582 115.436 83.0208 116.579C82.6232 116.778 82.0766 116.778 81.5796 116.878C81.5299 116.728 81.4802 116.579 81.4305 116.381C81.679 116.182 81.9275 115.983 82.2257 115.834C84.2134 114.691 86.2509 113.548 88.2386 112.355C88.6362 112.107 88.835 111.56 89.2325 111.262C89.5804 111.014 90.0773 110.815 90.5246 110.715C90.624 110.715 91.0215 111.163 90.9718 111.312C90.8227 111.759 90.624 112.256 90.3258 112.554ZM108.464 107.634C108.365 107.485 108.216 107.386 108.116 107.237C108.564 106.839 108.961 106.442 109.408 106.094L109.856 106.591C109.359 106.939 108.911 107.287 108.464 107.634ZM110.452 100.975C110.353 101.274 110.005 101.572 110.054 101.77C110.402 103.162 109.458 103.858 108.663 104.702C107.818 105.597 107.172 106.641 106.427 107.535C106.079 107.982 105.483 108.231 105.184 108.678C104.936 109.076 105.035 109.722 104.837 110.218C104.439 111.014 104.041 111.858 103.395 112.405C102.153 113.498 100.811 114.393 99.4695 115.337C98.5254 115.983 97.4818 116.281 96.3388 116.53C95.0468 116.778 93.9535 117.921 92.7111 118.567C92.2639 118.816 91.7172 118.865 91.2203 119.014C91.5185 118.517 91.6676 117.772 92.0651 117.573C95.7425 115.983 98.2272 112.952 101.109 110.417C103.147 108.579 104.986 106.541 106.824 104.454C107.57 103.609 107.918 102.466 108.464 101.472C109.16 100.28 109.856 99.087 110.551 97.8943C110.8 97.9937 110.999 98.0931 111.247 98.1925C110.949 99.1864 110.7 100.081 110.452 100.975ZM100.911 101.373C100.762 101.274 100.613 100.876 100.662 100.826C101.259 100.031 101.905 99.2361 102.551 98.441C102.65 98.5404 102.799 98.6397 102.898 98.6894C102.799 98.9379 102.6 99.1367 102.551 99.4349C102.501 99.7827 102.451 100.329 102.65 100.429C103.445 100.975 103.048 101.274 102.7 101.87C101.855 103.112 101.06 104.255 99.4198 104.504C99.1217 104.553 98.8235 105.05 98.6247 105.398C98.426 105.696 98.4757 106.094 98.2769 106.342C97.8793 106.79 97.3824 107.137 96.9351 107.485C96.6867 107.038 96.3885 106.541 96.14 106.094C95.991 105.845 95.8916 105.498 95.8916 105.199C95.8916 104.901 95.9413 104.553 96.0903 104.255C96.14 104.106 96.637 104.056 96.6867 104.056C96.8357 104.305 96.8854 104.653 96.9848 104.951C97.0345 105.15 97.0345 105.299 97.0842 105.696C98.4757 104.702 99.7677 103.858 100.96 102.963C101.457 102.516 101.606 101.92 100.911 101.373ZM112.688 90.142C111.694 91.4341 111.694 92.9249 111.396 94.366C111.048 96.1053 110.054 97.1986 108.216 97.5465C107.47 97.6956 106.824 98.2422 106.178 98.6894C105.532 99.087 104.986 99.6336 104.389 100.081C104.24 99.9318 104.091 99.8324 103.942 99.6833C104.389 98.8882 104.787 98.0931 105.284 97.3477C105.731 96.7017 106.278 96.155 106.129 95.2108C106.079 94.9624 106.526 94.5648 106.775 94.2667C107.321 93.6206 107.918 93.074 108.365 92.3783C109.16 91.2353 109.806 90.0426 110.551 88.8997C111.098 88.0549 111.694 88.6512 112.241 88.85C112.887 89.0985 113.036 89.6451 112.688 90.142ZM117.906 79.1099C117.707 80.0541 117.359 80.9983 117.061 81.9425C116.912 82.3897 116.564 82.7376 116.465 83.1848C116.216 84.2284 115.968 85.0732 114.626 84.2781C114.477 84.626 114.477 84.7254 114.378 84.8248C114.129 85.2223 113.831 85.6199 113.583 85.9677C113.384 85.5205 113.086 85.1229 112.986 84.6757C112.837 84.0296 113.285 83.7812 113.881 83.7812C115.123 83.7315 115.521 82.9861 115.819 81.8928C116.167 80.5511 116.713 79.259 117.161 77.967C117.31 77.967 117.509 78.0167 117.658 78.0167C117.757 78.4142 117.956 78.7621 117.906 79.1099ZM79.5919 4.71773C80.387 5.0159 81.1821 5.21467 81.9275 5.56253C83.5674 6.35764 85.1079 7.20244 86.7478 7.99755C87.5926 8.4448 87.692 8.94174 86.9466 9.53807C86.5491 9.88593 86.1515 10.2338 85.7043 10.532C85.5055 10.681 85.1576 10.8301 85.0085 10.7804C84.8098 10.681 84.7104 10.3332 84.7104 10.1344C84.7104 8.19633 83.5177 7.20244 81.8778 6.60611C81.033 6.25825 80.2379 5.76131 79.4428 5.31406C79.4428 5.11529 79.5422 4.91651 79.5919 4.71773ZM40.6316 3.62446C40.9795 3.12752 41.377 3.2766 41.6752 3.82324C41.9237 4.1711 42.3212 4.46926 42.6194 4.76743C42.6194 4.91651 42.5697 5.06559 42.5697 5.21467C41.9237 5.11529 41.228 5.06559 40.6813 4.81712C40.5322 4.66804 40.4328 3.87293 40.6316 3.62446ZM14.4925 72.6994C14.6913 73.0472 14.9397 73.3951 15.1385 73.7926C15.1385 73.8423 14.8403 74.0411 14.6416 74.1405C14.3931 73.7926 14.1943 73.3951 13.9458 73.0472C14.0949 72.9479 14.2937 72.7988 14.4925 72.6994ZM66.1744 124.878C65.5781 125.077 64.8824 125.127 64.2364 125.127C63.9879 125.127 63.7891 124.878 63.5406 124.729C63.6897 124.481 63.8388 124.133 64.0376 124.083C64.6836 123.835 65.3793 123.735 66.1744 123.537C66.4726 123.735 66.8205 123.934 67.1683 124.183C66.8702 124.431 66.572 124.779 66.1744 124.878ZM59.9627 100.975C57.1301 100.628 54.2478 100.23 51.5147 99.3355C48.7815 98.3913 46.1477 97.0495 43.663 95.509C41.2776 94.0182 39.1408 92.1795 36.9543 90.3905C36.2088 89.7942 35.6125 88.9494 34.8671 88.3034C34.6186 88.0549 34.072 87.9058 33.7241 88.0052C28.2081 88.9991 22.692 89.5457 17.1263 89.1978C15.5361 89.0985 13.9458 88.7009 12.455 88.1543C10.1691 87.3095 9.2249 84.6757 10.1691 82.4394C10.9642 80.5511 12.1072 78.8615 13.598 77.3706C15.9336 74.9853 18.5177 72.9479 21.3006 71.1092C22.4932 70.3141 23.6859 69.4693 24.8786 68.6741C25.4252 68.3263 25.5743 67.9287 25.624 67.2827C25.6737 63.9532 25.3755 60.5243 25.9718 57.2942C26.6676 53.7162 27.5621 50.1382 29.3013 46.759C30.8916 43.7277 32.8296 40.9448 34.8671 38.2116C35.4137 37.5159 36.2088 36.9693 36.8549 36.3232C39.6874 33.3913 43.0169 31.155 46.6446 29.2667C50.3717 27.3286 54.2975 26.285 58.4221 25.7384C60.0621 25.5396 61.7517 25.2911 62.7952 25.142C68.4107 25.4402 73.3801 26.1856 77.952 28.1237C80.5857 29.217 83.0705 30.8072 85.4061 32.4471C87.4435 33.8385 89.2822 35.5281 91.1209 37.2177C92.3136 38.3607 93.3075 39.7521 94.4007 41.0442C94.5995 41.2927 94.9971 41.5411 95.2952 41.4914C97.4321 41.1933 99.5192 40.746 101.656 40.5969C104.141 40.3982 106.626 40.2988 109.11 40.2988C110.601 40.2988 112.092 40.4975 113.533 40.8951C114.676 41.1933 115.819 41.7896 116.813 42.4853C118.552 43.678 118.9 46.5602 117.658 48.7468C116.912 50.0388 115.968 51.1818 115.024 52.3248C112.639 55.0579 109.657 57.0954 106.725 59.1826C105.333 60.1764 103.743 61.0212 102.352 62.0151C101.954 62.3133 101.606 62.8599 101.507 63.3569C101.01 66.7858 101.01 70.3638 100.066 73.6933C99.2211 76.7743 98.2272 79.9547 96.14 82.6382C95.494 83.4333 95.1461 84.4769 94.5001 85.272C92.7608 87.3592 90.9221 89.3966 89.0835 91.3844C86.8472 93.7697 84.0643 95.509 81.2318 96.9998C74.5231 100.329 67.4665 101.87 59.9627 100.975ZM78.7968 117.921C78.0513 118.468 77.2562 119.014 76.4611 119.462C75.8648 119.809 74.5728 119.163 73.9267 118.17C75.4672 117.772 76.9581 117.374 78.4489 116.977C78.6477 116.927 78.8961 117.126 79.1446 117.225C79.0452 117.474 78.9955 117.772 78.7968 117.921Z" fill="black"/>
<path d="M1.37323 50.1384C1.32354 49.4427 1.07507 48.8463 0.578125 48.25C0.826596 48.8463 1.12476 49.4924 1.37323 50.1384Z" fill="black"/>
<path d="M124.615 82.6384C124.764 81.4954 124.863 80.3524 125.012 79.2095C124.913 79.3586 124.814 79.5573 124.764 79.7561C124.515 80.5512 124.366 81.396 124.168 82.1911C123.72 83.6819 123.273 85.1231 122.776 86.8127C122.826 86.9121 122.925 87.2102 123.124 87.3593C123.472 86.6636 123.82 86.0176 124.217 85.3716C124.317 84.4274 124.466 83.5329 124.615 82.6384Z" fill="black"/>
<path d="M7.48559 98.7392C7.13774 98.5902 6.64079 98.1429 6.39232 98.2423C5.79599 98.5405 5.19966 98.8883 4.60333 99.2362C4.65303 99.3356 4.70272 99.435 4.75241 99.5343C4.9015 99.7331 5.00089 99.9319 5.14997 100.131C5.64691 99.8822 6.09416 99.6337 6.54141 99.3356C6.88926 99.1368 7.18743 98.938 7.48559 98.7392Z" fill="black"/>
<path d="M27.1148 7.94775C27.413 8.69317 27.6614 9.43858 28.0093 10.3828C26.7669 9.98522 26.6676 9.68705 26.7173 8.09684C26.8663 7.99745 26.9657 7.94775 27.1148 7.94775Z" fill="black"/>
<path d="M62.7455 25.1421C68.361 25.4403 73.3304 26.1857 77.9023 28.1237C80.5361 29.217 83.0208 30.8072 85.3564 32.4471C87.3939 33.8386 89.2325 35.5282 91.0712 37.2178C92.2639 38.3607 93.2578 39.7522 94.351 41.0442C94.5498 41.2927 94.9474 41.5412 95.2455 41.4915C97.3824 41.1933 99.4695 40.7461 101.606 40.597C104.091 40.3982 106.576 40.2988 109.061 40.2988C110.551 40.2988 112.042 40.4976 113.483 40.8952C114.626 41.1933 115.769 41.7896 116.763 42.4854C118.502 43.678 118.85 46.5603 117.608 48.7468C116.863 50.0389 115.918 51.1818 114.974 52.3248C112.589 55.058 109.607 57.0955 106.675 59.1826C105.284 60.1765 103.694 61.0213 102.302 62.0152C101.905 62.3133 101.557 62.86 101.457 63.3569C100.96 66.7858 100.96 70.3638 100.016 73.6933C99.1714 76.7744 98.1775 79.9548 96.0903 82.6383C95.4443 83.4334 95.0964 84.477 94.4504 85.2721C92.7111 87.3592 90.8724 89.3967 89.0338 91.3844C86.7975 93.7698 84.0146 95.5091 81.1821 96.9999C74.523 100.429 67.4665 101.969 59.9627 101.075C57.1301 100.727 54.2478 100.329 51.5146 99.4349C48.7815 98.4907 46.1477 97.149 43.663 95.6084C41.2776 94.1176 39.1408 92.2789 36.9542 90.49C36.2088 89.8936 35.6125 89.0488 34.8671 88.4028C34.6186 88.1543 34.072 88.0052 33.7241 88.1046C28.2081 89.0985 22.692 89.6451 17.1263 89.2973C15.5361 89.1979 13.9458 88.8004 12.455 88.2537C10.1691 87.4089 9.22489 84.7751 10.1691 82.5389C10.9642 80.6505 12.1072 78.9609 13.598 77.4701C15.9336 75.0847 18.5177 73.0473 21.3006 71.2086C22.4932 70.4135 23.6859 69.5687 24.8786 68.7736C25.4252 68.4257 25.5743 68.0282 25.624 67.3822C25.6737 64.0526 25.3755 60.6237 25.9718 57.3936C26.6676 53.8156 27.562 50.2377 29.3013 46.8585C30.8916 43.8271 32.8296 41.0442 34.8671 38.3111C35.4137 37.6153 36.2088 37.0687 36.8549 36.4227C39.6874 33.4907 43.0169 31.2545 46.6446 29.3661C50.3717 27.428 54.2975 26.3844 58.4221 25.8378C60.0124 25.5396 61.702 25.2912 62.7455 25.1421ZM79.7409 82.5389C81.6293 81.1971 83.468 79.8554 85.1576 78.6627C84.3625 78.0664 83.5674 77.7682 83.3189 77.1719C82.9214 76.2277 83.7165 75.3829 84.4122 74.886C84.8097 74.5878 85.5552 74.8363 86.3006 74.8363C86.3006 74.9854 86.3503 74.7866 86.3006 74.6375C85.9527 72.3516 85.6049 70.0159 85.2073 67.73C85.0582 66.7858 85.0085 65.7422 83.8159 65.295C81.033 64.3011 78.2501 63.3072 75.4672 62.214C74.374 61.8164 73.5292 62.0152 72.7341 62.7606C72.1874 63.2575 71.6905 63.8539 71.0942 64.3508C69.4542 65.6926 67.7646 66.9349 66.2241 68.3263C65.7769 68.7239 65.429 69.5687 65.4787 70.1153C65.8266 73.097 66.4229 76.0289 66.8205 78.9609C66.9695 80.1039 67.6653 80.6505 68.5598 80.9984C71.0942 81.9922 73.6286 82.9364 76.163 83.8806C78.0016 84.5266 78.7968 84.1788 79.7409 82.5389ZM62.8946 27.2292C60.4099 27.6765 57.3289 28.2231 54.2975 28.8692C50.5705 29.6146 47.1416 31.3042 43.9611 33.3416C41.1286 35.1803 38.5445 37.3669 36.4573 40.0007C34.8174 42.0878 33.2272 44.2247 31.8854 46.5106C30.8916 48.2002 30.3946 50.188 29.6492 52.0266C28.1584 55.6543 27.7111 59.5305 27.7608 63.4066C27.8105 66.7361 28.2081 70.0159 29.2516 73.2461C30.494 77.1719 32.2333 80.7499 34.4695 84.1291C35.0659 85.0733 35.8113 85.3218 36.8052 85.0733C40.0353 84.2782 43.2654 83.5328 46.4458 82.6383C50.2723 81.5947 54.049 80.4517 57.8755 79.3088C60.1117 78.6627 62.348 77.8676 64.5345 77.2216C65.1805 77.0228 65.3793 76.675 65.2302 76.0289C64.8327 74.3393 64.5345 72.6497 64.1867 71.0098C63.64 68.7239 65.1309 67.4318 66.572 66.1895C68.361 64.5993 70.3487 63.2078 72.1874 61.6673C73.3304 60.7231 74.5231 60.6237 75.8648 61.071C78.2998 61.9158 80.7348 62.7109 83.1201 63.6054C84.7601 64.2017 86.2509 65.0465 86.3503 67.1337C86.4 67.9785 86.9963 67.7797 87.4435 67.5312C88.1393 67.1834 88.7853 66.6864 89.481 66.3386C92.3633 64.7981 95.2455 63.2575 98.1775 61.7667C98.8732 61.4188 99.072 60.9219 98.9726 60.1765C98.7738 58.6857 98.6247 57.1451 98.2769 55.6543C97.8296 53.6666 97.4321 51.5794 96.5376 49.7407C95.1958 47.0075 94.0529 44.1253 91.9657 41.8393C90.3755 40.1497 89.0338 38.2117 87.2945 36.6711C85.3564 34.9815 83.0705 33.6398 80.9833 32.149C78.101 30.1115 74.6721 29.3164 71.3426 28.3722C68.9076 27.6765 66.1744 27.6765 62.8946 27.2292ZM37.6003 87.6574C45.6507 97.2484 63.7394 103.609 80.6851 94.5649C88.1393 90.5893 93.3075 84.4273 96.637 76.7744C98.3266 72.8485 99.072 68.6245 99.0223 64.152C98.575 64.3508 98.3266 64.4502 98.1278 64.5496C95.1461 66.0901 92.1645 67.6306 89.1828 69.1711C87.0957 70.2147 87.0957 70.165 87.4932 72.5006C87.6423 73.2958 87.7914 74.0909 87.8411 74.886C87.9405 76.0786 88.2883 77.4204 87.2945 78.4143C86.1018 79.5572 84.8098 80.5511 83.5674 81.5947C82.9214 82.1413 82.325 82.688 81.679 83.2346C79.244 85.2224 78.2501 86.0672 75.4175 84.8745C73.231 83.9303 71.0445 83.0855 68.7585 82.3401C67.218 81.8432 65.926 81.1474 65.7272 79.6069C56.2853 82.2407 46.9428 84.9242 37.6003 87.6574ZM96.0903 43.4296C98.6744 48.7468 100.96 53.8156 101.259 59.6299C101.755 59.4311 102.004 59.3317 102.203 59.2323C104.787 57.3936 107.421 55.5549 110.005 53.7162C112.191 52.1757 113.881 50.188 115.421 48.0014C116.067 47.1069 116.614 45.964 115.968 44.9204C115.521 44.175 114.577 43.4296 113.781 43.3302C111.346 42.9326 108.862 42.5848 106.377 42.6344C103.048 42.6841 99.6186 43.1314 96.0903 43.4296ZM26.27 70.5626C25.7731 70.8111 25.4749 70.9104 25.2264 71.1092C22.9902 72.6497 20.7539 74.1406 18.6171 75.7805C16.3809 77.5198 14.4428 79.5572 12.7532 81.7935C11.5605 83.4334 11.809 85.123 13.598 86.0175C14.8403 86.6138 16.2318 86.912 17.6232 87.0611C22.7417 87.5083 27.7608 87.0114 32.7799 85.7193C29.5995 81.0977 27.2639 76.2277 26.27 70.5626Z" fill="#FFCC08"/>
<path d="M4.00699 59.2817C3.9076 59.0829 3.60943 58.8842 3.36096 58.8345C3.41066 59.5799 3.41066 60.3253 3.36096 61.0707C4.10637 60.4744 4.35485 59.8284 4.00699 59.2817Z" fill="#FFCC08"/>
<path d="M42.6194 5.16498C41.9734 5.06559 41.2777 5.0159 40.731 4.76743C40.5819 4.71773 40.4825 3.87293 40.6813 3.62446C41.0292 3.12752 41.4267 3.2766 41.7249 3.82324C41.9734 4.1711 42.3709 4.46926 42.6691 4.76743C42.6194 4.86682 42.6194 5.0159 42.6194 5.16498Z" fill="#FFCC08"/>
<path d="M123.372 61.866C122.379 61.0212 122.428 59.58 123.372 58.6855C123.372 59.8285 123.372 60.8721 123.372 61.866Z" fill="#FFCC08"/>
<path d="M9.12549 89.6946C8.82732 89.943 8.52916 90.1915 8.52916 90.1915C8.23099 89.943 7.98252 89.6449 7.78375 89.297C7.73405 89.1976 8.08191 88.8995 8.23099 88.7007C8.47946 88.9988 8.72794 89.297 9.12549 89.6946Z" fill="#FFCC08"/>
<path d="M109.806 106.591C109.359 106.939 108.911 107.287 108.464 107.684C108.365 107.535 108.216 107.436 108.116 107.287C108.564 106.889 108.961 106.491 109.408 106.144C109.508 106.243 109.657 106.392 109.806 106.591Z" fill="#FFCC08"/>
<path d="M4.05667 77.7183C4.45423 78.1655 4.90147 78.6625 5.29903 79.1097C5.14994 79.2588 5.00086 79.3582 4.85178 79.5073C4.45423 79.0103 4.05667 78.5631 3.65912 78.0661C3.75851 77.9667 3.90759 77.8177 4.05667 77.7183Z" fill="#FFCC08"/>
<path d="M14.4925 72.6992C14.6913 73.0471 14.9397 73.3949 15.1385 73.7925C15.1385 73.8422 14.8404 74.041 14.6416 74.1403C14.3931 73.7925 14.1943 73.3949 13.9459 73.0471C14.0949 72.9477 14.2937 72.7986 14.4925 72.6992Z" fill="#FFCC08"/>
<path d="M62.8946 27.229C66.1745 27.6266 68.8579 27.6763 71.3923 28.372C74.6722 29.3162 78.1011 30.1113 81.033 32.1487C83.1202 33.6396 85.4061 34.9813 87.3442 36.6709C89.0835 38.1617 90.4252 40.1495 92.0154 41.8391C94.1523 44.125 95.2952 47.0073 96.5873 49.7405C97.4818 51.5792 97.8793 53.6663 98.3266 55.6541C98.6745 57.1449 98.7738 58.6854 99.0223 60.1763C99.1217 60.9217 98.9229 61.4186 98.2272 61.7665C95.2952 63.2573 92.413 64.7978 89.5307 66.3383C88.835 66.7359 88.189 67.1831 87.4933 67.531C87.046 67.7298 86.4497 67.9285 86.4 67.1334C86.3006 65.0463 84.8098 64.2015 83.1699 63.6051C80.7845 62.7107 78.3495 61.8659 75.9145 61.0707C74.6225 60.6235 73.3801 60.7726 72.2371 61.6671C70.3985 63.2076 68.4107 64.599 66.6217 66.1892C65.1806 67.4316 63.6898 68.7236 64.2364 71.0096C64.6339 72.6992 64.9321 74.3888 65.28 76.0287C65.429 76.6747 65.2303 77.0226 64.5842 77.2214C62.348 77.9171 60.1615 78.6625 57.9252 79.3085C54.1485 80.4515 50.322 81.5944 46.4956 82.638C43.3151 83.5325 40.0353 84.2779 36.8549 85.073C35.861 85.3215 35.1653 85.073 34.5193 84.1288C32.283 80.6999 30.5437 77.122 29.3014 73.2458C28.2578 70.0157 27.8602 66.7359 27.8105 63.4064C27.7609 59.5302 28.2081 55.7038 29.6989 52.0264C30.4443 50.1877 30.9413 48.2 31.9352 46.5103C33.2769 44.2244 34.8671 42.0379 36.507 40.0004C38.5942 37.3666 41.1783 35.1801 44.0109 33.3414C47.1913 31.2542 50.5705 29.6143 54.3472 28.8689C57.3289 28.2726 60.4099 27.7259 62.8946 27.229ZM47.9367 64.3009C47.9367 63.7542 47.9864 63.2076 47.887 62.7107C47.8373 62.4622 47.5888 62.0646 47.4398 62.0646C45.7005 62.0149 43.9612 62.0149 42.3709 62.0149C42.3709 64.6984 42.3709 67.1831 42.3709 69.8666C43.3648 70.1151 44.4581 70.1648 45.3029 69.8666C45.1041 68.7733 44.8557 67.9285 44.7563 67.034C44.6569 66.0402 44.7066 65.0463 44.7563 64.0524C44.7563 63.7542 45.1538 63.1579 45.3029 63.1579C45.6508 63.2076 46.1974 63.4561 46.2968 63.7542C46.744 64.599 47.1913 64.7978 47.9367 64.3009C47.9864 64.9966 48.0361 65.742 47.9864 66.4377C47.887 67.9782 48.6821 69.0715 49.8748 69.7175C51.2662 70.4629 52.757 70.2642 54.0988 69.32C55.8878 68.0279 55.5896 66.1892 55.3411 64.4003C55.0927 62.9094 53.9 62.0149 52.2601 61.7665C50.6699 61.5677 49.3778 62.2137 48.5827 63.5555C48.4336 63.8536 48.1852 64.1021 47.9367 64.3009ZM42.5697 56.8467C42.7188 56.8467 43.1164 56.8964 43.5139 56.8964C44.4084 56.9461 45.3526 56.8964 46.2471 56.9958C47.2907 57.0952 48.3839 56.6977 48.8312 55.7038C49.1294 55.0577 49.3281 54.4117 49.4772 53.7657C49.7754 52.573 49.9742 51.3307 50.2723 50.138C50.4214 50.138 50.6202 50.1877 50.7693 50.1877C50.6699 52.3743 51.1668 54.5608 50.2723 56.7473C52.4092 56.7473 54.4963 56.7473 56.4344 56.7473C56.4344 56.0516 56.335 55.1074 56.4344 55.1074C57.0307 54.9584 57.7264 54.9087 58.2731 55.1074C58.4719 55.1571 58.3725 56.1013 58.3725 56.8467C58.5216 56.8467 58.8694 56.9461 59.267 56.9958C60.8572 56.9958 62.3977 56.9958 63.9879 56.9958C65.0315 57.0455 65.3793 56.8964 64.8824 55.7038C64.1867 53.9645 64.783 53.2688 66.6714 53.6166C66.572 54.6105 66.4229 55.6541 66.2738 56.8964C66.7211 56.8964 67.3174 56.9461 67.9138 56.9958C69.2555 56.9958 69.2555 56.9958 69.007 55.6541C68.9573 55.505 69.007 55.3559 69.007 55.2068C69.007 53.2191 69.007 51.1816 69.0567 49.1441C68.2119 49.1441 67.1683 49.1441 66.2242 49.1441C66.3732 50.0386 66.4726 50.6847 66.572 51.3804C66.6714 52.0761 66.2738 52.2252 65.6775 52.2252C65.0812 52.2252 64.6836 52.0761 64.7333 51.3804C64.8327 50.635 64.9321 49.8896 65.0812 49.1441C63.9879 49.1441 62.9443 49.1441 62.0498 49.1441C62.1989 50.138 62.348 50.9331 62.3977 51.7282C62.4474 52.7718 62.4474 53.8154 62.3977 54.859C62.348 55.3062 62.0498 55.8032 61.8511 56.2504C61.4535 55.9025 61.056 55.6044 60.7081 55.2068C60.6087 55.1074 60.559 54.859 60.5093 54.6602C60.1118 53.07 59.6645 51.4798 59.267 49.8896C59.1179 49.1938 58.7203 48.846 57.9749 48.7963C57.1798 48.7466 56.7326 49.0448 56.5338 49.7902C56.3847 50.2871 56.2853 50.7344 56.0865 51.2313C55.5399 52.6227 54.9933 54.0639 54.3969 55.4553C54.2479 55.7535 53.8006 55.9025 53.5024 56.151C53.3534 55.7535 53.1049 55.4056 53.1049 55.0578C53.2043 53.1197 52.757 51.1319 53.6018 49.0448C51.6141 49.0944 49.7754 48.7963 48.2349 49.1938C48.3839 50.138 48.6324 50.784 48.533 51.3307C48.2349 52.6724 47.7876 53.9645 47.3901 55.2565C47.3404 55.4056 47.241 55.505 47.0919 55.7038C46.1477 54.859 45.7005 55.3559 45.4023 56.3498C45.1538 56.1013 44.8557 55.9522 44.8557 55.8032C45.0047 53.6166 44.1599 51.3804 45.5514 49.2435C42.9176 49.2435 40.3832 49.2435 38.0476 49.2435C38.5445 51.8773 38.7433 54.362 37.8985 56.9461C38.9917 56.9461 40.085 56.9461 40.9298 56.9461C40.8801 54.9087 40.8304 53.0203 40.7807 51.1319C40.7807 50.4859 41.1286 50.138 41.6752 50.2871C42.0231 50.3865 42.5697 50.7344 42.5697 50.9828C42.6691 52.7221 42.6194 54.6602 42.5697 56.8467ZM87.1951 56.8964C87.9405 56.8964 88.8847 56.9461 89.8289 56.8467C89.9283 56.8467 90.1271 56.3001 90.0774 56.1013C89.8289 55.4056 89.3816 54.8093 89.1332 54.1136C88.6859 52.6724 88.2387 51.1816 87.8908 49.6908C87.7417 48.9951 87.3442 48.7466 86.6982 48.7466C86.0024 48.7466 85.5552 48.8957 85.3067 49.6411C84.8098 51.1319 84.3128 52.6227 83.7165 54.0639C83.468 54.7099 83.0705 55.3559 82.6729 55.9025C82.2257 56.4492 81.5797 56.2504 81.5797 55.6541C81.4803 53.8154 81.53 51.9767 81.53 50.138C81.6293 50.0883 81.7784 50.0883 81.8778 50.0386C82.0766 50.3368 82.176 50.7344 82.4742 50.8834C82.822 51.0822 83.2693 51.1319 83.7165 51.281C83.8159 50.635 83.965 50.0386 83.9153 49.3926C83.9153 49.1938 83.319 48.8957 82.9711 48.846C81.3312 48.7963 79.6913 48.7963 78.0017 48.7963C76.5108 48.7963 76.163 49.2435 76.5605 50.6847C76.6102 50.9331 76.9581 51.281 77.2066 51.281C77.455 51.3307 77.8029 51.0822 78.0514 50.8834C78.2998 50.635 78.4986 50.2871 78.6974 49.9392C78.8465 49.9889 78.9956 50.0386 79.1446 50.0386C78.8962 52.1755 79.6913 54.362 78.5483 56.5983C80.8342 56.5983 83.0705 56.5983 85.1576 56.5983C85.1576 55.9025 84.9589 55.0577 85.2073 54.9584C85.7043 54.7099 86.5491 54.5608 86.8969 54.8093C87.1454 55.3062 87.046 56.1013 87.1951 56.8964ZM70.2991 48.8957C70.6469 51.5295 70.8457 53.8651 70.2991 56.2007C70.2494 56.3995 70.5476 56.8964 70.6966 56.8964C72.2868 56.9461 73.9268 56.9958 75.517 56.8964C75.7654 56.8964 76.1133 56.2504 76.2127 55.8032C76.2624 55.4553 76.0636 55.0577 75.9145 54.7099C75.5667 54.9087 75.2188 55.1074 74.8212 55.2565C74.374 55.4553 73.8771 55.6541 73.4298 55.6541C73.3304 55.6541 73.082 55.0081 73.0323 54.6602C72.9826 54.2626 73.082 53.8651 73.1316 53.2191C73.8274 53.6166 74.2746 53.9148 75.1194 54.362C75.1194 53.3185 75.1194 52.4737 75.1194 51.6785C74.5728 51.8276 74.0758 51.927 73.5292 52.0264C73.4298 52.0264 73.3304 51.9767 73.1316 51.9767C73.082 51.6785 73.0323 51.3804 73.0819 51.0822C73.1813 50.7344 73.3801 50.0883 73.4795 50.0883C73.9764 50.138 74.4237 50.3368 74.8709 50.5356C75.2188 50.6847 75.4673 50.9331 75.8151 51.1319C75.9642 50.6847 76.2624 50.2374 76.2624 49.7902C76.2624 49.492 75.8648 48.8957 75.666 48.8957C73.8274 48.8957 72.0881 48.8957 70.2991 48.8957ZM56.335 62.164C56.6332 64.7978 56.7823 67.2328 56.1859 69.8666C57.2792 69.8666 58.4222 69.8666 59.6148 69.8666C59.5154 69.5685 59.4657 69.4194 59.416 69.3697C58.4719 67.9285 58.77 67.0837 60.4099 66.7856C60.7578 66.7359 61.1057 66.6365 61.4038 66.4874C62.3977 66.0402 62.6959 65.1457 62.6959 64.1021C62.6959 63.2076 62.2983 62.2634 61.3541 62.2137C59.6645 62.0149 57.9252 62.164 56.335 62.164ZM41.0292 62.1143C40.085 62.1143 38.9917 62.1143 38.2463 62.1143C38.3457 63.5058 38.4451 64.7481 38.4451 65.9905C38.4451 67.2328 38.296 68.4752 38.1966 69.8169C39.0414 69.8169 40.1347 69.8169 41.0292 69.8169C41.0292 67.1831 41.0292 64.6984 41.0292 62.1143Z" fill="black"/>
<path d="M37.6003 87.6571C46.9428 84.9736 56.2853 82.2404 65.6775 79.5569C65.8763 81.0975 67.1186 81.7932 68.7088 82.2901C70.9451 83.0355 73.1813 83.8803 75.3679 84.8245C78.2004 86.0172 79.1943 85.1724 81.6293 83.1846C82.2754 82.638 82.8717 82.0914 83.5177 81.5447C84.7601 80.5011 86.1018 79.5072 87.2448 78.3643C88.2387 77.4201 87.8908 76.0784 87.7914 74.836C87.7417 74.0409 87.5926 73.2458 87.4436 72.4507C87.046 70.115 87.046 70.1647 89.1332 69.1212C92.1148 67.6303 95.0965 66.0401 98.0781 64.4996C98.3266 64.4002 98.575 64.3008 98.9726 64.1021C99.072 68.5745 98.2769 72.7985 96.5873 76.7244C93.3075 84.3773 88.0896 90.5891 80.6354 94.5149C63.7394 103.559 45.6507 97.2481 37.6003 87.6571Z" fill="black"/>
<path d="M79.7906 82.489C78.7968 84.1786 78.0017 84.5264 76.2127 83.8307C73.6783 82.8865 71.1439 81.9423 68.6095 80.9484C67.715 80.6006 67.0192 80.0539 66.8702 78.911C66.4726 75.9293 65.926 72.9974 65.5284 70.0654C65.4787 69.4691 65.8266 68.674 66.2738 68.2764C67.8143 66.885 69.504 65.6426 71.1439 64.3009C71.7402 63.8039 72.2371 63.2573 72.7838 62.7107C73.5789 61.9653 74.4237 61.7665 75.517 62.164C78.2998 63.2076 81.0827 64.2512 83.8656 65.2451C85.0582 65.6923 85.1079 66.6862 85.257 67.6801C85.6546 69.966 86.0024 72.3017 86.3503 74.5876C86.4 74.7367 86.3006 74.9354 86.3503 74.7864C85.6049 74.7864 84.8595 74.5379 84.4619 74.8361C83.7662 75.333 82.9711 76.1281 83.3686 77.122C83.6171 77.7183 84.4619 78.0165 85.2073 78.6128C83.468 79.8552 81.6293 81.1969 79.7906 82.489C80.0391 82.0417 80.4864 81.5448 80.6355 80.9981C80.8342 80.2527 80.5361 79.557 79.741 79.2588C78.9459 78.9607 78.5483 79.5073 78.2501 80.1036C78.1507 80.2527 78.0017 80.4515 78.0017 80.6006C78.0017 81.2466 77.952 81.992 78.2501 82.489C78.2998 82.7374 79.244 82.489 79.7906 82.489ZM79.2937 73.4446C79.3434 72.5998 78.9955 71.9538 78.1507 71.8544C77.3556 71.755 76.2624 73.1961 76.3121 74.2894C76.3121 75.0348 76.6102 75.6312 77.5047 75.6312C78.4986 75.5815 79.2937 74.6373 79.2937 73.4446ZM70.4481 74.5379C70.2494 74.7864 69.7524 75.1839 69.7027 75.6809C69.5536 76.8735 70.796 78.1656 71.8893 77.9171C72.2868 77.8177 72.8335 77.1717 72.9329 76.7244C73.0819 75.6312 71.8893 74.4882 70.4481 74.5379ZM85.0085 68.8728C85.0582 68.028 84.8098 67.4316 83.8656 67.3819C82.9214 67.3322 82.1263 68.2764 82.1263 69.4194C82.1263 70.2145 82.176 71.0096 83.2692 71.0593C84.1637 71.109 84.9091 70.1648 85.0085 68.8728ZM82.7723 75.0845C82.7723 73.8422 81.8778 72.7986 81.3809 73.1961C80.7348 73.7428 80.1385 74.4385 79.8403 75.2336C79.6913 75.6312 80.1882 76.3766 80.5858 76.8238C80.7845 77.0226 81.5796 76.9729 81.7784 76.7244C82.2754 76.1778 82.5735 75.4821 82.7723 75.0845ZM74.1255 65.3942C75.1691 65.3942 75.9642 65.1954 76.0636 64.1021C76.163 63.1579 75.4176 62.9094 74.6225 62.9094C73.3801 62.9094 72.7341 63.3567 72.7341 64.2512C72.6844 65.2948 73.3801 65.4439 74.1255 65.3942ZM74.0261 69.8666C75.4673 69.8666 76.5605 69.1212 76.3121 68.5249C76.0636 68.0279 75.4673 67.531 74.9206 67.4316C73.877 67.2825 72.7838 68.0776 73.0322 68.7734C73.1813 69.32 73.8273 69.6679 74.0261 69.8666Z" fill="black"/>
<path d="M96.0903 43.4297C99.6186 43.1316 103.048 42.6843 106.427 42.6346C108.911 42.5849 111.396 42.9328 113.831 43.3303C114.626 43.4794 115.521 44.2248 116.018 44.9206C116.664 45.9641 116.117 47.1071 115.471 48.0016C113.931 50.1384 112.241 52.1262 110.054 53.7164C107.47 55.5551 104.837 57.3938 102.252 59.2325C102.054 59.3816 101.755 59.4313 101.308 59.63C100.96 53.8158 98.7241 48.747 96.0903 43.4297Z" fill="black"/>
<path d="M26.27 70.5625C27.2639 76.2276 29.5995 81.0977 32.78 85.6695C27.7609 87.0113 22.692 87.4585 17.6232 87.0113C16.2815 86.9119 14.8404 86.564 13.598 85.9677C11.809 85.0732 11.5606 83.3836 12.7532 81.7437C14.4428 79.4578 16.3809 77.4203 18.6171 75.7307C20.754 74.0908 23.0399 72.6 25.2265 71.0594C25.4749 70.9104 25.7731 70.811 26.27 70.5625Z" fill="black"/>
<path d="M42.5697 56.8468C42.6194 54.6603 42.6691 52.7222 42.6194 50.7841C42.6194 50.5356 42.0727 50.1878 41.7249 50.0884C41.1286 49.9393 40.7807 50.2375 40.8304 50.9332C40.8801 52.8216 40.9298 54.71 40.9795 56.7474C40.1347 56.7474 39.0414 56.7474 37.9481 56.7474C38.7929 54.1633 38.5941 51.6786 38.0972 49.0448C40.4825 49.0448 43.0169 49.0448 45.601 49.0448C44.2593 51.1817 45.0544 53.4179 44.9053 55.6045C44.9053 55.7535 45.2035 55.9026 45.4519 56.1511C45.7501 55.1572 46.1974 54.71 47.1415 55.5051C47.2409 55.3063 47.39 55.2069 47.4397 55.0578C47.8373 53.7658 48.3342 52.4737 48.5827 51.132C48.6821 50.5853 48.4336 49.9393 48.2845 48.9951C49.825 48.5976 51.6637 48.8957 53.6515 48.846C52.8067 50.9332 53.2539 52.921 53.1545 54.859C53.1545 55.2069 53.403 55.6045 53.5521 55.9523C53.8503 55.7535 54.3472 55.6045 54.4466 55.2566C55.0429 53.8652 55.5896 52.4737 56.1362 51.0326C56.335 50.5853 56.4344 50.0884 56.5834 49.5915C56.7822 48.846 57.2295 48.5479 58.0246 48.5976C58.7203 48.6473 59.1178 48.9454 59.3166 49.6908C59.7142 51.2811 60.1614 52.8713 60.559 54.4615C60.6087 54.6603 60.6087 54.859 60.7578 55.0081C61.1056 55.356 61.5032 55.7038 61.9007 56.0517C62.0995 55.6045 62.3977 55.1572 62.4474 54.6603C62.5467 53.6167 62.497 52.5731 62.4474 51.5295C62.3977 50.7344 62.2486 49.9393 62.0995 48.9454C62.994 48.9454 64.0873 48.9454 65.1308 48.9454C65.0315 49.7405 64.8824 50.4363 64.783 51.1817C64.7333 51.8277 65.1308 52.0265 65.7272 52.0265C66.3235 52.0265 66.7211 51.8774 66.6217 51.1817C66.5223 50.486 66.4229 49.7902 66.2738 48.9454C67.218 48.9454 68.3113 48.9454 69.1064 48.9454C69.1064 50.9829 69.0567 53.0204 69.0567 55.0081C69.0567 55.1572 69.0567 55.3063 69.0567 55.4554C69.3052 56.7971 69.3052 56.7971 67.9634 56.7971C67.3671 56.7971 66.7211 56.7474 66.3235 56.6977C66.4726 55.4554 66.572 54.4118 66.7211 53.4179C64.8327 53.07 64.1867 53.7658 64.9321 55.5051C65.429 56.648 65.0315 56.7971 64.0376 56.7971C62.4474 56.7474 60.9068 56.7971 59.3166 56.7971C58.9191 56.7971 58.5215 56.6977 58.4221 56.648C58.3724 55.9026 58.5215 55.0081 58.3227 54.9087C57.7761 54.71 57.0804 54.7597 56.4841 54.9087C56.335 54.9584 56.4841 55.8529 56.4841 56.5486C54.546 56.5486 52.4588 56.5486 50.322 56.5486C51.2165 54.3621 50.7195 52.1756 50.8189 49.989C50.6698 49.989 50.4711 49.9393 50.322 49.9393C50.0735 51.132 49.825 52.3743 49.5269 53.567C49.3778 54.213 49.179 54.9087 48.8808 55.5051C48.4336 56.4989 47.39 56.9462 46.2967 56.7971C45.4022 56.6977 44.4581 56.7474 43.5636 56.6977C43.1163 56.8965 42.7188 56.8965 42.5697 56.8468Z" fill="#FFCC08"/>
<path d="M87.1951 56.8968C87.046 56.1017 87.1454 55.2569 86.7479 54.9587C86.4 54.6605 85.5552 54.8096 85.0583 55.1078C84.8595 55.2072 85.0086 56.052 85.0086 56.7477C82.9214 56.7477 80.6852 56.7477 78.3992 56.7477C79.5422 54.4617 78.7471 52.3249 78.9956 50.188C78.8465 50.1384 78.6974 50.0887 78.5483 50.0887C78.3495 50.3868 78.2005 50.7844 77.9023 51.0328C77.7035 51.2316 77.3556 51.4304 77.0575 51.4304C76.809 51.3807 76.5109 51.0825 76.4115 50.8341C76.0139 49.3929 76.3618 48.9457 77.8526 48.9457C79.4925 48.9457 81.1324 48.896 82.822 48.9954C83.1699 48.9954 83.7662 49.2935 83.7662 49.542C83.8159 50.1383 83.6668 50.7844 83.5674 51.4304C83.1699 51.331 82.6729 51.2813 82.3251 51.0328C82.0766 50.8838 81.9275 50.4862 81.7287 50.188C81.6294 50.2377 81.4803 50.2377 81.3809 50.2874C81.3809 52.1261 81.3312 53.9648 81.4306 55.8035C81.4803 56.3998 82.1263 56.5986 82.5238 56.052C82.9711 55.5053 83.319 54.8593 83.5674 54.2133C84.1638 52.7721 84.6607 51.2813 85.1576 49.7905C85.4061 49.0451 85.8534 48.896 86.5491 48.896C87.2448 48.896 87.5927 49.1942 87.7417 49.8402C88.1393 51.331 88.5368 52.8218 88.9841 54.263C89.1829 54.9587 89.6301 55.555 89.9283 56.2507C90.0277 56.4495 89.7792 56.9961 89.6798 56.9961C88.8847 56.9465 87.9405 56.8968 87.1951 56.8968Z" fill="#FFCC08"/>
<path d="M47.9366 64.301C48.1851 64.0526 48.4336 63.8538 48.6324 63.6053C49.3778 62.2636 50.6698 61.5679 52.3097 61.8163C53.9496 62.0151 55.1423 62.9096 55.3908 64.4501C55.6889 66.1894 55.9871 68.0778 54.1484 69.3699C52.8067 70.3141 51.3159 70.5128 49.9244 69.7674C48.6821 69.1214 47.9366 68.0281 48.036 66.4876C47.9863 65.7422 47.9863 64.9968 47.9366 64.301ZM50.322 65.9907C50.3717 65.9907 50.4214 65.9907 50.471 65.9907C50.471 66.4876 50.322 67.0342 50.5207 67.4815C50.7692 68.0281 51.2165 68.7735 51.7134 68.9226C52.5582 69.1711 52.9558 68.2766 52.9558 67.6306C53.0055 66.3385 52.8564 65.0465 52.6576 63.8041C52.6079 63.5059 52.0116 63.0587 51.7134 63.0587C51.3655 63.0587 50.8189 63.4562 50.7195 63.8041C50.471 64.4501 50.471 65.2452 50.322 65.9907Z" fill="#FFCC08"/>
<path d="M70.299 48.8957C72.088 48.8957 73.877 48.846 75.666 48.9454C75.9145 48.9454 76.2623 49.5417 76.2623 49.8399C76.2623 50.2872 75.9642 50.7344 75.8151 51.1817C75.5169 50.9829 75.2188 50.7344 74.8709 50.5853C74.4237 50.3866 73.9267 50.1878 73.4795 50.1381C73.3304 50.1381 73.1316 50.7841 73.0819 51.132C73.0322 51.4301 73.1316 51.7283 73.1316 52.0265C73.2807 52.0762 73.4298 52.1258 73.5292 52.0762C74.0758 51.9768 74.5727 51.8277 75.1194 51.7283C75.1194 52.5731 75.1194 53.3682 75.1194 54.4118C74.2746 53.9148 73.8273 53.6664 73.1316 53.2688C73.0819 53.9148 72.9825 54.3124 73.0322 54.7099C73.0819 55.0578 73.2807 55.7038 73.4298 55.7038C73.9267 55.7038 74.374 55.4554 74.8212 55.3063C75.2188 55.1572 75.5666 54.9087 75.9145 54.7596C76.0139 55.1075 76.2623 55.5547 76.2126 55.8529C76.1133 56.2505 75.8151 56.8965 75.5169 56.9462C73.9267 57.0456 72.2868 56.9959 70.6966 56.9462C70.5475 56.9462 70.2493 56.4492 70.299 56.2505C70.796 53.8651 70.5972 51.5295 70.299 48.8957Z" fill="#FFCC08"/>
<path d="M56.335 62.1643C57.9252 62.1643 59.6645 62.0649 61.4038 62.214C62.348 62.3134 62.6958 63.2079 62.7455 64.1024C62.7455 65.0962 62.4474 65.9907 61.4535 66.4877C61.1553 66.6368 60.8075 66.6865 60.4596 66.7858C58.8197 67.084 58.4718 67.9288 59.4657 69.37C59.5154 69.4693 59.5651 69.5687 59.6645 69.8669C58.4221 69.8669 57.2792 69.8669 56.2356 69.8669C56.7822 67.2331 56.5835 64.7484 56.335 62.1643ZM58.9688 65.5932C60.2608 65.3447 60.7081 64.2514 60.062 63.506C59.913 63.3073 59.5651 63.2079 59.2669 63.2079C59.1676 63.2079 58.9688 63.6054 58.9191 63.8042C58.9191 64.3508 58.9688 64.9472 58.9688 65.5932Z" fill="#FFCC08"/>
<path d="M47.9864 64.3012C47.241 64.8478 46.7937 64.649 46.3962 63.8042C46.2471 63.5061 45.7502 63.2576 45.4023 63.2079C45.2532 63.2079 44.8557 63.7545 44.8557 64.1024C44.7563 65.0963 44.7563 66.0902 44.8557 67.0841C44.9053 67.9289 45.1538 68.7737 45.4023 69.9166C44.5575 70.2148 43.4642 70.1651 42.4703 69.9166C42.4703 67.2331 42.4703 64.7484 42.4703 62.0649C44.0606 62.0649 45.7998 62.0649 47.5391 62.1146C47.6882 62.1146 47.9367 62.5122 47.9864 62.7607C47.9864 63.2576 47.9367 63.8042 47.9864 64.3012C47.9367 64.3012 47.9864 64.3012 47.9864 64.3012Z" fill="#FFCC08"/>
<path d="M41.0292 62.1147C41.0292 64.6491 41.0292 67.1836 41.0292 69.8173C40.1347 69.8173 39.0414 69.8173 38.1966 69.8173C38.296 68.4756 38.4451 67.2332 38.4451 65.9909C38.4451 64.7485 38.3457 63.5062 38.2463 62.1147C38.9917 62.1147 40.085 62.1147 41.0292 62.1147Z" fill="#FFCC08"/>
<path d="M79.2939 73.4446C79.2939 74.6372 78.4988 75.5814 77.5546 75.5814C76.6601 75.5814 76.362 74.9851 76.362 74.2397C76.3123 73.1464 77.4056 71.7053 78.2007 71.8047C78.9958 71.9538 79.3436 72.6495 79.2939 73.4446Z" fill="#FFCC08"/>
<path d="M70.4481 74.5382C71.8893 74.4885 73.0322 75.6315 72.8832 76.7247C72.8335 77.172 72.2868 77.8677 71.8396 77.9174C70.7463 78.1659 69.504 76.8738 69.653 75.6812C69.7524 75.1842 70.2991 74.7867 70.4481 74.5382Z" fill="#FFCC08"/>
<path d="M85.0085 68.8731C84.9588 70.1651 84.2134 71.1093 83.2692 71.0596C82.2257 71.0099 82.1263 70.1651 82.1263 69.4197C82.1263 68.2767 82.9214 67.3326 83.8656 67.3822C84.8098 67.4319 85.0582 68.0283 85.0085 68.8731Z" fill="#FFCC08"/>
<path d="M82.7723 75.0846C82.5735 75.4821 82.2753 76.1778 81.7784 76.7245C81.5796 76.9729 80.7845 77.0226 80.5857 76.8239C80.1882 76.3766 79.6912 75.6312 79.8403 75.2337C80.1385 74.4882 80.7348 73.7428 81.3808 73.1962C81.8281 72.7986 82.7723 73.8422 82.7723 75.0846Z" fill="#FFCC08"/>
<path d="M79.7906 82.4892C79.244 82.4892 78.3495 82.688 78.2004 82.4892C77.9023 81.9923 78.0017 81.2469 77.952 80.6008C77.952 80.4518 78.101 80.253 78.2004 80.1039C78.4986 79.4579 78.8962 78.9609 79.6913 79.2591C80.4864 79.5573 80.7845 80.253 80.5858 80.9984C80.4864 81.545 80.0391 82.042 79.7906 82.4892C79.741 82.5389 79.7906 82.4892 79.7906 82.4892Z" fill="#FFCC08"/>
<path d="M74.1255 65.3944C73.4298 65.4441 72.7341 65.295 72.7341 64.2514C72.7341 63.3569 73.3801 62.9097 74.6225 62.9097C75.4176 62.9097 76.163 63.1581 76.0636 64.1023C75.9642 65.1956 75.1194 65.4441 74.1255 65.3944Z" fill="#FFCC08"/>
<path d="M74.0261 69.8669C73.8273 69.6681 73.1813 69.3203 73.0322 68.8233C72.7838 68.1276 73.877 67.3325 74.9206 67.4816C75.4672 67.581 76.1133 68.0779 76.312 68.5749C76.5605 69.1215 75.4672 69.8669 74.0261 69.8669Z" fill="#FFCC08"/>
<path d="M50.322 65.9904C50.4213 65.245 50.471 64.4499 50.7195 63.7542C50.8189 63.4063 51.3655 63.0088 51.7134 63.0088C52.0613 63.0088 52.6079 63.456 52.6576 63.7542C52.8564 65.0463 53.0054 66.3383 52.9558 67.5807C52.9558 68.2267 52.5582 69.1212 51.7134 68.8727C51.2165 68.7236 50.7692 68.0279 50.5207 67.4316C50.322 67.034 50.471 66.4377 50.471 65.9407C50.4214 65.9904 50.3717 65.9904 50.322 65.9904Z" fill="black"/>
<path d="M58.9688 65.5933C58.9688 64.9473 58.9191 64.4007 58.9688 63.8043C58.9688 63.5559 59.1676 63.208 59.3167 63.208C59.5651 63.208 59.913 63.3074 60.1118 63.5062C60.7081 64.2516 60.2609 65.3449 58.9688 65.5933Z" fill="black"/>
</svg>
